<?xml version="1.0" encoding="UTF-8" standalone="no"?>
<!DOCTYPE svg PUBLIC "-//W3C//DTD SVG 1.1//EN"
 "http://www.w3.org/Graphics/SVG/1.1/DTD/svg11.dtd">
<!-- Generated by graphviz version 14.1.3 (20260303.0454)
 -->
<!-- Title: g Pages: 1 -->
<svg width="1099pt" height="493pt"
 viewBox="0.00 0.00 1099.00 493.00" xmlns="http://www.w3.org/2000/svg" xmlns:xlink="http://www.w3.org/1999/xlink">
<g id="graph0" class="graph" transform="scale(1 1) rotate(0) translate(4 489.38)">
<title>g</title>
<polygon fill="white" stroke="none" points="-4,4 -4,-489.38 1094.5,-489.38 1094.5,4 -4,4"/>
<!-- FW1 -->
<g id="node1" class="node">
<title>FW1</title>
<polygon fill="none" stroke="black" points="756.38,-263.5 695.38,-263.5 695.38,-202.5 756.38,-202.5 756.38,-263.5"/>
<text xml:space="preserve" text-anchor="middle" x="725.88" y="-236.2" font-family="Times New Roman,serif" font-size="14.00">Site1</text>
<text xml:space="preserve" text-anchor="middle" x="725.88" y="-219.7" font-family="Times New Roman,serif" font-size="14.00">Firewall</text>
</g>
<!-- ISP -->
<g id="node6" class="node">
<title>ISP</title>
<polygon fill="none" stroke="black" points="490.88,-129.5 454.88,-129.5 454.88,-93.5 490.88,-93.5 490.88,-129.5"/>
<text xml:space="preserve" text-anchor="middle" x="472.88" y="-106.45" font-family="Times New Roman,serif" font-size="14.00">ISP</text>
</g>
<!-- FW1&#45;&gt;ISP -->
<g id="edge13" class="edge">
<title>FW1&#45;&gt;ISP</title>
<path fill="none" stroke="orange" d="M684.87,-212.63C633.36,-188.3 546.29,-147.18 501.45,-126"/>
<polygon fill="orange" stroke="orange" points="683.2,-215.71 693.74,-216.82 686.19,-209.38 683.2,-215.71"/>
<polygon fill="orange" stroke="orange" points="503.17,-122.94 492.63,-121.83 500.18,-129.27 503.17,-122.94"/>
<text xml:space="preserve" text-anchor="middle" x="513.39" y="-140.89" font-family="Times New Roman,serif" font-size="14.00">Subnet8</text>
<text xml:space="preserve" text-anchor="middle" x="513.39" y="-124.39" font-family="Times New Roman,serif" font-size="14.00">Subnet9</text>
<text xml:space="preserve" text-anchor="middle" x="669.61" y="-220.67" font-family="Times New Roman,serif" font-size="14.00">Subnet12</text>
</g>
<!-- Site1_10G -->
<g id="node9" class="node">
<title>Site1_10G</title>
<polygon fill="none" stroke="black" points="742.62,-57.5 685.12,-57.5 685.12,0 742.62,0 742.62,-57.5"/>
<text xml:space="preserve" text-anchor="middle" x="713.88" y="-40.2" font-family="Times New Roman,serif" font-size="14.00">Site1</text>
<text xml:space="preserve" text-anchor="middle" x="713.88" y="-23.7" font-family="Times New Roman,serif" font-size="14.00">IPSec</text>
<text xml:space="preserve" text-anchor="middle" x="713.88" y="-7.2" font-family="Times New Roman,serif" font-size="14.00">Tunnel</text>
</g>
<!-- FW1&#45;&gt;Site1_10G -->
<g id="edge12" class="edge">
<title>FW1&#45;&gt;Site1_10G</title>
<path fill="none" stroke="purple" d="M723.43,-190.77C721.31,-155.14 718.28,-104 716.2,-68.98"/>
<polygon fill="purple" stroke="purple" points="719.93,-190.87 724.01,-200.65 726.92,-190.46 719.93,-190.87"/>
<polygon fill="purple" stroke="purple" points="719.71,-69.05 715.63,-59.27 712.73,-69.46 719.71,-69.05"/>
<text xml:space="preserve" text-anchor="middle" x="693.41" y="-110.46" font-family="Times New Roman,serif" font-size="14.00">Subnet1</text>
<text xml:space="preserve" text-anchor="middle" x="693.41" y="-93.96" font-family="Times New Roman,serif" font-size="14.00">Subnet2</text>
<text xml:space="preserve" text-anchor="middle" x="693.41" y="-77.46" font-family="Times New Roman,serif" font-size="14.00">Subnet3</text>
<text xml:space="preserve" text-anchor="middle" x="693.41" y="-60.96" font-family="Times New Roman,serif" font-size="14.00">Subnet4</text>
<text xml:space="preserve" text-anchor="middle" x="698.6" y="-188.86" font-family="Times New Roman,serif" font-size="14.00">Subnet10</text>
<text xml:space="preserve" text-anchor="middle" x="698.6" y="-172.36" font-family="Times New Roman,serif" font-size="14.00">Subnet11</text>
<text xml:space="preserve" text-anchor="middle" x="698.6" y="-155.86" font-family="Times New Roman,serif" font-size="14.00">Subnet13</text>
<text xml:space="preserve" text-anchor="middle" x="698.6" y="-139.36" font-family="Times New Roman,serif" font-size="14.00">Subnet14</text>
</g>
<!-- FW2 -->
<g id="node2" class="node">
<title>FW2</title>
<polygon fill="none" stroke="black" points="250.38,-263.5 189.38,-263.5 189.38,-202.5 250.38,-202.5 250.38,-263.5"/>
<text xml:space="preserve" text-anchor="middle" x="219.88" y="-236.2" font-family="Times New Roman,serif" font-size="14.00">Site2</text>
<text xml:space="preserve" text-anchor="middle" x="219.88" y="-219.7" font-family="Times New Roman,serif" font-size="14.00">Firewall</text>
</g>
<!-- FW2&#45;&gt;ISP -->
<g id="edge7" class="edge">
<title>FW2&#45;&gt;ISP</title>
<path fill="none" stroke="orange" d="M260.88,-212.63C312.39,-188.3 399.46,-147.18 444.3,-126"/>
<polygon fill="orange" stroke="orange" points="259.56,-209.38 252.01,-216.82 262.55,-215.71 259.56,-209.38"/>
<polygon fill="orange" stroke="orange" points="445.57,-129.27 453.12,-121.83 442.58,-122.94 445.57,-129.27"/>
<text xml:space="preserve" text-anchor="middle" x="432.36" y="-140.89" font-family="Times New Roman,serif" font-size="14.00">Subnet8</text>
<text xml:space="preserve" text-anchor="middle" x="432.36" y="-124.39" font-family="Times New Roman,serif" font-size="14.00">Subnet9</text>
<text xml:space="preserve" text-anchor="middle" x="272.77" y="-220.67" font-family="Times New Roman,serif" font-size="14.00">Subnet7</text>
</g>
<!-- Site2_10G -->
<g id="node8" class="node">
<title>Site2_10G</title>
<polygon fill="none" stroke="black" points="320.62,-57.5 263.12,-57.5 263.12,0 320.62,0 320.62,-57.5"/>
<text xml:space="preserve" text-anchor="middle" x="291.88" y="-40.2" font-family="Times New Roman,serif" font-size="14.00">Site2</text>
<text xml:space="preserve" text-anchor="middle" x="291.88" y="-23.7" font-family="Times New Roman,serif" font-size="14.00">IPSec</text>
<text xml:space="preserve" text-anchor="middle" x="291.88" y="-7.2" font-family="Times New Roman,serif" font-size="14.00">Tunnel</text>
</g>
<!-- FW2&#45;&gt;Site2_10G -->
<g id="edge6" class="edge">
<title>FW2&#45;&gt;Site2_10G</title>
<path fill="none" stroke="purple" d="M234.28,-191.53C247.02,-155.74 265.48,-103.88 278.05,-68.59"/>
<polygon fill="purple" stroke="purple" points="231.06,-190.14 231.01,-200.73 237.66,-192.48 231.06,-190.14"/>
<polygon fill="purple" stroke="purple" points="281.34,-69.78 281.4,-59.18 274.75,-67.43 281.34,-69.78"/>
<text xml:space="preserve" text-anchor="middle" x="256.4" y="-110.46" font-family="Times New Roman,serif" font-size="14.00">Subnet10</text>
<text xml:space="preserve" text-anchor="middle" x="256.4" y="-93.96" font-family="Times New Roman,serif" font-size="14.00">Subnet11</text>
<text xml:space="preserve" text-anchor="middle" x="256.4" y="-77.46" font-family="Times New Roman,serif" font-size="14.00">Subnet13</text>
<text xml:space="preserve" text-anchor="middle" x="256.4" y="-60.96" font-family="Times New Roman,serif" font-size="14.00">Subnet14</text>
<text xml:space="preserve" text-anchor="middle" x="208.37" y="-188.86" font-family="Times New Roman,serif" font-size="14.00">Subnet1</text>
<text xml:space="preserve" text-anchor="middle" x="208.37" y="-172.36" font-family="Times New Roman,serif" font-size="14.00">Subnet2</text>
<text xml:space="preserve" text-anchor="middle" x="208.37" y="-155.86" font-family="Times New Roman,serif" font-size="14.00">Subnet3</text>
<text xml:space="preserve" text-anchor="middle" x="208.37" y="-139.36" font-family="Times New Roman,serif" font-size="14.00">Subnet4</text>
</g>
<!-- System3 -->
<g id="node3" class="node">
<title>System3</title>
<polygon fill="none" stroke="black" points="251.5,-401.12 188.25,-401.12 188.25,-337.88 251.5,-337.88 251.5,-401.12"/>
<text xml:space="preserve" text-anchor="middle" x="219.88" y="-364.45" font-family="Times New Roman,serif" font-size="14.00">System3</text>
</g>
<!-- System3&#45;&gt;FW2 -->
<g id="edge4" class="edge">
<title>System3&#45;&gt;FW2</title>
<path fill="none" stroke="red" d="M180.23,-348.66C160.8,-322.81 161.09,-277.96 181.12,-252.7"/>
<polygon fill="red" stroke="red" points="177.38,-350.72 186.74,-355.69 182.52,-345.97 177.38,-350.72"/>
<polygon fill="red" stroke="red" points="183.46,-255.31 187.96,-245.72 178.46,-250.41 183.46,-255.31"/>
</g>
<!-- System3&#45;&gt;FW2 -->
<g id="edge5" class="edge">
<title>System3&#45;&gt;FW2</title>
<path fill="none" stroke="green" d="M259.52,-348.66C278.95,-322.81 278.66,-277.96 258.63,-252.7"/>
<polygon fill="green" stroke="green" points="257.23,-345.97 253.01,-355.69 262.37,-350.72 257.23,-345.97"/>
<polygon fill="green" stroke="green" points="261.29,-250.41 251.79,-245.72 256.29,-255.31 261.29,-250.41"/>
</g>
<!-- System3&#45;&gt;System3 -->
<g id="edge1" class="edge">
<title>System3:w&#45;&gt;System3:w</title>
<path fill="none" stroke="red" d="M177.23,-372.91C127.22,-386.79 44.25,-385.65 44.25,-369.5 44.25,-353.35 127.22,-352.21 177.23,-366.09"/>
<polygon fill="red" stroke="red" points="178.04,-376.32 186.51,-369.96 175.92,-369.65 178.04,-376.32"/>
<polygon fill="red" stroke="red" points="175.92,-369.35 186.51,-369.04 178.04,-362.68 175.92,-369.35"/>
<text xml:space="preserve" text-anchor="middle" x="22.12" y="-389.2" font-family="Times New Roman,serif" font-size="14.00">data</text>
<text xml:space="preserve" text-anchor="middle" x="22.12" y="-372.7" font-family="Times New Roman,serif" font-size="14.00">Subnet1</text>
<text xml:space="preserve" text-anchor="middle" x="22.12" y="-356.2" font-family="Times New Roman,serif" font-size="14.00">Subnet2</text>
<text xml:space="preserve" text-anchor="middle" x="22.12" y="-339.7" font-family="Times New Roman,serif" font-size="14.00">Subnet3</text>
</g>
<!-- System3&#45;&gt;System3 -->
<g id="edge2" class="edge">
<title>System3:e&#45;&gt;System3:e</title>
<path fill="none" stroke="green" d="M262.52,-372.91C312.53,-386.79 395.5,-385.65 395.5,-369.5 395.5,-353.35 312.53,-352.21 262.52,-366.09"/>
<polygon fill="green" stroke="green" points="263.83,-369.65 253.24,-369.96 261.71,-376.32 263.83,-369.65"/>
<polygon fill="green" stroke="green" points="261.71,-362.68 253.24,-369.04 263.83,-369.35 261.71,-362.68"/>
<text xml:space="preserve" text-anchor="middle" x="273.92" y="-389.2" font-family="Times New Roman,serif" font-size="14.00">mgmt</text>
<text xml:space="preserve" text-anchor="middle" x="273.92" y="-372.7" font-family="Times New Roman,serif" font-size="14.00">Subnet4</text>
</g>
<!-- System3&#45;&gt;System3 -->
<g id="edge3" class="edge">
<title>System3:n&#45;&gt;System3:n</title>
<path fill="none" stroke="blue" d="M231.04,-403.37C291.66,-415.17 287.94,-435.88 219.88,-435.88 151.81,-435.88 148.09,-415.17 208.71,-403.37"/>
<polygon fill="blue" stroke="blue" points="231.82,-399.96 221.37,-401.68 230.61,-406.85 231.82,-399.96"/>
<polygon fill="blue" stroke="blue" points="209.14,-406.85 218.38,-401.68 207.93,-399.96 209.14,-406.85"/>
<text xml:space="preserve" text-anchor="middle" x="219.88" y="-472.07" font-family="Times New Roman,serif" font-size="14.00">OPA</text>
<text xml:space="preserve" text-anchor="middle" x="219.88" y="-455.57" font-family="Times New Roman,serif" font-size="14.00">Subnet5</text>
<text xml:space="preserve" text-anchor="middle" x="219.88" y="-439.07" font-family="Times New Roman,serif" font-size="14.00">Subnet6</text>
</g>
<!-- System1 -->
<g id="node4" class="node">
<title>System1</title>
<polygon fill="none" stroke="black" points="651.5,-401.12 588.25,-401.12 588.25,-337.88 651.5,-337.88 651.5,-401.12"/>
<text xml:space="preserve" text-anchor="middle" x="619.88" y="-364.45" font-family="Times New Roman,serif" font-size="14.00">System1</text>
</g>
<!-- System1&#45;&gt;FW1 -->
<g id="edge10" class="edge">
<title>System1&#45;&gt;FW1</title>
<path fill="none" stroke="red" d="M602.22,-327.09C615.96,-298.87 649.95,-263.49 684.81,-245.56"/>
<polygon fill="red" stroke="red" points="599.03,-325.66 598.51,-336.24 605.51,-328.29 599.03,-325.66"/>
<polygon fill="red" stroke="red" points="686.16,-248.8 693.77,-241.42 683.22,-242.44 686.16,-248.8"/>
</g>
<!-- System1&#45;&gt;FW1 -->
<g id="edge11" class="edge">
<title>System1&#45;&gt;FW1</title>
<path fill="none" stroke="green" d="M661.98,-356.4C696.92,-338.07 730.79,-302.45 744.04,-274.34"/>
<polygon fill="green" stroke="green" points="660.59,-353.18 653.05,-360.62 663.58,-359.51 660.59,-353.18"/>
<polygon fill="green" stroke="green" points="747.16,-275.98 747.52,-265.4 740.63,-273.45 747.16,-275.98"/>
</g>
<!-- System1&#45;&gt;System1 -->
<g id="edge8" class="edge">
<title>System1:w&#45;&gt;System1:w</title>
<path fill="none" stroke="red" d="M577.23,-372.91C527.22,-386.79 444.25,-385.65 444.25,-369.5 444.25,-353.35 527.22,-352.21 577.23,-366.09"/>
<polygon fill="red" stroke="red" points="578.04,-376.32 586.51,-369.96 575.92,-369.65 578.04,-376.32"/>
<polygon fill="red" stroke="red" points="575.92,-369.35 586.51,-369.04 578.04,-362.68 575.92,-369.35"/>
<text xml:space="preserve" text-anchor="middle" x="562.45" y="-389.2" font-family="Times New Roman,serif" font-size="14.00">data</text>
<text xml:space="preserve" text-anchor="middle" x="562.45" y="-372.7" font-family="Times New Roman,serif" font-size="14.00">Subnet10</text>
</g>
<!-- System1&#45;&gt;System1 -->
<g id="edge9" class="edge">
<title>System1:e&#45;&gt;System1:e</title>
<path fill="none" stroke="green" d="M662.52,-372.91C712.53,-386.79 795.5,-385.65 795.5,-369.5 795.5,-353.35 712.53,-352.21 662.52,-366.09"/>
<polygon fill="green" stroke="green" points="663.83,-369.65 653.24,-369.96 661.71,-376.32 663.83,-369.65"/>
<polygon fill="green" stroke="green" points="661.71,-362.68 653.24,-369.04 663.83,-369.35 661.71,-362.68"/>
<text xml:space="preserve" text-anchor="middle" x="677.3" y="-389.2" font-family="Times New Roman,serif" font-size="14.00">mgmt</text>
<text xml:space="preserve" text-anchor="middle" x="677.3" y="-372.7" font-family="Times New Roman,serif" font-size="14.00">Subnet11</text>
</g>
<!-- System2 -->
<g id="node5" class="node">
<title>System2</title>
<polygon fill="none" stroke="black" points="946.5,-401.12 883.25,-401.12 883.25,-337.88 946.5,-337.88 946.5,-401.12"/>
<text xml:space="preserve" text-anchor="middle" x="914.88" y="-364.45" font-family="Times New Roman,serif" font-size="14.00">System2</text>
</g>
<!-- System2&#45;&gt;FW1 -->
<g id="edge17" class="edge">
<title>System2&#45;&gt;FW1</title>
<path fill="none" stroke="red" d="M872.06,-358.97C823.27,-341.1 761.29,-301.67 729.93,-271.84"/>
<polygon fill="red" stroke="red" points="870.82,-362.25 881.42,-362.15 873.07,-355.62 870.82,-362.25"/>
<polygon fill="red" stroke="red" points="732.5,-269.46 722.99,-264.79 727.51,-274.37 732.5,-269.46"/>
</g>
<!-- System2&#45;&gt;FW1 -->
<g id="edge18" class="edge">
<title>System2&#45;&gt;FW1</title>
<path fill="none" stroke="green" d="M909.8,-329.69C877.82,-299.7 815.76,-260.45 767.28,-243.01"/>
<polygon fill="green" stroke="green" points="907.14,-331.99 916.69,-336.57 912.09,-327.03 907.14,-331.99"/>
<polygon fill="green" stroke="green" points="768.57,-239.75 757.97,-239.92 766.36,-246.4 768.57,-239.75"/>
</g>
<!-- System2&#45;&gt;System2 -->
<g id="edge14" class="edge">
<title>System2:w&#45;&gt;System2:w</title>
<path fill="none" stroke="red" d="M872.23,-372.91C822.22,-386.79 739.25,-385.65 739.25,-369.5 739.25,-353.35 822.22,-352.21 872.23,-366.09"/>
<polygon fill="red" stroke="red" points="873.04,-376.32 881.51,-369.96 870.92,-369.65 873.04,-376.32"/>
<polygon fill="red" stroke="red" points="870.92,-369.35 881.51,-369.04 873.04,-362.68 870.92,-369.35"/>
<text xml:space="preserve" text-anchor="middle" x="857.45" y="-389.2" font-family="Times New Roman,serif" font-size="14.00">data</text>
<text xml:space="preserve" text-anchor="middle" x="857.45" y="-372.7" font-family="Times New Roman,serif" font-size="14.00">Subnet13</text>
</g>
<!-- System2&#45;&gt;System2 -->
<g id="edge15" class="edge">
<title>System2:e&#45;&gt;System2:e</title>
<path fill="none" stroke="green" d="M957.52,-372.91C1007.53,-386.79 1090.5,-385.65 1090.5,-369.5 1090.5,-353.35 1007.53,-352.21 957.52,-366.09"/>
<polygon fill="green" stroke="green" points="958.83,-369.65 948.24,-369.96 956.71,-376.32 958.83,-369.65"/>
<polygon fill="green" stroke="green" points="956.71,-362.68 948.24,-369.04 958.83,-369.35 956.71,-362.68"/>
<text xml:space="preserve" text-anchor="middle" x="972.3" y="-389.2" font-family="Times New Roman,serif" font-size="14.00">mgmt</text>
<text xml:space="preserve" text-anchor="middle" x="972.3" y="-372.7" font-family="Times New Roman,serif" font-size="14.00">Subnet14</text>
</g>
<!-- System2&#45;&gt;System2 -->
<g id="edge16" class="edge">
<title>System2:n&#45;&gt;System2:n</title>
<path fill="none" stroke="blue" d="M926.04,-403.37C986.66,-415.17 982.94,-435.88 914.88,-435.88 846.81,-435.88 843.09,-415.17 903.71,-403.37"/>
<polygon fill="blue" stroke="blue" points="926.82,-399.96 916.37,-401.68 925.61,-406.85 926.82,-399.96"/>
<polygon fill="blue" stroke="blue" points="904.14,-406.85 913.38,-401.68 902.93,-399.96 904.14,-406.85"/>
<text xml:space="preserve" text-anchor="middle" x="914.88" y="-472.07" font-family="Times New Roman,serif" font-size="14.00">IB</text>
<text xml:space="preserve" text-anchor="middle" x="914.88" y="-455.57" font-family="Times New Roman,serif" font-size="14.00">Subnet15</text>
<text xml:space="preserve" text-anchor="middle" x="914.88" y="-439.07" font-family="Times New Roman,serif" font-size="14.00">Subnet15</text>
</g>
<!-- Sites -->
<g id="node7" class="node">
<title>Sites</title>
<polygon fill="none" stroke="black" points="502.25,-262.38 443.5,-262.38 443.5,-203.62 502.25,-203.62 502.25,-262.38"/>
<text xml:space="preserve" text-anchor="middle" x="472.88" y="-236.2" font-family="Times New Roman,serif" font-size="14.00">Remote</text>
<text xml:space="preserve" text-anchor="middle" x="472.88" y="-219.7" font-family="Times New Roman,serif" font-size="14.00">Users</text>
</g>
<!-- Sites&#45;&gt;ISP -->
<g id="edge19" class="edge">
<title>Sites&#45;&gt;ISP</title>
<path fill="none" stroke="orange" d="M472.88,-192.09C472.88,-175.4 472.88,-156.38 472.88,-141.11"/>
<polygon fill="orange" stroke="orange" points="469.38,-191.86 472.88,-201.86 476.38,-191.86 469.38,-191.86"/>
<polygon fill="orange" stroke="orange" points="476.38,-141.31 472.88,-131.31 469.38,-141.31 476.38,-141.31"/>
<text xml:space="preserve" text-anchor="middle" x="450.75" y="-185.56" font-family="Times New Roman,serif" font-size="14.00">Subnet8</text>
<text xml:space="preserve" text-anchor="middle" x="450.75" y="-169.06" font-family="Times New Roman,serif" font-size="14.00">Subnet9</text>
</g>
<!-- Site2_10G&#45;&gt;Site1_10G -->
<g id="edge20" class="edge">
<title>Site2_10G&#45;&gt;Site1_10G</title>
<path fill="none" stroke="purple" d="M332.31,-28.75C412.95,-28.75 592.95,-28.75 673.52,-28.75"/>
<polygon fill="purple" stroke="purple" points="332.39,-25.25 322.39,-28.75 332.39,-32.25 332.39,-25.25"/>
<polygon fill="purple" stroke="purple" points="673.15,-32.25 683.15,-28.75 673.15,-25.25 673.15,-32.25"/>
<text xml:space="preserve" text-anchor="middle" x="502.88" y="-34.95" font-family="Times New Roman,serif" font-size="14.00">over 1G or 10G program line</text>
<text xml:space="preserve" text-anchor="middle" x="652.79" y="-31.95" font-family="Times New Roman,serif" font-size="14.00">TunnelIP&#45;B</text>
<text xml:space="preserve" text-anchor="middle" x="353.13" y="-31.95" font-family="Times New Roman,serif" font-size="14.00">TunnelIP&#45;A</text>
</g>
</g>
</svg>
