<?xml version="1.0" encoding="UTF-8" standalone="no"?>
<!DOCTYPE svg PUBLIC "-//W3C//DTD SVG 1.1//EN"
 "http://www.w3.org/Graphics/SVG/1.1/DTD/svg11.dtd">
<!-- Generated by graphviz version 14.1.3 (20260303.0454)
 -->
<!-- Title: g Pages: 1 -->
<svg width="216pt" height="283pt"
 viewBox="0.00 0.00 216.00 283.00" xmlns="http://www.w3.org/2000/svg" xmlns:xlink="http://www.w3.org/1999/xlink">
<g id="graph0" class="graph" transform="scale(1 1) rotate(0) translate(4 278.5)">
<title>g</title>
<polygon fill="white" stroke="none" points="-4,4 -4,-278.5 212.25,-278.5 212.25,4 -4,4"/>
<!-- Key1 -->
<g id="node1" class="node">
<title>Key1</title>
<polygon fill="none" stroke="black" points="118.25,-274.5 0,-274.5 0,0 118.25,0 118.25,-274.5"/>
<text xml:space="preserve" text-anchor="start" x="23.5" y="-255.75" font-family="Times New Roman,serif" font-size="14.00">Admin: 1G Eth</text>
<text xml:space="preserve" text-anchor="start" x="16.75" y="-235.25" font-family="Times New Roman,serif" font-size="14.00">Admin: 10G Eth</text>
<text xml:space="preserve" text-anchor="start" x="10" y="-214.75" font-family="Times New Roman,serif" font-size="14.00">Admin: 100G Eth</text>
<text xml:space="preserve" text-anchor="start" x="61.75" y="-194.25" font-family="Times New Roman,serif" font-size="14.00">OPA100</text>
<text xml:space="preserve" text-anchor="start" x="62.5" y="-173.75" font-family="Times New Roman,serif" font-size="14.00">CN5000</text>
<text xml:space="preserve" text-anchor="start" x="74.5" y="-153.25" font-family="Times New Roman,serif" font-size="14.00">IB100</text>
<text xml:space="preserve" text-anchor="start" x="74.5" y="-132.75" font-family="Times New Roman,serif" font-size="14.00">IB200</text>
<text xml:space="preserve" text-anchor="start" x="36.25" y="-112.25" font-family="Times New Roman,serif" font-size="14.00">Data: 1G Eth</text>
<text xml:space="preserve" text-anchor="start" x="29.5" y="-91.75" font-family="Times New Roman,serif" font-size="14.00">Data: 10G Eth</text>
<text xml:space="preserve" text-anchor="start" x="29.5" y="-71.25" font-family="Times New Roman,serif" font-size="14.00">Data: 40G Eth</text>
<text xml:space="preserve" text-anchor="start" x="22.75" y="-50.75" font-family="Times New Roman,serif" font-size="14.00">Data: 100G Eth</text>
<text xml:space="preserve" text-anchor="start" x="22.75" y="-30.25" font-family="Times New Roman,serif" font-size="14.00">Data: 200G Eth</text>
<text xml:space="preserve" text-anchor="start" x="46" y="-9.75" font-family="Times New Roman,serif" font-size="14.00">FC 32Gbps</text>
</g>
<!-- Key2 -->
<!-- Key1&#45;&gt;Key2 -->
<g id="edge1" class="edge">
<title>Key1:e&#45;&gt;Key2:w</title>
<path fill="none" stroke="red" d="M111.25,-260.25C136.01,-260.25 144.89,-260.25 165.05,-260.25"/>
<polygon fill="red" stroke="red" points="164.86,-263.75 174.86,-260.25 164.86,-256.75 164.86,-263.75"/>
</g>
<!-- Key1&#45;&gt;Key2 -->
<g id="edge2" class="edge">
<title>Key1:e&#45;&gt;Key2:w</title>
<path fill="none" stroke="brown" d="M111.25,-239.75C136.01,-239.75 144.89,-239.75 165.05,-239.75"/>
<polygon fill="brown" stroke="brown" points="164.86,-243.25 174.86,-239.75 164.86,-236.25 164.86,-243.25"/>
</g>
<!-- Key1&#45;&gt;Key2 -->
<g id="edge3" class="edge">
<title>Key1:e&#45;&gt;Key2:w</title>
<path fill="none" stroke="magenta" d="M111.25,-219.25C136.01,-219.25 144.89,-219.25 165.05,-219.25"/>
<polygon fill="magenta" stroke="magenta" points="164.86,-222.75 174.86,-219.25 164.86,-215.75 164.86,-222.75"/>
</g>
<!-- Key1&#45;&gt;Key2 -->
<g id="edge4" class="edge">
<title>Key1:e&#45;&gt;Key2:w</title>
<path fill="none" stroke="blue" d="M111.25,-198.75C136.01,-198.75 144.89,-198.75 165.05,-198.75"/>
<polygon fill="blue" stroke="blue" points="164.86,-202.25 174.86,-198.75 164.86,-195.25 164.86,-202.25"/>
</g>
<!-- Key1&#45;&gt;Key2 -->
<g id="edge5" class="edge">
<title>Key1:e&#45;&gt;Key2:w</title>
<path fill="none" stroke="pink" d="M111.25,-178.25C136.01,-178.25 144.89,-178.25 165.05,-178.25"/>
<polygon fill="pink" stroke="pink" points="164.86,-181.75 174.86,-178.25 164.86,-174.75 164.86,-181.75"/>
</g>
<!-- Key1&#45;&gt;Key2 -->
<g id="edge6" class="edge">
<title>Key1:e&#45;&gt;Key2:w</title>
<path fill="none" stroke="lightseagreen" d="M111.25,-157.75C136.01,-157.75 144.89,-157.75 165.05,-157.75"/>
<polygon fill="lightseagreen" stroke="lightseagreen" points="164.86,-161.25 174.86,-157.75 164.86,-154.25 164.86,-161.25"/>
</g>
<!-- Key1&#45;&gt;Key2 -->
<g id="edge7" class="edge">
<title>Key1:e&#45;&gt;Key2:w</title>
<path fill="none" stroke="tan" d="M111.25,-137.25C136.01,-137.25 144.89,-137.25 165.05,-137.25"/>
<polygon fill="tan" stroke="tan" points="164.86,-140.75 174.86,-137.25 164.86,-133.75 164.86,-140.75"/>
</g>
<!-- Key1&#45;&gt;Key2 -->
<g id="edge8" class="edge">
<title>Key1:e&#45;&gt;Key2:w</title>
<path fill="none" stroke="cyan" d="M111.25,-116.75C136.01,-116.75 144.89,-116.75 165.05,-116.75"/>
<polygon fill="cyan" stroke="cyan" points="164.86,-120.25 174.86,-116.75 164.86,-113.25 164.86,-120.25"/>
</g>
<!-- Key1&#45;&gt;Key2 -->
<g id="edge9" class="edge">
<title>Key1:e&#45;&gt;Key2:w</title>
<path fill="none" stroke="green" d="M111.25,-96.25C136.01,-96.25 144.89,-96.25 165.05,-96.25"/>
<polygon fill="green" stroke="green" points="164.86,-99.75 174.86,-96.25 164.86,-92.75 164.86,-99.75"/>
</g>
<!-- Key1&#45;&gt;Key2 -->
<g id="edge10" class="edge">
<title>Key1:e&#45;&gt;Key2:w</title>
<path fill="none" stroke="purple" d="M111.25,-75.75C136.01,-75.75 144.89,-75.75 165.05,-75.75"/>
<polygon fill="purple" stroke="purple" points="164.86,-79.25 174.86,-75.75 164.86,-72.25 164.86,-79.25"/>
</g>
<!-- Key1&#45;&gt;Key2 -->
<g id="edge11" class="edge">
<title>Key1:e&#45;&gt;Key2:w</title>
<path fill="none" stroke="orange" d="M111.25,-55.25C136.01,-55.25 144.89,-55.25 165.05,-55.25"/>
<polygon fill="orange" stroke="orange" points="164.86,-58.75 174.86,-55.25 164.86,-51.75 164.86,-58.75"/>
</g>
<!-- Key1&#45;&gt;Key2 -->
<g id="edge12" class="edge">
<title>Key1:e&#45;&gt;Key2:w</title>
<path fill="none" stroke="gray" d="M111.25,-34.75C136.01,-34.75 144.89,-34.75 165.05,-34.75"/>
<polygon fill="gray" stroke="gray" points="164.86,-38.25 174.86,-34.75 164.86,-31.25 164.86,-38.25"/>
</g>
<!-- Key1&#45;&gt;Key2 -->
<g id="edge13" class="edge">
<title>Key1:e&#45;&gt;Key2:w</title>
<path fill="none" stroke="darkolivegreen" d="M111.25,-14.25C136.01,-14.25 144.89,-14.25 165.05,-14.25"/>
<polygon fill="darkolivegreen" stroke="darkolivegreen" points="164.86,-17.75 174.86,-14.25 164.86,-10.75 164.86,-17.75"/>
</g>
</g>
</svg>
