<?xml version="1.0" encoding="UTF-8" standalone="no"?>
<!DOCTYPE svg PUBLIC "-//W3C//DTD SVG 1.1//EN"
 "http://www.w3.org/Graphics/SVG/1.1/DTD/svg11.dtd">
<!-- Generated by graphviz version 14.1.3 (20260303.0454)
 -->
<!-- Title: g Pages: 1 -->
<svg width="611pt" height="455pt"
 viewBox="0.00 0.00 611.00 455.00" xmlns="http://www.w3.org/2000/svg" xmlns:xlink="http://www.w3.org/1999/xlink">
<g id="graph0" class="graph" transform="scale(1 1) rotate(0) translate(4 450.67)">
<title>g</title>
<polygon fill="white" stroke="none" points="-4,4 -4,-450.67 606.75,-450.67 606.75,4 -4,4"/>
<!-- Admin_Net -->
<g id="node1" class="node">
<title>Admin_Net</title>
<polygon fill="none" stroke="black" points="316.3,-344.42 226.85,-257.44 405.75,-257.44 316.3,-344.42"/>
<text xml:space="preserve" text-anchor="middle" x="316.3" y="-289.64" font-family="Times New Roman,serif" font-size="14.00">Admin</text>
<text xml:space="preserve" text-anchor="middle" x="316.3" y="-273.14" font-family="Times New Roman,serif" font-size="14.00">Network</text>
</g>
<!-- Storage -->
<g id="node2" class="node">
<title>Storage</title>
<polygon fill="none" stroke="black" points="198.92,-442.17 141.67,-442.17 141.67,-384.92 198.92,-384.92 198.92,-442.17"/>
<text xml:space="preserve" text-anchor="middle" x="170.3" y="-408.49" font-family="Times New Roman,serif" font-size="14.00">Storage</text>
</g>
<!-- Admin_Net&#45;&gt;Storage -->
<g id="edge9" class="edge">
<title>Admin_Net&#45;&gt;Storage</title>
<path fill="none" stroke="black" d="M276.28,-321.73C254.89,-340.05 228.72,-362.48 207.74,-380.46"/>
<polygon fill="black" stroke="black" points="278.51,-324.42 283.83,-315.26 273.96,-319.11 278.51,-324.42"/>
<polygon fill="black" stroke="black" points="205.55,-377.72 200.24,-386.89 210.11,-383.04 205.55,-377.72"/>
</g>
<!-- Compute -->
<g id="node3" class="node">
<title>Compute</title>
<polygon fill="none" stroke="black" points="349.42,-446.67 283.17,-446.67 283.17,-380.42 349.42,-380.42 349.42,-446.67"/>
<text xml:space="preserve" text-anchor="middle" x="316.3" y="-408.49" font-family="Times New Roman,serif" font-size="14.00">Compute</text>
</g>
<!-- Admin_Net&#45;&gt;Compute -->
<g id="edge7" class="edge">
<title>Admin_Net&#45;&gt;Compute</title>
<path fill="none" stroke="black" d="M316.3,-356.2C316.3,-360.48 316.3,-364.72 316.3,-368.83"/>
<polygon fill="black" stroke="black" points="319.8,-356.38 316.3,-346.38 312.8,-356.38 319.8,-356.38"/>
<polygon fill="black" stroke="black" points="312.8,-368.53 316.3,-378.53 319.8,-368.53 312.8,-368.53"/>
</g>
<!-- Infra -->
<g id="node4" class="node">
<title>Infra</title>
<polygon fill="none" stroke="black" points="361.05,-192.45 271.55,-192.45 271.55,-102.95 361.05,-102.95 361.05,-192.45"/>
<text xml:space="preserve" text-anchor="middle" x="316.3" y="-150.9" font-family="Times New Roman,serif" font-size="14.00">Infrastructure</text>
<text xml:space="preserve" text-anchor="middle" x="316.3" y="-134.4" font-family="Times New Roman,serif" font-size="14.00">Nodes</text>
</g>
<!-- Infra&#45;&gt;Admin_Net -->
<g id="edge4" class="edge">
<title>Infra&#45;&gt;Admin_Net</title>
<path fill="none" stroke="black" d="M316.3,-204.11C316.3,-218.01 316.3,-232.66 316.3,-245.63"/>
<polygon fill="black" stroke="black" points="319.8,-204.23 316.3,-194.23 312.8,-204.23 319.8,-204.23"/>
<polygon fill="black" stroke="black" points="312.8,-245.49 316.3,-255.49 319.8,-245.49 312.8,-245.49"/>
</g>
<!-- HS_Net -->
<g id="node5" class="node">
<title>HS_Net</title>
<polygon fill="none" stroke="black" points="104.3,-344.42 0,-257.44 208.6,-257.44 104.3,-344.42"/>
<text xml:space="preserve" text-anchor="middle" x="104.3" y="-289.64" font-family="Times New Roman,serif" font-size="14.00">Highspeed</text>
<text xml:space="preserve" text-anchor="middle" x="104.3" y="-273.14" font-family="Times New Roman,serif" font-size="14.00">Network</text>
</g>
<!-- Infra&#45;&gt;HS_Net -->
<g id="edge3" class="edge">
<title>Infra&#45;&gt;HS_Net</title>
<path fill="none" stroke="black" d="M261.44,-184.09C229.56,-204.65 189.56,-230.44 157.9,-250.86"/>
<polygon fill="black" stroke="black" points="263.3,-187.05 269.81,-178.69 259.51,-181.17 263.3,-187.05"/>
<polygon fill="black" stroke="black" points="156.14,-247.84 149.63,-256.2 159.93,-253.72 156.14,-247.84"/>
</g>
<!-- Data_Net -->
<g id="node6" class="node">
<title>Data_Net</title>
<polygon fill="none" stroke="black" points="513.3,-344.42 423.85,-257.44 602.75,-257.44 513.3,-344.42"/>
<text xml:space="preserve" text-anchor="middle" x="513.3" y="-289.64" font-family="Times New Roman,serif" font-size="14.00">Data</text>
<text xml:space="preserve" text-anchor="middle" x="513.3" y="-273.14" font-family="Times New Roman,serif" font-size="14.00">Network</text>
</g>
<!-- Infra&#45;&gt;Data_Net -->
<g id="edge2" class="edge">
<title>Infra&#45;&gt;Data_Net</title>
<path fill="none" stroke="black" d="M370.76,-186.5C399.63,-206.54 434.85,-230.99 463.06,-250.56"/>
<polygon fill="black" stroke="black" points="372.95,-183.76 362.74,-180.93 368.96,-189.51 372.95,-183.76"/>
<polygon fill="black" stroke="black" points="460.88,-253.31 471.09,-256.14 464.87,-247.56 460.88,-253.31"/>
</g>
<!-- HS_Net&#45;&gt;Storage -->
<g id="edge8" class="edge">
<title>HS_Net&#45;&gt;Storage</title>
<path fill="none" stroke="black" d="M130.54,-337.18C137.1,-349.62 144.04,-362.76 150.25,-374.53"/>
<polygon fill="black" stroke="black" points="133.83,-335.91 126.07,-328.7 127.64,-339.18 133.83,-335.91"/>
<polygon fill="black" stroke="black" points="147.02,-375.91 154.78,-383.13 153.21,-372.65 147.02,-375.91"/>
</g>
<!-- HS_Net&#45;&gt;Compute -->
<g id="edge6" class="edge">
<title>HS_Net&#45;&gt;Compute</title>
<path fill="none" stroke="black" d="M154.4,-317C190.44,-338.27 238.55,-366.66 272.95,-386.96"/>
<polygon fill="black" stroke="black" points="156.37,-314.1 145.98,-312.03 152.81,-320.13 156.37,-314.1"/>
<polygon fill="black" stroke="black" points="271.01,-389.88 281.4,-391.95 274.57,-383.85 271.01,-389.88"/>
</g>
<!-- Data_Net&#45;&gt;Compute -->
<g id="edge5" class="edge">
<title>Data_Net&#45;&gt;Compute</title>
<path fill="none" stroke="black" d="M468.3,-316.01C435.59,-336.78 391.59,-364.73 359.34,-385.21"/>
<polygon fill="black" stroke="black" points="469.78,-319.22 476.35,-310.9 466.03,-313.31 469.78,-319.22"/>
<polygon fill="black" stroke="black" points="357.58,-382.18 351.02,-390.5 361.33,-388.09 357.58,-382.18"/>
</g>
<!-- External -->
<g id="node7" class="node">
<title>External</title>
<polygon fill="none" stroke="black" points="366.72,-33.48 341.51,-66.95 291.09,-66.95 265.88,-33.48 291.09,0 341.51,0 366.72,-33.48"/>
<text xml:space="preserve" text-anchor="middle" x="316.3" y="-36.68" font-family="Times New Roman,serif" font-size="14.00">External</text>
<text xml:space="preserve" text-anchor="middle" x="316.3" y="-20.18" font-family="Times New Roman,serif" font-size="14.00">Users</text>
</g>
<!-- External&#45;&gt;Infra -->
<g id="edge1" class="edge">
<title>External&#45;&gt;Infra</title>
<path fill="none" stroke="black" d="M316.3,-67.24C316.3,-74.89 316.3,-83.24 316.3,-91.57"/>
<polygon fill="black" stroke="black" points="312.8,-91.32 316.3,-101.32 319.8,-91.32 312.8,-91.32"/>
</g>
</g>
</svg>
