<?xml version="1.0" encoding="UTF-8" standalone="no"?>
<!DOCTYPE svg PUBLIC "-//W3C//DTD SVG 1.1//EN"
 "http://www.w3.org/Graphics/SVG/1.1/DTD/svg11.dtd">
<!-- Generated by graphviz version 14.1.3 (20260303.0454)
 -->
<!-- Title: g Pages: 1 -->
<svg width="703pt" height="677pt"
 viewBox="0.00 0.00 703.00 677.00" xmlns="http://www.w3.org/2000/svg" xmlns:xlink="http://www.w3.org/1999/xlink">
<g id="graph0" class="graph" transform="scale(1 1) rotate(0) translate(4 672.63)">
<title>g</title>
<polygon fill="white" stroke="none" points="-4,4 -4,-672.63 699.11,-672.63 699.11,4 -4,4"/>
<!-- Admin_Net -->
<g id="node1" class="node">
<title>Admin_Net</title>
<polygon fill="none" stroke="black" points="373.38,-580.63 283.93,-493.66 462.82,-493.66 373.38,-580.63"/>
<text xml:space="preserve" text-anchor="middle" x="373.38" y="-525.85" font-family="Times New Roman,serif" font-size="14.00">Admin</text>
<text xml:space="preserve" text-anchor="middle" x="373.38" y="-509.35" font-family="Times New Roman,serif" font-size="14.00">Network</text>
</g>
<!-- Firewall -->
<g id="node2" class="node">
<title>Firewall</title>
<polygon fill="none" stroke="black" points="593.88,-163.95 532.88,-163.95 532.88,-102.95 593.88,-102.95 593.88,-163.95"/>
<text xml:space="preserve" text-anchor="middle" x="563.38" y="-128.4" font-family="Times New Roman,serif" font-size="14.00">Firewall</text>
</g>
<!-- Firewall&#45;&gt;Admin_Net -->
<g id="edge3" class="edge">
<title>Firewall&#45;&gt;Admin_Net</title>
<path fill="none" stroke="red" d="M599.37,-172.5C651.05,-231.87 733.84,-348.06 674.38,-428.67 648.52,-463.72 538.34,-491.14 458.76,-506.87"/>
<polygon fill="red" stroke="red" points="602.24,-170.47 592.99,-165.3 597,-175.11 602.24,-170.47"/>
<polygon fill="red" stroke="red" points="458.38,-503.37 449.24,-508.72 459.72,-510.25 458.38,-503.37"/>
</g>
<!-- Data_Net -->
<g id="node4" class="node">
<title>Data_Net</title>
<polygon fill="none" stroke="black" points="445.38,-315.92 355.93,-228.94 534.82,-228.94 445.38,-315.92"/>
<text xml:space="preserve" text-anchor="middle" x="445.38" y="-261.14" font-family="Times New Roman,serif" font-size="14.00">Data</text>
<text xml:space="preserve" text-anchor="middle" x="445.38" y="-244.64" font-family="Times New Roman,serif" font-size="14.00">Network</text>
</g>
<!-- Firewall&#45;&gt;Data_Net -->
<g id="edge2" class="edge">
<title>Firewall&#45;&gt;Data_Net</title>
<path fill="none" stroke="green" d="M526.74,-172.48C512.02,-187.76 495.12,-205.3 480.55,-220.42"/>
<polygon fill="green" stroke="green" points="529.04,-175.14 533.46,-165.51 524,-170.28 529.04,-175.14"/>
<polygon fill="green" stroke="green" points="478.19,-217.82 473.78,-227.45 483.24,-222.68 478.19,-217.82"/>
</g>
<!-- HS_Net -->
<g id="node3" class="node">
<title>HS_Net</title>
<polygon fill="none" stroke="black" points="221.38,-315.92 117.08,-228.94 325.67,-228.94 221.38,-315.92"/>
<text xml:space="preserve" text-anchor="middle" x="221.38" y="-261.14" font-family="Times New Roman,serif" font-size="14.00">Highspeed</text>
<text xml:space="preserve" text-anchor="middle" x="221.38" y="-244.64" font-family="Times New Roman,serif" font-size="14.00">Network</text>
</g>
<!-- CPU -->
<g id="node6" class="node">
<title>CPU</title>
<polygon fill="none" stroke="black" points="406.5,-423.42 340.25,-423.42 340.25,-357.17 406.5,-357.17 406.5,-423.42"/>
<text xml:space="preserve" text-anchor="middle" x="373.38" y="-401.74" font-family="Times New Roman,serif" font-size="14.00">CPU</text>
<text xml:space="preserve" text-anchor="middle" x="373.38" y="-385.24" font-family="Times New Roman,serif" font-size="14.00">Compute</text>
<text xml:space="preserve" text-anchor="middle" x="373.38" y="-368.74" font-family="Times New Roman,serif" font-size="14.00">Nodes</text>
</g>
<!-- HS_Net&#45;&gt;CPU -->
<g id="edge5" class="edge">
<title>HS_Net&#45;&gt;CPU</title>
<path fill="none" stroke="blue" d="M264.5,-294.96C282.97,-310.48 304.91,-329.06 331.55,-352.13"/>
<polygon fill="blue" stroke="blue" points="266.82,-292.34 256.91,-288.59 262.32,-297.7 266.82,-292.34"/>
<polygon fill="blue" stroke="blue" points="328.98,-354.53 338.83,-358.44 333.57,-349.24 328.98,-354.53"/>
</g>
<!-- GPU -->
<g id="node7" class="node">
<title>GPU</title>
<polygon fill="none" stroke="black" points="254.5,-423.42 188.25,-423.42 188.25,-357.17 254.5,-357.17 254.5,-423.42"/>
<text xml:space="preserve" text-anchor="middle" x="221.38" y="-401.74" font-family="Times New Roman,serif" font-size="14.00">GPU</text>
<text xml:space="preserve" text-anchor="middle" x="221.38" y="-385.24" font-family="Times New Roman,serif" font-size="14.00">Compute</text>
<text xml:space="preserve" text-anchor="middle" x="221.38" y="-368.74" font-family="Times New Roman,serif" font-size="14.00">Nodes</text>
</g>
<!-- HS_Net&#45;&gt;GPU -->
<g id="edge8" class="edge">
<title>HS_Net&#45;&gt;GPU</title>
<path fill="none" stroke="blue" d="M221.38,-327.85C221.38,-333.82 221.38,-339.75 221.38,-345.43"/>
<polygon fill="blue" stroke="blue" points="224.88,-328.01 221.38,-318.01 217.88,-328.01 224.88,-328.01"/>
<polygon fill="blue" stroke="blue" points="217.88,-345.18 221.38,-355.18 224.88,-345.18 217.88,-345.18"/>
</g>
<!-- Storage1 -->
<g id="node8" class="node">
<title>Storage1</title>
<polygon fill="none" stroke="black" points="170,-427.92 94.75,-427.92 94.75,-352.67 170,-352.67 170,-427.92"/>
<text xml:space="preserve" text-anchor="middle" x="132.38" y="-393.49" font-family="Times New Roman,serif" font-size="14.00">Parallel</text>
<text xml:space="preserve" text-anchor="middle" x="132.38" y="-376.99" font-family="Times New Roman,serif" font-size="14.00">Filesystem</text>
</g>
<!-- HS_Net&#45;&gt;Storage1 -->
<g id="edge10" class="edge">
<title>HS_Net&#45;&gt;Storage1</title>
<path fill="none" stroke="blue" d="M189.9,-305.03C181.44,-317.43 172.29,-330.82 163.84,-343.21"/>
<polygon fill="blue" stroke="blue" points="192.75,-307.08 195.49,-296.84 186.96,-303.13 192.75,-307.08"/>
<polygon fill="blue" stroke="blue" points="161.13,-340.98 158.38,-351.21 166.91,-344.92 161.13,-340.98"/>
</g>
<!-- Login -->
<g id="node10" class="node">
<title>Login</title>
<polygon fill="none" stroke="black" points="322.62,-415.54 272.12,-415.54 272.12,-365.04 322.62,-365.04 322.62,-415.54"/>
<text xml:space="preserve" text-anchor="middle" x="297.38" y="-393.49" font-family="Times New Roman,serif" font-size="14.00">Login</text>
<text xml:space="preserve" text-anchor="middle" x="297.38" y="-376.99" font-family="Times New Roman,serif" font-size="14.00">Nodes</text>
</g>
<!-- HS_Net&#45;&gt;Login -->
<g id="edge15" class="edge">
<title>HS_Net&#45;&gt;Login</title>
<path fill="none" stroke="blue" d="M249.62,-307.39C258.89,-323.29 268.99,-340.61 277.51,-355.22"/>
<polygon fill="blue" stroke="blue" points="252.79,-305.88 244.73,-299 246.75,-309.4 252.79,-305.88"/>
<polygon fill="blue" stroke="blue" points="274.3,-356.66 282.36,-363.53 280.34,-353.13 274.3,-356.66"/>
</g>
<!-- Datamover -->
<g id="node12" class="node">
<title>Datamover</title>
<polygon fill="none" stroke="black" points="76.75,-428.67 0,-428.67 0,-351.92 76.75,-351.92 76.75,-428.67"/>
<text xml:space="preserve" text-anchor="middle" x="38.38" y="-393.49" font-family="Times New Roman,serif" font-size="14.00">Datamover</text>
<text xml:space="preserve" text-anchor="middle" x="38.38" y="-376.99" font-family="Times New Roman,serif" font-size="14.00">Nodes</text>
</g>
<!-- HS_Net&#45;&gt;Datamover -->
<g id="edge20" class="edge">
<title>HS_Net&#45;&gt;Datamover</title>
<path fill="none" stroke="blue" d="M173.39,-290.52C149.23,-306.69 119.44,-327.07 86.19,-351.44"/>
<polygon fill="blue" stroke="blue" points="175.12,-293.57 181.5,-285.1 171.24,-287.74 175.12,-293.57"/>
<polygon fill="blue" stroke="blue" points="84.38,-348.43 78.41,-357.18 88.53,-354.06 84.38,-348.43"/>
</g>
<!-- Data_Net&#45;&gt;CPU -->
<g id="edge4" class="edge">
<title>Data_Net&#45;&gt;CPU</title>
<path fill="none" stroke="green" d="M419.39,-305.98C411.97,-319.41 403.94,-333.96 396.69,-347.09"/>
<polygon fill="green" stroke="green" points="422.24,-308.06 424.01,-297.62 416.11,-304.68 422.24,-308.06"/>
<polygon fill="green" stroke="green" points="393.82,-345.03 392.05,-355.48 399.95,-348.42 393.82,-345.03"/>
</g>
<!-- Data_Net&#45;&gt;GPU -->
<g id="edge7" class="edge">
<title>Data_Net&#45;&gt;GPU</title>
<path fill="none" stroke="green" d="M396.52,-284.08C377.18,-294.02 354.74,-305.53 334.38,-315.92 305.57,-330.62 294.53,-331.87 263.88,-352.08"/>
<polygon fill="green" stroke="green" points="397.98,-287.27 405.27,-279.59 394.78,-281.04 397.98,-287.27"/>
<polygon fill="green" stroke="green" points="262.25,-348.96 255.94,-357.46 266.18,-354.75 262.25,-348.96"/>
</g>
<!-- Storage2 -->
<g id="node9" class="node">
<title>Storage2</title>
<polygon fill="none" stroke="black" points="583,-427.92 507.75,-427.92 507.75,-352.67 583,-352.67 583,-427.92"/>
<text xml:space="preserve" text-anchor="middle" x="545.38" y="-393.49" font-family="Times New Roman,serif" font-size="14.00">Home</text>
<text xml:space="preserve" text-anchor="middle" x="545.38" y="-376.99" font-family="Times New Roman,serif" font-size="14.00">Filesystem</text>
</g>
<!-- Data_Net&#45;&gt;Storage2 -->
<g id="edge12" class="edge">
<title>Data_Net&#45;&gt;Storage2</title>
<path fill="none" stroke="green" d="M477.46,-300.76C487.88,-314.35 499.5,-329.49 510.14,-343.36"/>
<polygon fill="green" stroke="green" points="480.39,-298.84 471.53,-293.03 474.84,-303.1 480.39,-298.84"/>
<polygon fill="green" stroke="green" points="507.18,-345.26 516.05,-351.06 512.74,-341 507.18,-345.26"/>
</g>
<!-- Data_Net&#45;&gt;Login -->
<g id="edge14" class="edge">
<title>Data_Net&#45;&gt;Login</title>
<path fill="none" stroke="green" d="M403.29,-290.82C381.21,-308.15 354.11,-330.38 331.38,-351.92 329.8,-353.41 328.21,-354.97 326.63,-356.55"/>
<polygon fill="green" stroke="green" points="405.17,-293.79 410.91,-284.88 400.87,-288.27 405.17,-293.79"/>
<polygon fill="green" stroke="green" points="324.28,-353.95 319.86,-363.58 329.32,-358.8 324.28,-353.95"/>
</g>
<!-- Dbase -->
<g id="node11" class="node">
<title>Dbase</title>
<polygon fill="none" stroke="black" points="490.12,-423.04 424.62,-423.04 424.62,-357.54 490.12,-357.54 490.12,-423.04"/>
<text xml:space="preserve" text-anchor="middle" x="457.38" y="-393.49" font-family="Times New Roman,serif" font-size="14.00">Database</text>
<text xml:space="preserve" text-anchor="middle" x="457.38" y="-376.99" font-family="Times New Roman,serif" font-size="14.00">Nodes</text>
</g>
<!-- Data_Net&#45;&gt;Dbase -->
<g id="edge17" class="edge">
<title>Data_Net&#45;&gt;Dbase</title>
<path fill="none" stroke="green" d="M451.26,-322.89C451.98,-330.68 452.7,-338.49 453.38,-345.88"/>
<polygon fill="green" stroke="green" points="454.76,-322.73 450.36,-313.09 447.79,-323.37 454.76,-322.73"/>
<polygon fill="green" stroke="green" points="449.87,-345.94 454.27,-355.58 456.84,-345.3 449.87,-345.94"/>
</g>
<!-- Data_Net&#45;&gt;Datamover -->
<g id="edge19" class="edge">
<title>Data_Net&#45;&gt;Datamover</title>
<path fill="none" stroke="green" d="M399.4,-286.87C379.96,-297.52 356.69,-308.8 334.38,-315.92 231.28,-348.82 190.66,-310.23 87.66,-351.67"/>
<polygon fill="green" stroke="green" points="400.86,-290.07 407.87,-282.13 397.43,-283.96 400.86,-290.07"/>
<polygon fill="green" stroke="green" points="86.42,-348.39 78.55,-355.49 89.13,-354.84 86.42,-348.39"/>
</g>
<!-- VM -->
<g id="node13" class="node">
<title>VM</title>
<polygon fill="none" stroke="black" points="665.38,-422.29 601.38,-422.29 601.38,-358.29 665.38,-358.29 665.38,-422.29"/>
<text xml:space="preserve" text-anchor="middle" x="633.38" y="-401.74" font-family="Times New Roman,serif" font-size="14.00">Virtual</text>
<text xml:space="preserve" text-anchor="middle" x="633.38" y="-385.24" font-family="Times New Roman,serif" font-size="14.00">Machine</text>
<text xml:space="preserve" text-anchor="middle" x="633.38" y="-368.74" font-family="Times New Roman,serif" font-size="14.00">Nodes</text>
</g>
<!-- Data_Net&#45;&gt;VM -->
<g id="edge22" class="edge">
<title>Data_Net&#45;&gt;VM</title>
<path fill="none" stroke="green" d="M492.48,-285.85C519.84,-302.12 554.79,-324.02 592.13,-352.1"/>
<polygon fill="green" stroke="green" points="494.51,-282.98 484.12,-280.92 490.95,-289.01 494.51,-282.98"/>
<polygon fill="green" stroke="green" points="589.87,-354.78 599.94,-358.06 594.11,-349.21 589.87,-354.78"/>
</g>
<!-- External -->
<g id="node5" class="node">
<title>External</title>
<polygon fill="none" stroke="black" points="613.79,-33.48 588.58,-66.95 538.17,-66.95 512.96,-33.48 538.17,0 588.58,0 613.79,-33.48"/>
<text xml:space="preserve" text-anchor="middle" x="563.38" y="-36.68" font-family="Times New Roman,serif" font-size="14.00">External</text>
<text xml:space="preserve" text-anchor="middle" x="563.38" y="-20.18" font-family="Times New Roman,serif" font-size="14.00">Users</text>
</g>
<!-- External&#45;&gt;Firewall -->
<g id="edge1" class="edge">
<title>External&#45;&gt;Firewall</title>
<path fill="none" stroke="green" d="M563.38,-67.37C563.38,-75.07 563.38,-83.36 563.38,-91.36"/>
<polygon fill="green" stroke="green" points="559.88,-91.26 563.38,-101.26 566.88,-91.26 559.88,-91.26"/>
</g>
<!-- CPU&#45;&gt;Admin_Net -->
<g id="edge6" class="edge">
<title>CPU&#45;&gt;Admin_Net</title>
<path fill="none" stroke="red" d="M373.38,-435.12C373.38,-450.32 373.38,-467.27 373.38,-482.11"/>
<polygon fill="red" stroke="red" points="376.88,-435.37 373.38,-425.37 369.88,-435.37 376.88,-435.37"/>
<polygon fill="red" stroke="red" points="369.88,-481.97 373.38,-491.97 376.88,-481.97 369.88,-481.97"/>
</g>
<!-- GPU&#45;&gt;Admin_Net -->
<g id="edge9" class="edge">
<title>GPU&#45;&gt;Admin_Net</title>
<path fill="none" stroke="red" d="M263.41,-428.64C289.36,-451.1 312.15,-470.41 330.71,-486.02"/>
<polygon fill="red" stroke="red" points="265.77,-426.05 255.92,-422.15 261.18,-431.34 265.77,-426.05"/>
<polygon fill="red" stroke="red" points="328.42,-488.66 338.33,-492.41 332.92,-483.3 328.42,-488.66"/>
</g>
<!-- Storage1&#45;&gt;Admin_Net -->
<g id="edge11" class="edge">
<title>Storage1&#45;&gt;Admin_Net</title>
<path fill="none" stroke="red" d="M180.03,-428.68C221.11,-453.93 260.82,-473.5 294.32,-488.63"/>
<polygon fill="red" stroke="red" points="181.95,-425.75 171.61,-423.42 178.24,-431.69 181.95,-425.75"/>
<polygon fill="red" stroke="red" points="292.57,-491.69 303.12,-492.57 295.42,-485.29 292.57,-491.69"/>
</g>
<!-- Storage2&#45;&gt;Admin_Net -->
<g id="edge13" class="edge">
<title>Storage2&#45;&gt;Admin_Net</title>
<path fill="none" stroke="red" d="M498.41,-429.33C469.7,-451.47 443.53,-470.86 422.09,-486.51"/>
<polygon fill="red" stroke="red" points="500.37,-432.24 506.13,-423.36 496.08,-426.71 500.37,-432.24"/>
<polygon fill="red" stroke="red" points="420.13,-483.61 414.11,-492.33 424.26,-489.27 420.13,-483.61"/>
</g>
<!-- Login&#45;&gt;Admin_Net -->
<g id="edge16" class="edge">
<title>Login&#45;&gt;Admin_Net</title>
<path fill="none" stroke="red" d="M317.44,-425.71C327.87,-443.59 340.63,-465.48 351.33,-483.84"/>
<polygon fill="red" stroke="red" points="320.49,-424 312.43,-417.12 314.45,-427.52 320.49,-424"/>
<polygon fill="red" stroke="red" points="348.21,-485.44 356.27,-492.31 354.26,-481.91 348.21,-485.44"/>
</g>
<!-- Dbase&#45;&gt;Admin_Net -->
<g id="edge18" class="edge">
<title>Dbase&#45;&gt;Admin_Net</title>
<path fill="none" stroke="red" d="M430.4,-433.16C419.9,-449.45 407.97,-467.97 397.74,-483.84"/>
<polygon fill="red" stroke="red" points="433.32,-435.09 435.79,-424.79 427.43,-431.3 433.32,-435.09"/>
<polygon fill="red" stroke="red" points="394.91,-481.77 392.44,-492.07 400.8,-485.56 394.91,-481.77"/>
</g>
<!-- Datamover&#45;&gt;Admin_Net -->
<g id="edge21" class="edge">
<title>Datamover&#45;&gt;Admin_Net</title>
<path fill="none" stroke="red" d="M87.27,-429.17C154.82,-464.23 227.52,-486.97 283.29,-501.48"/>
<polygon fill="red" stroke="red" points="88.96,-426.1 78.48,-424.5 85.68,-432.28 88.96,-426.1"/>
<polygon fill="red" stroke="red" points="282.19,-504.82 292.75,-503.9 283.93,-498.03 282.19,-504.82"/>
</g>
<!-- TapeStage -->
<g id="node14" class="node">
<title>TapeStage</title>
<polygon fill="none" stroke="black" points="67.12,-551.4 9.62,-551.4 9.62,-493.9 67.12,-493.9 67.12,-551.4"/>
<text xml:space="preserve" text-anchor="middle" x="38.38" y="-534.1" font-family="Times New Roman,serif" font-size="14.00">Tape</text>
<text xml:space="preserve" text-anchor="middle" x="38.38" y="-517.6" font-family="Times New Roman,serif" font-size="14.00">Staging</text>
<text xml:space="preserve" text-anchor="middle" x="38.38" y="-501.1" font-family="Times New Roman,serif" font-size="14.00">Storage</text>
</g>
<!-- Datamover&#45;&gt;TapeStage -->
<g id="edge24" class="edge">
<title>Datamover&#45;&gt;TapeStage</title>
<path fill="none" stroke="darkolivegreen" d="M38.38,-440.48C38.38,-454.21 38.38,-468.96 38.38,-482.06"/>
<polygon fill="darkolivegreen" stroke="darkolivegreen" points="41.88,-440.51 38.38,-430.51 34.88,-440.51 41.88,-440.51"/>
<polygon fill="darkolivegreen" stroke="darkolivegreen" points="34.88,-482.04 38.38,-492.04 41.88,-482.04 34.88,-482.04"/>
</g>
<!-- VM&#45;&gt;Admin_Net -->
<g id="edge23" class="edge">
<title>VM&#45;&gt;Admin_Net</title>
<path fill="none" stroke="red" d="M591.35,-428.71C548.49,-455.55 505.87,-474.74 468.87,-489.21"/>
<polygon fill="red" stroke="red" points="593.23,-431.66 599.77,-423.33 589.46,-425.77 593.23,-431.66"/>
<polygon fill="red" stroke="red" points="468.08,-485.76 460.01,-492.62 470.6,-492.3 468.08,-485.76"/>
</g>
<!-- Tape -->
<g id="node15" class="node">
<title>Tape</title>
<polygon fill="none" stroke="black" points="64.38,-668.63 12.38,-668.63 12.38,-616.63 64.38,-616.63 64.38,-668.63"/>
<text xml:space="preserve" text-anchor="middle" x="38.38" y="-645.83" font-family="Times New Roman,serif" font-size="14.00">Tape</text>
<text xml:space="preserve" text-anchor="middle" x="38.38" y="-629.33" font-family="Times New Roman,serif" font-size="14.00">Drives</text>
</g>
<!-- TapeStage&#45;&gt;Tape -->
<g id="edge25" class="edge">
<title>TapeStage&#45;&gt;Tape</title>
<path fill="none" stroke="darkolivegreen" d="M38.38,-562.99C38.38,-576.58 38.38,-591.74 38.38,-605.1"/>
<polygon fill="darkolivegreen" stroke="darkolivegreen" points="41.88,-563.12 38.38,-553.12 34.88,-563.12 41.88,-563.12"/>
<polygon fill="darkolivegreen" stroke="darkolivegreen" points="34.88,-604.77 38.38,-614.77 41.88,-604.77 34.88,-604.77"/>
</g>
</g>
</svg>
