<?xml version="1.0" encoding="UTF-8" standalone="no"?>
<!DOCTYPE svg PUBLIC "-//W3C//DTD SVG 1.1//EN"
 "http://www.w3.org/Graphics/SVG/1.1/DTD/svg11.dtd">
<!-- Generated by graphviz version 14.1.3 (20260303.0454)
 -->
<!-- Title: g Pages: 1 -->
<svg width="819pt" height="1034pt"
 viewBox="0.00 0.00 819.00 1034.00" xmlns="http://www.w3.org/2000/svg" xmlns:xlink="http://www.w3.org/1999/xlink">
<g id="graph0" class="graph" transform="scale(1 1) rotate(0) translate(4 1029.8)">
<title>g</title>
<polygon fill="white" stroke="none" points="-4,4 -4,-1029.8 814.71,-1029.8 814.71,4 -4,4"/>
<!-- Admin_Net -->
<g id="node1" class="node">
<title>Admin_Net</title>
<polygon fill="none" stroke="black" points="373.63,-858.54 282.05,-771.56 465.2,-771.56 373.63,-858.54"/>
<text xml:space="preserve" text-anchor="middle" x="373.62" y="-803.75" font-family="Times New Roman,serif" font-size="14.00">Admin</text>
<text xml:space="preserve" text-anchor="middle" x="373.62" y="-787.25" font-family="Times New Roman,serif" font-size="14.00">Switches</text>
</g>
<!-- Firewall -->
<g id="node2" class="node">
<title>Firewall</title>
<polygon fill="none" stroke="black" points="593.12,-163.95 532.12,-163.95 532.12,-102.95 593.12,-102.95 593.12,-163.95"/>
<text xml:space="preserve" text-anchor="middle" x="562.62" y="-128.4" font-family="Times New Roman,serif" font-size="14.00">Firewall</text>
</g>
<!-- AdminAgg -->
<g id="node16" class="node">
<title>AdminAgg</title>
<polygon fill="none" stroke="black" points="692.62,-362.59 574.54,-240.61 810.71,-240.61 692.62,-362.59"/>
<text xml:space="preserve" text-anchor="middle" x="692.62" y="-292.72" font-family="Times New Roman,serif" font-size="14.00">Admin</text>
<text xml:space="preserve" text-anchor="middle" x="692.62" y="-276.22" font-family="Times New Roman,serif" font-size="14.00">Aggregation</text>
<text xml:space="preserve" text-anchor="middle" x="692.62" y="-259.72" font-family="Times New Roman,serif" font-size="14.00">Switches</text>
</g>
<!-- Firewall&#45;&gt;AdminAgg -->
<g id="edge24" class="edge">
<title>Firewall&#45;&gt;AdminAgg</title>
<path fill="none" stroke="magenta" d="M596.89,-172.88C612.93,-190.88 632.22,-212.51 649.26,-231.63"/>
<polygon fill="magenta" stroke="magenta" points="599.52,-170.58 590.25,-165.44 594.3,-175.24 599.52,-170.58"/>
<polygon fill="magenta" stroke="magenta" points="646.64,-233.95 655.91,-239.09 651.87,-229.29 646.64,-233.95"/>
</g>
<!-- DataAgg -->
<g id="node17" class="node">
<title>DataAgg</title>
<polygon fill="none" stroke="black" points="435.63,-362.59 317.54,-240.61 553.71,-240.61 435.63,-362.59"/>
<text xml:space="preserve" text-anchor="middle" x="435.62" y="-292.72" font-family="Times New Roman,serif" font-size="14.00">Data</text>
<text xml:space="preserve" text-anchor="middle" x="435.62" y="-276.22" font-family="Times New Roman,serif" font-size="14.00">Aggregation</text>
<text xml:space="preserve" text-anchor="middle" x="435.62" y="-259.72" font-family="Times New Roman,serif" font-size="14.00">Switches</text>
</g>
<!-- Firewall&#45;&gt;DataAgg -->
<g id="edge26" class="edge">
<title>Firewall&#45;&gt;DataAgg</title>
<path fill="none" stroke="orange" d="M529.15,-172.88C513.48,-190.88 494.64,-212.51 477.99,-231.63"/>
<polygon fill="orange" stroke="orange" points="531.7,-175.29 535.62,-165.45 526.42,-170.7 531.7,-175.29"/>
<polygon fill="orange" stroke="orange" points="475.43,-229.24 471.5,-239.08 480.71,-233.83 475.43,-229.24"/>
</g>
<!-- HS_Net -->
<g id="node3" class="node">
<title>HS_Net</title>
<polygon fill="none" stroke="black" points="213.63,-514.55 109.33,-427.58 317.92,-427.58 213.63,-514.55"/>
<text xml:space="preserve" text-anchor="middle" x="213.62" y="-459.77" font-family="Times New Roman,serif" font-size="14.00">Highspeed</text>
<text xml:space="preserve" text-anchor="middle" x="213.62" y="-443.27" font-family="Times New Roman,serif" font-size="14.00">Network</text>
</g>
<!-- CPU -->
<g id="node6" class="node">
<title>CPU</title>
<polygon fill="none" stroke="black" points="322.75,-622.05 256.5,-622.05 256.5,-555.8 322.75,-555.8 322.75,-622.05"/>
<text xml:space="preserve" text-anchor="middle" x="289.62" y="-600.38" font-family="Times New Roman,serif" font-size="14.00">CPU</text>
<text xml:space="preserve" text-anchor="middle" x="289.62" y="-583.88" font-family="Times New Roman,serif" font-size="14.00">Compute</text>
<text xml:space="preserve" text-anchor="middle" x="289.62" y="-567.38" font-family="Times New Roman,serif" font-size="14.00">Nodes</text>
</g>
<!-- HS_Net&#45;&gt;CPU -->
<g id="edge3" class="edge">
<title>HS_Net&#45;&gt;CPU</title>
<path fill="none" stroke="blue" d="M241.8,-505.89C249.44,-518.99 257.65,-533.08 265.07,-545.81"/>
<polygon fill="blue" stroke="blue" points="245.04,-504.51 236.98,-497.64 239,-508.04 245.04,-504.51"/>
<polygon fill="blue" stroke="blue" points="262.01,-547.5 270.07,-554.38 268.05,-543.98 262.01,-547.5"/>
</g>
<!-- GPU -->
<g id="node7" class="node">
<title>GPU</title>
<polygon fill="none" stroke="black" points="406.75,-622.05 340.5,-622.05 340.5,-555.8 406.75,-555.8 406.75,-622.05"/>
<text xml:space="preserve" text-anchor="middle" x="373.62" y="-600.38" font-family="Times New Roman,serif" font-size="14.00">GPU</text>
<text xml:space="preserve" text-anchor="middle" x="373.62" y="-583.88" font-family="Times New Roman,serif" font-size="14.00">Compute</text>
<text xml:space="preserve" text-anchor="middle" x="373.62" y="-567.38" font-family="Times New Roman,serif" font-size="14.00">Nodes</text>
</g>
<!-- HS_Net&#45;&gt;GPU -->
<g id="edge6" class="edge">
<title>HS_Net&#45;&gt;GPU</title>
<path fill="none" stroke="blue" d="M258.59,-491.98C278.82,-507.7 303.07,-526.86 331.71,-550.75"/>
<polygon fill="blue" stroke="blue" points="260.95,-489.38 250.9,-486.02 256.66,-494.92 260.95,-489.38"/>
<polygon fill="blue" stroke="blue" points="329.24,-553.25 339.15,-556.99 333.74,-547.88 329.24,-553.25"/>
</g>
<!-- Storage1 -->
<g id="node8" class="node">
<title>Storage1</title>
<polygon fill="none" stroke="black" points="75.25,-626.55 0,-626.55 0,-551.3 75.25,-551.3 75.25,-626.55"/>
<text xml:space="preserve" text-anchor="middle" x="37.62" y="-592.13" font-family="Times New Roman,serif" font-size="14.00">Parallel</text>
<text xml:space="preserve" text-anchor="middle" x="37.62" y="-575.63" font-family="Times New Roman,serif" font-size="14.00">Filesystem</text>
</g>
<!-- HS_Net&#45;&gt;Storage1 -->
<g id="edge8" class="edge">
<title>HS_Net&#45;&gt;Storage1</title>
<path fill="none" stroke="blue" d="M167.15,-490.26C144.56,-506.34 116.9,-526.3 84.87,-550.46"/>
<polygon fill="blue" stroke="blue" points="168.95,-493.28 175.07,-484.64 164.89,-487.58 168.95,-493.28"/>
<polygon fill="blue" stroke="blue" points="82.79,-547.64 76.93,-556.47 87.02,-553.22 82.79,-547.64"/>
</g>
<!-- Login -->
<g id="node10" class="node">
<title>Login</title>
<polygon fill="none" stroke="black" points="238.88,-614.18 188.38,-614.18 188.38,-563.68 238.88,-563.68 238.88,-614.18"/>
<text xml:space="preserve" text-anchor="middle" x="213.62" y="-592.13" font-family="Times New Roman,serif" font-size="14.00">Login</text>
<text xml:space="preserve" text-anchor="middle" x="213.62" y="-575.63" font-family="Times New Roman,serif" font-size="14.00">Nodes</text>
</g>
<!-- HS_Net&#45;&gt;Login -->
<g id="edge13" class="edge">
<title>HS_Net&#45;&gt;Login</title>
<path fill="none" stroke="blue" d="M213.62,-526.28C213.62,-535.1 213.62,-543.83 213.62,-551.82"/>
<polygon fill="blue" stroke="blue" points="217.13,-526.64 213.63,-516.64 210.13,-526.64 217.13,-526.64"/>
<polygon fill="blue" stroke="blue" points="210.13,-551.8 213.63,-561.8 217.13,-551.8 210.13,-551.8"/>
</g>
<!-- Datamover -->
<g id="node12" class="node">
<title>Datamover</title>
<polygon fill="none" stroke="black" points="170,-627.3 93.25,-627.3 93.25,-550.55 170,-550.55 170,-627.3"/>
<text xml:space="preserve" text-anchor="middle" x="131.62" y="-592.13" font-family="Times New Roman,serif" font-size="14.00">Datamover</text>
<text xml:space="preserve" text-anchor="middle" x="131.62" y="-575.63" font-family="Times New Roman,serif" font-size="14.00">Nodes</text>
</g>
<!-- HS_Net&#45;&gt;Datamover -->
<g id="edge18" class="edge">
<title>HS_Net&#45;&gt;Datamover</title>
<path fill="none" stroke="blue" d="M183.87,-504.87C176.53,-516.55 168.66,-529.06 161.31,-540.73"/>
<polygon fill="blue" stroke="blue" points="186.74,-506.88 189.1,-496.56 180.81,-503.16 186.74,-506.88"/>
<polygon fill="blue" stroke="blue" points="158.46,-538.7 156.1,-549.03 164.38,-542.43 158.46,-538.7"/>
</g>
<!-- Data_Net -->
<g id="node4" class="node">
<title>Data_Net</title>
<polygon fill="none" stroke="black" points="429.63,-514.55 338.05,-427.58 521.2,-427.58 429.63,-514.55"/>
<text xml:space="preserve" text-anchor="middle" x="429.62" y="-459.77" font-family="Times New Roman,serif" font-size="14.00">Data</text>
<text xml:space="preserve" text-anchor="middle" x="429.62" y="-443.27" font-family="Times New Roman,serif" font-size="14.00">Switches</text>
</g>
<!-- Data_Net&#45;&gt;CPU -->
<g id="edge2" class="edge">
<title>Data_Net&#45;&gt;CPU</title>
<path fill="none" stroke="green" d="M391.05,-493.49C372.58,-510.68 350.43,-531.31 331.55,-548.89"/>
<polygon fill="green" stroke="green" points="393.21,-496.26 398.14,-486.89 388.44,-491.14 393.21,-496.26"/>
<polygon fill="green" stroke="green" points="329.17,-546.32 324.24,-555.7 333.94,-551.45 329.17,-546.32"/>
</g>
<!-- Data_Net&#45;&gt;GPU -->
<g id="edge5" class="edge">
<title>Data_Net&#45;&gt;GPU</title>
<path fill="none" stroke="green" d="M407.7,-508.61C402.51,-520.68 397.04,-533.43 392.03,-545.09"/>
<polygon fill="green" stroke="green" points="410.73,-510.42 411.46,-499.85 404.3,-507.66 410.73,-510.42"/>
<polygon fill="green" stroke="green" points="388.91,-543.49 388.18,-554.06 395.34,-546.25 388.91,-543.49"/>
</g>
<!-- Storage2 -->
<g id="node9" class="node">
<title>Storage2</title>
<polygon fill="none" stroke="black" points="500.25,-626.55 425,-626.55 425,-551.3 500.25,-551.3 500.25,-626.55"/>
<text xml:space="preserve" text-anchor="middle" x="462.62" y="-592.13" font-family="Times New Roman,serif" font-size="14.00">Home</text>
<text xml:space="preserve" text-anchor="middle" x="462.62" y="-575.63" font-family="Times New Roman,serif" font-size="14.00">Filesystem</text>
</g>
<!-- Data_Net&#45;&gt;Storage2 -->
<g id="edge10" class="edge">
<title>Data_Net&#45;&gt;Storage2</title>
<path fill="none" stroke="green" d="M444.17,-515.01C446.3,-523.45 448.48,-532.06 450.56,-540.27"/>
<polygon fill="green" stroke="green" points="447.57,-514.2 441.72,-505.36 440.79,-515.92 447.57,-514.2"/>
<polygon fill="green" stroke="green" points="447.1,-540.86 452.95,-549.7 453.89,-539.15 447.1,-540.86"/>
</g>
<!-- Data_Net&#45;&gt;Login -->
<g id="edge12" class="edge">
<title>Data_Net&#45;&gt;Login</title>
<path fill="none" stroke="green" d="M382.42,-484.69C365.04,-494.41 345.09,-505.26 326.62,-514.55 292.16,-531.91 278.8,-527.82 247.62,-550.55 245.39,-552.18 243.19,-553.97 241.06,-555.87"/>
<polygon fill="green" stroke="green" points="384.01,-487.81 391.01,-479.86 380.58,-481.71 384.01,-487.81"/>
<polygon fill="green" stroke="green" points="238.99,-553 234.25,-562.47 243.86,-558.02 238.99,-553"/>
</g>
<!-- Dbase -->
<g id="node11" class="node">
<title>Dbase</title>
<polygon fill="none" stroke="black" points="583.38,-621.68 517.88,-621.68 517.88,-556.18 583.38,-556.18 583.38,-621.68"/>
<text xml:space="preserve" text-anchor="middle" x="550.62" y="-592.13" font-family="Times New Roman,serif" font-size="14.00">Database</text>
<text xml:space="preserve" text-anchor="middle" x="550.62" y="-575.63" font-family="Times New Roman,serif" font-size="14.00">Nodes</text>
</g>
<!-- Data_Net&#45;&gt;Dbase -->
<g id="edge15" class="edge">
<title>Data_Net&#45;&gt;Dbase</title>
<path fill="none" stroke="green" d="M465.79,-496.53C480.72,-512.62 498.02,-531.26 513.09,-547.49"/>
<polygon fill="green" stroke="green" points="468.39,-494.19 459.02,-489.24 463.26,-498.95 468.39,-494.19"/>
<polygon fill="green" stroke="green" points="510.35,-549.68 519.72,-554.63 515.48,-544.92 510.35,-549.68"/>
</g>
<!-- Data_Net&#45;&gt;Datamover -->
<g id="edge17" class="edge">
<title>Data_Net&#45;&gt;Datamover</title>
<path fill="none" stroke="green" d="M383.72,-486.39C366.33,-496.38 346.04,-506.96 326.62,-514.55 267.16,-537.8 242.69,-522.94 180.6,-550.85"/>
<polygon fill="green" stroke="green" points="385.43,-489.44 392.29,-481.37 381.89,-483.4 385.43,-489.44"/>
<polygon fill="green" stroke="green" points="179.22,-547.63 171.67,-555.07 182.2,-553.97 179.22,-547.63"/>
</g>
<!-- VM -->
<g id="node13" class="node">
<title>VM</title>
<polygon fill="none" stroke="black" points="665.62,-620.93 601.62,-620.93 601.62,-556.93 665.62,-556.93 665.62,-620.93"/>
<text xml:space="preserve" text-anchor="middle" x="633.62" y="-600.38" font-family="Times New Roman,serif" font-size="14.00">Virtual</text>
<text xml:space="preserve" text-anchor="middle" x="633.62" y="-583.88" font-family="Times New Roman,serif" font-size="14.00">Machine</text>
<text xml:space="preserve" text-anchor="middle" x="633.62" y="-567.38" font-family="Times New Roman,serif" font-size="14.00">Nodes</text>
</g>
<!-- Data_Net&#45;&gt;VM -->
<g id="edge20" class="edge">
<title>Data_Net&#45;&gt;VM</title>
<path fill="none" stroke="green" d="M479.26,-482.21C510.21,-498.39 550.59,-520.98 592.31,-550.78"/>
<polygon fill="green" stroke="green" points="481.15,-479.25 470.66,-477.76 477.93,-485.46 481.15,-479.25"/>
<polygon fill="green" stroke="green" points="590.13,-553.53 600.28,-556.57 594.24,-547.87 590.13,-553.53"/>
</g>
<!-- External -->
<g id="node5" class="node">
<title>External</title>
<polygon fill="none" stroke="black" points="613.04,-33.48 587.83,-66.95 537.42,-66.95 512.21,-33.48 537.42,0 587.83,0 613.04,-33.48"/>
<text xml:space="preserve" text-anchor="middle" x="562.62" y="-36.68" font-family="Times New Roman,serif" font-size="14.00">External</text>
<text xml:space="preserve" text-anchor="middle" x="562.62" y="-20.18" font-family="Times New Roman,serif" font-size="14.00">Users</text>
</g>
<!-- External&#45;&gt;Firewall -->
<g id="edge1" class="edge">
<title>External&#45;&gt;Firewall</title>
<path fill="none" stroke="green" d="M562.62,-67.37C562.62,-75.07 562.62,-83.36 562.62,-91.36"/>
<polygon fill="green" stroke="green" points="559.13,-91.26 562.63,-101.26 566.13,-91.26 559.13,-91.26"/>
</g>
<!-- CPU&#45;&gt;Admin_Net -->
<g id="edge4" class="edge">
<title>CPU&#45;&gt;Admin_Net</title>
<path fill="none" stroke="red" d="M306.81,-632.8C321.83,-670.31 343.47,-724.31 358.02,-760.6"/>
<polygon fill="red" stroke="red" points="310.1,-631.61 303.13,-623.63 303.6,-634.21 310.1,-631.61"/>
<polygon fill="red" stroke="red" points="354.75,-761.87 361.72,-769.85 361.25,-759.27 354.75,-761.87"/>
</g>
<!-- GPU&#45;&gt;Admin_Net -->
<g id="edge7" class="edge">
<title>GPU&#45;&gt;Admin_Net</title>
<path fill="none" stroke="red" d="M373.62,-633.6C373.62,-670.93 373.62,-724.17 373.62,-760.21"/>
<polygon fill="red" stroke="red" points="377.13,-633.74 373.63,-623.74 370.13,-633.74 377.13,-633.74"/>
<polygon fill="red" stroke="red" points="370.13,-759.74 373.63,-769.74 377.13,-759.74 370.13,-759.74"/>
</g>
<!-- Storage1&#45;&gt;Admin_Net -->
<g id="edge9" class="edge">
<title>Storage1&#45;&gt;Admin_Net</title>
<path fill="none" stroke="red" d="M85.35,-627.16C122.16,-647.72 136.34,-645.35 169.62,-663.3 225.96,-693.69 286.46,-735.36 326.82,-764.59"/>
<polygon fill="red" stroke="red" points="87.19,-624.18 76.79,-622.18 83.67,-630.23 87.19,-624.18"/>
<polygon fill="red" stroke="red" points="324.5,-767.23 334.65,-770.29 328.62,-761.58 324.5,-767.23"/>
</g>
<!-- Storage2&#45;&gt;Admin_Net -->
<g id="edge11" class="edge">
<title>Storage2&#45;&gt;Admin_Net</title>
<path fill="none" stroke="red" d="M442.52,-637.28C426.65,-674.67 404.78,-726.18 389.97,-761.06"/>
<polygon fill="red" stroke="red" points="445.64,-638.89 446.33,-628.32 439.2,-636.15 445.64,-638.89"/>
<polygon fill="red" stroke="red" points="386.89,-759.35 386.2,-769.92 393.33,-762.09 386.89,-759.35"/>
</g>
<!-- Login&#45;&gt;Admin_Net -->
<g id="edge14" class="edge">
<title>Login&#45;&gt;Admin_Net</title>
<path fill="none" stroke="red" d="M239.19,-623.42C268.1,-661.3 315.07,-722.83 345.14,-762.23"/>
<polygon fill="red" stroke="red" points="242.06,-621.41 233.21,-615.59 236.5,-625.66 242.06,-621.41"/>
<polygon fill="red" stroke="red" points="342.26,-764.22 351.11,-770.05 347.82,-759.98 342.26,-764.22"/>
</g>
<!-- Dbase&#45;&gt;Admin_Net -->
<g id="edge16" class="edge">
<title>Dbase&#45;&gt;Admin_Net</title>
<path fill="none" stroke="red" d="M509.66,-628.34C495.25,-642.08 481.06,-655.98 474.62,-663.3 446.91,-694.88 418.71,-733.58 399.18,-761.65"/>
<polygon fill="red" stroke="red" points="511.7,-631.23 516.53,-621.8 506.87,-626.15 511.7,-631.23"/>
<polygon fill="red" stroke="red" points="396.31,-759.65 393.51,-769.87 402.07,-763.63 396.31,-759.65"/>
</g>
<!-- Datamover&#45;&gt;Admin_Net -->
<g id="edge19" class="edge">
<title>Datamover&#45;&gt;Admin_Net</title>
<path fill="none" stroke="red" d="M178.86,-630.84C223.55,-669.56 289.97,-727.09 332.53,-763.95"/>
<polygon fill="red" stroke="red" points="181.23,-628.27 171.38,-624.37 176.65,-633.56 181.23,-628.27"/>
<polygon fill="red" stroke="red" points="329.97,-766.37 339.83,-770.27 334.56,-761.08 329.97,-766.37"/>
</g>
<!-- TapeStage -->
<g id="node14" class="node">
<title>TapeStage</title>
<polygon fill="none" stroke="black" points="160.38,-829.3 102.88,-829.3 102.88,-771.8 160.38,-771.8 160.38,-829.3"/>
<text xml:space="preserve" text-anchor="middle" x="131.62" y="-812" font-family="Times New Roman,serif" font-size="14.00">Tape</text>
<text xml:space="preserve" text-anchor="middle" x="131.62" y="-795.5" font-family="Times New Roman,serif" font-size="14.00">Staging</text>
<text xml:space="preserve" text-anchor="middle" x="131.62" y="-779" font-family="Times New Roman,serif" font-size="14.00">Storage</text>
</g>
<!-- Datamover&#45;&gt;TapeStage -->
<g id="edge22" class="edge">
<title>Datamover&#45;&gt;TapeStage</title>
<path fill="none" stroke="darkolivegreen" d="M131.62,-638.83C131.62,-675.7 131.62,-725.62 131.62,-759.99"/>
<polygon fill="darkolivegreen" stroke="darkolivegreen" points="135.13,-638.92 131.63,-628.92 128.13,-638.92 135.13,-638.92"/>
<polygon fill="darkolivegreen" stroke="darkolivegreen" points="128.13,-759.94 131.63,-769.94 135.13,-759.94 128.13,-759.94"/>
</g>
<!-- VM&#45;&gt;Admin_Net -->
<g id="edge21" class="edge">
<title>VM&#45;&gt;Admin_Net</title>
<path fill="none" stroke="red" d="M591.97,-626.59C541.81,-651.88 516.71,-633.6 474.62,-663.3 438.74,-688.62 410.39,-730.68 392.97,-761.39"/>
<polygon fill="red" stroke="red" points="593.55,-629.72 600.66,-621.86 590.2,-623.57 593.55,-629.72"/>
<polygon fill="red" stroke="red" points="389.99,-759.55 388.22,-770 396.12,-762.93 389.99,-759.55"/>
</g>
<!-- Tape -->
<g id="node15" class="node">
<title>Tape</title>
<polygon fill="none" stroke="black" points="157.62,-1025.8 105.62,-1025.8 105.62,-973.8 157.62,-973.8 157.62,-1025.8"/>
<text xml:space="preserve" text-anchor="middle" x="131.62" y="-1003" font-family="Times New Roman,serif" font-size="14.00">Tape</text>
<text xml:space="preserve" text-anchor="middle" x="131.62" y="-986.5" font-family="Times New Roman,serif" font-size="14.00">Drives</text>
</g>
<!-- TapeStage&#45;&gt;Tape -->
<g id="edge23" class="edge">
<title>TapeStage&#45;&gt;Tape</title>
<path fill="none" stroke="darkolivegreen" d="M131.62,-840.7C131.62,-876.03 131.62,-927.61 131.62,-962.15"/>
<polygon fill="darkolivegreen" stroke="darkolivegreen" points="135.13,-840.91 131.63,-830.91 128.13,-840.91 135.13,-840.91"/>
<polygon fill="darkolivegreen" stroke="darkolivegreen" points="128.13,-962.09 131.63,-972.09 135.13,-962.09 128.13,-962.09"/>
</g>
<!-- AdminAgg&#45;&gt;Admin_Net -->
<g id="edge25" class="edge">
<title>AdminAgg&#45;&gt;Admin_Net</title>
<path fill="none" stroke="brown" d="M712.68,-356.1C728.83,-433.45 739.45,-553.75 674.62,-627.3 614.91,-695.06 551.36,-615.67 474.62,-663.3 436.98,-686.67 408.69,-729.65 391.77,-761.11"/>
<polygon fill="brown" stroke="brown" points="716.14,-355.51 710.59,-346.48 709.3,-357 716.14,-355.51"/>
<polygon fill="brown" stroke="brown" points="388.68,-759.46 387.17,-769.94 394.89,-762.69 388.68,-759.46"/>
</g>
<!-- DataAgg&#45;&gt;Data_Net -->
<g id="edge27" class="edge">
<title>DataAgg&#45;&gt;Data_Net</title>
<path fill="none" stroke="purple" d="M432.53,-371.54C431.99,-387.2 431.45,-402.74 430.99,-416.12"/>
<polygon fill="purple" stroke="purple" points="436.02,-371.93 432.87,-361.81 429.03,-371.69 436.02,-371.93"/>
<polygon fill="purple" stroke="purple" points="427.51,-415.65 430.66,-425.76 434.5,-415.89 427.51,-415.65"/>
</g>
<!-- Key1 -->
<g id="node18" class="node">
<title>Key1</title>
<polygon fill="none" stroke="black" points="601.75,-937.8 483.5,-937.8 483.5,-663.3 601.75,-663.3 601.75,-937.8"/>
<text xml:space="preserve" text-anchor="start" x="507" y="-919.05" font-family="Times New Roman,serif" font-size="14.00">Admin: 1G Eth</text>
<text xml:space="preserve" text-anchor="start" x="500.25" y="-898.55" font-family="Times New Roman,serif" font-size="14.00">Admin: 10G Eth</text>
<text xml:space="preserve" text-anchor="start" x="493.5" y="-878.05" font-family="Times New Roman,serif" font-size="14.00">Admin: 100G Eth</text>
<text xml:space="preserve" text-anchor="start" x="545.25" y="-857.55" font-family="Times New Roman,serif" font-size="14.00">OPA100</text>
<text xml:space="preserve" text-anchor="start" x="546" y="-837.05" font-family="Times New Roman,serif" font-size="14.00">CN5000</text>
<text xml:space="preserve" text-anchor="start" x="558" y="-816.55" font-family="Times New Roman,serif" font-size="14.00">IB100</text>
<text xml:space="preserve" text-anchor="start" x="558" y="-796.05" font-family="Times New Roman,serif" font-size="14.00">IB200</text>
<text xml:space="preserve" text-anchor="start" x="519.75" y="-775.55" font-family="Times New Roman,serif" font-size="14.00">Data: 1G Eth</text>
<text xml:space="preserve" text-anchor="start" x="513" y="-755.05" font-family="Times New Roman,serif" font-size="14.00">Data: 10G Eth</text>
<text xml:space="preserve" text-anchor="start" x="513" y="-734.55" font-family="Times New Roman,serif" font-size="14.00">Data: 40G Eth</text>
<text xml:space="preserve" text-anchor="start" x="506.25" y="-714.05" font-family="Times New Roman,serif" font-size="14.00">Data: 100G Eth</text>
<text xml:space="preserve" text-anchor="start" x="506.25" y="-693.55" font-family="Times New Roman,serif" font-size="14.00">Data: 200G Eth</text>
<text xml:space="preserve" text-anchor="start" x="529.5" y="-673.05" font-family="Times New Roman,serif" font-size="14.00">FC 32Gbps</text>
</g>
<!-- Key2 -->
<!-- Key1&#45;&gt;Key2 -->
<g id="edge28" class="edge">
<title>Key1:e&#45;&gt;Key2:w</title>
<path fill="none" stroke="red" d="M594.75,-677.55C611.23,-677.55 617.96,-677.55 630.33,-677.55"/>
<polygon fill="red" stroke="red" points="630.24,-681.05 640.24,-677.55 630.24,-674.05 630.24,-681.05"/>
</g>
<!-- Key1&#45;&gt;Key2 -->
<g id="edge29" class="edge">
<title>Key1:e&#45;&gt;Key2:w</title>
<path fill="none" stroke="brown" d="M594.75,-698.05C611.23,-698.05 617.96,-698.05 630.33,-698.05"/>
<polygon fill="brown" stroke="brown" points="630.24,-701.55 640.24,-698.05 630.24,-694.55 630.24,-701.55"/>
</g>
<!-- Key1&#45;&gt;Key2 -->
<g id="edge30" class="edge">
<title>Key1:e&#45;&gt;Key2:w</title>
<path fill="none" stroke="magenta" d="M594.75,-718.55C611.23,-718.55 617.96,-718.55 630.33,-718.55"/>
<polygon fill="magenta" stroke="magenta" points="630.24,-722.05 640.24,-718.55 630.24,-715.05 630.24,-722.05"/>
</g>
<!-- Key1&#45;&gt;Key2 -->
<g id="edge31" class="edge">
<title>Key1:e&#45;&gt;Key2:w</title>
<path fill="none" stroke="blue" d="M594.75,-739.05C611.23,-739.05 617.96,-739.05 630.33,-739.05"/>
<polygon fill="blue" stroke="blue" points="630.24,-742.55 640.24,-739.05 630.24,-735.55 630.24,-742.55"/>
</g>
<!-- Key1&#45;&gt;Key2 -->
<g id="edge32" class="edge">
<title>Key1:e&#45;&gt;Key2:w</title>
<path fill="none" stroke="pink" d="M594.75,-759.55C611.23,-759.55 617.96,-759.55 630.33,-759.55"/>
<polygon fill="pink" stroke="pink" points="630.24,-763.05 640.24,-759.55 630.24,-756.05 630.24,-763.05"/>
</g>
<!-- Key1&#45;&gt;Key2 -->
<g id="edge33" class="edge">
<title>Key1:e&#45;&gt;Key2:w</title>
<path fill="none" stroke="lightseagreen" d="M594.75,-780.05C611.23,-780.05 617.96,-780.05 630.33,-780.05"/>
<polygon fill="lightseagreen" stroke="lightseagreen" points="630.24,-783.55 640.24,-780.05 630.24,-776.55 630.24,-783.55"/>
</g>
<!-- Key1&#45;&gt;Key2 -->
<g id="edge34" class="edge">
<title>Key1:e&#45;&gt;Key2:w</title>
<path fill="none" stroke="tan" d="M594.75,-800.55C611.23,-800.55 617.96,-800.55 630.33,-800.55"/>
<polygon fill="tan" stroke="tan" points="630.24,-804.05 640.24,-800.55 630.24,-797.05 630.24,-804.05"/>
</g>
<!-- Key1&#45;&gt;Key2 -->
<g id="edge35" class="edge">
<title>Key1:e&#45;&gt;Key2:w</title>
<path fill="none" stroke="cyan" d="M594.75,-821.05C611.23,-821.05 617.96,-821.05 630.33,-821.05"/>
<polygon fill="cyan" stroke="cyan" points="630.24,-824.55 640.24,-821.05 630.24,-817.55 630.24,-824.55"/>
</g>
<!-- Key1&#45;&gt;Key2 -->
<g id="edge36" class="edge">
<title>Key1:e&#45;&gt;Key2:w</title>
<path fill="none" stroke="green" d="M594.75,-841.55C611.23,-841.55 617.96,-841.55 630.33,-841.55"/>
<polygon fill="green" stroke="green" points="630.24,-845.05 640.24,-841.55 630.24,-838.05 630.24,-845.05"/>
</g>
<!-- Key1&#45;&gt;Key2 -->
<g id="edge37" class="edge">
<title>Key1:e&#45;&gt;Key2:w</title>
<path fill="none" stroke="purple" d="M594.75,-862.05C611.23,-862.05 617.96,-862.05 630.33,-862.05"/>
<polygon fill="purple" stroke="purple" points="630.24,-865.55 640.24,-862.05 630.24,-858.55 630.24,-865.55"/>
</g>
<!-- Key1&#45;&gt;Key2 -->
<g id="edge38" class="edge">
<title>Key1:e&#45;&gt;Key2:w</title>
<path fill="none" stroke="orange" d="M594.75,-882.55C611.23,-882.55 617.96,-882.55 630.33,-882.55"/>
<polygon fill="orange" stroke="orange" points="630.24,-886.05 640.24,-882.55 630.24,-879.05 630.24,-886.05"/>
</g>
<!-- Key1&#45;&gt;Key2 -->
<g id="edge39" class="edge">
<title>Key1:e&#45;&gt;Key2:w</title>
<path fill="none" stroke="gray" d="M594.75,-903.05C611.23,-903.05 617.96,-903.05 630.33,-903.05"/>
<polygon fill="gray" stroke="gray" points="630.24,-906.55 640.24,-903.05 630.24,-899.55 630.24,-906.55"/>
</g>
<!-- Key1&#45;&gt;Key2 -->
<g id="edge40" class="edge">
<title>Key1:e&#45;&gt;Key2:w</title>
<path fill="none" stroke="darkolivegreen" d="M594.75,-923.55C611.23,-923.55 617.96,-923.55 630.33,-923.55"/>
<polygon fill="darkolivegreen" stroke="darkolivegreen" points="630.24,-927.05 640.24,-923.55 630.24,-920.05 630.24,-927.05"/>
</g>
</g>
</svg>
