<?xml version="1.0" encoding="UTF-8" standalone="no"?>
<!DOCTYPE svg PUBLIC "-//W3C//DTD SVG 1.1//EN"
 "http://www.w3.org/Graphics/SVG/1.1/DTD/svg11.dtd">
<!-- Generated by graphviz version 14.1.3 (20260303.0454)
 -->
<!-- Title: g Pages: 1 -->
<svg width="433pt" height="601pt"
 viewBox="0.00 0.00 433.00 601.00" xmlns="http://www.w3.org/2000/svg" xmlns:xlink="http://www.w3.org/1999/xlink">
<g id="graph0" class="graph" transform="scale(1 1) rotate(0) translate(4 597.38)">
<title>g</title>
<polygon fill="white" stroke="none" points="-4,4 -4,-597.38 428.72,-597.38 428.72,4 -4,4"/>
<!-- Admin_Net -->
<g id="node1" class="node">
<title>Admin_Net</title>
<polygon fill="none" stroke="black" points="256.3,-593.38 166.85,-506.41 345.75,-506.41 256.3,-593.38"/>
<text xml:space="preserve" text-anchor="middle" x="256.3" y="-538.6" font-family="Times New Roman,serif" font-size="14.00">Admin</text>
<text xml:space="preserve" text-anchor="middle" x="256.3" y="-522.1" font-family="Times New Roman,serif" font-size="14.00">Network</text>
</g>
<!-- Compute -->
<g id="node2" class="node">
<title>Compute</title>
<polygon fill="none" stroke="black" points="337.42,-429.79 271.17,-429.79 271.17,-363.54 337.42,-363.54 337.42,-429.79"/>
<text xml:space="preserve" text-anchor="middle" x="304.3" y="-391.62" font-family="Times New Roman,serif" font-size="14.00">Compute</text>
</g>
<!-- Compute&#45;&gt;Admin_Net -->
<g id="edge6" class="edge">
<title>Compute&#45;&gt;Admin_Net</title>
<path fill="none" stroke="red" d="M289.16,-440.79C283.04,-458.23 276.02,-478.23 270.04,-495.24"/>
<polygon fill="red" stroke="red" points="292.41,-442.09 292.42,-431.5 285.81,-439.78 292.41,-442.09"/>
<polygon fill="red" stroke="red" points="266.8,-493.92 266.79,-504.51 273.41,-496.24 266.8,-493.92"/>
</g>
<!-- Firewall -->
<g id="node3" class="node">
<title>Firewall</title>
<polygon fill="none" stroke="black" points="404.8,-163.95 343.8,-163.95 343.8,-102.95 404.8,-102.95 404.8,-163.95"/>
<text xml:space="preserve" text-anchor="middle" x="374.3" y="-128.4" font-family="Times New Roman,serif" font-size="14.00">Firewall</text>
</g>
<!-- Firewall&#45;&gt;Admin_Net -->
<g id="edge3" class="edge">
<title>Firewall&#45;&gt;Admin_Net</title>
<path fill="none" stroke="red" d="M403.03,-173.84C407.68,-182.09 411.79,-191.02 414.3,-199.95 428.25,-249.57 426.96,-265.96 414.3,-315.92 395.52,-389.99 336.44,-458.44 296.09,-498.32"/>
<polygon fill="red" stroke="red" points="406.12,-172.18 397.95,-165.44 400.13,-175.8 406.12,-172.18"/>
<polygon fill="red" stroke="red" points="293.86,-495.61 289.13,-505.09 298.74,-500.63 293.86,-495.61"/>
</g>
<!-- Data_Net -->
<g id="node7" class="node">
<title>Data_Net</title>
<polygon fill="none" stroke="black" points="316.3,-315.92 226.85,-228.94 405.75,-228.94 316.3,-315.92"/>
<text xml:space="preserve" text-anchor="middle" x="316.3" y="-261.14" font-family="Times New Roman,serif" font-size="14.00">Data</text>
<text xml:space="preserve" text-anchor="middle" x="316.3" y="-244.64" font-family="Times New Roman,serif" font-size="14.00">Network</text>
</g>
<!-- Firewall&#45;&gt;Data_Net -->
<g id="edge2" class="edge">
<title>Firewall&#45;&gt;Data_Net</title>
<path fill="none" stroke="green" d="M355.36,-174.45C348.69,-188.53 341.22,-204.32 334.6,-218.28"/>
<polygon fill="green" stroke="green" points="358.35,-176.32 359.46,-165.78 352.02,-173.32 358.35,-176.32"/>
<polygon fill="green" stroke="green" points="331.51,-216.64 330.39,-227.18 337.83,-219.64 331.51,-216.64"/>
</g>
<!-- Storage -->
<g id="node4" class="node">
<title>Storage</title>
<polygon fill="none" stroke="black" points="139.92,-425.29 82.67,-425.29 82.67,-368.04 139.92,-368.04 139.92,-425.29"/>
<text xml:space="preserve" text-anchor="middle" x="111.3" y="-391.62" font-family="Times New Roman,serif" font-size="14.00">Storage</text>
</g>
<!-- Storage&#45;&gt;Admin_Net -->
<g id="edge11" class="edge">
<title>Storage&#45;&gt;Admin_Net</title>
<path fill="none" stroke="red" d="M146.34,-433.64C149.02,-436.29 151.69,-438.91 154.3,-441.42 174.2,-460.59 196.88,-481.36 215.78,-498.4"/>
<polygon fill="red" stroke="red" points="148.99,-431.34 139.44,-426.74 144.04,-436.29 148.99,-431.34"/>
<polygon fill="red" stroke="red" points="213.28,-500.85 223.06,-504.93 217.96,-495.64 213.28,-500.85"/>
</g>
<!-- Infra -->
<g id="node5" class="node">
<title>Infra</title>
<polygon fill="none" stroke="black" points="253.05,-441.42 163.55,-441.42 163.55,-351.92 253.05,-351.92 253.05,-441.42"/>
<text xml:space="preserve" text-anchor="middle" x="208.3" y="-399.87" font-family="Times New Roman,serif" font-size="14.00">Infrastructure</text>
<text xml:space="preserve" text-anchor="middle" x="208.3" y="-383.37" font-family="Times New Roman,serif" font-size="14.00">Nodes</text>
</g>
<!-- Infra&#45;&gt;Admin_Net -->
<g id="edge9" class="edge">
<title>Infra&#45;&gt;Admin_Net</title>
<path fill="none" stroke="red" d="M227.48,-452.3C232.52,-466.66 237.85,-481.86 242.55,-495.23"/>
<polygon fill="red" stroke="red" points="230.87,-451.39 224.25,-443.11 224.26,-453.71 230.87,-451.39"/>
<polygon fill="red" stroke="red" points="239.2,-496.26 245.82,-504.54 245.81,-493.95 239.2,-496.26"/>
</g>
<!-- HS_Net -->
<g id="node6" class="node">
<title>HS_Net</title>
<polygon fill="none" stroke="black" points="104.3,-315.92 0,-228.94 208.6,-228.94 104.3,-315.92"/>
<text xml:space="preserve" text-anchor="middle" x="104.3" y="-261.14" font-family="Times New Roman,serif" font-size="14.00">Highspeed</text>
<text xml:space="preserve" text-anchor="middle" x="104.3" y="-244.64" font-family="Times New Roman,serif" font-size="14.00">Network</text>
</g>
<!-- HS_Net&#45;&gt;Compute -->
<g id="edge5" class="edge">
<title>HS_Net&#45;&gt;Compute</title>
<path fill="none" stroke="blue" d="M157.57,-285.54C189.36,-302.54 229.74,-326.18 262.3,-351.92 263.77,-353.09 265.25,-354.3 266.72,-355.56"/>
<polygon fill="blue" stroke="blue" points="159.39,-282.54 148.91,-280.96 156.12,-288.73 159.39,-282.54"/>
<polygon fill="blue" stroke="blue" points="264.1,-357.91 273.86,-362.05 268.81,-352.73 264.1,-357.91"/>
</g>
<!-- HS_Net&#45;&gt;Storage -->
<g id="edge10" class="edge">
<title>HS_Net&#45;&gt;Storage</title>
<path fill="none" stroke="blue" d="M107.7,-325.47C108.25,-336.06 108.79,-346.7 109.29,-356.39"/>
<polygon fill="blue" stroke="blue" points="111.21,-325.48 107.2,-315.67 104.22,-325.83 111.21,-325.48"/>
<polygon fill="blue" stroke="blue" points="105.78,-356.34 109.79,-366.15 112.77,-355.99 105.78,-356.34"/>
</g>
<!-- HS_Net&#45;&gt;Infra -->
<g id="edge8" class="edge">
<title>HS_Net&#45;&gt;Infra</title>
<path fill="none" stroke="blue" d="M137.84,-303.03C147.43,-315.64 157.98,-329.52 167.94,-342.6"/>
<polygon fill="blue" stroke="blue" points="140.84,-301.19 132,-295.35 135.27,-305.43 140.84,-301.19"/>
<polygon fill="blue" stroke="blue" points="164.95,-344.46 173.79,-350.3 170.53,-340.23 164.95,-344.46"/>
</g>
<!-- Data_Net&#45;&gt;Compute -->
<g id="edge4" class="edge">
<title>Data_Net&#45;&gt;Compute</title>
<path fill="none" stroke="green" d="M310.69,-322.88C309.83,-332.68 308.96,-342.6 308.15,-351.83"/>
<polygon fill="green" stroke="green" points="314.14,-323.58 311.53,-313.31 307.17,-322.96 314.14,-323.58"/>
<polygon fill="green" stroke="green" points="304.68,-351.32 307.29,-361.59 311.65,-351.93 304.68,-351.32"/>
</g>
<!-- Data_Net&#45;&gt;Infra -->
<g id="edge7" class="edge">
<title>Data_Net&#45;&gt;Infra</title>
<path fill="none" stroke="green" d="M283.79,-300.09C273.16,-313.56 261.19,-328.7 249.97,-342.9"/>
<polygon fill="green" stroke="green" points="286.31,-302.54 289.77,-292.53 280.82,-298.2 286.31,-302.54"/>
<polygon fill="green" stroke="green" points="247.5,-340.39 244.04,-350.41 252.99,-344.73 247.5,-340.39"/>
</g>
<!-- External -->
<g id="node8" class="node">
<title>External</title>
<polygon fill="none" stroke="black" points="424.72,-33.48 399.51,-66.95 349.09,-66.95 323.88,-33.48 349.09,0 399.51,0 424.72,-33.48"/>
<text xml:space="preserve" text-anchor="middle" x="374.3" y="-36.68" font-family="Times New Roman,serif" font-size="14.00">External</text>
<text xml:space="preserve" text-anchor="middle" x="374.3" y="-20.18" font-family="Times New Roman,serif" font-size="14.00">Users</text>
</g>
<!-- External&#45;&gt;Firewall -->
<g id="edge1" class="edge">
<title>External&#45;&gt;Firewall</title>
<path fill="none" stroke="green" d="M374.3,-67.37C374.3,-75.07 374.3,-83.36 374.3,-91.36"/>
<polygon fill="green" stroke="green" points="370.8,-91.26 374.3,-101.26 377.8,-91.26 370.8,-91.26"/>
</g>
</g>
</svg>
