<?xml version="1.0" encoding="UTF-8" standalone="no"?>
<!DOCTYPE svg PUBLIC "-//W3C//DTD SVG 1.1//EN"
 "http://www.w3.org/Graphics/SVG/1.1/DTD/svg11.dtd">
<!-- Generated by graphviz version 14.1.3 (20260303.0454)
 -->
<!-- Title: g Pages: 1 -->
<svg width="830pt" height="1083pt"
 viewBox="0.00 0.00 830.00 1083.00" xmlns="http://www.w3.org/2000/svg" xmlns:xlink="http://www.w3.org/1999/xlink">
<g id="graph0" class="graph" transform="scale(1 1) rotate(0) translate(4 1078.82)">
<title>g</title>
<polygon fill="white" stroke="none" points="-4,4 -4,-1078.82 825.62,-1078.82 825.62,4 -4,4"/>
<!-- Admin_Net -->
<g id="node1" class="node">
<title>Admin_Net</title>
<polygon fill="none" stroke="black" points="373.63,-986.82 282.05,-899.84 465.2,-899.84 373.63,-986.82"/>
<text xml:space="preserve" text-anchor="middle" x="373.62" y="-932.03" font-family="Times New Roman,serif" font-size="14.00">Admin</text>
<text xml:space="preserve" text-anchor="middle" x="373.62" y="-915.53" font-family="Times New Roman,serif" font-size="14.00">Switches</text>
</g>
<!-- Firewall -->
<g id="node2" class="node">
<title>Firewall</title>
<polygon fill="none" stroke="black" points="593.12,-371.5 532.12,-371.5 532.12,-310.5 593.12,-310.5 593.12,-371.5"/>
<text xml:space="preserve" text-anchor="middle" x="562.62" y="-335.95" font-family="Times New Roman,serif" font-size="14.00">Firewall</text>
</g>
<!-- AdminAgg -->
<g id="node16" class="node">
<title>AdminAgg</title>
<polygon fill="none" stroke="black" points="692.62,-570.13 574.54,-448.16 810.71,-448.16 692.62,-570.13"/>
<text xml:space="preserve" text-anchor="middle" x="692.62" y="-500.27" font-family="Times New Roman,serif" font-size="14.00">Admin</text>
<text xml:space="preserve" text-anchor="middle" x="692.62" y="-483.77" font-family="Times New Roman,serif" font-size="14.00">Aggregation</text>
<text xml:space="preserve" text-anchor="middle" x="692.62" y="-467.27" font-family="Times New Roman,serif" font-size="14.00">Switches</text>
</g>
<!-- Firewall&#45;&gt;AdminAgg -->
<g id="edge24" class="edge">
<title>Firewall&#45;&gt;AdminAgg</title>
<path fill="none" stroke="magenta" d="M596.89,-380.43C612.93,-398.42 632.22,-420.06 649.26,-439.18"/>
<polygon fill="magenta" stroke="magenta" points="599.52,-378.13 590.25,-372.99 594.3,-382.78 599.52,-378.13"/>
<polygon fill="magenta" stroke="magenta" points="646.64,-441.5 655.91,-446.64 651.87,-436.84 646.64,-441.5"/>
</g>
<!-- DataAgg -->
<g id="node17" class="node">
<title>DataAgg</title>
<polygon fill="none" stroke="black" points="435.63,-570.13 317.54,-448.16 553.71,-448.16 435.63,-570.13"/>
<text xml:space="preserve" text-anchor="middle" x="435.62" y="-500.27" font-family="Times New Roman,serif" font-size="14.00">Data</text>
<text xml:space="preserve" text-anchor="middle" x="435.62" y="-483.77" font-family="Times New Roman,serif" font-size="14.00">Aggregation</text>
<text xml:space="preserve" text-anchor="middle" x="435.62" y="-467.27" font-family="Times New Roman,serif" font-size="14.00">Switches</text>
</g>
<!-- Firewall&#45;&gt;DataAgg -->
<g id="edge26" class="edge">
<title>Firewall&#45;&gt;DataAgg</title>
<path fill="none" stroke="orange" d="M529.15,-380.43C513.48,-398.42 494.64,-420.06 477.99,-439.18"/>
<polygon fill="orange" stroke="orange" points="531.7,-382.84 535.62,-373 526.42,-378.24 531.7,-382.84"/>
<polygon fill="orange" stroke="orange" points="475.43,-436.78 471.5,-446.62 480.71,-441.38 475.43,-436.78"/>
</g>
<!-- HS_Net -->
<g id="node3" class="node">
<title>HS_Net</title>
<polygon fill="none" stroke="black" points="213.63,-722.1 109.33,-635.13 317.92,-635.13 213.63,-722.1"/>
<text xml:space="preserve" text-anchor="middle" x="213.62" y="-667.32" font-family="Times New Roman,serif" font-size="14.00">Highspeed</text>
<text xml:space="preserve" text-anchor="middle" x="213.62" y="-650.82" font-family="Times New Roman,serif" font-size="14.00">Network</text>
</g>
<!-- CPU -->
<g id="node6" class="node">
<title>CPU</title>
<polygon fill="none" stroke="black" points="322.75,-829.6 256.5,-829.6 256.5,-763.35 322.75,-763.35 322.75,-829.6"/>
<text xml:space="preserve" text-anchor="middle" x="289.62" y="-807.93" font-family="Times New Roman,serif" font-size="14.00">CPU</text>
<text xml:space="preserve" text-anchor="middle" x="289.62" y="-791.43" font-family="Times New Roman,serif" font-size="14.00">Compute</text>
<text xml:space="preserve" text-anchor="middle" x="289.62" y="-774.93" font-family="Times New Roman,serif" font-size="14.00">Nodes</text>
</g>
<!-- HS_Net&#45;&gt;CPU -->
<g id="edge3" class="edge">
<title>HS_Net&#45;&gt;CPU</title>
<path fill="none" stroke="blue" d="M241.8,-713.44C249.44,-726.54 257.65,-740.62 265.07,-753.36"/>
<polygon fill="blue" stroke="blue" points="245.04,-712.06 236.98,-705.18 239,-715.59 245.04,-712.06"/>
<polygon fill="blue" stroke="blue" points="262.01,-755.05 270.07,-761.93 268.05,-751.52 262.01,-755.05"/>
</g>
<!-- GPU -->
<g id="node7" class="node">
<title>GPU</title>
<polygon fill="none" stroke="black" points="406.75,-829.6 340.5,-829.6 340.5,-763.35 406.75,-763.35 406.75,-829.6"/>
<text xml:space="preserve" text-anchor="middle" x="373.62" y="-807.93" font-family="Times New Roman,serif" font-size="14.00">GPU</text>
<text xml:space="preserve" text-anchor="middle" x="373.62" y="-791.43" font-family="Times New Roman,serif" font-size="14.00">Compute</text>
<text xml:space="preserve" text-anchor="middle" x="373.62" y="-774.93" font-family="Times New Roman,serif" font-size="14.00">Nodes</text>
</g>
<!-- HS_Net&#45;&gt;GPU -->
<g id="edge6" class="edge">
<title>HS_Net&#45;&gt;GPU</title>
<path fill="none" stroke="blue" d="M258.59,-699.53C278.82,-715.25 303.07,-734.41 331.71,-758.3"/>
<polygon fill="blue" stroke="blue" points="260.95,-696.93 250.9,-693.57 256.66,-702.46 260.95,-696.93"/>
<polygon fill="blue" stroke="blue" points="329.24,-760.8 339.15,-764.54 333.74,-755.43 329.24,-760.8"/>
</g>
<!-- Storage1 -->
<g id="node8" class="node">
<title>Storage1</title>
<polygon fill="none" stroke="black" points="75.25,-834.1 0,-834.1 0,-758.85 75.25,-758.85 75.25,-834.1"/>
<text xml:space="preserve" text-anchor="middle" x="37.62" y="-799.68" font-family="Times New Roman,serif" font-size="14.00">Parallel</text>
<text xml:space="preserve" text-anchor="middle" x="37.62" y="-783.18" font-family="Times New Roman,serif" font-size="14.00">Filesystem</text>
</g>
<!-- HS_Net&#45;&gt;Storage1 -->
<g id="edge8" class="edge">
<title>HS_Net&#45;&gt;Storage1</title>
<path fill="none" stroke="blue" d="M167.15,-697.81C144.56,-713.89 116.9,-733.84 84.87,-758"/>
<polygon fill="blue" stroke="blue" points="168.95,-700.83 175.07,-692.19 164.89,-695.12 168.95,-700.83"/>
<polygon fill="blue" stroke="blue" points="82.79,-755.19 76.93,-764.02 87.02,-760.77 82.79,-755.19"/>
</g>
<!-- Login -->
<g id="node10" class="node">
<title>Login</title>
<polygon fill="none" stroke="black" points="238.88,-821.73 188.38,-821.73 188.38,-771.23 238.88,-771.23 238.88,-821.73"/>
<text xml:space="preserve" text-anchor="middle" x="213.62" y="-799.68" font-family="Times New Roman,serif" font-size="14.00">Login</text>
<text xml:space="preserve" text-anchor="middle" x="213.62" y="-783.18" font-family="Times New Roman,serif" font-size="14.00">Nodes</text>
</g>
<!-- HS_Net&#45;&gt;Login -->
<g id="edge13" class="edge">
<title>HS_Net&#45;&gt;Login</title>
<path fill="none" stroke="blue" d="M213.62,-733.83C213.62,-742.64 213.62,-751.37 213.62,-759.37"/>
<polygon fill="blue" stroke="blue" points="217.13,-734.19 213.63,-724.19 210.13,-734.19 217.13,-734.19"/>
<polygon fill="blue" stroke="blue" points="210.13,-759.35 213.63,-769.35 217.13,-759.35 210.13,-759.35"/>
</g>
<!-- Datamover -->
<g id="node12" class="node">
<title>Datamover</title>
<polygon fill="none" stroke="black" points="170,-834.85 93.25,-834.85 93.25,-758.1 170,-758.1 170,-834.85"/>
<text xml:space="preserve" text-anchor="middle" x="131.62" y="-799.68" font-family="Times New Roman,serif" font-size="14.00">Datamover</text>
<text xml:space="preserve" text-anchor="middle" x="131.62" y="-783.18" font-family="Times New Roman,serif" font-size="14.00">Nodes</text>
</g>
<!-- HS_Net&#45;&gt;Datamover -->
<g id="edge18" class="edge">
<title>HS_Net&#45;&gt;Datamover</title>
<path fill="none" stroke="blue" d="M183.87,-712.41C176.53,-724.09 168.66,-736.61 161.31,-748.28"/>
<polygon fill="blue" stroke="blue" points="186.74,-714.43 189.1,-704.1 180.81,-710.7 186.74,-714.43"/>
<polygon fill="blue" stroke="blue" points="158.46,-746.25 156.1,-756.57 164.38,-749.97 158.46,-746.25"/>
</g>
<!-- Data_Net -->
<g id="node4" class="node">
<title>Data_Net</title>
<polygon fill="none" stroke="black" points="429.63,-722.1 338.05,-635.13 521.2,-635.13 429.63,-722.1"/>
<text xml:space="preserve" text-anchor="middle" x="429.62" y="-667.32" font-family="Times New Roman,serif" font-size="14.00">Data</text>
<text xml:space="preserve" text-anchor="middle" x="429.62" y="-650.82" font-family="Times New Roman,serif" font-size="14.00">Switches</text>
</g>
<!-- Data_Net&#45;&gt;CPU -->
<g id="edge2" class="edge">
<title>Data_Net&#45;&gt;CPU</title>
<path fill="none" stroke="green" d="M391.05,-701.04C372.58,-718.23 350.43,-738.85 331.55,-756.44"/>
<polygon fill="green" stroke="green" points="393.21,-703.81 398.14,-694.43 388.44,-698.69 393.21,-703.81"/>
<polygon fill="green" stroke="green" points="329.17,-753.87 324.24,-763.25 333.94,-758.99 329.17,-753.87"/>
</g>
<!-- Data_Net&#45;&gt;GPU -->
<g id="edge5" class="edge">
<title>Data_Net&#45;&gt;GPU</title>
<path fill="none" stroke="green" d="M407.7,-716.16C402.51,-728.23 397.04,-740.98 392.03,-752.64"/>
<polygon fill="green" stroke="green" points="410.73,-717.97 411.46,-707.4 404.3,-715.2 410.73,-717.97"/>
<polygon fill="green" stroke="green" points="388.91,-751.03 388.18,-761.6 395.34,-753.8 388.91,-751.03"/>
</g>
<!-- Storage2 -->
<g id="node9" class="node">
<title>Storage2</title>
<polygon fill="none" stroke="black" points="500.25,-834.1 425,-834.1 425,-758.85 500.25,-758.85 500.25,-834.1"/>
<text xml:space="preserve" text-anchor="middle" x="462.62" y="-799.68" font-family="Times New Roman,serif" font-size="14.00">Home</text>
<text xml:space="preserve" text-anchor="middle" x="462.62" y="-783.18" font-family="Times New Roman,serif" font-size="14.00">Filesystem</text>
</g>
<!-- Data_Net&#45;&gt;Storage2 -->
<g id="edge10" class="edge">
<title>Data_Net&#45;&gt;Storage2</title>
<path fill="none" stroke="green" d="M444.17,-722.56C446.3,-730.99 448.48,-739.61 450.56,-747.82"/>
<polygon fill="green" stroke="green" points="447.57,-721.75 441.72,-712.91 440.79,-723.46 447.57,-721.75"/>
<polygon fill="green" stroke="green" points="447.1,-748.41 452.95,-757.25 453.89,-746.69 447.1,-748.41"/>
</g>
<!-- Data_Net&#45;&gt;Login -->
<g id="edge12" class="edge">
<title>Data_Net&#45;&gt;Login</title>
<path fill="none" stroke="green" d="M382.42,-692.24C365.04,-701.96 345.09,-712.8 326.62,-722.1 292.16,-739.45 278.8,-735.36 247.62,-758.1 245.39,-759.73 243.19,-761.52 241.06,-763.41"/>
<polygon fill="green" stroke="green" points="384.01,-695.36 391.01,-687.41 380.58,-689.26 384.01,-695.36"/>
<polygon fill="green" stroke="green" points="238.99,-760.55 234.25,-770.02 243.86,-765.57 238.99,-760.55"/>
</g>
<!-- Dbase -->
<g id="node11" class="node">
<title>Dbase</title>
<polygon fill="none" stroke="black" points="583.38,-829.23 517.88,-829.23 517.88,-763.73 583.38,-763.73 583.38,-829.23"/>
<text xml:space="preserve" text-anchor="middle" x="550.62" y="-799.68" font-family="Times New Roman,serif" font-size="14.00">Database</text>
<text xml:space="preserve" text-anchor="middle" x="550.62" y="-783.18" font-family="Times New Roman,serif" font-size="14.00">Nodes</text>
</g>
<!-- Data_Net&#45;&gt;Dbase -->
<g id="edge15" class="edge">
<title>Data_Net&#45;&gt;Dbase</title>
<path fill="none" stroke="green" d="M465.79,-704.08C480.72,-720.17 498.02,-738.81 513.09,-755.04"/>
<polygon fill="green" stroke="green" points="468.39,-701.74 459.02,-696.79 463.26,-706.5 468.39,-701.74"/>
<polygon fill="green" stroke="green" points="510.35,-757.23 519.72,-762.18 515.48,-752.46 510.35,-757.23"/>
</g>
<!-- Data_Net&#45;&gt;Datamover -->
<g id="edge17" class="edge">
<title>Data_Net&#45;&gt;Datamover</title>
<path fill="none" stroke="green" d="M383.72,-693.93C366.33,-703.92 346.04,-714.51 326.62,-722.1 267.16,-745.35 242.69,-730.49 180.6,-758.4"/>
<polygon fill="green" stroke="green" points="385.43,-696.99 392.29,-688.91 381.89,-690.95 385.43,-696.99"/>
<polygon fill="green" stroke="green" points="179.22,-755.18 171.67,-762.61 182.2,-761.51 179.22,-755.18"/>
</g>
<!-- VM -->
<g id="node13" class="node">
<title>VM</title>
<polygon fill="none" stroke="black" points="665.62,-828.48 601.62,-828.48 601.62,-764.48 665.62,-764.48 665.62,-828.48"/>
<text xml:space="preserve" text-anchor="middle" x="633.62" y="-807.93" font-family="Times New Roman,serif" font-size="14.00">Virtual</text>
<text xml:space="preserve" text-anchor="middle" x="633.62" y="-791.43" font-family="Times New Roman,serif" font-size="14.00">Machine</text>
<text xml:space="preserve" text-anchor="middle" x="633.62" y="-774.93" font-family="Times New Roman,serif" font-size="14.00">Nodes</text>
</g>
<!-- Data_Net&#45;&gt;VM -->
<g id="edge20" class="edge">
<title>Data_Net&#45;&gt;VM</title>
<path fill="none" stroke="green" d="M479.26,-689.76C510.21,-705.93 550.59,-728.53 592.31,-758.33"/>
<polygon fill="green" stroke="green" points="481.15,-686.79 470.66,-685.31 477.93,-693.01 481.15,-686.79"/>
<polygon fill="green" stroke="green" points="590.13,-761.08 600.28,-764.12 594.24,-755.41 590.13,-761.08"/>
</g>
<!-- External -->
<g id="node5" class="node">
<title>External</title>
<polygon fill="none" stroke="black" points="613.04,-137.25 587.83,-170.73 537.42,-170.73 512.21,-137.25 537.42,-103.77 587.83,-103.77 613.04,-137.25"/>
<text xml:space="preserve" text-anchor="middle" x="562.62" y="-140.45" font-family="Times New Roman,serif" font-size="14.00">External</text>
<text xml:space="preserve" text-anchor="middle" x="562.62" y="-123.95" font-family="Times New Roman,serif" font-size="14.00">Users</text>
</g>
<!-- External&#45;&gt;Firewall -->
<g id="edge1" class="edge">
<title>External&#45;&gt;Firewall</title>
<path fill="none" stroke="green" d="M562.62,-171.11C562.62,-206.02 562.62,-261.28 562.62,-299.01"/>
<polygon fill="green" stroke="green" points="559.13,-298.6 562.63,-308.6 566.13,-298.6 559.13,-298.6"/>
</g>
<!-- CPU&#45;&gt;Admin_Net -->
<g id="edge4" class="edge">
<title>CPU&#45;&gt;Admin_Net</title>
<path fill="none" stroke="red" d="M316.82,-839.68C327.3,-855.94 339.19,-874.4 349.38,-890.21"/>
<polygon fill="red" stroke="red" points="319.78,-837.82 311.42,-831.31 313.9,-841.61 319.78,-837.82"/>
<polygon fill="red" stroke="red" points="346.3,-891.88 354.65,-898.39 352.18,-888.09 346.3,-891.88"/>
</g>
<!-- GPU&#45;&gt;Admin_Net -->
<g id="edge7" class="edge">
<title>GPU&#45;&gt;Admin_Net</title>
<path fill="none" stroke="red" d="M373.62,-841.3C373.62,-856.5 373.62,-873.45 373.62,-888.29"/>
<polygon fill="red" stroke="red" points="377.13,-841.55 373.63,-831.55 370.13,-841.55 377.13,-841.55"/>
<polygon fill="red" stroke="red" points="370.13,-888.15 373.63,-898.15 377.13,-888.15 370.13,-888.15"/>
</g>
<!-- Storage1&#45;&gt;Admin_Net -->
<g id="edge9" class="edge">
<title>Storage1&#45;&gt;Admin_Net</title>
<path fill="none" stroke="red" d="M85.59,-834.61C130.18,-856.37 209.38,-881.09 273.95,-899.91"/>
<polygon fill="red" stroke="red" points="87.42,-831.61 76.92,-830.14 84.21,-837.84 87.42,-831.61"/>
<polygon fill="red" stroke="red" points="272.97,-903.27 283.55,-902.69 274.92,-896.55 272.97,-903.27"/>
</g>
<!-- Storage2&#45;&gt;Admin_Net -->
<g id="edge11" class="edge">
<title>Storage2&#45;&gt;Admin_Net</title>
<path fill="none" stroke="red" d="M430.9,-843.94C420.52,-859.14 409.13,-875.84 399.25,-890.3"/>
<polygon fill="red" stroke="red" points="433.76,-845.96 436.51,-835.73 427.98,-842.02 433.76,-845.96"/>
<polygon fill="red" stroke="red" points="396.61,-887.96 393.86,-898.19 402.39,-891.91 396.61,-887.96"/>
</g>
<!-- Login&#45;&gt;Admin_Net -->
<g id="edge14" class="edge">
<title>Login&#45;&gt;Admin_Net</title>
<path fill="none" stroke="red" d="M242.23,-829.76C244.02,-831.52 245.83,-833.23 247.62,-834.85 270.6,-855.58 298.05,-876.26 321.46,-892.83"/>
<polygon fill="red" stroke="red" points="245.08,-827.68 235.59,-822.96 240.07,-832.56 245.08,-827.68"/>
<polygon fill="red" stroke="red" points="319.44,-895.69 329.64,-898.57 323.46,-889.96 319.44,-895.69"/>
</g>
<!-- Dbase&#45;&gt;Admin_Net -->
<g id="edge16" class="edge">
<title>Dbase&#45;&gt;Admin_Net</title>
<path fill="none" stroke="red" d="M508.76,-835.28C479.06,-858.48 451.13,-877.84 427.87,-893.26"/>
<polygon fill="red" stroke="red" points="510.53,-838.34 516.21,-829.4 506.19,-832.85 510.53,-838.34"/>
<polygon fill="red" stroke="red" points="426.22,-890.15 419.79,-898.57 430.07,-896 426.22,-890.15"/>
</g>
<!-- Datamover&#45;&gt;Admin_Net -->
<g id="edge19" class="edge">
<title>Datamover&#45;&gt;Admin_Net</title>
<path fill="none" stroke="red" d="M180.2,-834.82C221.64,-860.03 261.55,-879.65 295.1,-894.84"/>
<polygon fill="red" stroke="red" points="182.06,-831.85 171.71,-829.58 178.38,-837.81 182.06,-831.85"/>
<polygon fill="red" stroke="red" points="293.37,-897.9 303.93,-898.79 296.23,-891.51 293.37,-897.9"/>
</g>
<!-- TapeStage -->
<g id="node14" class="node">
<title>TapeStage</title>
<polygon fill="none" stroke="black" points="160.38,-957.58 102.88,-957.58 102.88,-900.08 160.38,-900.08 160.38,-957.58"/>
<text xml:space="preserve" text-anchor="middle" x="131.62" y="-940.28" font-family="Times New Roman,serif" font-size="14.00">Tape</text>
<text xml:space="preserve" text-anchor="middle" x="131.62" y="-923.78" font-family="Times New Roman,serif" font-size="14.00">Staging</text>
<text xml:space="preserve" text-anchor="middle" x="131.62" y="-907.28" font-family="Times New Roman,serif" font-size="14.00">Storage</text>
</g>
<!-- Datamover&#45;&gt;TapeStage -->
<g id="edge22" class="edge">
<title>Datamover&#45;&gt;TapeStage</title>
<path fill="none" stroke="darkolivegreen" d="M131.62,-846.66C131.62,-860.39 131.62,-875.14 131.62,-888.24"/>
<polygon fill="darkolivegreen" stroke="darkolivegreen" points="135.13,-846.69 131.63,-836.69 128.13,-846.69 135.13,-846.69"/>
<polygon fill="darkolivegreen" stroke="darkolivegreen" points="128.13,-888.23 131.63,-898.23 135.13,-888.23 128.13,-888.23"/>
</g>
<!-- VM&#45;&gt;Admin_Net -->
<g id="edge21" class="edge">
<title>VM&#45;&gt;Admin_Net</title>
<path fill="none" stroke="red" d="M591.6,-834.89C548.74,-861.73 506.12,-880.92 469.12,-895.39"/>
<polygon fill="red" stroke="red" points="593.48,-837.84 600.02,-829.51 589.71,-831.95 593.48,-837.84"/>
<polygon fill="red" stroke="red" points="468.33,-891.95 460.26,-898.8 470.85,-898.48 468.33,-891.95"/>
</g>
<!-- Tape -->
<g id="node15" class="node">
<title>Tape</title>
<polygon fill="none" stroke="black" points="157.62,-1074.82 105.62,-1074.82 105.62,-1022.82 157.62,-1022.82 157.62,-1074.82"/>
<text xml:space="preserve" text-anchor="middle" x="131.62" y="-1052.02" font-family="Times New Roman,serif" font-size="14.00">Tape</text>
<text xml:space="preserve" text-anchor="middle" x="131.62" y="-1035.52" font-family="Times New Roman,serif" font-size="14.00">Drives</text>
</g>
<!-- TapeStage&#45;&gt;Tape -->
<g id="edge23" class="edge">
<title>TapeStage&#45;&gt;Tape</title>
<path fill="none" stroke="darkolivegreen" d="M131.62,-969.17C131.62,-982.76 131.62,-997.92 131.62,-1011.28"/>
<polygon fill="darkolivegreen" stroke="darkolivegreen" points="135.13,-969.31 131.63,-959.31 128.13,-969.31 135.13,-969.31"/>
<polygon fill="darkolivegreen" stroke="darkolivegreen" points="128.13,-1010.96 131.63,-1020.96 135.13,-1010.96 128.13,-1010.96"/>
</g>
<!-- AdminAgg&#45;&gt;Admin_Net -->
<g id="edge25" class="edge">
<title>AdminAgg&#45;&gt;Admin_Net</title>
<path fill="none" stroke="brown" d="M711.33,-564.5C725.7,-640.68 734.25,-758.28 674.62,-834.85 648.19,-868.8 540.53,-896.14 461.49,-912.18"/>
<polygon fill="brown" stroke="brown" points="714.84,-564.18 709.47,-555.05 707.97,-565.54 714.84,-564.18"/>
<polygon fill="brown" stroke="brown" points="461.15,-908.68 452.02,-914.07 462.52,-915.54 461.15,-908.68"/>
</g>
<!-- DataAgg&#45;&gt;Data_Net -->
<g id="edge27" class="edge">
<title>DataAgg&#45;&gt;Data_Net</title>
<path fill="none" stroke="purple" d="M432.53,-579.09C431.99,-594.75 431.45,-610.29 430.99,-623.67"/>
<polygon fill="purple" stroke="purple" points="436.02,-579.48 432.87,-569.36 429.03,-579.23 436.02,-579.48"/>
<polygon fill="purple" stroke="purple" points="427.51,-623.2 430.66,-633.31 434.5,-623.44 427.51,-623.2"/>
</g>
<!-- Key1 -->
<g id="node18" class="node">
<title>Key1</title>
<polygon fill="none" stroke="black" points="749.75,-274.5 631.5,-274.5 631.5,0 749.75,0 749.75,-274.5"/>
<text xml:space="preserve" text-anchor="start" x="655" y="-255.75" font-family="Times New Roman,serif" font-size="14.00">Admin: 1G Eth</text>
<text xml:space="preserve" text-anchor="start" x="648.25" y="-235.25" font-family="Times New Roman,serif" font-size="14.00">Admin: 10G Eth</text>
<text xml:space="preserve" text-anchor="start" x="641.5" y="-214.75" font-family="Times New Roman,serif" font-size="14.00">Admin: 100G Eth</text>
<text xml:space="preserve" text-anchor="start" x="693.25" y="-194.25" font-family="Times New Roman,serif" font-size="14.00">OPA100</text>
<text xml:space="preserve" text-anchor="start" x="694" y="-173.75" font-family="Times New Roman,serif" font-size="14.00">CN5000</text>
<text xml:space="preserve" text-anchor="start" x="706" y="-153.25" font-family="Times New Roman,serif" font-size="14.00">IB100</text>
<text xml:space="preserve" text-anchor="start" x="706" y="-132.75" font-family="Times New Roman,serif" font-size="14.00">IB200</text>
<text xml:space="preserve" text-anchor="start" x="667.75" y="-112.25" font-family="Times New Roman,serif" font-size="14.00">Data: 1G Eth</text>
<text xml:space="preserve" text-anchor="start" x="661" y="-91.75" font-family="Times New Roman,serif" font-size="14.00">Data: 10G Eth</text>
<text xml:space="preserve" text-anchor="start" x="661" y="-71.25" font-family="Times New Roman,serif" font-size="14.00">Data: 40G Eth</text>
<text xml:space="preserve" text-anchor="start" x="654.25" y="-50.75" font-family="Times New Roman,serif" font-size="14.00">Data: 100G Eth</text>
<text xml:space="preserve" text-anchor="start" x="654.25" y="-30.25" font-family="Times New Roman,serif" font-size="14.00">Data: 200G Eth</text>
<text xml:space="preserve" text-anchor="start" x="677.5" y="-9.75" font-family="Times New Roman,serif" font-size="14.00">FC 32Gbps</text>
</g>
<!-- Key2 -->
<!-- Key1&#45;&gt;Key2 -->
<g id="edge28" class="edge">
<title>Key1:e&#45;&gt;Key2:w</title>
<path fill="none" stroke="red" d="M742.75,-14.25C759.23,-14.25 765.96,-14.25 778.33,-14.25"/>
<polygon fill="red" stroke="red" points="778.24,-17.75 788.24,-14.25 778.24,-10.75 778.24,-17.75"/>
</g>
<!-- Key1&#45;&gt;Key2 -->
<g id="edge29" class="edge">
<title>Key1:e&#45;&gt;Key2:w</title>
<path fill="none" stroke="brown" d="M742.75,-34.75C759.23,-34.75 765.96,-34.75 778.33,-34.75"/>
<polygon fill="brown" stroke="brown" points="778.24,-38.25 788.24,-34.75 778.24,-31.25 778.24,-38.25"/>
</g>
<!-- Key1&#45;&gt;Key2 -->
<g id="edge30" class="edge">
<title>Key1:e&#45;&gt;Key2:w</title>
<path fill="none" stroke="magenta" d="M742.75,-55.25C759.23,-55.25 765.96,-55.25 778.33,-55.25"/>
<polygon fill="magenta" stroke="magenta" points="778.24,-58.75 788.24,-55.25 778.24,-51.75 778.24,-58.75"/>
</g>
<!-- Key1&#45;&gt;Key2 -->
<g id="edge31" class="edge">
<title>Key1:e&#45;&gt;Key2:w</title>
<path fill="none" stroke="blue" d="M742.75,-75.75C759.23,-75.75 765.96,-75.75 778.33,-75.75"/>
<polygon fill="blue" stroke="blue" points="778.24,-79.25 788.24,-75.75 778.24,-72.25 778.24,-79.25"/>
</g>
<!-- Key1&#45;&gt;Key2 -->
<g id="edge32" class="edge">
<title>Key1:e&#45;&gt;Key2:w</title>
<path fill="none" stroke="pink" d="M742.75,-96.25C759.23,-96.25 765.96,-96.25 778.33,-96.25"/>
<polygon fill="pink" stroke="pink" points="778.24,-99.75 788.24,-96.25 778.24,-92.75 778.24,-99.75"/>
</g>
<!-- Key1&#45;&gt;Key2 -->
<g id="edge33" class="edge">
<title>Key1:e&#45;&gt;Key2:w</title>
<path fill="none" stroke="lightseagreen" d="M742.75,-116.75C759.23,-116.75 765.96,-116.75 778.33,-116.75"/>
<polygon fill="lightseagreen" stroke="lightseagreen" points="778.24,-120.25 788.24,-116.75 778.24,-113.25 778.24,-120.25"/>
</g>
<!-- Key1&#45;&gt;Key2 -->
<g id="edge34" class="edge">
<title>Key1:e&#45;&gt;Key2:w</title>
<path fill="none" stroke="tan" d="M742.75,-137.25C759.23,-137.25 765.96,-137.25 778.33,-137.25"/>
<polygon fill="tan" stroke="tan" points="778.24,-140.75 788.24,-137.25 778.24,-133.75 778.24,-140.75"/>
</g>
<!-- Key1&#45;&gt;Key2 -->
<g id="edge35" class="edge">
<title>Key1:e&#45;&gt;Key2:w</title>
<path fill="none" stroke="cyan" d="M742.75,-157.75C759.23,-157.75 765.96,-157.75 778.33,-157.75"/>
<polygon fill="cyan" stroke="cyan" points="778.24,-161.25 788.24,-157.75 778.24,-154.25 778.24,-161.25"/>
</g>
<!-- Key1&#45;&gt;Key2 -->
<g id="edge36" class="edge">
<title>Key1:e&#45;&gt;Key2:w</title>
<path fill="none" stroke="green" d="M742.75,-178.25C759.23,-178.25 765.96,-178.25 778.33,-178.25"/>
<polygon fill="green" stroke="green" points="778.24,-181.75 788.24,-178.25 778.24,-174.75 778.24,-181.75"/>
</g>
<!-- Key1&#45;&gt;Key2 -->
<g id="edge37" class="edge">
<title>Key1:e&#45;&gt;Key2:w</title>
<path fill="none" stroke="purple" d="M742.75,-198.75C759.23,-198.75 765.96,-198.75 778.33,-198.75"/>
<polygon fill="purple" stroke="purple" points="778.24,-202.25 788.24,-198.75 778.24,-195.25 778.24,-202.25"/>
</g>
<!-- Key1&#45;&gt;Key2 -->
<g id="edge38" class="edge">
<title>Key1:e&#45;&gt;Key2:w</title>
<path fill="none" stroke="orange" d="M742.75,-219.25C759.23,-219.25 765.96,-219.25 778.33,-219.25"/>
<polygon fill="orange" stroke="orange" points="778.24,-222.75 788.24,-219.25 778.24,-215.75 778.24,-222.75"/>
</g>
<!-- Key1&#45;&gt;Key2 -->
<g id="edge39" class="edge">
<title>Key1:e&#45;&gt;Key2:w</title>
<path fill="none" stroke="gray" d="M742.75,-239.75C759.23,-239.75 765.96,-239.75 778.33,-239.75"/>
<polygon fill="gray" stroke="gray" points="778.24,-243.25 788.24,-239.75 778.24,-236.25 778.24,-243.25"/>
</g>
<!-- Key1&#45;&gt;Key2 -->
<g id="edge40" class="edge">
<title>Key1:e&#45;&gt;Key2:w</title>
<path fill="none" stroke="darkolivegreen" d="M742.75,-260.25C759.23,-260.25 765.96,-260.25 778.33,-260.25"/>
<polygon fill="darkolivegreen" stroke="darkolivegreen" points="778.24,-263.75 788.24,-260.25 778.24,-256.75 778.24,-263.75"/>
</g>
</g>
</svg>
