<?xml version="1.0" encoding="UTF-8" standalone="no"?>
<!DOCTYPE svg PUBLIC "-//W3C//DTD SVG 1.1//EN"
 "http://www.w3.org/Graphics/SVG/1.1/DTD/svg11.dtd">
<!-- Generated by graphviz version 14.1.3 (20260303.0454)
 -->
<!-- Title: g Pages: 1 -->
<svg width="282pt" height="343pt"
 viewBox="0.00 0.00 282.00 343.00" xmlns="http://www.w3.org/2000/svg" xmlns:xlink="http://www.w3.org/1999/xlink">
<g id="graph0" class="graph" transform="scale(1 1) rotate(0) translate(4 338.5)">
<title>g</title>
<polygon fill="white" stroke="none" points="-4,4 -4,-338.5 277.75,-338.5 277.75,4 -4,4"/>
<!-- FW -->
<g id="node1" class="node">
<title>FW</title>
<polygon fill="none" stroke="black" points="166.88,-334.5 105.88,-334.5 105.88,-273.5 166.88,-273.5 166.88,-334.5"/>
<text xml:space="preserve" text-anchor="middle" x="136.38" y="-298.95" font-family="Times New Roman,serif" font-size="14.00">Firewall</text>
</g>
<!-- Data_Agg -->
<g id="node4" class="node">
<title>Data_Agg</title>
<polygon fill="none" stroke="black" points="64.75,-201.5 0,-201.5 0,-136.75 64.75,-136.75 64.75,-201.5"/>
<text xml:space="preserve" text-anchor="middle" x="32.38" y="-180.57" font-family="Times New Roman,serif" font-size="14.00">Data</text>
<text xml:space="preserve" text-anchor="middle" x="32.38" y="-164.07" font-family="Times New Roman,serif" font-size="14.00">Agg</text>
<text xml:space="preserve" text-anchor="middle" x="32.38" y="-147.57" font-family="Times New Roman,serif" font-size="14.00">Switches</text>
</g>
<!-- FW&#45;&gt;Data_Agg -->
<g id="edge1" class="edge">
<title>FW&#45;&gt;Data_Agg</title>
<path fill="none" stroke="orange" d="M106.13,-264.35C92.86,-247.4 77.29,-227.5 63.88,-210.37"/>
<polygon fill="orange" stroke="orange" points="103.18,-266.27 112.1,-271.99 108.7,-261.96 103.18,-266.27"/>
<polygon fill="orange" stroke="orange" points="66.94,-208.61 58.02,-202.89 61.43,-212.92 66.94,-208.61"/>
</g>
<!-- Admin_Agg -->
<g id="node5" class="node">
<title>Admin_Agg</title>
<polygon fill="none" stroke="black" points="273.75,-201.5 209,-201.5 209,-136.75 273.75,-136.75 273.75,-201.5"/>
<text xml:space="preserve" text-anchor="middle" x="241.38" y="-180.57" font-family="Times New Roman,serif" font-size="14.00">Admin</text>
<text xml:space="preserve" text-anchor="middle" x="241.38" y="-164.07" font-family="Times New Roman,serif" font-size="14.00">Agg</text>
<text xml:space="preserve" text-anchor="middle" x="241.38" y="-147.57" font-family="Times New Roman,serif" font-size="14.00">Switches</text>
</g>
<!-- FW&#45;&gt;Admin_Agg -->
<g id="edge2" class="edge">
<title>FW&#45;&gt;Admin_Agg</title>
<path fill="none" stroke="magenta" d="M166.91,-264.35C180.31,-247.4 196.03,-227.5 209.57,-210.37"/>
<polygon fill="magenta" stroke="magenta" points="164.33,-261.98 160.88,-271.99 169.82,-266.32 164.33,-261.98"/>
<polygon fill="magenta" stroke="magenta" points="212.03,-212.9 215.49,-202.88 206.54,-208.56 212.03,-212.9"/>
</g>
<!-- Data_Net -->
<g id="node2" class="node">
<title>Data_Net</title>
<polygon fill="none" stroke="black" points="64.75,-64.75 0,-64.75 0,0 64.75,0 64.75,-64.75"/>
<text xml:space="preserve" text-anchor="middle" x="32.38" y="-43.83" font-family="Times New Roman,serif" font-size="14.00">Data</text>
<text xml:space="preserve" text-anchor="middle" x="32.38" y="-27.32" font-family="Times New Roman,serif" font-size="14.00">Network</text>
<text xml:space="preserve" text-anchor="middle" x="32.38" y="-10.82" font-family="Times New Roman,serif" font-size="14.00">Switches</text>
</g>
<!-- Admin_Net -->
<g id="node3" class="node">
<title>Admin_Net</title>
<polygon fill="none" stroke="black" points="273.75,-64.75 209,-64.75 209,0 273.75,0 273.75,-64.75"/>
<text xml:space="preserve" text-anchor="middle" x="241.38" y="-43.83" font-family="Times New Roman,serif" font-size="14.00">Admin</text>
<text xml:space="preserve" text-anchor="middle" x="241.38" y="-27.32" font-family="Times New Roman,serif" font-size="14.00">Network</text>
<text xml:space="preserve" text-anchor="middle" x="241.38" y="-10.82" font-family="Times New Roman,serif" font-size="14.00">Switches</text>
</g>
<!-- Data_Agg&#45;&gt;Data_Net -->
<g id="edge3" class="edge">
<title>Data_Agg&#45;&gt;Data_Net</title>
<path fill="none" stroke="purple" d="M32.38,-125.2C32.38,-109.7 32.38,-92.2 32.38,-76.67"/>
<polygon fill="purple" stroke="purple" points="28.88,-125.02 32.38,-135.02 35.88,-125.02 28.88,-125.02"/>
<polygon fill="purple" stroke="purple" points="35.88,-76.75 32.38,-66.75 28.88,-76.75 35.88,-76.75"/>
</g>
<!-- Admin_Agg&#45;&gt;Admin_Net -->
<g id="edge4" class="edge">
<title>Admin_Agg&#45;&gt;Admin_Net</title>
<path fill="none" stroke="brown" d="M241.38,-125.2C241.38,-109.7 241.38,-92.2 241.38,-76.67"/>
<polygon fill="brown" stroke="brown" points="237.88,-125.02 241.38,-135.02 244.88,-125.02 237.88,-125.02"/>
<polygon fill="brown" stroke="brown" points="244.88,-76.75 241.38,-66.75 237.88,-76.75 244.88,-76.75"/>
</g>
</g>
</svg>
