<?xml version="1.0" encoding="UTF-8" standalone="no"?>
<!DOCTYPE svg PUBLIC "-//W3C//DTD SVG 1.1//EN"
 "http://www.w3.org/Graphics/SVG/1.1/DTD/svg11.dtd">
<!-- Generated by graphviz version 14.1.3 (20260303.0454)
 -->
<!-- Title: g Pages: 1 -->
<svg width="282pt" height="206pt"
 viewBox="0.00 0.00 282.00 206.00" xmlns="http://www.w3.org/2000/svg" xmlns:xlink="http://www.w3.org/1999/xlink">
<g id="graph0" class="graph" transform="scale(1 1) rotate(0) translate(4 201.75)">
<title>g</title>
<polygon fill="white" stroke="none" points="-4,4 -4,-201.75 277.75,-201.75 277.75,4 -4,4"/>
<!-- FW -->
<g id="node1" class="node">
<title>FW</title>
<polygon fill="none" stroke="black" points="166.88,-197.75 105.88,-197.75 105.88,-136.75 166.88,-136.75 166.88,-197.75"/>
<text xml:space="preserve" text-anchor="middle" x="136.38" y="-162.2" font-family="Times New Roman,serif" font-size="14.00">Firewall</text>
</g>
<!-- Data_Net -->
<g id="node2" class="node">
<title>Data_Net</title>
<polygon fill="none" stroke="black" points="64.75,-64.75 0,-64.75 0,0 64.75,0 64.75,-64.75"/>
<text xml:space="preserve" text-anchor="middle" x="32.38" y="-43.83" font-family="Times New Roman,serif" font-size="14.00">Data</text>
<text xml:space="preserve" text-anchor="middle" x="32.38" y="-27.32" font-family="Times New Roman,serif" font-size="14.00">Network</text>
<text xml:space="preserve" text-anchor="middle" x="32.38" y="-10.82" font-family="Times New Roman,serif" font-size="14.00">Switches</text>
</g>
<!-- FW&#45;&gt;Data_Net -->
<g id="edge1" class="edge">
<title>FW&#45;&gt;Data_Net</title>
<path fill="none" stroke="purple" d="M106.13,-127.6C92.86,-110.65 77.29,-90.75 63.88,-73.62"/>
<polygon fill="purple" stroke="purple" points="103.18,-129.52 112.1,-135.24 108.7,-125.21 103.18,-129.52"/>
<polygon fill="purple" stroke="purple" points="66.94,-71.86 58.02,-66.14 61.43,-76.17 66.94,-71.86"/>
</g>
<!-- Admin_Net -->
<g id="node3" class="node">
<title>Admin_Net</title>
<polygon fill="none" stroke="black" points="273.75,-64.75 209,-64.75 209,0 273.75,0 273.75,-64.75"/>
<text xml:space="preserve" text-anchor="middle" x="241.38" y="-43.83" font-family="Times New Roman,serif" font-size="14.00">Admin</text>
<text xml:space="preserve" text-anchor="middle" x="241.38" y="-27.32" font-family="Times New Roman,serif" font-size="14.00">Network</text>
<text xml:space="preserve" text-anchor="middle" x="241.38" y="-10.82" font-family="Times New Roman,serif" font-size="14.00">Switches</text>
</g>
<!-- FW&#45;&gt;Admin_Net -->
<g id="edge2" class="edge">
<title>FW&#45;&gt;Admin_Net</title>
<path fill="none" stroke="brown" d="M166.91,-127.6C180.31,-110.65 196.03,-90.75 209.57,-73.62"/>
<polygon fill="brown" stroke="brown" points="164.33,-125.23 160.88,-135.24 169.82,-129.57 164.33,-125.23"/>
<polygon fill="brown" stroke="brown" points="212.03,-76.15 215.49,-66.13 206.54,-71.81 212.03,-76.15"/>
</g>
</g>
</svg>
