<?xml version="1.0" encoding="UTF-8" standalone="no"?>
<!DOCTYPE svg PUBLIC "-//W3C//DTD SVG 1.1//EN"
 "http://www.w3.org/Graphics/SVG/1.1/DTD/svg11.dtd">
<!-- Generated by graphviz version 14.1.3 (20260303.0454)
 -->
<!-- Title: g Pages: 1 -->
<svg width="1088pt" height="812pt"
 viewBox="0.00 0.00 1088.00 812.00" xmlns="http://www.w3.org/2000/svg" xmlns:xlink="http://www.w3.org/1999/xlink">
<g id="graph0" class="graph" transform="scale(1 1) rotate(0) translate(4 807.5)">
<title>g</title>
<polygon fill="white" stroke="none" points="-4,4 -4,-807.5 1084.25,-807.5 1084.25,4 -4,4"/>
<!-- FW -->
<g id="node1" class="node">
<title>FW</title>
<polygon fill="none" stroke="black" points="570.62,-696.75 509.62,-696.75 509.62,-635.75 570.62,-635.75 570.62,-696.75"/>
<text xml:space="preserve" text-anchor="middle" x="540.12" y="-661.2" font-family="Times New Roman,serif" font-size="14.00">Firewall</text>
</g>
<!-- Data_Agg1 -->
<g id="node2" class="node">
<title>Data_Agg1</title>
<polygon fill="none" stroke="black" points="264.25,-457 204,-457 204,-396.75 264.25,-396.75 264.25,-457"/>
<text xml:space="preserve" text-anchor="middle" x="234.12" y="-438.32" font-family="Times New Roman,serif" font-size="14.00">Data</text>
<text xml:space="preserve" text-anchor="middle" x="234.12" y="-421.82" font-family="Times New Roman,serif" font-size="14.00">Agg</text>
<text xml:space="preserve" text-anchor="middle" x="234.12" y="-405.32" font-family="Times New Roman,serif" font-size="14.00">Switch1</text>
</g>
<!-- FW&#45;&gt;Data_Agg1 -->
<g id="edge1" class="edge">
<title>FW&#45;&gt;Data_Agg1</title>
<path fill="none" stroke="orange" d="M500.29,-634.35C441.42,-588.68 331.84,-503.68 273.33,-458.29"/>
<polygon fill="orange" stroke="orange" points="498.14,-637.11 508.19,-640.48 502.43,-631.58 498.14,-637.11"/>
<polygon fill="orange" stroke="orange" points="275.64,-455.65 265.59,-452.28 271.34,-461.18 275.64,-455.65"/>
</g>
<!-- Admin_Agg1 -->
<g id="node3" class="node">
<title>Admin_Agg1</title>
<polygon fill="none" stroke="black" points="672.25,-457 612,-457 612,-396.75 672.25,-396.75 672.25,-457"/>
<text xml:space="preserve" text-anchor="middle" x="642.12" y="-438.32" font-family="Times New Roman,serif" font-size="14.00">Admin</text>
<text xml:space="preserve" text-anchor="middle" x="642.12" y="-421.82" font-family="Times New Roman,serif" font-size="14.00">Agg</text>
<text xml:space="preserve" text-anchor="middle" x="642.12" y="-405.32" font-family="Times New Roman,serif" font-size="14.00">Switch1</text>
</g>
<!-- FW&#45;&gt;Admin_Agg1 -->
<g id="edge2" class="edge">
<title>FW&#45;&gt;Admin_Agg1</title>
<path fill="none" stroke="magenta" d="M557.35,-625.16C576.15,-581.41 606.08,-511.76 624.89,-468"/>
<polygon fill="magenta" stroke="magenta" points="554.17,-623.71 553.43,-634.28 560.6,-626.47 554.17,-623.71"/>
<polygon fill="magenta" stroke="magenta" points="628.08,-469.42 628.82,-458.85 621.65,-466.65 628.08,-469.42"/>
</g>
<!-- Data_Agg2 -->
<g id="node4" class="node">
<title>Data_Agg2</title>
<polygon fill="none" stroke="black" points="468.25,-457 408,-457 408,-396.75 468.25,-396.75 468.25,-457"/>
<text xml:space="preserve" text-anchor="middle" x="438.12" y="-438.32" font-family="Times New Roman,serif" font-size="14.00">Data</text>
<text xml:space="preserve" text-anchor="middle" x="438.12" y="-421.82" font-family="Times New Roman,serif" font-size="14.00">Agg</text>
<text xml:space="preserve" text-anchor="middle" x="438.12" y="-405.32" font-family="Times New Roman,serif" font-size="14.00">Switch2</text>
</g>
<!-- FW&#45;&gt;Data_Agg2 -->
<g id="edge3" class="edge">
<title>FW&#45;&gt;Data_Agg2</title>
<path fill="none" stroke="orange" d="M522.9,-625.16C504.1,-581.41 474.17,-511.76 455.36,-468"/>
<polygon fill="orange" stroke="orange" points="519.65,-626.47 526.82,-634.28 526.08,-623.71 519.65,-626.47"/>
<polygon fill="orange" stroke="orange" points="458.6,-466.65 451.43,-458.85 452.17,-469.42 458.6,-466.65"/>
</g>
<!-- Admin_Agg2 -->
<g id="node5" class="node">
<title>Admin_Agg2</title>
<polygon fill="none" stroke="black" points="876.25,-457 816,-457 816,-396.75 876.25,-396.75 876.25,-457"/>
<text xml:space="preserve" text-anchor="middle" x="846.12" y="-438.32" font-family="Times New Roman,serif" font-size="14.00">Admin</text>
<text xml:space="preserve" text-anchor="middle" x="846.12" y="-421.82" font-family="Times New Roman,serif" font-size="14.00">Agg</text>
<text xml:space="preserve" text-anchor="middle" x="846.12" y="-405.32" font-family="Times New Roman,serif" font-size="14.00">Switch2</text>
</g>
<!-- FW&#45;&gt;Admin_Agg2 -->
<g id="edge4" class="edge">
<title>FW&#45;&gt;Admin_Agg2</title>
<path fill="none" stroke="magenta" d="M562.9,-625.89C581.53,-596.33 610.12,-556.4 643.12,-529 692.59,-487.94 761.54,-458.11 805,-441.9"/>
<polygon fill="magenta" stroke="magenta" points="560.05,-623.85 557.77,-634.2 566,-627.53 560.05,-623.85"/>
<polygon fill="magenta" stroke="magenta" points="806.12,-445.22 814.32,-438.5 803.72,-438.64 806.12,-445.22"/>
</g>
<!-- Data_Agg1&#45;&gt;Data_Agg2 -->
<g id="edge5" class="edge">
<title>Data_Agg1&#45;&gt;Data_Agg2</title>
<path fill="none" stroke="orange" d="M275.31,-412.31C315.79,-401.62 356.26,-401.6 396.74,-412.26"/>
<polygon fill="orange" stroke="orange" points="274.5,-408.9 265.86,-415.03 276.44,-415.63 274.5,-408.9"/>
<polygon fill="orange" stroke="orange" points="395.56,-415.56 406.13,-414.95 397.49,-408.83 395.56,-415.56"/>
</g>
<!-- Data1 -->
<g id="node6" class="node">
<title>Data1</title>
<polygon fill="none" stroke="black" points="60.25,-324.75 0,-324.75 0,-264.5 60.25,-264.5 60.25,-324.75"/>
<text xml:space="preserve" text-anchor="middle" x="30.12" y="-297.82" font-family="Times New Roman,serif" font-size="14.00">Data</text>
<text xml:space="preserve" text-anchor="middle" x="30.12" y="-281.32" font-family="Times New Roman,serif" font-size="14.00">Switch1</text>
</g>
<!-- Data_Agg1&#45;&gt;Data1 -->
<g id="edge9" class="edge">
<title>Data_Agg1&#45;&gt;Data1</title>
<path fill="none" stroke="purple" d="M194.07,-400.3C158.24,-377.43 106.01,-344.08 70.18,-321.2"/>
<polygon fill="purple" stroke="purple" points="192,-403.13 202.31,-405.56 195.76,-397.23 192,-403.13"/>
<polygon fill="purple" stroke="purple" points="72.13,-318.29 61.82,-315.86 68.36,-324.19 72.13,-318.29"/>
</g>
<!-- Data2 -->
<g id="node8" class="node">
<title>Data2</title>
<polygon fill="none" stroke="black" points="264.25,-324.75 204,-324.75 204,-264.5 264.25,-264.5 264.25,-324.75"/>
<text xml:space="preserve" text-anchor="middle" x="234.12" y="-297.82" font-family="Times New Roman,serif" font-size="14.00">Data</text>
<text xml:space="preserve" text-anchor="middle" x="234.12" y="-281.32" font-family="Times New Roman,serif" font-size="14.00">Switch2</text>
</g>
<!-- Data_Agg1&#45;&gt;Data2 -->
<g id="edge11" class="edge">
<title>Data_Agg1&#45;&gt;Data2</title>
<path fill="none" stroke="purple" d="M234.12,-385.03C234.12,-369.54 234.12,-351.9 234.12,-336.42"/>
<polygon fill="purple" stroke="purple" points="230.63,-384.81 234.13,-394.81 237.63,-384.81 230.63,-384.81"/>
<polygon fill="purple" stroke="purple" points="237.63,-336.58 234.13,-326.58 230.63,-336.58 237.63,-336.58"/>
</g>
<!-- Data3 -->
<g id="node10" class="node">
<title>Data3</title>
<polygon fill="none" stroke="black" points="468.25,-324.75 408,-324.75 408,-264.5 468.25,-264.5 468.25,-324.75"/>
<text xml:space="preserve" text-anchor="middle" x="438.12" y="-297.82" font-family="Times New Roman,serif" font-size="14.00">Data</text>
<text xml:space="preserve" text-anchor="middle" x="438.12" y="-281.32" font-family="Times New Roman,serif" font-size="14.00">Switch2</text>
</g>
<!-- Data_Agg1&#45;&gt;Data3 -->
<g id="edge13" class="edge">
<title>Data_Agg1&#45;&gt;Data3</title>
<path fill="none" stroke="purple" d="M274.18,-400.3C310.01,-377.43 362.24,-344.08 398.07,-321.2"/>
<polygon fill="purple" stroke="purple" points="272.49,-397.23 265.94,-405.56 276.25,-403.13 272.49,-397.23"/>
<polygon fill="purple" stroke="purple" points="399.89,-324.19 406.43,-315.86 396.12,-318.29 399.89,-324.19"/>
</g>
<!-- Admin_Agg1&#45;&gt;Admin_Agg2 -->
<g id="edge7" class="edge">
<title>Admin_Agg1&#45;&gt;Admin_Agg2</title>
<path fill="none" stroke="magenta" d="M683.31,-412.31C723.79,-401.62 764.26,-401.6 804.74,-412.26"/>
<polygon fill="magenta" stroke="magenta" points="682.5,-408.9 673.86,-415.03 684.44,-415.63 682.5,-408.9"/>
<polygon fill="magenta" stroke="magenta" points="803.56,-415.56 814.13,-414.95 805.49,-408.83 803.56,-415.56"/>
</g>
<!-- Admin1 -->
<g id="node7" class="node">
<title>Admin1</title>
<polygon fill="none" stroke="black" points="672.25,-324.75 612,-324.75 612,-264.5 672.25,-264.5 672.25,-324.75"/>
<text xml:space="preserve" text-anchor="middle" x="642.12" y="-297.82" font-family="Times New Roman,serif" font-size="14.00">Admin</text>
<text xml:space="preserve" text-anchor="middle" x="642.12" y="-281.32" font-family="Times New Roman,serif" font-size="14.00">Switch1</text>
</g>
<!-- Admin_Agg1&#45;&gt;Admin1 -->
<g id="edge15" class="edge">
<title>Admin_Agg1&#45;&gt;Admin1</title>
<path fill="none" stroke="brown" d="M642.12,-385.03C642.12,-369.54 642.12,-351.9 642.12,-336.42"/>
<polygon fill="brown" stroke="brown" points="638.63,-384.81 642.13,-394.81 645.63,-384.81 638.63,-384.81"/>
<polygon fill="brown" stroke="brown" points="645.63,-336.58 642.13,-326.58 638.63,-336.58 645.63,-336.58"/>
</g>
<!-- Admin2 -->
<g id="node9" class="node">
<title>Admin2</title>
<polygon fill="none" stroke="black" points="876.25,-324.75 816,-324.75 816,-264.5 876.25,-264.5 876.25,-324.75"/>
<text xml:space="preserve" text-anchor="middle" x="846.12" y="-297.82" font-family="Times New Roman,serif" font-size="14.00">Admin</text>
<text xml:space="preserve" text-anchor="middle" x="846.12" y="-281.32" font-family="Times New Roman,serif" font-size="14.00">Switch2</text>
</g>
<!-- Admin_Agg1&#45;&gt;Admin2 -->
<g id="edge17" class="edge">
<title>Admin_Agg1&#45;&gt;Admin2</title>
<path fill="none" stroke="brown" d="M682.18,-400.3C718.01,-377.43 770.24,-344.08 806.07,-321.2"/>
<polygon fill="brown" stroke="brown" points="680.49,-397.23 673.94,-405.56 684.25,-403.13 680.49,-397.23"/>
<polygon fill="brown" stroke="brown" points="807.89,-324.19 814.43,-315.86 804.12,-318.29 807.89,-324.19"/>
</g>
<!-- Admin3 -->
<g id="node11" class="node">
<title>Admin3</title>
<polygon fill="none" stroke="black" points="1080.25,-324.75 1020,-324.75 1020,-264.5 1080.25,-264.5 1080.25,-324.75"/>
<text xml:space="preserve" text-anchor="middle" x="1050.12" y="-297.82" font-family="Times New Roman,serif" font-size="14.00">Admin</text>
<text xml:space="preserve" text-anchor="middle" x="1050.12" y="-281.32" font-family="Times New Roman,serif" font-size="14.00">Switch3</text>
</g>
<!-- Admin_Agg1&#45;&gt;Admin3 -->
<g id="edge19" class="edge">
<title>Admin_Agg1&#45;&gt;Admin3</title>
<path fill="none" stroke="brown" d="M683.34,-412.72C761.5,-387.77 930.42,-333.84 1008.72,-308.84"/>
<polygon fill="brown" stroke="brown" points="682.36,-409.36 673.9,-415.73 684.49,-416.02 682.36,-409.36"/>
<polygon fill="brown" stroke="brown" points="1009.69,-312.21 1018.15,-305.83 1007.56,-305.54 1009.69,-312.21"/>
</g>
<!-- Data_Agg2&#45;&gt;Data_Agg1 -->
<g id="edge6" class="edge">
<title>Data_Agg2&#45;&gt;Data_Agg1</title>
<path fill="none" stroke="orange" d="M396.74,-441.49C356.26,-452.15 315.79,-452.13 275.31,-441.44"/>
<polygon fill="orange" stroke="orange" points="397.49,-444.92 406.13,-438.8 395.56,-438.19 397.49,-444.92"/>
<polygon fill="orange" stroke="orange" points="276.44,-438.12 265.86,-438.72 274.5,-444.85 276.44,-438.12"/>
</g>
<!-- Data_Agg2&#45;&gt;Data1 -->
<g id="edge10" class="edge">
<title>Data_Agg2&#45;&gt;Data1</title>
<path fill="none" stroke="purple" d="M396.91,-412.72C318.75,-387.77 149.83,-333.84 71.53,-308.84"/>
<polygon fill="purple" stroke="purple" points="395.76,-416.02 406.35,-415.73 397.89,-409.36 395.76,-416.02"/>
<polygon fill="purple" stroke="purple" points="72.69,-305.54 62.1,-305.83 70.56,-312.21 72.69,-305.54"/>
</g>
<!-- Data_Agg2&#45;&gt;Data2 -->
<g id="edge12" class="edge">
<title>Data_Agg2&#45;&gt;Data2</title>
<path fill="none" stroke="purple" d="M398.07,-400.3C362.24,-377.43 310.01,-344.08 274.18,-321.2"/>
<polygon fill="purple" stroke="purple" points="396,-403.13 406.31,-405.56 399.76,-397.23 396,-403.13"/>
<polygon fill="purple" stroke="purple" points="276.13,-318.29 265.82,-315.86 272.36,-324.19 276.13,-318.29"/>
</g>
<!-- Data_Agg2&#45;&gt;Data3 -->
<g id="edge14" class="edge">
<title>Data_Agg2&#45;&gt;Data3</title>
<path fill="none" stroke="purple" d="M438.12,-385.03C438.12,-369.54 438.12,-351.9 438.12,-336.42"/>
<polygon fill="purple" stroke="purple" points="434.63,-384.81 438.13,-394.81 441.63,-384.81 434.63,-384.81"/>
<polygon fill="purple" stroke="purple" points="441.63,-336.58 438.13,-326.58 434.63,-336.58 441.63,-336.58"/>
</g>
<!-- Admin_Agg2&#45;&gt;Admin_Agg1 -->
<g id="edge8" class="edge">
<title>Admin_Agg2&#45;&gt;Admin_Agg1</title>
<path fill="none" stroke="magenta" d="M804.74,-441.49C764.26,-452.15 723.79,-452.13 683.31,-441.44"/>
<polygon fill="magenta" stroke="magenta" points="805.49,-444.92 814.13,-438.8 803.56,-438.19 805.49,-444.92"/>
<polygon fill="magenta" stroke="magenta" points="684.44,-438.12 673.86,-438.72 682.5,-444.85 684.44,-438.12"/>
</g>
<!-- Admin_Agg2&#45;&gt;Admin1 -->
<g id="edge16" class="edge">
<title>Admin_Agg2&#45;&gt;Admin1</title>
<path fill="none" stroke="brown" d="M806.07,-400.3C770.24,-377.43 718.01,-344.08 682.18,-321.2"/>
<polygon fill="brown" stroke="brown" points="804,-403.13 814.31,-405.56 807.76,-397.23 804,-403.13"/>
<polygon fill="brown" stroke="brown" points="684.13,-318.29 673.82,-315.86 680.36,-324.19 684.13,-318.29"/>
</g>
<!-- Admin_Agg2&#45;&gt;Admin2 -->
<g id="edge18" class="edge">
<title>Admin_Agg2&#45;&gt;Admin2</title>
<path fill="none" stroke="brown" d="M846.12,-385.03C846.12,-369.54 846.12,-351.9 846.12,-336.42"/>
<polygon fill="brown" stroke="brown" points="842.63,-384.81 846.13,-394.81 849.63,-384.81 842.63,-384.81"/>
<polygon fill="brown" stroke="brown" points="849.63,-336.58 846.13,-326.58 842.63,-336.58 849.63,-336.58"/>
</g>
<!-- Admin_Agg2&#45;&gt;Admin3 -->
<g id="edge20" class="edge">
<title>Admin_Agg2&#45;&gt;Admin3</title>
<path fill="none" stroke="brown" d="M886.18,-400.3C922.01,-377.43 974.24,-344.08 1010.07,-321.2"/>
<polygon fill="brown" stroke="brown" points="884.49,-397.23 877.94,-405.56 888.25,-403.13 884.49,-397.23"/>
<polygon fill="brown" stroke="brown" points="1011.89,-324.19 1018.43,-315.86 1008.12,-318.29 1011.89,-324.19"/>
</g>
<!-- Admin4 -->
<g id="node12" class="node">
<title>Admin4</title>
<polygon fill="none" stroke="black" points="1080.25,-192.5 1020,-192.5 1020,-132.25 1080.25,-132.25 1080.25,-192.5"/>
<text xml:space="preserve" text-anchor="middle" x="1050.12" y="-165.57" font-family="Times New Roman,serif" font-size="14.00">Admin</text>
<text xml:space="preserve" text-anchor="middle" x="1050.12" y="-149.07" font-family="Times New Roman,serif" font-size="14.00">Switch4</text>
</g>
<!-- Admin3&#45;&gt;Admin4 -->
<g id="edge21" class="edge">
<title>Admin3&#45;&gt;Admin4</title>
<path fill="none" stroke="brown" d="M1050.12,-252.78C1050.12,-237.29 1050.12,-219.65 1050.12,-204.17"/>
<polygon fill="brown" stroke="brown" points="1046.63,-252.56 1050.13,-262.56 1053.63,-252.56 1046.63,-252.56"/>
<polygon fill="brown" stroke="brown" points="1053.63,-204.33 1050.13,-194.33 1046.63,-204.33 1053.63,-204.33"/>
</g>
<!-- Admin5 -->
<g id="node13" class="node">
<title>Admin5</title>
<polygon fill="none" stroke="black" points="1080.25,-60.25 1020,-60.25 1020,0 1080.25,0 1080.25,-60.25"/>
<text xml:space="preserve" text-anchor="middle" x="1050.12" y="-33.33" font-family="Times New Roman,serif" font-size="14.00">Admin</text>
<text xml:space="preserve" text-anchor="middle" x="1050.12" y="-16.82" font-family="Times New Roman,serif" font-size="14.00">Switch5</text>
</g>
<!-- Admin4&#45;&gt;Admin5 -->
<g id="edge22" class="edge">
<title>Admin4&#45;&gt;Admin5</title>
<path fill="none" stroke="brown" d="M1050.12,-120.53C1050.12,-105.04 1050.12,-87.4 1050.12,-71.92"/>
<polygon fill="brown" stroke="brown" points="1046.63,-120.31 1050.13,-130.31 1053.63,-120.31 1046.63,-120.31"/>
<polygon fill="brown" stroke="brown" points="1053.63,-72.08 1050.13,-62.08 1046.63,-72.08 1053.63,-72.08"/>
</g>
<!-- Key1 -->
<g id="node14" class="node">
<title>Key1</title>
<polygon fill="none" stroke="black" points="833.25,-803.5 715,-803.5 715,-529 833.25,-529 833.25,-803.5"/>
<text xml:space="preserve" text-anchor="start" x="738.5" y="-784.75" font-family="Times New Roman,serif" font-size="14.00">Admin: 1G Eth</text>
<text xml:space="preserve" text-anchor="start" x="731.75" y="-764.25" font-family="Times New Roman,serif" font-size="14.00">Admin: 10G Eth</text>
<text xml:space="preserve" text-anchor="start" x="725" y="-743.75" font-family="Times New Roman,serif" font-size="14.00">Admin: 100G Eth</text>
<text xml:space="preserve" text-anchor="start" x="776.75" y="-723.25" font-family="Times New Roman,serif" font-size="14.00">OPA100</text>
<text xml:space="preserve" text-anchor="start" x="777.5" y="-702.75" font-family="Times New Roman,serif" font-size="14.00">CN5000</text>
<text xml:space="preserve" text-anchor="start" x="789.5" y="-682.25" font-family="Times New Roman,serif" font-size="14.00">IB100</text>
<text xml:space="preserve" text-anchor="start" x="789.5" y="-661.75" font-family="Times New Roman,serif" font-size="14.00">IB200</text>
<text xml:space="preserve" text-anchor="start" x="751.25" y="-641.25" font-family="Times New Roman,serif" font-size="14.00">Data: 1G Eth</text>
<text xml:space="preserve" text-anchor="start" x="744.5" y="-620.75" font-family="Times New Roman,serif" font-size="14.00">Data: 10G Eth</text>
<text xml:space="preserve" text-anchor="start" x="744.5" y="-600.25" font-family="Times New Roman,serif" font-size="14.00">Data: 40G Eth</text>
<text xml:space="preserve" text-anchor="start" x="737.75" y="-579.75" font-family="Times New Roman,serif" font-size="14.00">Data: 100G Eth</text>
<text xml:space="preserve" text-anchor="start" x="737.75" y="-559.25" font-family="Times New Roman,serif" font-size="14.00">Data: 200G Eth</text>
<text xml:space="preserve" text-anchor="start" x="761" y="-538.75" font-family="Times New Roman,serif" font-size="14.00">FC 32Gbps</text>
</g>
<!-- Key2 -->
<!-- Key1&#45;&gt;Key2 -->
<g id="edge23" class="edge">
<title>Key1:e&#45;&gt;Key2:w</title>
<path fill="none" stroke="red" d="M826.25,-789.25C899.23,-789.25 920.26,-789.25 987.97,-789.25"/>
<polygon fill="red" stroke="red" points="987.74,-792.75 997.74,-789.25 987.74,-785.75 987.74,-792.75"/>
</g>
<!-- Key1&#45;&gt;Key2 -->
<g id="edge24" class="edge">
<title>Key1:e&#45;&gt;Key2:w</title>
<path fill="none" stroke="brown" d="M826.25,-768.75C899.23,-768.75 920.26,-768.75 987.97,-768.75"/>
<polygon fill="brown" stroke="brown" points="987.74,-772.25 997.74,-768.75 987.74,-765.25 987.74,-772.25"/>
</g>
<!-- Key1&#45;&gt;Key2 -->
<g id="edge25" class="edge">
<title>Key1:e&#45;&gt;Key2:w</title>
<path fill="none" stroke="magenta" d="M826.25,-748.25C899.23,-748.25 920.26,-748.25 987.97,-748.25"/>
<polygon fill="magenta" stroke="magenta" points="987.74,-751.75 997.74,-748.25 987.74,-744.75 987.74,-751.75"/>
</g>
<!-- Key1&#45;&gt;Key2 -->
<g id="edge26" class="edge">
<title>Key1:e&#45;&gt;Key2:w</title>
<path fill="none" stroke="blue" d="M826.25,-727.75C899.23,-727.75 920.26,-727.75 987.97,-727.75"/>
<polygon fill="blue" stroke="blue" points="987.74,-731.25 997.74,-727.75 987.74,-724.25 987.74,-731.25"/>
</g>
<!-- Key1&#45;&gt;Key2 -->
<g id="edge27" class="edge">
<title>Key1:e&#45;&gt;Key2:w</title>
<path fill="none" stroke="pink" d="M826.25,-707.25C899.23,-707.25 920.26,-707.25 987.97,-707.25"/>
<polygon fill="pink" stroke="pink" points="987.74,-710.75 997.74,-707.25 987.74,-703.75 987.74,-710.75"/>
</g>
<!-- Key1&#45;&gt;Key2 -->
<g id="edge28" class="edge">
<title>Key1:e&#45;&gt;Key2:w</title>
<path fill="none" stroke="lightseagreen" d="M826.25,-686.75C899.23,-686.75 920.26,-686.75 987.97,-686.75"/>
<polygon fill="lightseagreen" stroke="lightseagreen" points="987.74,-690.25 997.74,-686.75 987.74,-683.25 987.74,-690.25"/>
</g>
<!-- Key1&#45;&gt;Key2 -->
<g id="edge29" class="edge">
<title>Key1:e&#45;&gt;Key2:w</title>
<path fill="none" stroke="tan" d="M826.25,-666.25C899.23,-666.25 920.26,-666.25 987.97,-666.25"/>
<polygon fill="tan" stroke="tan" points="987.74,-669.75 997.74,-666.25 987.74,-662.75 987.74,-669.75"/>
</g>
<!-- Key1&#45;&gt;Key2 -->
<g id="edge30" class="edge">
<title>Key1:e&#45;&gt;Key2:w</title>
<path fill="none" stroke="cyan" d="M826.25,-645.75C899.23,-645.75 920.26,-645.75 987.97,-645.75"/>
<polygon fill="cyan" stroke="cyan" points="987.74,-649.25 997.74,-645.75 987.74,-642.25 987.74,-649.25"/>
</g>
<!-- Key1&#45;&gt;Key2 -->
<g id="edge31" class="edge">
<title>Key1:e&#45;&gt;Key2:w</title>
<path fill="none" stroke="green" d="M826.25,-625.25C899.23,-625.25 920.26,-625.25 987.97,-625.25"/>
<polygon fill="green" stroke="green" points="987.74,-628.75 997.74,-625.25 987.74,-621.75 987.74,-628.75"/>
</g>
<!-- Key1&#45;&gt;Key2 -->
<g id="edge32" class="edge">
<title>Key1:e&#45;&gt;Key2:w</title>
<path fill="none" stroke="purple" d="M826.25,-604.75C899.23,-604.75 920.26,-604.75 987.97,-604.75"/>
<polygon fill="purple" stroke="purple" points="987.74,-608.25 997.74,-604.75 987.74,-601.25 987.74,-608.25"/>
</g>
<!-- Key1&#45;&gt;Key2 -->
<g id="edge33" class="edge">
<title>Key1:e&#45;&gt;Key2:w</title>
<path fill="none" stroke="orange" d="M826.25,-584.25C899.23,-584.25 920.26,-584.25 987.97,-584.25"/>
<polygon fill="orange" stroke="orange" points="987.74,-587.75 997.74,-584.25 987.74,-580.75 987.74,-587.75"/>
</g>
<!-- Key1&#45;&gt;Key2 -->
<g id="edge34" class="edge">
<title>Key1:e&#45;&gt;Key2:w</title>
<path fill="none" stroke="gray" d="M826.25,-563.75C899.23,-563.75 920.26,-563.75 987.97,-563.75"/>
<polygon fill="gray" stroke="gray" points="987.74,-567.25 997.74,-563.75 987.74,-560.25 987.74,-567.25"/>
</g>
<!-- Key1&#45;&gt;Key2 -->
<g id="edge35" class="edge">
<title>Key1:e&#45;&gt;Key2:w</title>
<path fill="none" stroke="darkolivegreen" d="M826.25,-543.25C899.23,-543.25 920.26,-543.25 987.97,-543.25"/>
<polygon fill="darkolivegreen" stroke="darkolivegreen" points="987.74,-546.75 997.74,-543.25 987.74,-539.75 987.74,-546.75"/>
</g>
</g>
</svg>
