<?xml version="1.0" encoding="UTF-8" standalone="no"?>
<!DOCTYPE svg PUBLIC "-//W3C//DTD SVG 1.1//EN"
 "http://www.w3.org/Graphics/SVG/1.1/DTD/svg11.dtd">
<!-- Generated by graphviz version 14.1.3 (20260303.0454)
 -->
<!-- Title: g Pages: 1 -->
<svg width="1088pt" height="1108pt"
 viewBox="0.00 0.00 1088.00 1108.00" xmlns="http://www.w3.org/2000/svg" xmlns:xlink="http://www.w3.org/1999/xlink">
<g id="graph0" class="graph" transform="scale(1 1) rotate(0) translate(4 1103.75)">
<title>g</title>
<polygon fill="white" stroke="none" points="-4,4 -4,-1103.75 1084.25,-1103.75 1084.25,4 -4,4"/>
<!-- FW -->
<g id="node1" class="node">
<title>FW</title>
<polygon fill="none" stroke="black" points="570.62,-993 509.62,-993 509.62,-932 570.62,-932 570.62,-993"/>
<text xml:space="preserve" text-anchor="middle" x="540.12" y="-957.45" font-family="Times New Roman,serif" font-size="14.00">Firewall</text>
</g>
<!-- Data_Agg1 -->
<g id="node2" class="node">
<title>Data_Agg1</title>
<polygon fill="none" stroke="black" points="264.25,-681.25 204,-681.25 204,-621 264.25,-621 264.25,-681.25"/>
<text xml:space="preserve" text-anchor="middle" x="234.12" y="-662.58" font-family="Times New Roman,serif" font-size="14.00">Data</text>
<text xml:space="preserve" text-anchor="middle" x="234.12" y="-646.08" font-family="Times New Roman,serif" font-size="14.00">Agg</text>
<text xml:space="preserve" text-anchor="middle" x="234.12" y="-629.58" font-family="Times New Roman,serif" font-size="14.00">Switch1</text>
</g>
<!-- FW&#45;&gt;Data_Agg1 -->
<g id="edge1" class="edge">
<title>FW&#45;&gt;Data_Agg1</title>
<path fill="none" stroke="orange" d="M502.56,-923.52C443.57,-863.88 329.91,-748.97 271.22,-689.63"/>
<polygon fill="orange" stroke="orange" points="499.92,-925.83 509.44,-930.48 504.9,-920.91 499.92,-925.83"/>
<polygon fill="orange" stroke="orange" points="273.9,-687.36 264.38,-682.71 268.92,-692.28 273.9,-687.36"/>
<text xml:space="preserve" text-anchor="middle" x="291.45" y="-687" font-family="Times New Roman,serif" font-size="14.00">port24</text>
<text xml:space="preserve" text-anchor="middle" x="482.37" y="-916.09" font-family="Times New Roman,serif" font-size="14.00">port1</text>
</g>
<!-- Admin_Agg1 -->
<g id="node3" class="node">
<title>Admin_Agg1</title>
<polygon fill="none" stroke="black" points="672.25,-681.25 612,-681.25 612,-621 672.25,-621 672.25,-681.25"/>
<text xml:space="preserve" text-anchor="middle" x="642.12" y="-662.58" font-family="Times New Roman,serif" font-size="14.00">Admin</text>
<text xml:space="preserve" text-anchor="middle" x="642.12" y="-646.08" font-family="Times New Roman,serif" font-size="14.00">Agg</text>
<text xml:space="preserve" text-anchor="middle" x="642.12" y="-629.58" font-family="Times New Roman,serif" font-size="14.00">Switch1</text>
</g>
<!-- FW&#45;&gt;Admin_Agg1 -->
<g id="edge2" class="edge">
<title>FW&#45;&gt;Admin_Agg1</title>
<path fill="none" stroke="magenta" d="M553.54,-920.81C573.13,-861.41 609.33,-751.59 628.84,-692.42"/>
<polygon fill="magenta" stroke="magenta" points="550.28,-919.52 550.47,-930.12 556.93,-921.72 550.28,-919.52"/>
<polygon fill="magenta" stroke="magenta" points="632.12,-693.66 631.92,-683.07 625.47,-691.47 632.12,-693.66"/>
<text xml:space="preserve" text-anchor="middle" x="637.1" y="-716.31" font-family="Times New Roman,serif" font-size="14.00">port24</text>
<text xml:space="preserve" text-anchor="middle" x="545.29" y="-886.78" font-family="Times New Roman,serif" font-size="14.00">port3</text>
</g>
<!-- Data_Agg2 -->
<g id="node4" class="node">
<title>Data_Agg2</title>
<polygon fill="none" stroke="black" points="468.25,-681.25 408,-681.25 408,-621 468.25,-621 468.25,-681.25"/>
<text xml:space="preserve" text-anchor="middle" x="438.12" y="-662.58" font-family="Times New Roman,serif" font-size="14.00">Data</text>
<text xml:space="preserve" text-anchor="middle" x="438.12" y="-646.08" font-family="Times New Roman,serif" font-size="14.00">Agg</text>
<text xml:space="preserve" text-anchor="middle" x="438.12" y="-629.58" font-family="Times New Roman,serif" font-size="14.00">Switch2</text>
</g>
<!-- FW&#45;&gt;Data_Agg2 -->
<g id="edge3" class="edge">
<title>FW&#45;&gt;Data_Agg2</title>
<path fill="none" stroke="orange" d="M526.71,-920.81C507.12,-861.41 470.92,-751.59 451.41,-692.42"/>
<polygon fill="orange" stroke="orange" points="523.32,-921.72 529.78,-930.12 529.97,-919.52 523.32,-921.72"/>
<polygon fill="orange" stroke="orange" points="454.78,-691.47 448.33,-683.07 448.13,-693.66 454.78,-691.47"/>
<text xml:space="preserve" text-anchor="middle" x="475.26" y="-705.72" font-family="Times New Roman,serif" font-size="14.00">port24</text>
<text xml:space="preserve" text-anchor="middle" x="502.85" y="-897.37" font-family="Times New Roman,serif" font-size="14.00">port2</text>
</g>
<!-- Admin_Agg2 -->
<g id="node5" class="node">
<title>Admin_Agg2</title>
<polygon fill="none" stroke="black" points="876.25,-681.25 816,-681.25 816,-621 876.25,-621 876.25,-681.25"/>
<text xml:space="preserve" text-anchor="middle" x="846.12" y="-662.58" font-family="Times New Roman,serif" font-size="14.00">Admin</text>
<text xml:space="preserve" text-anchor="middle" x="846.12" y="-646.08" font-family="Times New Roman,serif" font-size="14.00">Agg</text>
<text xml:space="preserve" text-anchor="middle" x="846.12" y="-629.58" font-family="Times New Roman,serif" font-size="14.00">Switch2</text>
</g>
<!-- FW&#45;&gt;Admin_Agg2 -->
<g id="edge4" class="edge">
<title>FW&#45;&gt;Admin_Agg2</title>
<path fill="none" stroke="magenta" d="M566.23,-922.44C585.91,-894.19 614.34,-855.78 643.12,-825.25 695.37,-769.83 764.26,-714.18 806.85,-681.46"/>
<polygon fill="magenta" stroke="magenta" points="563.57,-920.14 560.77,-930.36 569.33,-924.11 563.57,-920.14"/>
<polygon fill="magenta" stroke="magenta" points="808.75,-684.4 814.58,-675.55 804.5,-678.84 808.75,-684.4"/>
<text xml:space="preserve" text-anchor="middle" x="806.5" y="-687.3" font-family="Times New Roman,serif" font-size="14.00">port24</text>
<text xml:space="preserve" text-anchor="middle" x="563.25" y="-906.83" font-family="Times New Roman,serif" font-size="14.00">port4</text>
</g>
<!-- Data_Agg1&#45;&gt;Data_Agg2 -->
<g id="edge5" class="edge">
<title>Data_Agg1&#45;&gt;Data_Agg2</title>
<path fill="none" stroke="orange" d="M275.31,-636.56C315.79,-625.87 356.26,-625.85 396.74,-636.51"/>
<polygon fill="orange" stroke="orange" points="274.5,-633.15 265.86,-639.28 276.44,-639.88 274.5,-633.15"/>
<polygon fill="orange" stroke="orange" points="395.56,-639.81 406.13,-639.2 397.49,-633.08 395.56,-639.81"/>
<text xml:space="preserve" text-anchor="middle" x="393.34" y="-642.82" font-family="Times New Roman,serif" font-size="14.00">port1</text>
<text xml:space="preserve" text-anchor="middle" x="278.66" y="-642.9" font-family="Times New Roman,serif" font-size="14.00">port1</text>
</g>
<!-- Data1 -->
<g id="node6" class="node">
<title>Data1</title>
<polygon fill="none" stroke="black" points="60.25,-477 0,-477 0,-416.75 60.25,-416.75 60.25,-477"/>
<text xml:space="preserve" text-anchor="middle" x="30.12" y="-450.07" font-family="Times New Roman,serif" font-size="14.00">Data</text>
<text xml:space="preserve" text-anchor="middle" x="30.12" y="-433.57" font-family="Times New Roman,serif" font-size="14.00">Switch1</text>
</g>
<!-- Data_Agg1&#45;&gt;Data1 -->
<g id="edge9" class="edge">
<title>Data_Agg1&#45;&gt;Data1</title>
<path fill="none" stroke="purple" d="M196.39,-612.72C159.75,-576.39 104.42,-521.54 67.8,-485.22"/>
<polygon fill="purple" stroke="purple" points="193.82,-615.1 203.39,-619.65 198.75,-610.12 193.82,-615.1"/>
<polygon fill="purple" stroke="purple" points="70.46,-482.94 60.9,-478.38 65.54,-487.91 70.46,-482.94"/>
<text xml:space="preserve" text-anchor="middle" x="45.57" y="-480.52" font-family="Times New Roman,serif" font-size="14.00">port1</text>
<text xml:space="preserve" text-anchor="middle" x="190.21" y="-623.92" font-family="Times New Roman,serif" font-size="14.00">port3</text>
</g>
<!-- Data2 -->
<g id="node8" class="node">
<title>Data2</title>
<polygon fill="none" stroke="black" points="264.25,-477 204,-477 204,-416.75 264.25,-416.75 264.25,-477"/>
<text xml:space="preserve" text-anchor="middle" x="234.12" y="-450.07" font-family="Times New Roman,serif" font-size="14.00">Data</text>
<text xml:space="preserve" text-anchor="middle" x="234.12" y="-433.57" font-family="Times New Roman,serif" font-size="14.00">Switch2</text>
</g>
<!-- Data_Agg1&#45;&gt;Data2 -->
<g id="edge11" class="edge">
<title>Data_Agg1&#45;&gt;Data2</title>
<path fill="none" stroke="purple" d="M234.12,-609.23C234.12,-574.09 234.12,-523.68 234.12,-488.59"/>
<polygon fill="purple" stroke="purple" points="230.63,-609.2 234.13,-619.2 237.63,-609.2 230.63,-609.2"/>
<polygon fill="purple" stroke="purple" points="237.63,-488.83 234.13,-478.83 230.63,-488.83 237.63,-488.83"/>
<text xml:space="preserve" text-anchor="middle" x="246.8" y="-499.46" font-family="Times New Roman,serif" font-size="14.00">port1</text>
<text xml:space="preserve" text-anchor="middle" x="221.45" y="-588.48" font-family="Times New Roman,serif" font-size="14.00">port4</text>
</g>
<!-- Data3 -->
<g id="node10" class="node">
<title>Data3</title>
<polygon fill="none" stroke="black" points="468.25,-477 408,-477 408,-416.75 468.25,-416.75 468.25,-477"/>
<text xml:space="preserve" text-anchor="middle" x="438.12" y="-450.07" font-family="Times New Roman,serif" font-size="14.00">Data</text>
<text xml:space="preserve" text-anchor="middle" x="438.12" y="-433.57" font-family="Times New Roman,serif" font-size="14.00">Switch3</text>
</g>
<!-- Data_Agg1&#45;&gt;Data3 -->
<g id="edge13" class="edge">
<title>Data_Agg1&#45;&gt;Data3</title>
<path fill="none" stroke="purple" d="M271.86,-612.72C308.5,-576.39 363.83,-521.54 400.45,-485.22"/>
<polygon fill="purple" stroke="purple" points="269.5,-610.12 264.86,-619.65 274.43,-615.1 269.5,-610.12"/>
<polygon fill="purple" stroke="purple" points="402.71,-487.91 407.35,-478.38 397.79,-482.94 402.71,-487.91"/>
<text xml:space="preserve" text-anchor="middle" x="401.5" y="-491.03" font-family="Times New Roman,serif" font-size="14.00">port1</text>
<text xml:space="preserve" text-anchor="middle" x="270.71" y="-596.9" font-family="Times New Roman,serif" font-size="14.00">port5</text>
</g>
<!-- Admin_Agg1&#45;&gt;Admin_Agg2 -->
<g id="edge7" class="edge">
<title>Admin_Agg1&#45;&gt;Admin_Agg2</title>
<path fill="none" stroke="magenta" d="M683.31,-636.56C723.79,-625.87 764.26,-625.85 804.74,-636.51"/>
<polygon fill="magenta" stroke="magenta" points="682.5,-633.15 673.86,-639.28 684.44,-639.88 682.5,-633.15"/>
<polygon fill="magenta" stroke="magenta" points="803.56,-639.81 814.13,-639.2 805.49,-633.08 803.56,-639.81"/>
<text xml:space="preserve" text-anchor="middle" x="801.34" y="-642.82" font-family="Times New Roman,serif" font-size="14.00">port1</text>
<text xml:space="preserve" text-anchor="middle" x="686.66" y="-642.9" font-family="Times New Roman,serif" font-size="14.00">port1</text>
</g>
<!-- Admin1 -->
<g id="node7" class="node">
<title>Admin1</title>
<polygon fill="none" stroke="black" points="672.25,-477 612,-477 612,-416.75 672.25,-416.75 672.25,-477"/>
<text xml:space="preserve" text-anchor="middle" x="642.12" y="-450.07" font-family="Times New Roman,serif" font-size="14.00">Admin</text>
<text xml:space="preserve" text-anchor="middle" x="642.12" y="-433.57" font-family="Times New Roman,serif" font-size="14.00">Switch1</text>
</g>
<!-- Admin_Agg1&#45;&gt;Admin1 -->
<g id="edge15" class="edge">
<title>Admin_Agg1&#45;&gt;Admin1</title>
<path fill="none" stroke="brown" d="M642.12,-609.23C642.12,-574.09 642.12,-523.68 642.12,-488.59"/>
<polygon fill="brown" stroke="brown" points="638.63,-609.2 642.13,-619.2 645.63,-609.2 638.63,-609.2"/>
<polygon fill="brown" stroke="brown" points="645.63,-488.83 642.13,-478.83 638.63,-488.83 645.63,-488.83"/>
<text xml:space="preserve" text-anchor="middle" x="654.8" y="-499.46" font-family="Times New Roman,serif" font-size="14.00">port1</text>
<text xml:space="preserve" text-anchor="middle" x="629.45" y="-588.48" font-family="Times New Roman,serif" font-size="14.00">port3</text>
</g>
<!-- Admin2 -->
<g id="node9" class="node">
<title>Admin2</title>
<polygon fill="none" stroke="black" points="876.25,-477 816,-477 816,-416.75 876.25,-416.75 876.25,-477"/>
<text xml:space="preserve" text-anchor="middle" x="846.12" y="-450.07" font-family="Times New Roman,serif" font-size="14.00">Admin</text>
<text xml:space="preserve" text-anchor="middle" x="846.12" y="-433.57" font-family="Times New Roman,serif" font-size="14.00">Switch2</text>
</g>
<!-- Admin_Agg1&#45;&gt;Admin2 -->
<g id="edge17" class="edge">
<title>Admin_Agg1&#45;&gt;Admin2</title>
<path fill="none" stroke="brown" d="M679.86,-612.72C716.5,-576.39 771.83,-521.54 808.45,-485.22"/>
<polygon fill="brown" stroke="brown" points="677.5,-610.12 672.86,-619.65 682.43,-615.1 677.5,-610.12"/>
<polygon fill="brown" stroke="brown" points="810.71,-487.91 815.35,-478.38 805.79,-482.94 810.71,-487.91"/>
<text xml:space="preserve" text-anchor="middle" x="809.5" y="-491.03" font-family="Times New Roman,serif" font-size="14.00">port1</text>
<text xml:space="preserve" text-anchor="middle" x="678.71" y="-596.9" font-family="Times New Roman,serif" font-size="14.00">port4</text>
</g>
<!-- Admin3 -->
<g id="node11" class="node">
<title>Admin3</title>
<polygon fill="none" stroke="black" points="1080.25,-477 1020,-477 1020,-416.75 1080.25,-416.75 1080.25,-477"/>
<text xml:space="preserve" text-anchor="middle" x="1050.12" y="-450.07" font-family="Times New Roman,serif" font-size="14.00">Admin</text>
<text xml:space="preserve" text-anchor="middle" x="1050.12" y="-433.57" font-family="Times New Roman,serif" font-size="14.00">Switch3</text>
</g>
<!-- Admin_Agg1&#45;&gt;Admin3 -->
<g id="edge19" class="edge">
<title>Admin_Agg1&#45;&gt;Admin3</title>
<path fill="none" stroke="brown" d="M682.34,-630.19C760.35,-591.52 931.41,-506.72 1009.63,-467.95"/>
<polygon fill="brown" stroke="brown" points="681.22,-626.84 673.81,-634.42 684.33,-633.11 681.22,-626.84"/>
<polygon fill="brown" stroke="brown" points="1010.83,-471.26 1018.24,-463.68 1007.72,-464.99 1010.83,-471.26"/>
<text xml:space="preserve" text-anchor="middle" x="1000.86" y="-481.4" font-family="Times New Roman,serif" font-size="14.00">port1</text>
<text xml:space="preserve" text-anchor="middle" x="691.19" y="-606.6" font-family="Times New Roman,serif" font-size="14.00">port5</text>
</g>
<!-- Data_Agg2&#45;&gt;Data_Agg1 -->
<g id="edge6" class="edge">
<title>Data_Agg2&#45;&gt;Data_Agg1</title>
<path fill="none" stroke="orange" d="M396.74,-665.74C356.26,-676.4 315.79,-676.38 275.31,-665.69"/>
<polygon fill="orange" stroke="orange" points="397.49,-669.17 406.13,-663.05 395.56,-662.44 397.49,-669.17"/>
<polygon fill="orange" stroke="orange" points="276.44,-662.37 265.86,-662.97 274.5,-669.1 276.44,-662.37"/>
<text xml:space="preserve" text-anchor="middle" x="278.66" y="-665.75" font-family="Times New Roman,serif" font-size="14.00">port2</text>
<text xml:space="preserve" text-anchor="middle" x="393.34" y="-665.83" font-family="Times New Roman,serif" font-size="14.00">port2</text>
</g>
<!-- Data_Agg2&#45;&gt;Data1 -->
<g id="edge10" class="edge">
<title>Data_Agg2&#45;&gt;Data1</title>
<path fill="none" stroke="purple" d="M397.91,-630.19C319.9,-591.52 148.84,-506.72 70.62,-467.95"/>
<polygon fill="purple" stroke="purple" points="395.92,-633.11 406.44,-634.42 399.03,-626.84 395.92,-633.11"/>
<polygon fill="purple" stroke="purple" points="72.53,-464.99 62.01,-463.68 69.42,-471.26 72.53,-464.99"/>
<text xml:space="preserve" text-anchor="middle" x="90.65" y="-458.68" font-family="Times New Roman,serif" font-size="14.00">port2</text>
<text xml:space="preserve" text-anchor="middle" x="377.8" y="-629.32" font-family="Times New Roman,serif" font-size="14.00">port3</text>
</g>
<!-- Data_Agg2&#45;&gt;Data2 -->
<g id="edge12" class="edge">
<title>Data_Agg2&#45;&gt;Data2</title>
<path fill="none" stroke="purple" d="M400.39,-612.72C363.75,-576.39 308.42,-521.54 271.8,-485.22"/>
<polygon fill="purple" stroke="purple" points="397.82,-615.1 407.39,-619.65 402.75,-610.12 397.82,-615.1"/>
<polygon fill="purple" stroke="purple" points="274.46,-482.94 264.9,-478.38 269.54,-487.91 274.46,-482.94"/>
<text xml:space="preserve" text-anchor="middle" x="292.06" y="-482.41" font-family="Times New Roman,serif" font-size="14.00">port2</text>
<text xml:space="preserve" text-anchor="middle" x="380.23" y="-605.53" font-family="Times New Roman,serif" font-size="14.00">port4</text>
</g>
<!-- Data_Agg2&#45;&gt;Data3 -->
<g id="edge14" class="edge">
<title>Data_Agg2&#45;&gt;Data3</title>
<path fill="none" stroke="purple" d="M438.12,-609.23C438.12,-574.09 438.12,-523.68 438.12,-488.59"/>
<polygon fill="purple" stroke="purple" points="434.63,-609.2 438.13,-619.2 441.63,-609.2 434.63,-609.2"/>
<polygon fill="purple" stroke="purple" points="441.63,-488.83 438.13,-478.83 434.63,-488.83 441.63,-488.83"/>
<text xml:space="preserve" text-anchor="middle" x="446.58" y="-490.4" font-family="Times New Roman,serif" font-size="14.00">port2</text>
<text xml:space="preserve" text-anchor="middle" x="429.67" y="-597.54" font-family="Times New Roman,serif" font-size="14.00">port5</text>
</g>
<!-- Admin_Agg2&#45;&gt;Admin_Agg1 -->
<g id="edge8" class="edge">
<title>Admin_Agg2&#45;&gt;Admin_Agg1</title>
<path fill="none" stroke="magenta" d="M804.74,-665.74C764.26,-676.4 723.79,-676.38 683.31,-665.69"/>
<polygon fill="magenta" stroke="magenta" points="805.49,-669.17 814.13,-663.05 803.56,-662.44 805.49,-669.17"/>
<polygon fill="magenta" stroke="magenta" points="684.44,-662.37 673.86,-662.97 682.5,-669.1 684.44,-662.37"/>
<text xml:space="preserve" text-anchor="middle" x="686.66" y="-665.75" font-family="Times New Roman,serif" font-size="14.00">port1</text>
<text xml:space="preserve" text-anchor="middle" x="801.34" y="-665.83" font-family="Times New Roman,serif" font-size="14.00">port1</text>
</g>
<!-- Admin_Agg2&#45;&gt;Admin1 -->
<g id="edge16" class="edge">
<title>Admin_Agg2&#45;&gt;Admin1</title>
<path fill="none" stroke="brown" d="M808.39,-612.72C771.75,-576.39 716.42,-521.54 679.8,-485.22"/>
<polygon fill="brown" stroke="brown" points="805.82,-615.1 815.39,-619.65 810.75,-610.12 805.82,-615.1"/>
<polygon fill="brown" stroke="brown" points="682.46,-482.94 672.9,-478.38 677.54,-487.91 682.46,-482.94"/>
<text xml:space="preserve" text-anchor="middle" x="700.06" y="-482.41" font-family="Times New Roman,serif" font-size="14.00">port2</text>
<text xml:space="preserve" text-anchor="middle" x="788.23" y="-605.53" font-family="Times New Roman,serif" font-size="14.00">port3</text>
</g>
<!-- Admin_Agg2&#45;&gt;Admin2 -->
<g id="edge18" class="edge">
<title>Admin_Agg2&#45;&gt;Admin2</title>
<path fill="none" stroke="brown" d="M846.12,-609.23C846.12,-574.09 846.12,-523.68 846.12,-488.59"/>
<polygon fill="brown" stroke="brown" points="842.63,-609.2 846.13,-619.2 849.63,-609.2 842.63,-609.2"/>
<polygon fill="brown" stroke="brown" points="849.63,-488.83 846.13,-478.83 842.63,-488.83 849.63,-488.83"/>
<text xml:space="preserve" text-anchor="middle" x="858.8" y="-499.46" font-family="Times New Roman,serif" font-size="14.00">port2</text>
<text xml:space="preserve" text-anchor="middle" x="833.45" y="-588.48" font-family="Times New Roman,serif" font-size="14.00">port4</text>
</g>
<!-- Admin_Agg2&#45;&gt;Admin3 -->
<g id="edge20" class="edge">
<title>Admin_Agg2&#45;&gt;Admin3</title>
<path fill="none" stroke="brown" d="M883.86,-612.72C920.5,-576.39 975.83,-521.54 1012.45,-485.22"/>
<polygon fill="brown" stroke="brown" points="881.5,-610.12 876.86,-619.65 886.43,-615.1 881.5,-610.12"/>
<polygon fill="brown" stroke="brown" points="1014.71,-487.91 1019.35,-478.38 1009.79,-482.94 1014.71,-487.91"/>
<text xml:space="preserve" text-anchor="middle" x="1010.04" y="-500.42" font-family="Times New Roman,serif" font-size="14.00">port2</text>
<text xml:space="preserve" text-anchor="middle" x="886.17" y="-587.52" font-family="Times New Roman,serif" font-size="14.00">port5</text>
</g>
<!-- Admin4 -->
<g id="node12" class="node">
<title>Admin4</title>
<polygon fill="none" stroke="black" points="1080.25,-272.75 1020,-272.75 1020,-212.5 1080.25,-212.5 1080.25,-272.75"/>
<text xml:space="preserve" text-anchor="middle" x="1050.12" y="-245.82" font-family="Times New Roman,serif" font-size="14.00">Admin</text>
<text xml:space="preserve" text-anchor="middle" x="1050.12" y="-229.32" font-family="Times New Roman,serif" font-size="14.00">Switch4</text>
</g>
<!-- Admin3&#45;&gt;Admin4 -->
<g id="edge21" class="edge">
<title>Admin3&#45;&gt;Admin4</title>
<path fill="none" stroke="brown" d="M1050.12,-404.98C1050.12,-369.84 1050.12,-319.43 1050.12,-284.34"/>
<polygon fill="brown" stroke="brown" points="1046.63,-404.95 1050.13,-414.95 1053.63,-404.95 1046.63,-404.95"/>
<polygon fill="brown" stroke="brown" points="1053.63,-284.58 1050.13,-274.58 1046.63,-284.58 1053.63,-284.58"/>
<text xml:space="preserve" text-anchor="middle" x="1062.8" y="-295.21" font-family="Times New Roman,serif" font-size="14.00">port1</text>
<text xml:space="preserve" text-anchor="middle" x="1037.45" y="-384.23" font-family="Times New Roman,serif" font-size="14.00">port3</text>
</g>
<!-- Admin5 -->
<g id="node13" class="node">
<title>Admin5</title>
<polygon fill="none" stroke="black" points="1080.25,-68.5 1020,-68.5 1020,-8.25 1080.25,-8.25 1080.25,-68.5"/>
<text xml:space="preserve" text-anchor="middle" x="1050.12" y="-41.58" font-family="Times New Roman,serif" font-size="14.00">Admin</text>
<text xml:space="preserve" text-anchor="middle" x="1050.12" y="-25.07" font-family="Times New Roman,serif" font-size="14.00">Switch5</text>
</g>
<!-- Admin4&#45;&gt;Admin5 -->
<g id="edge22" class="edge">
<title>Admin4&#45;&gt;Admin5</title>
<path fill="none" stroke="brown" d="M1050.12,-200.73C1050.12,-165.59 1050.12,-115.18 1050.12,-80.09"/>
<polygon fill="brown" stroke="brown" points="1046.63,-200.7 1050.13,-210.7 1053.63,-200.7 1046.63,-200.7"/>
<polygon fill="brown" stroke="brown" points="1053.63,-80.33 1050.13,-70.33 1046.63,-80.33 1053.63,-80.33"/>
<text xml:space="preserve" text-anchor="middle" x="1062.8" y="-90.96" font-family="Times New Roman,serif" font-size="14.00">port1</text>
<text xml:space="preserve" text-anchor="middle" x="1037.45" y="-179.98" font-family="Times New Roman,serif" font-size="14.00">port3</text>
</g>
<!-- Key1 -->
<g id="node14" class="node">
<title>Key1</title>
<polygon fill="none" stroke="black" points="833.25,-1099.75 715,-1099.75 715,-825.25 833.25,-825.25 833.25,-1099.75"/>
<text xml:space="preserve" text-anchor="start" x="738.5" y="-1081" font-family="Times New Roman,serif" font-size="14.00">Admin: 1G Eth</text>
<text xml:space="preserve" text-anchor="start" x="731.75" y="-1060.5" font-family="Times New Roman,serif" font-size="14.00">Admin: 10G Eth</text>
<text xml:space="preserve" text-anchor="start" x="725" y="-1040" font-family="Times New Roman,serif" font-size="14.00">Admin: 100G Eth</text>
<text xml:space="preserve" text-anchor="start" x="776.75" y="-1019.5" font-family="Times New Roman,serif" font-size="14.00">OPA100</text>
<text xml:space="preserve" text-anchor="start" x="777.5" y="-999" font-family="Times New Roman,serif" font-size="14.00">CN5000</text>
<text xml:space="preserve" text-anchor="start" x="789.5" y="-978.5" font-family="Times New Roman,serif" font-size="14.00">IB100</text>
<text xml:space="preserve" text-anchor="start" x="789.5" y="-958" font-family="Times New Roman,serif" font-size="14.00">IB200</text>
<text xml:space="preserve" text-anchor="start" x="751.25" y="-937.5" font-family="Times New Roman,serif" font-size="14.00">Data: 1G Eth</text>
<text xml:space="preserve" text-anchor="start" x="744.5" y="-917" font-family="Times New Roman,serif" font-size="14.00">Data: 10G Eth</text>
<text xml:space="preserve" text-anchor="start" x="744.5" y="-896.5" font-family="Times New Roman,serif" font-size="14.00">Data: 40G Eth</text>
<text xml:space="preserve" text-anchor="start" x="737.75" y="-876" font-family="Times New Roman,serif" font-size="14.00">Data: 100G Eth</text>
<text xml:space="preserve" text-anchor="start" x="737.75" y="-855.5" font-family="Times New Roman,serif" font-size="14.00">Data: 200G Eth</text>
<text xml:space="preserve" text-anchor="start" x="761" y="-835" font-family="Times New Roman,serif" font-size="14.00">FC 32Gbps</text>
</g>
<!-- Key2 -->
<!-- Key1&#45;&gt;Key2 -->
<g id="edge23" class="edge">
<title>Key1:e&#45;&gt;Key2:w</title>
<path fill="none" stroke="red" d="M826.25,-1085.5C899.23,-1085.5 920.26,-1085.5 987.97,-1085.5"/>
<polygon fill="red" stroke="red" points="987.74,-1089 997.74,-1085.5 987.74,-1082 987.74,-1089"/>
</g>
<!-- Key1&#45;&gt;Key2 -->
<g id="edge24" class="edge">
<title>Key1:e&#45;&gt;Key2:w</title>
<path fill="none" stroke="brown" d="M826.25,-1065C899.23,-1065 920.26,-1065 987.97,-1065"/>
<polygon fill="brown" stroke="brown" points="987.74,-1068.5 997.74,-1065 987.74,-1061.5 987.74,-1068.5"/>
</g>
<!-- Key1&#45;&gt;Key2 -->
<g id="edge25" class="edge">
<title>Key1:e&#45;&gt;Key2:w</title>
<path fill="none" stroke="magenta" d="M826.25,-1044.5C899.23,-1044.5 920.26,-1044.5 987.97,-1044.5"/>
<polygon fill="magenta" stroke="magenta" points="987.74,-1048 997.74,-1044.5 987.74,-1041 987.74,-1048"/>
</g>
<!-- Key1&#45;&gt;Key2 -->
<g id="edge26" class="edge">
<title>Key1:e&#45;&gt;Key2:w</title>
<path fill="none" stroke="blue" d="M826.25,-1024C899.23,-1024 920.26,-1024 987.97,-1024"/>
<polygon fill="blue" stroke="blue" points="987.74,-1027.5 997.74,-1024 987.74,-1020.5 987.74,-1027.5"/>
</g>
<!-- Key1&#45;&gt;Key2 -->
<g id="edge27" class="edge">
<title>Key1:e&#45;&gt;Key2:w</title>
<path fill="none" stroke="pink" d="M826.25,-1003.5C899.23,-1003.5 920.26,-1003.5 987.97,-1003.5"/>
<polygon fill="pink" stroke="pink" points="987.74,-1007 997.74,-1003.5 987.74,-1000 987.74,-1007"/>
</g>
<!-- Key1&#45;&gt;Key2 -->
<g id="edge28" class="edge">
<title>Key1:e&#45;&gt;Key2:w</title>
<path fill="none" stroke="lightseagreen" d="M826.25,-983C899.23,-983 920.26,-983 987.97,-983"/>
<polygon fill="lightseagreen" stroke="lightseagreen" points="987.74,-986.5 997.74,-983 987.74,-979.5 987.74,-986.5"/>
</g>
<!-- Key1&#45;&gt;Key2 -->
<g id="edge29" class="edge">
<title>Key1:e&#45;&gt;Key2:w</title>
<path fill="none" stroke="tan" d="M826.25,-962.5C899.23,-962.5 920.26,-962.5 987.97,-962.5"/>
<polygon fill="tan" stroke="tan" points="987.74,-966 997.74,-962.5 987.74,-959 987.74,-966"/>
</g>
<!-- Key1&#45;&gt;Key2 -->
<g id="edge30" class="edge">
<title>Key1:e&#45;&gt;Key2:w</title>
<path fill="none" stroke="cyan" d="M826.25,-942C899.23,-942 920.26,-942 987.97,-942"/>
<polygon fill="cyan" stroke="cyan" points="987.74,-945.5 997.74,-942 987.74,-938.5 987.74,-945.5"/>
</g>
<!-- Key1&#45;&gt;Key2 -->
<g id="edge31" class="edge">
<title>Key1:e&#45;&gt;Key2:w</title>
<path fill="none" stroke="green" d="M826.25,-921.5C899.23,-921.5 920.26,-921.5 987.97,-921.5"/>
<polygon fill="green" stroke="green" points="987.74,-925 997.74,-921.5 987.74,-918 987.74,-925"/>
</g>
<!-- Key1&#45;&gt;Key2 -->
<g id="edge32" class="edge">
<title>Key1:e&#45;&gt;Key2:w</title>
<path fill="none" stroke="purple" d="M826.25,-901C899.23,-901 920.26,-901 987.97,-901"/>
<polygon fill="purple" stroke="purple" points="987.74,-904.5 997.74,-901 987.74,-897.5 987.74,-904.5"/>
</g>
<!-- Key1&#45;&gt;Key2 -->
<g id="edge33" class="edge">
<title>Key1:e&#45;&gt;Key2:w</title>
<path fill="none" stroke="orange" d="M826.25,-880.5C899.23,-880.5 920.26,-880.5 987.97,-880.5"/>
<polygon fill="orange" stroke="orange" points="987.74,-884 997.74,-880.5 987.74,-877 987.74,-884"/>
</g>
<!-- Key1&#45;&gt;Key2 -->
<g id="edge34" class="edge">
<title>Key1:e&#45;&gt;Key2:w</title>
<path fill="none" stroke="gray" d="M826.25,-860C899.23,-860 920.26,-860 987.97,-860"/>
<polygon fill="gray" stroke="gray" points="987.74,-863.5 997.74,-860 987.74,-856.5 987.74,-863.5"/>
</g>
<!-- Key1&#45;&gt;Key2 -->
<g id="edge35" class="edge">
<title>Key1:e&#45;&gt;Key2:w</title>
<path fill="none" stroke="darkolivegreen" d="M826.25,-839.5C899.23,-839.5 920.26,-839.5 987.97,-839.5"/>
<polygon fill="darkolivegreen" stroke="darkolivegreen" points="987.74,-843 997.74,-839.5 987.74,-836 987.74,-843"/>
</g>
</g>
</svg>
