<?xml version="1.0" encoding="UTF-8" standalone="no"?>
<!DOCTYPE svg PUBLIC "-//W3C//DTD SVG 1.1//EN"
 "http://www.w3.org/Graphics/SVG/1.1/DTD/svg11.dtd">
<!-- Generated by graphviz version 14.1.3 (20260303.0454)
 -->
<!-- Title: g Pages: 1 -->
<svg width="835pt" height="552pt"
 viewBox="0.00 0.00 835.00 552.00" xmlns="http://www.w3.org/2000/svg" xmlns:xlink="http://www.w3.org/1999/xlink">
<g id="graph0" class="graph" transform="scale(1 1) rotate(0) translate(4 547.5)">
<title>g</title>
<polygon fill="white" stroke="none" points="-4,4 -4,-547.5 831.12,-547.5 831.12,4 -4,4"/>
<!-- FW -->
<g id="node1" class="node">
<title>FW</title>
<polygon fill="none" stroke="black" points="366.62,-436.75 305.62,-436.75 305.62,-375.75 366.62,-375.75 366.62,-436.75"/>
<text xml:space="preserve" text-anchor="middle" x="336.12" y="-401.2" font-family="Times New Roman,serif" font-size="14.00">Firewall</text>
</g>
<!-- Data_Agg1 -->
<g id="node4" class="node">
<title>Data_Agg1</title>
<polygon fill="none" stroke="black" points="60.25,-197 0,-197 0,-136.75 60.25,-136.75 60.25,-197"/>
<text xml:space="preserve" text-anchor="middle" x="30.12" y="-178.32" font-family="Times New Roman,serif" font-size="14.00">Data</text>
<text xml:space="preserve" text-anchor="middle" x="30.12" y="-161.82" font-family="Times New Roman,serif" font-size="14.00">Agg</text>
<text xml:space="preserve" text-anchor="middle" x="30.12" y="-145.32" font-family="Times New Roman,serif" font-size="14.00">Switch1</text>
</g>
<!-- FW&#45;&gt;Data_Agg1 -->
<g id="edge1" class="edge">
<title>FW&#45;&gt;Data_Agg1</title>
<path fill="none" stroke="orange" d="M296.29,-374.35C237.42,-328.68 127.84,-243.68 69.33,-198.29"/>
<polygon fill="orange" stroke="orange" points="294.14,-377.11 304.19,-380.48 298.43,-371.58 294.14,-377.11"/>
<polygon fill="orange" stroke="orange" points="71.64,-195.65 61.59,-192.28 67.34,-201.18 71.64,-195.65"/>
</g>
<!-- Admin_Agg1 -->
<g id="node5" class="node">
<title>Admin_Agg1</title>
<polygon fill="none" stroke="black" points="468.25,-197 408,-197 408,-136.75 468.25,-136.75 468.25,-197"/>
<text xml:space="preserve" text-anchor="middle" x="438.12" y="-178.32" font-family="Times New Roman,serif" font-size="14.00">Admin</text>
<text xml:space="preserve" text-anchor="middle" x="438.12" y="-161.82" font-family="Times New Roman,serif" font-size="14.00">Agg</text>
<text xml:space="preserve" text-anchor="middle" x="438.12" y="-145.32" font-family="Times New Roman,serif" font-size="14.00">Switch1</text>
</g>
<!-- FW&#45;&gt;Admin_Agg1 -->
<g id="edge2" class="edge">
<title>FW&#45;&gt;Admin_Agg1</title>
<path fill="none" stroke="magenta" d="M353.35,-365.16C372.15,-321.41 402.08,-251.76 420.89,-208"/>
<polygon fill="magenta" stroke="magenta" points="350.17,-363.71 349.43,-374.28 356.6,-366.47 350.17,-363.71"/>
<polygon fill="magenta" stroke="magenta" points="424.08,-209.42 424.82,-198.85 417.65,-206.65 424.08,-209.42"/>
</g>
<!-- Data_Agg2 -->
<g id="node6" class="node">
<title>Data_Agg2</title>
<polygon fill="none" stroke="black" points="264.25,-197 204,-197 204,-136.75 264.25,-136.75 264.25,-197"/>
<text xml:space="preserve" text-anchor="middle" x="234.12" y="-178.32" font-family="Times New Roman,serif" font-size="14.00">Data</text>
<text xml:space="preserve" text-anchor="middle" x="234.12" y="-161.82" font-family="Times New Roman,serif" font-size="14.00">Agg</text>
<text xml:space="preserve" text-anchor="middle" x="234.12" y="-145.32" font-family="Times New Roman,serif" font-size="14.00">Switch2</text>
</g>
<!-- FW&#45;&gt;Data_Agg2 -->
<g id="edge3" class="edge">
<title>FW&#45;&gt;Data_Agg2</title>
<path fill="none" stroke="orange" d="M318.9,-365.16C300.1,-321.41 270.17,-251.76 251.36,-208"/>
<polygon fill="orange" stroke="orange" points="315.65,-366.47 322.82,-374.28 322.08,-363.71 315.65,-366.47"/>
<polygon fill="orange" stroke="orange" points="254.6,-206.65 247.43,-198.85 248.17,-209.42 254.6,-206.65"/>
</g>
<!-- Admin_Agg2 -->
<g id="node7" class="node">
<title>Admin_Agg2</title>
<polygon fill="none" stroke="black" points="672.25,-197 612,-197 612,-136.75 672.25,-136.75 672.25,-197"/>
<text xml:space="preserve" text-anchor="middle" x="642.12" y="-178.32" font-family="Times New Roman,serif" font-size="14.00">Admin</text>
<text xml:space="preserve" text-anchor="middle" x="642.12" y="-161.82" font-family="Times New Roman,serif" font-size="14.00">Agg</text>
<text xml:space="preserve" text-anchor="middle" x="642.12" y="-145.32" font-family="Times New Roman,serif" font-size="14.00">Switch2</text>
</g>
<!-- FW&#45;&gt;Admin_Agg2 -->
<g id="edge4" class="edge">
<title>FW&#45;&gt;Admin_Agg2</title>
<path fill="none" stroke="magenta" d="M358.9,-365.89C377.53,-336.33 406.12,-296.4 439.12,-269 488.59,-227.94 557.54,-198.11 601,-181.9"/>
<polygon fill="magenta" stroke="magenta" points="356.05,-363.85 353.77,-374.2 362,-367.53 356.05,-363.85"/>
<polygon fill="magenta" stroke="magenta" points="602.12,-185.22 610.32,-178.5 599.72,-178.64 602.12,-185.22"/>
</g>
<!-- Data_Net -->
<g id="node2" class="node">
<title>Data_Net</title>
<polygon fill="none" stroke="black" points="214.5,-64.75 149.75,-64.75 149.75,0 214.5,0 214.5,-64.75"/>
<text xml:space="preserve" text-anchor="middle" x="182.12" y="-43.83" font-family="Times New Roman,serif" font-size="14.00">Data</text>
<text xml:space="preserve" text-anchor="middle" x="182.12" y="-27.32" font-family="Times New Roman,serif" font-size="14.00">Network</text>
<text xml:space="preserve" text-anchor="middle" x="182.12" y="-10.82" font-family="Times New Roman,serif" font-size="14.00">Switches</text>
</g>
<!-- Admin_Net -->
<g id="node3" class="node">
<title>Admin_Net</title>
<polygon fill="none" stroke="black" points="522.5,-64.75 457.75,-64.75 457.75,0 522.5,0 522.5,-64.75"/>
<text xml:space="preserve" text-anchor="middle" x="490.12" y="-43.83" font-family="Times New Roman,serif" font-size="14.00">Admin</text>
<text xml:space="preserve" text-anchor="middle" x="490.12" y="-27.32" font-family="Times New Roman,serif" font-size="14.00">Network</text>
<text xml:space="preserve" text-anchor="middle" x="490.12" y="-10.82" font-family="Times New Roman,serif" font-size="14.00">Switches</text>
</g>
<!-- Data_Agg1&#45;&gt;Data_Net -->
<g id="edge5" class="edge">
<title>Data_Agg1&#45;&gt;Data_Net</title>
<path fill="none" stroke="purple" d="M69,-131.98C90.98,-112.83 118.44,-88.89 140.8,-69.39"/>
<polygon fill="purple" stroke="purple" points="66.9,-129.18 61.66,-138.39 71.5,-134.45 66.9,-129.18"/>
<polygon fill="purple" stroke="purple" points="143.04,-72.09 148.27,-62.88 138.44,-66.82 143.04,-72.09"/>
</g>
<!-- Admin_Agg1&#45;&gt;Admin_Net -->
<g id="edge6" class="edge">
<title>Admin_Agg1&#45;&gt;Admin_Net</title>
<path fill="none" stroke="brown" d="M453.86,-125.78C460.07,-109.95 467.21,-91.75 473.51,-75.71"/>
<polygon fill="brown" stroke="brown" points="450.61,-124.47 450.22,-135.06 457.13,-127.03 450.61,-124.47"/>
<polygon fill="brown" stroke="brown" points="476.76,-77.01 477.16,-66.42 470.24,-74.45 476.76,-77.01"/>
</g>
<!-- Data_Agg2&#45;&gt;Data_Net -->
<g id="edge7" class="edge">
<title>Data_Agg2&#45;&gt;Data_Net</title>
<path fill="none" stroke="purple" d="M218.39,-125.78C212.18,-109.95 205.04,-91.75 198.74,-75.71"/>
<polygon fill="purple" stroke="purple" points="215.12,-127.03 222.03,-135.06 221.64,-124.47 215.12,-127.03"/>
<polygon fill="purple" stroke="purple" points="202.01,-74.45 195.09,-66.42 195.49,-77.01 202.01,-74.45"/>
</g>
<!-- Admin_Agg2&#45;&gt;Admin_Net -->
<g id="edge8" class="edge">
<title>Admin_Agg2&#45;&gt;Admin_Net</title>
<path fill="none" stroke="brown" d="M603.25,-131.98C581.27,-112.83 553.81,-88.89 531.45,-69.39"/>
<polygon fill="brown" stroke="brown" points="600.75,-134.45 610.59,-138.39 605.35,-129.18 600.75,-134.45"/>
<polygon fill="brown" stroke="brown" points="533.81,-66.82 523.98,-62.88 529.21,-72.09 533.81,-66.82"/>
</g>
<!-- Key1 -->
<g id="node8" class="node">
<title>Key1</title>
<polygon fill="none" stroke="black" points="629.25,-543.5 511,-543.5 511,-269 629.25,-269 629.25,-543.5"/>
<text xml:space="preserve" text-anchor="start" x="534.5" y="-524.75" font-family="Times New Roman,serif" font-size="14.00">Admin: 1G Eth</text>
<text xml:space="preserve" text-anchor="start" x="527.75" y="-504.25" font-family="Times New Roman,serif" font-size="14.00">Admin: 10G Eth</text>
<text xml:space="preserve" text-anchor="start" x="521" y="-483.75" font-family="Times New Roman,serif" font-size="14.00">Admin: 100G Eth</text>
<text xml:space="preserve" text-anchor="start" x="572.75" y="-463.25" font-family="Times New Roman,serif" font-size="14.00">OPA100</text>
<text xml:space="preserve" text-anchor="start" x="573.5" y="-442.75" font-family="Times New Roman,serif" font-size="14.00">CN5000</text>
<text xml:space="preserve" text-anchor="start" x="585.5" y="-422.25" font-family="Times New Roman,serif" font-size="14.00">IB100</text>
<text xml:space="preserve" text-anchor="start" x="585.5" y="-401.75" font-family="Times New Roman,serif" font-size="14.00">IB200</text>
<text xml:space="preserve" text-anchor="start" x="547.25" y="-381.25" font-family="Times New Roman,serif" font-size="14.00">Data: 1G Eth</text>
<text xml:space="preserve" text-anchor="start" x="540.5" y="-360.75" font-family="Times New Roman,serif" font-size="14.00">Data: 10G Eth</text>
<text xml:space="preserve" text-anchor="start" x="540.5" y="-340.25" font-family="Times New Roman,serif" font-size="14.00">Data: 40G Eth</text>
<text xml:space="preserve" text-anchor="start" x="533.75" y="-319.75" font-family="Times New Roman,serif" font-size="14.00">Data: 100G Eth</text>
<text xml:space="preserve" text-anchor="start" x="533.75" y="-299.25" font-family="Times New Roman,serif" font-size="14.00">Data: 200G Eth</text>
<text xml:space="preserve" text-anchor="start" x="557" y="-278.75" font-family="Times New Roman,serif" font-size="14.00">FC 32Gbps</text>
</g>
<!-- Key2 -->
<!-- Key1&#45;&gt;Key2 -->
<g id="edge9" class="edge">
<title>Key1:e&#45;&gt;Key2:w</title>
<path fill="none" stroke="red" d="M622.25,-529.25C695.23,-529.25 716.26,-529.25 783.97,-529.25"/>
<polygon fill="red" stroke="red" points="783.74,-532.75 793.74,-529.25 783.74,-525.75 783.74,-532.75"/>
</g>
<!-- Key1&#45;&gt;Key2 -->
<g id="edge10" class="edge">
<title>Key1:e&#45;&gt;Key2:w</title>
<path fill="none" stroke="brown" d="M622.25,-508.75C695.23,-508.75 716.26,-508.75 783.97,-508.75"/>
<polygon fill="brown" stroke="brown" points="783.74,-512.25 793.74,-508.75 783.74,-505.25 783.74,-512.25"/>
</g>
<!-- Key1&#45;&gt;Key2 -->
<g id="edge11" class="edge">
<title>Key1:e&#45;&gt;Key2:w</title>
<path fill="none" stroke="magenta" d="M622.25,-488.25C695.23,-488.25 716.26,-488.25 783.97,-488.25"/>
<polygon fill="magenta" stroke="magenta" points="783.74,-491.75 793.74,-488.25 783.74,-484.75 783.74,-491.75"/>
</g>
<!-- Key1&#45;&gt;Key2 -->
<g id="edge12" class="edge">
<title>Key1:e&#45;&gt;Key2:w</title>
<path fill="none" stroke="blue" d="M622.25,-467.75C695.23,-467.75 716.26,-467.75 783.97,-467.75"/>
<polygon fill="blue" stroke="blue" points="783.74,-471.25 793.74,-467.75 783.74,-464.25 783.74,-471.25"/>
</g>
<!-- Key1&#45;&gt;Key2 -->
<g id="edge13" class="edge">
<title>Key1:e&#45;&gt;Key2:w</title>
<path fill="none" stroke="pink" d="M622.25,-447.25C695.23,-447.25 716.26,-447.25 783.97,-447.25"/>
<polygon fill="pink" stroke="pink" points="783.74,-450.75 793.74,-447.25 783.74,-443.75 783.74,-450.75"/>
</g>
<!-- Key1&#45;&gt;Key2 -->
<g id="edge14" class="edge">
<title>Key1:e&#45;&gt;Key2:w</title>
<path fill="none" stroke="lightseagreen" d="M622.25,-426.75C695.23,-426.75 716.26,-426.75 783.97,-426.75"/>
<polygon fill="lightseagreen" stroke="lightseagreen" points="783.74,-430.25 793.74,-426.75 783.74,-423.25 783.74,-430.25"/>
</g>
<!-- Key1&#45;&gt;Key2 -->
<g id="edge15" class="edge">
<title>Key1:e&#45;&gt;Key2:w</title>
<path fill="none" stroke="tan" d="M622.25,-406.25C695.23,-406.25 716.26,-406.25 783.97,-406.25"/>
<polygon fill="tan" stroke="tan" points="783.74,-409.75 793.74,-406.25 783.74,-402.75 783.74,-409.75"/>
</g>
<!-- Key1&#45;&gt;Key2 -->
<g id="edge16" class="edge">
<title>Key1:e&#45;&gt;Key2:w</title>
<path fill="none" stroke="cyan" d="M622.25,-385.75C695.23,-385.75 716.26,-385.75 783.97,-385.75"/>
<polygon fill="cyan" stroke="cyan" points="783.74,-389.25 793.74,-385.75 783.74,-382.25 783.74,-389.25"/>
</g>
<!-- Key1&#45;&gt;Key2 -->
<g id="edge17" class="edge">
<title>Key1:e&#45;&gt;Key2:w</title>
<path fill="none" stroke="green" d="M622.25,-365.25C695.23,-365.25 716.26,-365.25 783.97,-365.25"/>
<polygon fill="green" stroke="green" points="783.74,-368.75 793.74,-365.25 783.74,-361.75 783.74,-368.75"/>
</g>
<!-- Key1&#45;&gt;Key2 -->
<g id="edge18" class="edge">
<title>Key1:e&#45;&gt;Key2:w</title>
<path fill="none" stroke="purple" d="M622.25,-344.75C695.23,-344.75 716.26,-344.75 783.97,-344.75"/>
<polygon fill="purple" stroke="purple" points="783.74,-348.25 793.74,-344.75 783.74,-341.25 783.74,-348.25"/>
</g>
<!-- Key1&#45;&gt;Key2 -->
<g id="edge19" class="edge">
<title>Key1:e&#45;&gt;Key2:w</title>
<path fill="none" stroke="orange" d="M622.25,-324.25C695.23,-324.25 716.26,-324.25 783.97,-324.25"/>
<polygon fill="orange" stroke="orange" points="783.74,-327.75 793.74,-324.25 783.74,-320.75 783.74,-327.75"/>
</g>
<!-- Key1&#45;&gt;Key2 -->
<g id="edge20" class="edge">
<title>Key1:e&#45;&gt;Key2:w</title>
<path fill="none" stroke="gray" d="M622.25,-303.75C695.23,-303.75 716.26,-303.75 783.97,-303.75"/>
<polygon fill="gray" stroke="gray" points="783.74,-307.25 793.74,-303.75 783.74,-300.25 783.74,-307.25"/>
</g>
<!-- Key1&#45;&gt;Key2 -->
<g id="edge21" class="edge">
<title>Key1:e&#45;&gt;Key2:w</title>
<path fill="none" stroke="darkolivegreen" d="M622.25,-283.25C695.23,-283.25 716.26,-283.25 783.97,-283.25"/>
<polygon fill="darkolivegreen" stroke="darkolivegreen" points="783.74,-286.75 793.74,-283.25 783.74,-279.75 783.74,-286.75"/>
</g>
</g>
</svg>
