<?xml version="1.0" encoding="UTF-8" standalone="no"?>
<!DOCTYPE svg PUBLIC "-//W3C//DTD SVG 1.1//EN"
 "http://www.w3.org/Graphics/SVG/1.1/DTD/svg11.dtd">
<!-- Generated by graphviz version 14.1.3 (20260303.0454)
 -->
<!-- Title: g Pages: 1 -->
<svg width="702pt" height="495pt"
 viewBox="0.00 0.00 702.00 495.00" xmlns="http://www.w3.org/2000/svg" xmlns:xlink="http://www.w3.org/1999/xlink">
<g id="graph0" class="graph" transform="scale(1 1) rotate(0) translate(4 491.2)">
<title>g</title>
<polygon fill="white" stroke="none" points="-4,4 -4,-491.2 697.65,-491.2 697.65,4 -4,4"/>
<!-- Admin_Net -->
<g id="node1" class="node">
<title>Admin_Net</title>
<polygon fill="none" stroke="black" points="357.4,-487.2 292.65,-487.2 292.65,-422.45 357.4,-422.45 357.4,-487.2"/>
<text xml:space="preserve" text-anchor="middle" x="325.03" y="-466.28" font-family="Times New Roman,serif" font-size="14.00">Admin</text>
<text xml:space="preserve" text-anchor="middle" x="325.03" y="-449.78" font-family="Times New Roman,serif" font-size="14.00">Network</text>
<text xml:space="preserve" text-anchor="middle" x="325.03" y="-433.28" font-family="Times New Roman,serif" font-size="14.00">Switches</text>
</g>
<!-- Firewall -->
<g id="node2" class="node">
<title>Firewall</title>
<polygon fill="none" stroke="black" points="148.53,-163.95 87.53,-163.95 87.53,-102.95 148.53,-102.95 148.53,-163.95"/>
<text xml:space="preserve" text-anchor="middle" x="118.03" y="-128.4" font-family="Times New Roman,serif" font-size="14.00">Firewall</text>
</g>
<!-- Admin_Net&#45;&gt;Firewall -->
<g id="edge3" class="edge">
<title>Admin_Net&#45;&gt;Firewall</title>
<path fill="none" stroke="red" d="M281.24,-450.76C204.66,-444.38 51.44,-426.78 19.03,-386.45 -33.28,-321.38 34.65,-225.3 81.15,-172.56"/>
<polygon fill="red" stroke="red" points="280.64,-454.22 290.89,-451.53 281.2,-447.24 280.64,-454.22"/>
<polygon fill="red" stroke="red" points="83.6,-175.07 87.68,-165.3 78.4,-170.39 83.6,-175.07"/>
</g>
<!-- CPU -->
<g id="node6" class="node">
<title>CPU</title>
<polygon fill="none" stroke="black" points="448.15,-381.2 381.9,-381.2 381.9,-314.95 448.15,-314.95 448.15,-381.2"/>
<text xml:space="preserve" text-anchor="middle" x="415.03" y="-359.53" font-family="Times New Roman,serif" font-size="14.00">CPU</text>
<text xml:space="preserve" text-anchor="middle" x="415.03" y="-343.03" font-family="Times New Roman,serif" font-size="14.00">Compute</text>
<text xml:space="preserve" text-anchor="middle" x="415.03" y="-326.53" font-family="Times New Roman,serif" font-size="14.00">Nodes</text>
</g>
<!-- Admin_Net&#45;&gt;CPU -->
<g id="edge6" class="edge">
<title>Admin_Net&#45;&gt;CPU</title>
<path fill="none" stroke="red" d="M359.75,-413.41C366.44,-405.63 373.45,-397.47 380.14,-389.68"/>
<polygon fill="red" stroke="red" points="357.12,-411.1 353.26,-420.97 362.43,-415.66 357.12,-411.1"/>
<polygon fill="red" stroke="red" points="382.4,-392.42 386.26,-382.55 377.09,-387.86 382.4,-392.42"/>
</g>
<!-- GPU -->
<g id="node7" class="node">
<title>GPU</title>
<polygon fill="none" stroke="black" points="532.15,-381.2 465.9,-381.2 465.9,-314.95 532.15,-314.95 532.15,-381.2"/>
<text xml:space="preserve" text-anchor="middle" x="499.03" y="-359.53" font-family="Times New Roman,serif" font-size="14.00">GPU</text>
<text xml:space="preserve" text-anchor="middle" x="499.03" y="-343.03" font-family="Times New Roman,serif" font-size="14.00">Compute</text>
<text xml:space="preserve" text-anchor="middle" x="499.03" y="-326.53" font-family="Times New Roman,serif" font-size="14.00">Nodes</text>
</g>
<!-- Admin_Net&#45;&gt;GPU -->
<g id="edge9" class="edge">
<title>Admin_Net&#45;&gt;GPU</title>
<path fill="none" stroke="red" d="M367.95,-435.33C392.27,-424.1 423.05,-408.63 456.28,-386.48"/>
<polygon fill="red" stroke="red" points="366.82,-431.99 359.17,-439.31 369.72,-438.36 366.82,-431.99"/>
<polygon fill="red" stroke="red" points="458.17,-389.43 464.46,-380.9 454.23,-383.64 458.17,-389.43"/>
</g>
<!-- Storage1 -->
<g id="node8" class="node">
<title>Storage1</title>
<polygon fill="none" stroke="black" points="693.65,-385.7 618.4,-385.7 618.4,-310.45 693.65,-310.45 693.65,-385.7"/>
<text xml:space="preserve" text-anchor="middle" x="656.03" y="-351.28" font-family="Times New Roman,serif" font-size="14.00">Parallel</text>
<text xml:space="preserve" text-anchor="middle" x="656.03" y="-334.78" font-family="Times New Roman,serif" font-size="14.00">Filesystem</text>
</g>
<!-- Admin_Net&#45;&gt;Storage1 -->
<g id="edge11" class="edge">
<title>Admin_Net&#45;&gt;Storage1</title>
<path fill="none" stroke="red" d="M368.89,-449.44C424.26,-442.63 521.72,-426.4 607.77,-386.37"/>
<polygon fill="red" stroke="red" points="368.69,-445.94 359.17,-450.58 369.51,-452.89 368.69,-445.94"/>
<polygon fill="red" stroke="red" points="609.07,-389.63 616.57,-382.15 606.04,-383.31 609.07,-389.63"/>
</g>
<!-- Storage2 -->
<g id="node9" class="node">
<title>Storage2</title>
<polygon fill="none" stroke="black" points="103.65,-385.7 28.4,-385.7 28.4,-310.45 103.65,-310.45 103.65,-385.7"/>
<text xml:space="preserve" text-anchor="middle" x="66.03" y="-351.28" font-family="Times New Roman,serif" font-size="14.00">Home</text>
<text xml:space="preserve" text-anchor="middle" x="66.03" y="-334.78" font-family="Times New Roman,serif" font-size="14.00">Filesystem</text>
</g>
<!-- Admin_Net&#45;&gt;Storage2 -->
<g id="edge13" class="edge">
<title>Admin_Net&#45;&gt;Storage2</title>
<path fill="none" stroke="red" d="M281.5,-445.12C239.4,-435.62 174.31,-418.06 113.96,-386.93"/>
<polygon fill="red" stroke="red" points="280.5,-448.48 291.02,-447.21 282,-441.64 280.5,-448.48"/>
<polygon fill="red" stroke="red" points="115.74,-383.92 105.26,-382.32 112.46,-390.1 115.74,-383.92"/>
</g>
<!-- Login -->
<g id="node10" class="node">
<title>Login</title>
<polygon fill="none" stroke="black" points="600.28,-373.33 549.78,-373.33 549.78,-322.83 600.28,-322.83 600.28,-373.33"/>
<text xml:space="preserve" text-anchor="middle" x="575.03" y="-351.28" font-family="Times New Roman,serif" font-size="14.00">Login</text>
<text xml:space="preserve" text-anchor="middle" x="575.03" y="-334.78" font-family="Times New Roman,serif" font-size="14.00">Nodes</text>
</g>
<!-- Admin_Net&#45;&gt;Login -->
<g id="edge16" class="edge">
<title>Admin_Net&#45;&gt;Login</title>
<path fill="none" stroke="red" d="M368.99,-447.14C414.8,-438.63 487.25,-420.74 541.03,-386.45 543.42,-384.93 545.76,-383.19 548,-381.32"/>
<polygon fill="red" stroke="red" points="368.39,-443.69 359.16,-448.89 369.62,-450.58 368.39,-443.69"/>
<polygon fill="red" stroke="red" points="550.22,-384.04 555.11,-374.64 545.42,-378.94 550.22,-384.04"/>
</g>
<!-- Dbase -->
<g id="node11" class="node">
<title>Dbase</title>
<polygon fill="none" stroke="black" points="186.78,-380.83 121.28,-380.83 121.28,-315.33 186.78,-315.33 186.78,-380.83"/>
<text xml:space="preserve" text-anchor="middle" x="154.03" y="-351.28" font-family="Times New Roman,serif" font-size="14.00">Database</text>
<text xml:space="preserve" text-anchor="middle" x="154.03" y="-334.78" font-family="Times New Roman,serif" font-size="14.00">Nodes</text>
</g>
<!-- Admin_Net&#45;&gt;Dbase -->
<g id="edge18" class="edge">
<title>Admin_Net&#45;&gt;Dbase</title>
<path fill="none" stroke="red" d="M281.99,-434.64C258.38,-423.39 228.78,-408.1 196.16,-386.04"/>
<polygon fill="red" stroke="red" points="280.31,-437.72 290.85,-438.8 283.29,-431.38 280.31,-437.72"/>
<polygon fill="red" stroke="red" points="198.35,-383.3 188.13,-380.5 194.37,-389.06 198.35,-383.3"/>
</g>
<!-- Datamover -->
<g id="node12" class="node">
<title>Datamover</title>
<polygon fill="none" stroke="black" points="363.4,-386.45 286.65,-386.45 286.65,-309.7 363.4,-309.7 363.4,-386.45"/>
<text xml:space="preserve" text-anchor="middle" x="325.03" y="-351.28" font-family="Times New Roman,serif" font-size="14.00">Datamover</text>
<text xml:space="preserve" text-anchor="middle" x="325.03" y="-334.78" font-family="Times New Roman,serif" font-size="14.00">Nodes</text>
</g>
<!-- Admin_Net&#45;&gt;Datamover -->
<g id="edge21" class="edge">
<title>Admin_Net&#45;&gt;Datamover</title>
<path fill="none" stroke="red" d="M325.03,-410.7C325.03,-406.44 325.03,-402.11 325.03,-397.81"/>
<polygon fill="red" stroke="red" points="321.53,-410.6 325.03,-420.6 328.53,-410.6 321.53,-410.6"/>
<polygon fill="red" stroke="red" points="328.53,-398.09 325.03,-388.09 321.53,-398.09 328.53,-398.09"/>
</g>
<!-- VM -->
<g id="node13" class="node">
<title>VM</title>
<polygon fill="none" stroke="black" points="269.03,-380.08 205.03,-380.08 205.03,-316.08 269.03,-316.08 269.03,-380.08"/>
<text xml:space="preserve" text-anchor="middle" x="237.03" y="-359.53" font-family="Times New Roman,serif" font-size="14.00">Virtual</text>
<text xml:space="preserve" text-anchor="middle" x="237.03" y="-343.03" font-family="Times New Roman,serif" font-size="14.00">Machine</text>
<text xml:space="preserve" text-anchor="middle" x="237.03" y="-326.53" font-family="Times New Roman,serif" font-size="14.00">Nodes</text>
</g>
<!-- Admin_Net&#45;&gt;VM -->
<g id="edge23" class="edge">
<title>Admin_Net&#45;&gt;VM</title>
<path fill="none" stroke="red" d="M291.14,-413.49C284.43,-405.5 277.38,-397.11 270.67,-389.12"/>
<polygon fill="red" stroke="red" points="288.3,-415.55 297.41,-420.96 293.66,-411.05 288.3,-415.55"/>
<polygon fill="red" stroke="red" points="273.36,-386.89 264.25,-381.48 268,-391.39 273.36,-386.89"/>
</g>
<!-- External -->
<g id="node5" class="node">
<title>External</title>
<polygon fill="none" stroke="black" points="168.45,-33.48 143.24,-66.95 92.82,-66.95 67.61,-33.48 92.82,0 143.24,0 168.45,-33.48"/>
<text xml:space="preserve" text-anchor="middle" x="118.03" y="-36.68" font-family="Times New Roman,serif" font-size="14.00">External</text>
<text xml:space="preserve" text-anchor="middle" x="118.03" y="-20.18" font-family="Times New Roman,serif" font-size="14.00">Users</text>
</g>
<!-- Firewall&#45;&gt;External -->
<g id="edge1" class="edge">
<title>Firewall&#45;&gt;External</title>
<path fill="none" stroke="green" d="M118.03,-91.15C118.03,-83.19 118.03,-74.94 118.03,-67.29"/>
<polygon fill="green" stroke="green" points="114.53,-91.01 118.03,-101.01 121.53,-91.01 114.53,-91.01"/>
</g>
<!-- HS_Net -->
<g id="node3" class="node">
<title>HS_Net</title>
<polygon fill="none" stroke="black" points="535.9,-273.7 462.15,-273.7 462.15,-199.95 535.9,-199.95 535.9,-273.7"/>
<text xml:space="preserve" text-anchor="middle" x="499.03" y="-248.28" font-family="Times New Roman,serif" font-size="14.00">Highspeed</text>
<text xml:space="preserve" text-anchor="middle" x="499.03" y="-231.78" font-family="Times New Roman,serif" font-size="14.00">Network</text>
<text xml:space="preserve" text-anchor="middle" x="499.03" y="-215.28" font-family="Times New Roman,serif" font-size="14.00">Switches</text>
</g>
<!-- Data_Net -->
<g id="node4" class="node">
<title>Data_Net</title>
<polygon fill="none" stroke="black" points="313.4,-269.2 248.65,-269.2 248.65,-204.45 313.4,-204.45 313.4,-269.2"/>
<text xml:space="preserve" text-anchor="middle" x="281.03" y="-248.28" font-family="Times New Roman,serif" font-size="14.00">Data</text>
<text xml:space="preserve" text-anchor="middle" x="281.03" y="-231.78" font-family="Times New Roman,serif" font-size="14.00">Network</text>
<text xml:space="preserve" text-anchor="middle" x="281.03" y="-215.28" font-family="Times New Roman,serif" font-size="14.00">Switches</text>
</g>
<!-- Data_Net&#45;&gt;Firewall -->
<g id="edge2" class="edge">
<title>Data_Net&#45;&gt;Firewall</title>
<path fill="none" stroke="green" d="M238.86,-209.6C214.13,-194.22 183.05,-174.89 158.6,-159.69"/>
<polygon fill="green" stroke="green" points="236.81,-212.45 247.15,-214.76 240.51,-206.5 236.81,-212.45"/>
<polygon fill="green" stroke="green" points="160.53,-156.77 150.19,-154.46 156.84,-162.71 160.53,-156.77"/>
</g>
<!-- CPU&#45;&gt;HS_Net -->
<g id="edge5" class="edge">
<title>CPU&#45;&gt;HS_Net</title>
<path fill="none" stroke="blue" d="M446.91,-305.61C452.69,-298.09 458.75,-290.21 464.61,-282.6"/>
<polygon fill="blue" stroke="blue" points="444.25,-303.33 440.93,-313.4 449.8,-307.6 444.25,-303.33"/>
<polygon fill="blue" stroke="blue" points="467.11,-285.08 470.44,-275.02 461.57,-280.81 467.11,-285.08"/>
</g>
<!-- CPU&#45;&gt;Data_Net -->
<g id="edge4" class="edge">
<title>CPU&#45;&gt;Data_Net</title>
<path fill="none" stroke="green" d="M373.23,-310.7C372.83,-310.37 372.43,-310.03 372.03,-309.7 356.09,-296.49 338.27,-282.3 322.66,-270.05"/>
<polygon fill="green" stroke="green" points="370.77,-313.2 380.67,-316.97 375.28,-307.85 370.77,-313.2"/>
<polygon fill="green" stroke="green" points="324.98,-267.41 314.95,-264.01 320.66,-272.93 324.98,-267.41"/>
</g>
<!-- GPU&#45;&gt;HS_Net -->
<g id="edge8" class="edge">
<title>GPU&#45;&gt;HS_Net</title>
<path fill="none" stroke="blue" d="M499.03,-303.38C499.03,-297.4 499.03,-291.24 499.03,-285.2"/>
<polygon fill="blue" stroke="blue" points="495.53,-303.08 499.03,-313.08 502.53,-303.08 495.53,-303.08"/>
<polygon fill="blue" stroke="blue" points="502.53,-285.33 499.03,-275.33 495.53,-285.33 502.53,-285.33"/>
</g>
<!-- GPU&#45;&gt;Data_Net -->
<g id="edge7" class="edge">
<title>GPU&#45;&gt;Data_Net</title>
<path fill="none" stroke="green" d="M455.71,-309.49C408.65,-281.27 358.97,-262.4 324.42,-250.94"/>
<polygon fill="green" stroke="green" points="453.77,-312.41 464.12,-314.67 457.44,-306.45 453.77,-312.41"/>
<polygon fill="green" stroke="green" points="325.78,-247.71 315.19,-247.95 323.62,-254.37 325.78,-247.71"/>
</g>
<!-- Storage1&#45;&gt;HS_Net -->
<g id="edge10" class="edge">
<title>Storage1&#45;&gt;HS_Net</title>
<path fill="none" stroke="blue" d="M608.98,-309.85C584.74,-292.49 563.57,-278.45 545.79,-267.03"/>
<polygon fill="blue" stroke="blue" points="606.65,-312.48 616.81,-315.5 610.75,-306.81 606.65,-312.48"/>
<polygon fill="blue" stroke="blue" points="547.86,-264.19 537.55,-261.76 544.09,-270.09 547.86,-264.19"/>
</g>
<!-- Storage2&#45;&gt;Data_Net -->
<g id="edge12" class="edge">
<title>Storage2&#45;&gt;Data_Net</title>
<path fill="none" stroke="green" d="M113.69,-309.14C158.4,-283.13 204.83,-264.35 237.67,-252.44"/>
<polygon fill="green" stroke="green" points="112.2,-305.95 105.4,-314.07 115.78,-311.96 112.2,-305.95"/>
<polygon fill="green" stroke="green" points="238.6,-255.83 246.84,-249.17 236.25,-249.23 238.6,-255.83"/>
</g>
<!-- Login&#45;&gt;HS_Net -->
<g id="edge15" class="edge">
<title>Login&#45;&gt;HS_Net</title>
<path fill="none" stroke="blue" d="M551.58,-313.37C544.91,-303.79 537.54,-293.19 530.48,-283.03"/>
<polygon fill="blue" stroke="blue" points="548.52,-315.11 557.11,-321.32 554.27,-311.11 548.52,-315.11"/>
<polygon fill="blue" stroke="blue" points="533.55,-281.33 524.97,-275.12 527.81,-285.33 533.55,-281.33"/>
</g>
<!-- Login&#45;&gt;Data_Net -->
<g id="edge14" class="edge">
<title>Login&#45;&gt;Data_Net</title>
<path fill="none" stroke="green" d="M548.06,-314.75C545.8,-312.9 543.45,-311.19 541.03,-309.7 504.71,-287.38 388.54,-260.45 324.47,-246.76"/>
<polygon fill="green" stroke="green" points="545.48,-317.13 555.19,-321.39 550.26,-312.01 545.48,-317.13"/>
<polygon fill="green" stroke="green" points="325.51,-243.41 315,-244.76 324.06,-250.25 325.51,-243.41"/>
</g>
<!-- Dbase&#45;&gt;Data_Net -->
<g id="edge17" class="edge">
<title>Dbase&#45;&gt;Data_Net</title>
<path fill="none" stroke="green" d="M195.47,-310.18C195.66,-310.02 195.84,-309.86 196.03,-309.7 210.17,-297.43 225.79,-284.15 239.73,-272.39"/>
<polygon fill="green" stroke="green" points="193.34,-307.4 188.11,-316.62 197.94,-312.67 193.34,-307.4"/>
<polygon fill="green" stroke="green" points="241.62,-275.38 247.01,-266.26 237.11,-270.02 241.62,-275.38"/>
</g>
<!-- Datamover&#45;&gt;HS_Net -->
<g id="edge20" class="edge">
<title>Datamover&#45;&gt;HS_Net</title>
<path fill="none" stroke="blue" d="M373.03,-309.98C402.77,-290.34 429.85,-274.71 451.78,-262.68"/>
<polygon fill="blue" stroke="blue" points="371.34,-306.9 364.97,-315.36 375.23,-312.72 371.34,-306.9"/>
<polygon fill="blue" stroke="blue" points="453.36,-265.81 460.47,-257.96 450.01,-259.66 453.36,-265.81"/>
</g>
<!-- Datamover&#45;&gt;Data_Net -->
<g id="edge19" class="edge">
<title>Datamover&#45;&gt;Data_Net</title>
<path fill="none" stroke="green" d="M305.63,-298.91C303.14,-292.73 300.6,-286.43 298.15,-280.34"/>
<polygon fill="green" stroke="green" points="302.34,-300.11 309.32,-308.08 308.83,-297.49 302.34,-300.11"/>
<polygon fill="green" stroke="green" points="301.4,-279.05 294.42,-271.08 294.91,-281.66 301.4,-279.05"/>
</g>
<!-- VM&#45;&gt;Data_Net -->
<g id="edge22" class="edge">
<title>VM&#45;&gt;Data_Net</title>
<path fill="none" stroke="green" d="M253.89,-305.2C257.21,-296.96 260.69,-288.31 264.02,-280.06"/>
<polygon fill="green" stroke="green" points="250.69,-303.78 250.2,-314.37 257.18,-306.4 250.69,-303.78"/>
<polygon fill="green" stroke="green" points="267.21,-281.51 267.7,-270.92 260.72,-278.89 267.21,-281.51"/>
</g>
</g>
</svg>
