<?xml version="1.0" encoding="UTF-8" standalone="no"?>
<!DOCTYPE svg PUBLIC "-//W3C//DTD SVG 1.1//EN"
 "http://www.w3.org/Graphics/SVG/1.1/DTD/svg11.dtd">
<!-- Generated by graphviz version 14.1.3 (20260303.0454)
 -->
<!-- Title: g Pages: 1 -->
<svg width="711pt" height="589pt"
 viewBox="0.00 0.00 711.00 589.00" xmlns="http://www.w3.org/2000/svg" xmlns:xlink="http://www.w3.org/1999/xlink">
<g id="graph0" class="graph" transform="scale(1 1) rotate(0) translate(4 584.63)">
<title>g</title>
<polygon fill="white" stroke="none" points="-4,4 -4,-584.63 707.05,-584.63 707.05,4 -4,4"/>
<!-- Admin_Net -->
<g id="node1" class="node">
<title>Admin_Net</title>
<polygon fill="none" stroke="black" points="365.63,-580.63 276.18,-493.66 455.07,-493.66 365.63,-580.63"/>
<text xml:space="preserve" text-anchor="middle" x="365.62" y="-525.85" font-family="Times New Roman,serif" font-size="14.00">Admin</text>
<text xml:space="preserve" text-anchor="middle" x="365.62" y="-509.35" font-family="Times New Roman,serif" font-size="14.00">Network</text>
</g>
<!-- Firewall -->
<g id="node2" class="node">
<title>Firewall</title>
<polygon fill="none" stroke="black" points="519.12,-163.95 458.12,-163.95 458.12,-102.95 519.12,-102.95 519.12,-163.95"/>
<text xml:space="preserve" text-anchor="middle" x="488.62" y="-128.4" font-family="Times New Roman,serif" font-size="14.00">Firewall</text>
</g>
<!-- Firewall&#45;&gt;Admin_Net -->
<g id="edge3" class="edge">
<title>Firewall&#45;&gt;Admin_Net</title>
<path fill="none" stroke="red" d="M530.07,-149.08C555.5,-159.83 587.19,-176.63 608.62,-199.95 680.3,-277.94 738.86,-343.69 675.62,-428.67 648.53,-465.09 532.15,-492.57 449.98,-507.9"/>
<polygon fill="red" stroke="red" points="531.58,-145.92 521,-145.41 528.96,-152.41 531.58,-145.92"/>
<polygon fill="red" stroke="red" points="449.57,-504.41 440.37,-509.66 450.84,-511.3 449.57,-504.41"/>
</g>
<!-- Data_Net -->
<g id="node4" class="node">
<title>Data_Net</title>
<polygon fill="none" stroke="black" points="283.63,-315.92 194.18,-228.94 373.07,-228.94 283.63,-315.92"/>
<text xml:space="preserve" text-anchor="middle" x="283.62" y="-261.14" font-family="Times New Roman,serif" font-size="14.00">Data</text>
<text xml:space="preserve" text-anchor="middle" x="283.62" y="-244.64" font-family="Times New Roman,serif" font-size="14.00">Network</text>
</g>
<!-- Firewall&#45;&gt;Data_Net -->
<g id="edge2" class="edge">
<title>Firewall&#45;&gt;Data_Net</title>
<path fill="none" stroke="green" d="M448.43,-158.47C417.85,-176.74 375.34,-202.14 341.16,-222.56"/>
<polygon fill="green" stroke="green" points="449.85,-161.7 456.64,-153.57 446.26,-155.69 449.85,-161.7"/>
<polygon fill="green" stroke="green" points="339.39,-219.54 332.6,-227.68 342.98,-225.55 339.39,-219.54"/>
</g>
<!-- HS_Net -->
<g id="node3" class="node">
<title>HS_Net</title>
<polygon fill="none" stroke="black" points="495.63,-315.92 391.33,-228.94 599.92,-228.94 495.63,-315.92"/>
<text xml:space="preserve" text-anchor="middle" x="495.62" y="-261.14" font-family="Times New Roman,serif" font-size="14.00">Highspeed</text>
<text xml:space="preserve" text-anchor="middle" x="495.62" y="-244.64" font-family="Times New Roman,serif" font-size="14.00">Network</text>
</g>
<!-- CPU -->
<g id="node6" class="node">
<title>CPU</title>
<polygon fill="none" stroke="black" points="488.75,-423.42 422.5,-423.42 422.5,-357.17 488.75,-357.17 488.75,-423.42"/>
<text xml:space="preserve" text-anchor="middle" x="455.62" y="-401.74" font-family="Times New Roman,serif" font-size="14.00">CPU</text>
<text xml:space="preserve" text-anchor="middle" x="455.62" y="-385.24" font-family="Times New Roman,serif" font-size="14.00">Compute</text>
<text xml:space="preserve" text-anchor="middle" x="455.62" y="-368.74" font-family="Times New Roman,serif" font-size="14.00">Nodes</text>
</g>
<!-- HS_Net&#45;&gt;CPU -->
<g id="edge5" class="edge">
<title>HS_Net&#45;&gt;CPU</title>
<path fill="none" stroke="blue" d="M478.33,-315.29C475.15,-325.67 471.87,-336.35 468.83,-346.26"/>
<polygon fill="blue" stroke="blue" points="481.6,-316.56 481.19,-305.98 474.91,-314.51 481.6,-316.56"/>
<polygon fill="blue" stroke="blue" points="465.55,-345.03 465.96,-355.61 472.24,-347.08 465.55,-345.03"/>
</g>
<!-- GPU -->
<g id="node7" class="node">
<title>GPU</title>
<polygon fill="none" stroke="black" points="572.75,-423.42 506.5,-423.42 506.5,-357.17 572.75,-357.17 572.75,-423.42"/>
<text xml:space="preserve" text-anchor="middle" x="539.62" y="-401.74" font-family="Times New Roman,serif" font-size="14.00">GPU</text>
<text xml:space="preserve" text-anchor="middle" x="539.62" y="-385.24" font-family="Times New Roman,serif" font-size="14.00">Compute</text>
<text xml:space="preserve" text-anchor="middle" x="539.62" y="-368.74" font-family="Times New Roman,serif" font-size="14.00">Nodes</text>
</g>
<!-- HS_Net&#45;&gt;GPU -->
<g id="edge8" class="edge">
<title>HS_Net&#45;&gt;GPU</title>
<path fill="none" stroke="blue" d="M514.42,-314.61C517.94,-325.04 521.57,-335.8 524.94,-345.8"/>
<polygon fill="blue" stroke="blue" points="517.77,-313.59 511.25,-305.23 511.13,-315.83 517.77,-313.59"/>
<polygon fill="blue" stroke="blue" points="521.62,-346.91 528.14,-355.26 528.26,-344.67 521.62,-346.91"/>
</g>
<!-- Storage1 -->
<g id="node8" class="node">
<title>Storage1</title>
<polygon fill="none" stroke="black" points="666.25,-427.92 591,-427.92 591,-352.67 666.25,-352.67 666.25,-427.92"/>
<text xml:space="preserve" text-anchor="middle" x="628.62" y="-393.49" font-family="Times New Roman,serif" font-size="14.00">Parallel</text>
<text xml:space="preserve" text-anchor="middle" x="628.62" y="-376.99" font-family="Times New Roman,serif" font-size="14.00">Filesystem</text>
</g>
<!-- HS_Net&#45;&gt;Storage1 -->
<g id="edge10" class="edge">
<title>HS_Net&#45;&gt;Storage1</title>
<path fill="none" stroke="blue" d="M535.06,-297.59C550.18,-312.41 567.55,-329.43 583.19,-344.76"/>
<polygon fill="blue" stroke="blue" points="537.82,-295.39 528.23,-290.89 532.92,-300.39 537.82,-295.39"/>
<polygon fill="blue" stroke="blue" points="580.51,-347.04 590.11,-351.54 585.41,-342.04 580.51,-347.04"/>
</g>
<!-- Login -->
<g id="node10" class="node">
<title>Login</title>
<polygon fill="none" stroke="black" points="308.88,-415.54 258.38,-415.54 258.38,-365.04 308.88,-365.04 308.88,-415.54"/>
<text xml:space="preserve" text-anchor="middle" x="283.62" y="-393.49" font-family="Times New Roman,serif" font-size="14.00">Login</text>
<text xml:space="preserve" text-anchor="middle" x="283.62" y="-376.99" font-family="Times New Roman,serif" font-size="14.00">Nodes</text>
</g>
<!-- HS_Net&#45;&gt;Login -->
<g id="edge15" class="edge">
<title>HS_Net&#45;&gt;Login</title>
<path fill="none" stroke="blue" d="M442.69,-285.62C394.6,-310.03 329.55,-343.6 318.62,-351.92 316.61,-353.45 314.62,-355.1 312.66,-356.83"/>
<polygon fill="blue" stroke="blue" points="443.98,-288.88 451.31,-281.24 440.81,-282.64 443.98,-288.88"/>
<polygon fill="blue" stroke="blue" points="310.28,-354.26 305.46,-363.7 315.11,-359.33 310.28,-354.26"/>
</g>
<!-- Datamover -->
<g id="node12" class="node">
<title>Datamover</title>
<polygon fill="none" stroke="black" points="404,-428.67 327.25,-428.67 327.25,-351.92 404,-351.92 404,-428.67"/>
<text xml:space="preserve" text-anchor="middle" x="365.62" y="-393.49" font-family="Times New Roman,serif" font-size="14.00">Datamover</text>
<text xml:space="preserve" text-anchor="middle" x="365.62" y="-376.99" font-family="Times New Roman,serif" font-size="14.00">Nodes</text>
</g>
<!-- HS_Net&#45;&gt;Datamover -->
<g id="edge20" class="edge">
<title>HS_Net&#45;&gt;Datamover</title>
<path fill="none" stroke="blue" d="M456.42,-298.25C442.12,-312.59 425.83,-328.93 411.03,-343.76"/>
<polygon fill="blue" stroke="blue" points="458.83,-300.78 463.42,-291.23 453.88,-295.84 458.83,-300.78"/>
<polygon fill="blue" stroke="blue" points="408.64,-341.2 404.06,-350.76 413.6,-346.15 408.64,-341.2"/>
</g>
<!-- Data_Net&#45;&gt;CPU -->
<g id="edge4" class="edge">
<title>Data_Net&#45;&gt;CPU</title>
<path fill="none" stroke="green" d="M327.54,-289.1C352.84,-306.84 385,-330.03 412.62,-351.92 412.82,-352.07 413.01,-352.23 413.21,-352.38"/>
<polygon fill="green" stroke="green" points="329.65,-286.3 319.44,-283.45 325.64,-292.04 329.65,-286.3"/>
<polygon fill="green" stroke="green" points="410.94,-355.05 420.9,-358.66 415.37,-349.62 410.94,-355.05"/>
</g>
<!-- Data_Net&#45;&gt;GPU -->
<g id="edge7" class="edge">
<title>Data_Net&#45;&gt;GPU</title>
<path fill="none" stroke="green" d="M328.3,-287.43C344.94,-297.29 364.25,-307.87 382.62,-315.92 428.62,-336.06 448.49,-326.88 496.23,-351.93"/>
<polygon fill="green" stroke="green" points="330.51,-284.67 320.14,-282.51 326.9,-290.67 330.51,-284.67"/>
<polygon fill="green" stroke="green" points="494.39,-354.91 504.84,-356.68 497.78,-348.78 494.39,-354.91"/>
</g>
<!-- Storage2 -->
<g id="node9" class="node">
<title>Storage2</title>
<polygon fill="none" stroke="black" points="75.25,-427.92 0,-427.92 0,-352.67 75.25,-352.67 75.25,-427.92"/>
<text xml:space="preserve" text-anchor="middle" x="37.62" y="-393.49" font-family="Times New Roman,serif" font-size="14.00">Home</text>
<text xml:space="preserve" text-anchor="middle" x="37.62" y="-376.99" font-family="Times New Roman,serif" font-size="14.00">Filesystem</text>
</g>
<!-- Data_Net&#45;&gt;Storage2 -->
<g id="edge12" class="edge">
<title>Data_Net&#45;&gt;Storage2</title>
<path fill="none" stroke="green" d="M230.67,-279.34C191.69,-295.28 137.74,-319.3 85.27,-351.28"/>
<polygon fill="green" stroke="green" points="231.72,-282.69 239.68,-275.69 229.1,-276.2 231.72,-282.69"/>
<polygon fill="green" stroke="green" points="83.44,-348.3 76.78,-356.55 87.13,-354.25 83.44,-348.3"/>
</g>
<!-- Data_Net&#45;&gt;Login -->
<g id="edge14" class="edge">
<title>Data_Net&#45;&gt;Login</title>
<path fill="none" stroke="green" d="M283.62,-327.64C283.62,-336.46 283.62,-345.19 283.62,-353.19"/>
<polygon fill="green" stroke="green" points="287.13,-328.01 283.63,-318.01 280.13,-328.01 287.13,-328.01"/>
<polygon fill="green" stroke="green" points="280.13,-353.16 283.63,-363.16 287.13,-353.16 280.13,-353.16"/>
</g>
<!-- Dbase -->
<g id="node11" class="node">
<title>Dbase</title>
<polygon fill="none" stroke="black" points="158.38,-423.04 92.88,-423.04 92.88,-357.54 158.38,-357.54 158.38,-423.04"/>
<text xml:space="preserve" text-anchor="middle" x="125.62" y="-393.49" font-family="Times New Roman,serif" font-size="14.00">Database</text>
<text xml:space="preserve" text-anchor="middle" x="125.62" y="-376.99" font-family="Times New Roman,serif" font-size="14.00">Nodes</text>
</g>
<!-- Data_Net&#45;&gt;Dbase -->
<g id="edge17" class="edge">
<title>Data_Net&#45;&gt;Dbase</title>
<path fill="none" stroke="green" d="M241.89,-291.54C219.62,-309.15 191.89,-331.42 167.62,-351.92 167.44,-352.08 167.25,-352.23 167.06,-352.39"/>
<polygon fill="green" stroke="green" points="243.89,-294.42 249.57,-285.48 239.55,-288.93 243.89,-294.42"/>
<polygon fill="green" stroke="green" points="164.95,-349.59 159.65,-358.77 169.51,-354.9 164.95,-349.59"/>
</g>
<!-- Data_Net&#45;&gt;Datamover -->
<g id="edge19" class="edge">
<title>Data_Net&#45;&gt;Datamover</title>
<path fill="none" stroke="green" d="M311.94,-303.94C319.62,-316.15 327.96,-329.42 335.73,-341.77"/>
<polygon fill="green" stroke="green" points="315.12,-302.44 306.84,-295.84 309.2,-306.17 315.12,-302.44"/>
<polygon fill="green" stroke="green" points="332.72,-343.55 341,-350.15 338.64,-339.83 332.72,-343.55"/>
</g>
<!-- VM -->
<g id="node13" class="node">
<title>VM</title>
<polygon fill="none" stroke="black" points="240.62,-422.29 176.62,-422.29 176.62,-358.29 240.62,-358.29 240.62,-422.29"/>
<text xml:space="preserve" text-anchor="middle" x="208.62" y="-401.74" font-family="Times New Roman,serif" font-size="14.00">Virtual</text>
<text xml:space="preserve" text-anchor="middle" x="208.62" y="-385.24" font-family="Times New Roman,serif" font-size="14.00">Machine</text>
<text xml:space="preserve" text-anchor="middle" x="208.62" y="-368.74" font-family="Times New Roman,serif" font-size="14.00">Nodes</text>
</g>
<!-- Data_Net&#45;&gt;VM -->
<g id="edge22" class="edge">
<title>Data_Net&#45;&gt;VM</title>
<path fill="none" stroke="green" d="M257.05,-305.12C248.91,-319.28 240.01,-334.75 232.08,-348.52"/>
<polygon fill="green" stroke="green" points="259.83,-307.32 261.78,-296.91 253.76,-303.83 259.83,-307.32"/>
<polygon fill="green" stroke="green" points="229.22,-346.48 227.27,-356.89 235.29,-349.97 229.22,-346.48"/>
</g>
<!-- External -->
<g id="node5" class="node">
<title>External</title>
<polygon fill="none" stroke="black" points="539.04,-33.48 513.83,-66.95 463.42,-66.95 438.21,-33.48 463.42,0 513.83,0 539.04,-33.48"/>
<text xml:space="preserve" text-anchor="middle" x="488.62" y="-36.68" font-family="Times New Roman,serif" font-size="14.00">External</text>
<text xml:space="preserve" text-anchor="middle" x="488.62" y="-20.18" font-family="Times New Roman,serif" font-size="14.00">Users</text>
</g>
<!-- External&#45;&gt;Firewall -->
<g id="edge1" class="edge">
<title>External&#45;&gt;Firewall</title>
<path fill="none" stroke="green" d="M488.62,-67.37C488.62,-75.07 488.62,-83.36 488.62,-91.36"/>
<polygon fill="green" stroke="green" points="485.13,-91.26 488.63,-101.26 492.13,-91.26 485.13,-91.26"/>
</g>
<!-- CPU&#45;&gt;Admin_Net -->
<g id="edge6" class="edge">
<title>CPU&#45;&gt;Admin_Net</title>
<path fill="none" stroke="red" d="M426.68,-433.22C415.3,-449.7 402.36,-468.45 391.32,-484.43"/>
<polygon fill="red" stroke="red" points="429.49,-435.32 432.29,-425.1 423.72,-431.34 429.49,-435.32"/>
<polygon fill="red" stroke="red" points="388.73,-482.02 385.93,-492.24 394.49,-486 388.73,-482.02"/>
</g>
<!-- GPU&#45;&gt;Admin_Net -->
<g id="edge9" class="edge">
<title>GPU&#45;&gt;Admin_Net</title>
<path fill="none" stroke="red" d="M497.68,-428.38C467.75,-451.91 440.41,-471.39 417.81,-486.91"/>
<polygon fill="red" stroke="red" points="499.6,-431.32 505.26,-422.37 495.25,-425.84 499.6,-431.32"/>
<polygon fill="red" stroke="red" points="415.96,-483.93 409.68,-492.46 419.91,-489.72 415.96,-483.93"/>
</g>
<!-- Storage1&#45;&gt;Admin_Net -->
<g id="edge11" class="edge">
<title>Storage1&#45;&gt;Admin_Net</title>
<path fill="none" stroke="red" d="M580.99,-428.58C536.42,-454.72 492.77,-474.24 455.62,-489.13"/>
<polygon fill="red" stroke="red" points="582.66,-431.66 589.45,-423.54 579.07,-425.65 582.66,-431.66"/>
<polygon fill="red" stroke="red" points="454.73,-485.72 446.72,-492.66 457.3,-492.23 454.73,-485.72"/>
</g>
<!-- Storage2&#45;&gt;Admin_Net -->
<g id="edge13" class="edge">
<title>Storage2&#45;&gt;Admin_Net</title>
<path fill="none" stroke="red" d="M85.33,-429.09C150.48,-463.62 220.54,-486.18 274.87,-500.75"/>
<polygon fill="red" stroke="red" points="87.34,-426.19 76.88,-424.51 84,-432.35 87.34,-426.19"/>
<polygon fill="red" stroke="red" points="273.85,-504.1 284.41,-503.27 275.63,-497.33 273.85,-504.1"/>
</g>
<!-- Login&#45;&gt;Admin_Net -->
<g id="edge16" class="edge">
<title>Login&#45;&gt;Admin_Net</title>
<path fill="none" stroke="red" d="M305.09,-425.42C316.42,-443.42 330.34,-465.55 341.97,-484.05"/>
<polygon fill="red" stroke="red" points="308.14,-423.69 299.85,-417.09 302.22,-427.42 308.14,-423.69"/>
<polygon fill="red" stroke="red" points="338.9,-485.74 347.19,-492.34 344.83,-482.01 338.9,-485.74"/>
</g>
<!-- Dbase&#45;&gt;Admin_Net -->
<g id="edge18" class="edge">
<title>Dbase&#45;&gt;Admin_Net</title>
<path fill="none" stroke="red" d="M168.37,-428.63C208.68,-454.65 248.23,-474.01 282.08,-488.81"/>
<polygon fill="red" stroke="red" points="170.41,-425.78 160.13,-423.2 166.56,-431.62 170.41,-425.78"/>
<polygon fill="red" stroke="red" points="280.44,-491.92 291.01,-492.66 283.21,-485.49 280.44,-491.92"/>
</g>
<!-- Datamover&#45;&gt;Admin_Net -->
<g id="edge21" class="edge">
<title>Datamover&#45;&gt;Admin_Net</title>
<path fill="none" stroke="red" d="M365.62,-440.48C365.62,-454.21 365.62,-468.96 365.62,-482.06"/>
<polygon fill="red" stroke="red" points="369.13,-440.51 365.63,-430.51 362.13,-440.51 369.13,-440.51"/>
<polygon fill="red" stroke="red" points="362.13,-482.04 365.63,-492.04 369.13,-482.04 362.13,-482.04"/>
</g>
<!-- VM&#45;&gt;Admin_Net -->
<g id="edge23" class="edge">
<title>VM&#45;&gt;Admin_Net</title>
<path fill="none" stroke="red" d="M249.35,-428.43C249.44,-428.51 249.53,-428.59 249.62,-428.67 272.45,-448.19 298.5,-469.18 320.12,-486.26"/>
<polygon fill="red" stroke="red" points="251.66,-425.8 241.82,-421.86 247.06,-431.08 251.66,-425.8"/>
<polygon fill="red" stroke="red" points="317.88,-488.96 327.9,-492.4 322.21,-483.46 317.88,-488.96"/>
</g>
</g>
</svg>
