<?xml version="1.0" encoding="UTF-8" standalone="no"?>
<!DOCTYPE svg PUBLIC "-//W3C//DTD SVG 1.1//EN"
 "http://www.w3.org/Graphics/SVG/1.1/DTD/svg11.dtd">
<!-- Generated by graphviz version 14.1.3 (20260303.0454)
 -->
<!-- Title: g Pages: 1 -->
<svg width="280pt" height="508pt"
 viewBox="0.00 0.00 280.00 508.00" xmlns="http://www.w3.org/2000/svg" xmlns:xlink="http://www.w3.org/1999/xlink">
<g id="graph0" class="graph" transform="scale(1 1) rotate(0) translate(4 503.95)">
<title>g</title>
<polygon fill="white" stroke="none" points="-4,4 -4,-503.95 276.34,-503.95 276.34,4 -4,4"/>
<!-- Admin_Net -->
<g id="node1" class="node">
<title>Admin_Net</title>
<polygon fill="none" stroke="black" points="129.59,-499.95 64.84,-499.95 64.84,-435.2 129.59,-435.2 129.59,-499.95"/>
<text xml:space="preserve" text-anchor="middle" x="97.22" y="-479.03" font-family="Times New Roman,serif" font-size="14.00">Admin</text>
<text xml:space="preserve" text-anchor="middle" x="97.22" y="-462.53" font-family="Times New Roman,serif" font-size="14.00">Network</text>
<text xml:space="preserve" text-anchor="middle" x="97.22" y="-446.03" font-family="Times New Roman,serif" font-size="14.00">Switches</text>
</g>
<!-- Compute -->
<g id="node2" class="node">
<title>Compute</title>
<polygon fill="none" stroke="black" points="272.34,-387.58 206.09,-387.58 206.09,-321.33 272.34,-321.33 272.34,-387.58"/>
<text xml:space="preserve" text-anchor="middle" x="239.22" y="-349.4" font-family="Times New Roman,serif" font-size="14.00">Compute</text>
</g>
<!-- Admin_Net&#45;&gt;Compute -->
<g id="edge6" class="edge">
<title>Admin_Net&#45;&gt;Compute</title>
<path fill="none" stroke="red" d="M139.57,-440.9C157.93,-429.05 179.29,-414.28 197.22,-399.2 198.66,-397.99 200.1,-396.74 201.54,-395.45"/>
<polygon fill="red" stroke="red" points="137.83,-437.86 131.27,-446.18 141.58,-443.76 137.83,-437.86"/>
<polygon fill="red" stroke="red" points="203.69,-398.23 208.59,-388.84 198.9,-393.13 203.69,-398.23"/>
</g>
<!-- Firewall -->
<g id="node3" class="node">
<title>Firewall</title>
<polygon fill="none" stroke="black" points="101.72,-163.95 40.72,-163.95 40.72,-102.95 101.72,-102.95 101.72,-163.95"/>
<text xml:space="preserve" text-anchor="middle" x="71.22" y="-128.4" font-family="Times New Roman,serif" font-size="14.00">Firewall</text>
</g>
<!-- Admin_Net&#45;&gt;Firewall -->
<g id="edge3" class="edge">
<title>Admin_Net&#45;&gt;Firewall</title>
<path fill="none" stroke="red" d="M55.37,-443.67C39.41,-432.53 22.96,-417.55 14.22,-399.2 -21.39,-324.43 18.99,-227.21 47.64,-173.84"/>
<polygon fill="red" stroke="red" points="53.11,-446.37 63.39,-448.94 56.96,-440.52 53.11,-446.37"/>
<polygon fill="red" stroke="red" points="50.53,-175.85 52.29,-165.41 44.4,-172.48 50.53,-175.85"/>
</g>
<!-- Storage -->
<g id="node4" class="node">
<title>Storage</title>
<polygon fill="none" stroke="black" points="80.84,-383.08 23.59,-383.08 23.59,-325.83 80.84,-325.83 80.84,-383.08"/>
<text xml:space="preserve" text-anchor="middle" x="52.22" y="-349.4" font-family="Times New Roman,serif" font-size="14.00">Storage</text>
</g>
<!-- Admin_Net&#45;&gt;Storage -->
<g id="edge11" class="edge">
<title>Admin_Net&#45;&gt;Storage</title>
<path fill="none" stroke="red" d="M80.03,-424.13C76.03,-414.25 71.79,-403.79 67.86,-394.08"/>
<polygon fill="red" stroke="red" points="76.76,-425.38 83.75,-433.33 83.24,-422.75 76.76,-425.38"/>
<polygon fill="red" stroke="red" points="71.15,-392.88 64.15,-384.92 64.66,-395.5 71.15,-392.88"/>
</g>
<!-- Infra -->
<g id="node5" class="node">
<title>Infra</title>
<polygon fill="none" stroke="black" points="187.97,-399.2 98.47,-399.2 98.47,-309.7 187.97,-309.7 187.97,-399.2"/>
<text xml:space="preserve" text-anchor="middle" x="143.22" y="-357.65" font-family="Times New Roman,serif" font-size="14.00">Infrastructure</text>
<text xml:space="preserve" text-anchor="middle" x="143.22" y="-341.15" font-family="Times New Roman,serif" font-size="14.00">Nodes</text>
</g>
<!-- Admin_Net&#45;&gt;Infra -->
<g id="edge9" class="edge">
<title>Admin_Net&#45;&gt;Infra</title>
<path fill="none" stroke="red" d="M114.72,-424.29C116.68,-419.56 118.69,-414.7 120.7,-409.85"/>
<polygon fill="red" stroke="red" points="111.57,-422.76 110.98,-433.34 118.04,-425.43 111.57,-422.76"/>
<polygon fill="red" stroke="red" points="123.89,-411.29 124.48,-400.71 117.42,-408.61 123.89,-411.29"/>
</g>
<!-- HS_Net -->
<g id="node6" class="node">
<title>HS_Net</title>
<polygon fill="none" stroke="black" points="138.09,-273.7 64.34,-273.7 64.34,-199.95 138.09,-199.95 138.09,-273.7"/>
<text xml:space="preserve" text-anchor="middle" x="101.22" y="-248.28" font-family="Times New Roman,serif" font-size="14.00">Highspeed</text>
<text xml:space="preserve" text-anchor="middle" x="101.22" y="-231.78" font-family="Times New Roman,serif" font-size="14.00">Network</text>
<text xml:space="preserve" text-anchor="middle" x="101.22" y="-215.28" font-family="Times New Roman,serif" font-size="14.00">Switches</text>
</g>
<!-- Compute&#45;&gt;HS_Net -->
<g id="edge5" class="edge">
<title>Compute&#45;&gt;HS_Net</title>
<path fill="none" stroke="blue" d="M201.49,-313.52C200.07,-312.21 198.64,-310.94 197.22,-309.7 178.8,-293.72 170.91,-290.68 147.79,-273.95"/>
<polygon fill="blue" stroke="blue" points="198.84,-315.82 208.49,-320.18 203.66,-310.75 198.84,-315.82"/>
<polygon fill="blue" stroke="blue" points="149.87,-271.14 139.75,-268.02 145.72,-276.77 149.87,-271.14"/>
</g>
<!-- Data_Net -->
<g id="node7" class="node">
<title>Data_Net</title>
<polygon fill="none" stroke="black" points="220.59,-269.2 155.84,-269.2 155.84,-204.45 220.59,-204.45 220.59,-269.2"/>
<text xml:space="preserve" text-anchor="middle" x="188.22" y="-248.28" font-family="Times New Roman,serif" font-size="14.00">Data</text>
<text xml:space="preserve" text-anchor="middle" x="188.22" y="-231.78" font-family="Times New Roman,serif" font-size="14.00">Network</text>
<text xml:space="preserve" text-anchor="middle" x="188.22" y="-215.28" font-family="Times New Roman,serif" font-size="14.00">Switches</text>
</g>
<!-- Compute&#45;&gt;Data_Net -->
<g id="edge4" class="edge">
<title>Compute&#45;&gt;Data_Net</title>
<path fill="none" stroke="green" d="M220.24,-310.42C215.87,-300.51 211.22,-289.98 206.86,-280.1"/>
<polygon fill="green" stroke="green" points="217.03,-311.82 224.26,-319.55 223.43,-308.99 217.03,-311.82"/>
<polygon fill="green" stroke="green" points="210.12,-278.82 202.89,-271.08 203.72,-281.65 210.12,-278.82"/>
</g>
<!-- External -->
<g id="node8" class="node">
<title>External</title>
<polygon fill="none" stroke="black" points="121.64,-33.48 96.43,-66.95 46.01,-66.95 20.8,-33.48 46.01,0 96.43,0 121.64,-33.48"/>
<text xml:space="preserve" text-anchor="middle" x="71.22" y="-36.68" font-family="Times New Roman,serif" font-size="14.00">External</text>
<text xml:space="preserve" text-anchor="middle" x="71.22" y="-20.18" font-family="Times New Roman,serif" font-size="14.00">Users</text>
</g>
<!-- Firewall&#45;&gt;External -->
<g id="edge1" class="edge">
<title>Firewall&#45;&gt;External</title>
<path fill="none" stroke="green" d="M71.22,-91.15C71.22,-83.19 71.22,-74.94 71.22,-67.29"/>
<polygon fill="green" stroke="green" points="67.72,-91.01 71.22,-101.01 74.72,-91.01 67.72,-91.01"/>
</g>
<!-- Storage&#45;&gt;HS_Net -->
<g id="edge10" class="edge">
<title>Storage&#45;&gt;HS_Net</title>
<path fill="none" stroke="blue" d="M68.43,-315.19C72.62,-305.31 77.17,-294.57 81.51,-284.32"/>
<polygon fill="blue" stroke="blue" points="65.35,-313.5 64.67,-324.07 71.79,-316.23 65.35,-313.5"/>
<polygon fill="blue" stroke="blue" points="84.67,-285.84 85.35,-275.27 78.22,-283.11 84.67,-285.84"/>
</g>
<!-- Infra&#45;&gt;HS_Net -->
<g id="edge8" class="edge">
<title>Infra&#45;&gt;HS_Net</title>
<path fill="none" stroke="blue" d="M123.36,-298.79C121.63,-294.03 119.89,-289.24 118.19,-284.56"/>
<polygon fill="blue" stroke="blue" points="120,-299.78 126.7,-307.99 126.58,-297.39 120,-299.78"/>
<polygon fill="blue" stroke="blue" points="121.53,-283.49 114.82,-275.29 114.95,-285.88 121.53,-283.49"/>
</g>
<!-- Infra&#45;&gt;Data_Net -->
<g id="edge7" class="edge">
<title>Infra&#45;&gt;Data_Net</title>
<path fill="none" stroke="green" d="M164.41,-298.99C166.87,-292.68 169.35,-286.32 171.73,-280.2"/>
<polygon fill="green" stroke="green" points="161.27,-297.41 160.91,-308 167.8,-299.95 161.27,-297.41"/>
<polygon fill="green" stroke="green" points="174.97,-281.53 175.33,-270.94 168.44,-278.99 174.97,-281.53"/>
</g>
<!-- Data_Net&#45;&gt;Firewall -->
<g id="edge2" class="edge">
<title>Data_Net&#45;&gt;Firewall</title>
<path fill="none" stroke="green" d="M146.91,-199.7C132.39,-187.1 120.65,-176.96 110.5,-168.21"/>
<polygon fill="green" stroke="green" points="144.57,-202.31 154.42,-206.22 149.16,-197.02 144.57,-202.31"/>
<polygon fill="green" stroke="green" points="112.96,-165.71 103.1,-161.84 108.4,-171.02 112.96,-165.71"/>
</g>
</g>
</svg>
