<?xml version="1.0" encoding="UTF-8" standalone="no"?>
<!DOCTYPE svg PUBLIC "-//W3C//DTD SVG 1.1//EN"
 "http://www.w3.org/Graphics/SVG/1.1/DTD/svg11.dtd">
<!-- Generated by graphviz version 14.1.3 (20260303.0454)
 -->
<!-- Title: g Pages: 1 -->
<svg width="269pt" height="411pt"
 viewBox="0.00 0.00 269.00 411.00" xmlns="http://www.w3.org/2000/svg" xmlns:xlink="http://www.w3.org/1999/xlink">
<g id="graph0" class="graph" transform="scale(1 1) rotate(0) translate(4 406.95)">
<title>g</title>
<polygon fill="white" stroke="none" points="-4,4 -4,-406.95 265.04,-406.95 265.04,4 -4,4"/>
<!-- Admin_Net -->
<g id="node1" class="node">
<title>Admin_Net</title>
<polygon fill="none" stroke="black" points="152,-402.95 87.25,-402.95 87.25,-338.2 152,-338.2 152,-402.95"/>
<text xml:space="preserve" text-anchor="middle" x="119.62" y="-382.03" font-family="Times New Roman,serif" font-size="14.00">Admin</text>
<text xml:space="preserve" text-anchor="middle" x="119.62" y="-365.53" font-family="Times New Roman,serif" font-size="14.00">Network</text>
<text xml:space="preserve" text-anchor="middle" x="119.62" y="-349.03" font-family="Times New Roman,serif" font-size="14.00">Switches</text>
</g>
<!-- Compute -->
<g id="node2" class="node">
<title>Compute</title>
<polygon fill="none" stroke="black" points="248.75,-290.58 182.5,-290.58 182.5,-224.33 248.75,-224.33 248.75,-290.58"/>
<text xml:space="preserve" text-anchor="middle" x="215.62" y="-252.4" font-family="Times New Roman,serif" font-size="14.00">Compute</text>
</g>
<!-- Admin_Net&#45;&gt;Compute -->
<g id="edge4" class="edge">
<title>Admin_Net&#45;&gt;Compute</title>
<path fill="none" stroke="red" d="M154.46,-329.26C162.76,-319.65 171.63,-309.38 179.97,-299.73"/>
<polygon fill="red" stroke="red" points="152.01,-326.73 148.12,-336.59 157.31,-331.31 152.01,-326.73"/>
<polygon fill="red" stroke="red" points="182.57,-302.07 186.45,-292.22 177.27,-297.5 182.57,-302.07"/>
</g>
<!-- Storage -->
<g id="node3" class="node">
<title>Storage</title>
<polygon fill="none" stroke="black" points="57.25,-286.08 0,-286.08 0,-228.83 57.25,-228.83 57.25,-286.08"/>
<text xml:space="preserve" text-anchor="middle" x="28.62" y="-252.4" font-family="Times New Roman,serif" font-size="14.00">Storage</text>
</g>
<!-- Admin_Net&#45;&gt;Storage -->
<g id="edge9" class="edge">
<title>Admin_Net&#45;&gt;Storage</title>
<path fill="none" stroke="red" d="M86.51,-329.14C77.46,-318.09 67.7,-306.17 58.83,-295.33"/>
<polygon fill="red" stroke="red" points="83.55,-331.04 92.59,-336.56 88.96,-326.61 83.55,-331.04"/>
<polygon fill="red" stroke="red" points="61.61,-293.21 52.57,-287.69 56.2,-297.64 61.61,-293.21"/>
</g>
<!-- Infra -->
<g id="node4" class="node">
<title>Infra</title>
<polygon fill="none" stroke="black" points="164.38,-302.2 74.88,-302.2 74.88,-212.7 164.38,-212.7 164.38,-302.2"/>
<text xml:space="preserve" text-anchor="middle" x="119.62" y="-260.65" font-family="Times New Roman,serif" font-size="14.00">Infrastructure</text>
<text xml:space="preserve" text-anchor="middle" x="119.62" y="-244.15" font-family="Times New Roman,serif" font-size="14.00">Nodes</text>
</g>
<!-- Admin_Net&#45;&gt;Infra -->
<g id="edge7" class="edge">
<title>Admin_Net&#45;&gt;Infra</title>
<path fill="none" stroke="red" d="M119.62,-326.46C119.62,-322.25 119.62,-317.94 119.62,-313.63"/>
<polygon fill="red" stroke="red" points="116.13,-326.22 119.63,-336.22 123.13,-326.22 116.13,-326.22"/>
<polygon fill="red" stroke="red" points="123.13,-313.82 119.63,-303.82 116.13,-313.82 123.13,-313.82"/>
</g>
<!-- HS_Net -->
<g id="node5" class="node">
<title>HS_Net</title>
<polygon fill="none" stroke="black" points="156.5,-176.7 82.75,-176.7 82.75,-102.95 156.5,-102.95 156.5,-176.7"/>
<text xml:space="preserve" text-anchor="middle" x="119.62" y="-151.28" font-family="Times New Roman,serif" font-size="14.00">Highspeed</text>
<text xml:space="preserve" text-anchor="middle" x="119.62" y="-134.78" font-family="Times New Roman,serif" font-size="14.00">Network</text>
<text xml:space="preserve" text-anchor="middle" x="119.62" y="-118.28" font-family="Times New Roman,serif" font-size="14.00">Switches</text>
</g>
<!-- Compute&#45;&gt;HS_Net -->
<g id="edge3" class="edge">
<title>Compute&#45;&gt;HS_Net</title>
<path fill="none" stroke="blue" d="M181.32,-215.14C173.44,-205.64 165.01,-195.49 157,-185.85"/>
<polygon fill="blue" stroke="blue" points="178.58,-217.31 187.66,-222.77 183.97,-212.84 178.58,-217.31"/>
<polygon fill="blue" stroke="blue" points="159.84,-183.79 150.76,-178.33 154.46,-188.26 159.84,-183.79"/>
</g>
<!-- Data_Net -->
<g id="node6" class="node">
<title>Data_Net</title>
<polygon fill="none" stroke="black" points="243,-172.2 178.25,-172.2 178.25,-107.45 243,-107.45 243,-172.2"/>
<text xml:space="preserve" text-anchor="middle" x="210.62" y="-151.28" font-family="Times New Roman,serif" font-size="14.00">Data</text>
<text xml:space="preserve" text-anchor="middle" x="210.62" y="-134.78" font-family="Times New Roman,serif" font-size="14.00">Network</text>
<text xml:space="preserve" text-anchor="middle" x="210.62" y="-118.28" font-family="Times New Roman,serif" font-size="14.00">Switches</text>
</g>
<!-- Compute&#45;&gt;Data_Net -->
<g id="edge2" class="edge">
<title>Compute&#45;&gt;Data_Net</title>
<path fill="none" stroke="green" d="M213.73,-212.62C213.33,-203.29 212.9,-193.44 212.5,-184.13"/>
<polygon fill="green" stroke="green" points="210.22,-212.59 214.15,-222.42 217.22,-212.28 210.22,-212.59"/>
<polygon fill="green" stroke="green" points="216,-184.05 212.07,-174.21 209,-184.35 216,-184.05"/>
</g>
<!-- Storage&#45;&gt;HS_Net -->
<g id="edge8" class="edge">
<title>Storage&#45;&gt;HS_Net</title>
<path fill="none" stroke="blue" d="M57.5,-219.76C66.01,-208.95 75.42,-196.99 84.29,-185.73"/>
<polygon fill="blue" stroke="blue" points="55.02,-217.25 51.59,-227.27 60.52,-221.58 55.02,-217.25"/>
<polygon fill="blue" stroke="blue" points="86.88,-188.09 90.32,-178.07 81.38,-183.76 86.88,-188.09"/>
</g>
<!-- Infra&#45;&gt;HS_Net -->
<g id="edge6" class="edge">
<title>Infra&#45;&gt;HS_Net</title>
<path fill="none" stroke="blue" d="M119.62,-200.95C119.62,-196.73 119.62,-192.49 119.62,-188.33"/>
<polygon fill="blue" stroke="blue" points="116.13,-200.9 119.63,-210.9 123.13,-200.9 116.13,-200.9"/>
<polygon fill="blue" stroke="blue" points="123.13,-188.38 119.63,-178.38 116.13,-188.38 123.13,-188.38"/>
</g>
<!-- Infra&#45;&gt;Data_Net -->
<g id="edge5" class="edge">
<title>Infra&#45;&gt;Data_Net</title>
<path fill="none" stroke="green" d="M161.24,-203.58C167.11,-196.12 173.06,-188.55 178.71,-181.37"/>
<polygon fill="green" stroke="green" points="158.66,-201.2 155.22,-211.22 164.16,-205.53 158.66,-201.2"/>
<polygon fill="green" stroke="green" points="181.31,-183.74 184.74,-173.72 175.81,-179.41 181.31,-183.74"/>
</g>
<!-- External -->
<g id="node7" class="node">
<title>External</title>
<polygon fill="none" stroke="black" points="261.04,-33.48 235.83,-66.95 185.42,-66.95 160.21,-33.48 185.42,0 235.83,0 261.04,-33.48"/>
<text xml:space="preserve" text-anchor="middle" x="210.62" y="-36.68" font-family="Times New Roman,serif" font-size="14.00">External</text>
<text xml:space="preserve" text-anchor="middle" x="210.62" y="-20.18" font-family="Times New Roman,serif" font-size="14.00">Users</text>
</g>
<!-- Data_Net&#45;&gt;External -->
<g id="edge1" class="edge">
<title>Data_Net&#45;&gt;External</title>
<path fill="none" stroke="green" d="M210.62,-95.92C210.62,-86.4 210.62,-76.46 210.62,-67.41"/>
<polygon fill="green" stroke="green" points="207.13,-95.72 210.63,-105.72 214.13,-95.72 207.13,-95.72"/>
</g>
</g>
</svg>
