<?xml version="1.0" encoding="UTF-8" standalone="no"?>
<!DOCTYPE svg PUBLIC "-//W3C//DTD SVG 1.1//EN"
 "http://www.w3.org/Graphics/SVG/1.1/DTD/svg11.dtd">
<!-- Generated by graphviz version 14.1.3 (20260303.0454)
 -->
<!-- Title: g Pages: 1 -->
<svg width="414pt" height="504pt"
 viewBox="0.00 0.00 414.00 504.00" xmlns="http://www.w3.org/2000/svg" xmlns:xlink="http://www.w3.org/1999/xlink">
<g id="graph0" class="graph" transform="scale(1 1) rotate(0) translate(4 500.38)">
<title>g</title>
<polygon fill="white" stroke="none" points="-4,4 -4,-500.38 409.75,-500.38 409.75,4 -4,4"/>
<!-- Admin_Net -->
<g id="node1" class="node">
<title>Admin_Net</title>
<polygon fill="none" stroke="black" points="195.3,-496.38 105.85,-409.41 284.75,-409.41 195.3,-496.38"/>
<text xml:space="preserve" text-anchor="middle" x="195.3" y="-441.6" font-family="Times New Roman,serif" font-size="14.00">Admin</text>
<text xml:space="preserve" text-anchor="middle" x="195.3" y="-425.1" font-family="Times New Roman,serif" font-size="14.00">Network</text>
</g>
<!-- Compute -->
<g id="node2" class="node">
<title>Compute</title>
<polygon fill="none" stroke="black" points="324.42,-332.79 258.17,-332.79 258.17,-266.54 324.42,-266.54 324.42,-332.79"/>
<text xml:space="preserve" text-anchor="middle" x="291.3" y="-294.62" font-family="Times New Roman,serif" font-size="14.00">Compute</text>
</g>
<!-- Compute&#45;&gt;Admin_Net -->
<g id="edge4" class="edge">
<title>Compute&#45;&gt;Admin_Net</title>
<path fill="none" stroke="red" d="M262.04,-342.34C249.15,-360.7 234.11,-382.12 221.58,-399.97"/>
<polygon fill="red" stroke="red" points="264.8,-344.51 267.68,-334.31 259.07,-340.48 264.8,-344.51"/>
<polygon fill="red" stroke="red" points="219.03,-397.51 216.15,-407.7 224.76,-401.53 219.03,-397.51"/>
</g>
<!-- Storage -->
<g id="node3" class="node">
<title>Storage</title>
<polygon fill="none" stroke="black" points="132.92,-328.29 75.67,-328.29 75.67,-271.04 132.92,-271.04 132.92,-328.29"/>
<text xml:space="preserve" text-anchor="middle" x="104.3" y="-294.62" font-family="Times New Roman,serif" font-size="14.00">Storage</text>
</g>
<!-- Storage&#45;&gt;Admin_Net -->
<g id="edge9" class="edge">
<title>Storage&#45;&gt;Admin_Net</title>
<path fill="none" stroke="red" d="M129.26,-338.18C141.99,-357.3 157.42,-380.49 170.17,-399.65"/>
<polygon fill="red" stroke="red" points="132.23,-336.31 123.77,-329.93 126.4,-340.19 132.23,-336.31"/>
<polygon fill="red" stroke="red" points="167.08,-401.32 175.54,-407.71 172.91,-397.44 167.08,-401.32"/>
</g>
<!-- Infra -->
<g id="node4" class="node">
<title>Infra</title>
<polygon fill="none" stroke="black" points="240.05,-344.42 150.55,-344.42 150.55,-254.92 240.05,-254.92 240.05,-344.42"/>
<text xml:space="preserve" text-anchor="middle" x="195.3" y="-302.87" font-family="Times New Roman,serif" font-size="14.00">Infrastructure</text>
<text xml:space="preserve" text-anchor="middle" x="195.3" y="-286.37" font-family="Times New Roman,serif" font-size="14.00">Nodes</text>
</g>
<!-- Infra&#45;&gt;Admin_Net -->
<g id="edge7" class="edge">
<title>Infra&#45;&gt;Admin_Net</title>
<path fill="none" stroke="red" d="M195.3,-356.08C195.3,-369.98 195.3,-384.62 195.3,-397.6"/>
<polygon fill="red" stroke="red" points="198.8,-356.2 195.3,-346.2 191.8,-356.2 198.8,-356.2"/>
<polygon fill="red" stroke="red" points="191.8,-397.46 195.3,-407.46 198.8,-397.46 191.8,-397.46"/>
</g>
<!-- HS_Net -->
<g id="node5" class="node">
<title>HS_Net</title>
<polygon fill="none" stroke="black" points="104.3,-218.92 0,-131.94 208.6,-131.94 104.3,-218.92"/>
<text xml:space="preserve" text-anchor="middle" x="104.3" y="-164.14" font-family="Times New Roman,serif" font-size="14.00">Highspeed</text>
<text xml:space="preserve" text-anchor="middle" x="104.3" y="-147.64" font-family="Times New Roman,serif" font-size="14.00">Network</text>
</g>
<!-- HS_Net&#45;&gt;Compute -->
<g id="edge3" class="edge">
<title>HS_Net&#45;&gt;Compute</title>
<path fill="none" stroke="blue" d="M155.59,-190.77C184.28,-207.88 220.06,-230.88 249.3,-254.92 250.75,-256.11 252.21,-257.35 253.66,-258.63"/>
<polygon fill="blue" stroke="blue" points="157.45,-187.81 147.06,-185.74 153.89,-193.84 157.45,-187.81"/>
<polygon fill="blue" stroke="blue" points="251.03,-260.96 260.74,-265.19 255.79,-255.83 251.03,-260.96"/>
</g>
<!-- HS_Net&#45;&gt;Storage -->
<g id="edge8" class="edge">
<title>HS_Net&#45;&gt;Storage</title>
<path fill="none" stroke="blue" d="M104.3,-230.79C104.3,-240.59 104.3,-250.37 104.3,-259.34"/>
<polygon fill="blue" stroke="blue" points="107.8,-231.04 104.3,-221.04 100.8,-231.04 107.8,-231.04"/>
<polygon fill="blue" stroke="blue" points="100.8,-259.08 104.3,-269.08 107.8,-259.08 100.8,-259.08"/>
</g>
<!-- HS_Net&#45;&gt;Infra -->
<g id="edge6" class="edge">
<title>HS_Net&#45;&gt;Infra</title>
<path fill="none" stroke="blue" d="M135.02,-208.1C143.03,-220.13 151.72,-233.19 159.95,-245.55"/>
<polygon fill="blue" stroke="blue" points="138.22,-206.58 129.76,-200.2 132.39,-210.46 138.22,-206.58"/>
<polygon fill="blue" stroke="blue" points="156.83,-247.19 165.29,-253.58 162.66,-243.31 156.83,-247.19"/>
</g>
<!-- Data_Net -->
<g id="node6" class="node">
<title>Data_Net</title>
<polygon fill="none" stroke="black" points="316.3,-218.92 226.85,-131.94 405.75,-131.94 316.3,-218.92"/>
<text xml:space="preserve" text-anchor="middle" x="316.3" y="-164.14" font-family="Times New Roman,serif" font-size="14.00">Data</text>
<text xml:space="preserve" text-anchor="middle" x="316.3" y="-147.64" font-family="Times New Roman,serif" font-size="14.00">Network</text>
</g>
<!-- Data_Net&#45;&gt;Compute -->
<g id="edge2" class="edge">
<title>Data_Net&#45;&gt;Compute</title>
<path fill="none" stroke="green" d="M305.4,-221.52C303.35,-232.75 301.24,-244.31 299.29,-254.95"/>
<polygon fill="green" stroke="green" points="308.79,-222.48 307.14,-212.02 301.9,-221.22 308.79,-222.48"/>
<polygon fill="green" stroke="green" points="295.89,-254.11 297.53,-264.58 302.77,-255.37 295.89,-254.11"/>
</g>
<!-- Data_Net&#45;&gt;Infra -->
<g id="edge5" class="edge">
<title>Data_Net&#45;&gt;Infra</title>
<path fill="none" stroke="green" d="M281.66,-201.07C269.18,-215.18 254.89,-231.33 241.58,-246.37"/>
<polygon fill="green" stroke="green" points="284.13,-203.56 288.14,-193.75 278.89,-198.92 284.13,-203.56"/>
<polygon fill="green" stroke="green" points="239.31,-243.66 235.3,-253.47 244.55,-248.3 239.31,-243.66"/>
</g>
<!-- External -->
<g id="node7" class="node">
<title>External</title>
<polygon fill="none" stroke="black" points="366.72,-33.48 341.51,-66.95 291.09,-66.95 265.88,-33.48 291.09,0 341.51,0 366.72,-33.48"/>
<text xml:space="preserve" text-anchor="middle" x="316.3" y="-36.68" font-family="Times New Roman,serif" font-size="14.00">External</text>
<text xml:space="preserve" text-anchor="middle" x="316.3" y="-20.18" font-family="Times New Roman,serif" font-size="14.00">Users</text>
</g>
<!-- External&#45;&gt;Data_Net -->
<g id="edge1" class="edge">
<title>External&#45;&gt;Data_Net</title>
<path fill="none" stroke="green" d="M316.3,-67.44C316.3,-83.6 316.3,-103.2 316.3,-120.18"/>
<polygon fill="green" stroke="green" points="312.8,-119.94 316.3,-129.94 319.8,-119.94 312.8,-119.94"/>
</g>
</g>
</svg>
