<?xml version="1.0" encoding="UTF-8" standalone="no"?>
<!DOCTYPE svg PUBLIC "-//W3C//DTD SVG 1.1//EN"
 "http://www.w3.org/Graphics/SVG/1.1/DTD/svg11.dtd">
<!-- Generated by graphviz version 14.1.3 (20260303.0454)
 -->
<!-- Title: g Pages: 1 -->
<svg width="827pt" height="1033pt"
 viewBox="0.00 0.00 827.00 1033.00" xmlns="http://www.w3.org/2000/svg" xmlns:xlink="http://www.w3.org/1999/xlink">
<g id="graph0" class="graph" transform="scale(1 1) rotate(0) translate(4 1029.45)">
<title>g</title>
<polygon fill="white" stroke="none" points="-4,4 -4,-1029.45 823,-1029.45 823,4 -4,4"/>
<!-- Admin_Net -->
<g id="node1" class="node">
<title>Admin_Net</title>
<polygon fill="none" stroke="black" points="351.38,-832.58 286.62,-832.58 286.62,-767.83 351.38,-767.83 351.38,-832.58"/>
<text xml:space="preserve" text-anchor="middle" x="319" y="-811.65" font-family="Times New Roman,serif" font-size="14.00">Admin</text>
<text xml:space="preserve" text-anchor="middle" x="319" y="-795.15" font-family="Times New Roman,serif" font-size="14.00">Network</text>
<text xml:space="preserve" text-anchor="middle" x="319" y="-778.65" font-family="Times New Roman,serif" font-size="14.00">Switches</text>
</g>
<!-- CPU -->
<g id="node6" class="node">
<title>CPU</title>
<polygon fill="none" stroke="black" points="441.12,-621.7 374.88,-621.7 374.88,-555.45 441.12,-555.45 441.12,-621.7"/>
<text xml:space="preserve" text-anchor="middle" x="408" y="-600.03" font-family="Times New Roman,serif" font-size="14.00">CPU</text>
<text xml:space="preserve" text-anchor="middle" x="408" y="-583.53" font-family="Times New Roman,serif" font-size="14.00">Compute</text>
<text xml:space="preserve" text-anchor="middle" x="408" y="-567.03" font-family="Times New Roman,serif" font-size="14.00">Nodes</text>
</g>
<!-- Admin_Net&#45;&gt;CPU -->
<g id="edge4" class="edge">
<title>Admin_Net&#45;&gt;CPU</title>
<path fill="none" stroke="red" d="M336.95,-756.92C352.34,-720.69 374.4,-668.73 389.84,-632.35"/>
<polygon fill="red" stroke="red" points="333.8,-755.4 333.11,-765.97 340.24,-758.14 333.8,-755.4"/>
<polygon fill="red" stroke="red" points="392.93,-634.03 393.62,-623.45 386.49,-631.29 392.93,-634.03"/>
</g>
<!-- GPU -->
<g id="node7" class="node">
<title>GPU</title>
<polygon fill="none" stroke="black" points="525.12,-621.7 458.88,-621.7 458.88,-555.45 525.12,-555.45 525.12,-621.7"/>
<text xml:space="preserve" text-anchor="middle" x="492" y="-600.03" font-family="Times New Roman,serif" font-size="14.00">GPU</text>
<text xml:space="preserve" text-anchor="middle" x="492" y="-583.53" font-family="Times New Roman,serif" font-size="14.00">Compute</text>
<text xml:space="preserve" text-anchor="middle" x="492" y="-567.03" font-family="Times New Roman,serif" font-size="14.00">Nodes</text>
</g>
<!-- Admin_Net&#45;&gt;GPU -->
<g id="edge7" class="edge">
<title>Admin_Net&#45;&gt;GPU</title>
<path fill="none" stroke="red" d="M352.43,-758.69C382.86,-721.83 427.56,-667.65 458.13,-630.62"/>
<polygon fill="red" stroke="red" points="349.9,-756.26 346.24,-766.2 355.3,-760.71 349.9,-756.26"/>
<polygon fill="red" stroke="red" points="460.56,-633.17 464.23,-623.23 455.16,-628.71 460.56,-633.17"/>
</g>
<!-- Storage1 -->
<g id="node8" class="node">
<title>Storage1</title>
<polygon fill="none" stroke="black" points="356.62,-626.2 281.38,-626.2 281.38,-550.95 356.62,-550.95 356.62,-626.2"/>
<text xml:space="preserve" text-anchor="middle" x="319" y="-591.78" font-family="Times New Roman,serif" font-size="14.00">Parallel</text>
<text xml:space="preserve" text-anchor="middle" x="319" y="-575.28" font-family="Times New Roman,serif" font-size="14.00">Filesystem</text>
</g>
<!-- Admin_Net&#45;&gt;Storage1 -->
<g id="edge9" class="edge">
<title>Admin_Net&#45;&gt;Storage1</title>
<path fill="none" stroke="red" d="M319,-756.11C319,-721.7 319,-673.49 319,-637.79"/>
<polygon fill="red" stroke="red" points="315.5,-755.85 319,-765.85 322.5,-755.85 315.5,-755.85"/>
<polygon fill="red" stroke="red" points="322.5,-638.19 319,-628.19 315.5,-638.19 322.5,-638.19"/>
</g>
<!-- Storage2 -->
<g id="node9" class="node">
<title>Storage2</title>
<polygon fill="none" stroke="black" points="157.62,-514.2 82.38,-514.2 82.38,-438.95 157.62,-438.95 157.62,-514.2"/>
<text xml:space="preserve" text-anchor="middle" x="120" y="-479.78" font-family="Times New Roman,serif" font-size="14.00">Home</text>
<text xml:space="preserve" text-anchor="middle" x="120" y="-463.28" font-family="Times New Roman,serif" font-size="14.00">Filesystem</text>
</g>
<!-- Admin_Net&#45;&gt;Storage2 -->
<g id="edge11" class="edge">
<title>Admin_Net&#45;&gt;Storage2</title>
<path fill="none" stroke="red" d="M285.8,-758.74C258.76,-724.75 220.51,-674.28 192,-626.95 172.13,-593.98 153.37,-554.69 139.99,-524.68"/>
<polygon fill="red" stroke="red" points="282.84,-760.64 291.82,-766.26 288.31,-756.26 282.84,-760.64"/>
<polygon fill="red" stroke="red" points="143.34,-523.6 136.09,-515.87 136.93,-526.43 143.34,-523.6"/>
</g>
<!-- Login -->
<g id="node10" class="node">
<title>Login</title>
<polygon fill="none" stroke="black" points="263.25,-613.83 212.75,-613.83 212.75,-563.33 263.25,-563.33 263.25,-613.83"/>
<text xml:space="preserve" text-anchor="middle" x="238" y="-591.78" font-family="Times New Roman,serif" font-size="14.00">Login</text>
<text xml:space="preserve" text-anchor="middle" x="238" y="-575.28" font-family="Times New Roman,serif" font-size="14.00">Nodes</text>
</g>
<!-- Admin_Net&#45;&gt;Login -->
<g id="edge14" class="edge">
<title>Admin_Net&#45;&gt;Login</title>
<path fill="none" stroke="red" d="M302.58,-756.7C287.57,-717.86 265.64,-661.1 251.59,-624.75"/>
<polygon fill="red" stroke="red" points="299.28,-757.89 306.15,-765.95 305.81,-755.36 299.28,-757.89"/>
<polygon fill="red" stroke="red" points="254.92,-623.64 248.05,-615.58 248.39,-626.17 254.92,-623.64"/>
</g>
<!-- Dbase -->
<g id="node11" class="node">
<title>Dbase</title>
<polygon fill="none" stroke="black" points="240.75,-509.33 175.25,-509.33 175.25,-443.83 240.75,-443.83 240.75,-509.33"/>
<text xml:space="preserve" text-anchor="middle" x="208" y="-479.78" font-family="Times New Roman,serif" font-size="14.00">Database</text>
<text xml:space="preserve" text-anchor="middle" x="208" y="-463.28" font-family="Times New Roman,serif" font-size="14.00">Nodes</text>
</g>
<!-- Admin_Net&#45;&gt;Dbase -->
<g id="edge16" class="edge">
<title>Admin_Net&#45;&gt;Dbase</title>
<path fill="none" stroke="red" d="M282.22,-759.23C254.69,-726.43 219.27,-677.34 204,-626.95 193.49,-592.28 195.64,-550.98 199.76,-520.61"/>
<polygon fill="red" stroke="red" points="279.25,-761.14 288.41,-766.47 284.57,-756.6 279.25,-761.14"/>
<polygon fill="red" stroke="red" points="203.17,-521.44 201.19,-511.03 196.25,-520.41 203.17,-521.44"/>
</g>
<!-- Datamover -->
<g id="node12" class="node">
<title>Datamover</title>
<polygon fill="none" stroke="black" points="620.38,-626.95 543.62,-626.95 543.62,-550.2 620.38,-550.2 620.38,-626.95"/>
<text xml:space="preserve" text-anchor="middle" x="582" y="-591.78" font-family="Times New Roman,serif" font-size="14.00">Datamover</text>
<text xml:space="preserve" text-anchor="middle" x="582" y="-575.28" font-family="Times New Roman,serif" font-size="14.00">Nodes</text>
</g>
<!-- Admin_Net&#45;&gt;Datamover -->
<g id="edge19" class="edge">
<title>Admin_Net&#45;&gt;Datamover</title>
<path fill="none" stroke="red" d="M360.74,-765.93C407.98,-728.28 484.77,-667.08 534.32,-627.58"/>
<polygon fill="red" stroke="red" points="358.6,-763.16 352.96,-772.13 362.96,-768.64 358.6,-763.16"/>
<polygon fill="red" stroke="red" points="536.42,-630.38 542.06,-621.41 532.06,-624.91 536.42,-630.38"/>
</g>
<!-- VM -->
<g id="node13" class="node">
<title>VM</title>
<polygon fill="none" stroke="black" points="64,-508.58 0,-508.58 0,-444.58 64,-444.58 64,-508.58"/>
<text xml:space="preserve" text-anchor="middle" x="32" y="-488.03" font-family="Times New Roman,serif" font-size="14.00">Virtual</text>
<text xml:space="preserve" text-anchor="middle" x="32" y="-471.53" font-family="Times New Roman,serif" font-size="14.00">Machine</text>
<text xml:space="preserve" text-anchor="middle" x="32" y="-455.03" font-family="Times New Roman,serif" font-size="14.00">Nodes</text>
</g>
<!-- Admin_Net&#45;&gt;VM -->
<g id="edge21" class="edge">
<title>Admin_Net&#45;&gt;VM</title>
<path fill="none" stroke="red" d="M278.08,-760.72C242.52,-726.65 190.24,-675.01 148,-626.95 116.86,-591.53 84.15,-548.83 61.43,-518.17"/>
<polygon fill="red" stroke="red" points="275.55,-763.15 285.2,-767.52 280.38,-758.08 275.55,-763.15"/>
<polygon fill="red" stroke="red" points="64.36,-516.25 55.61,-510.28 58.73,-520.41 64.36,-516.25"/>
</g>
<!-- AdminAgg -->
<g id="node17" class="node">
<title>AdminAgg</title>
<polygon fill="none" stroke="black" points="570.75,-402.95 487.25,-402.95 487.25,-319.45 570.75,-319.45 570.75,-402.95"/>
<text xml:space="preserve" text-anchor="middle" x="529" y="-372.65" font-family="Times New Roman,serif" font-size="14.00">Admin</text>
<text xml:space="preserve" text-anchor="middle" x="529" y="-356.15" font-family="Times New Roman,serif" font-size="14.00">Aggregation</text>
<text xml:space="preserve" text-anchor="middle" x="529" y="-339.65" font-family="Times New Roman,serif" font-size="14.00">Switches</text>
</g>
<!-- Admin_Net&#45;&gt;AdminAgg -->
<g id="edge27" class="edge">
<title>Admin_Net&#45;&gt;AdminAgg</title>
<path fill="none" stroke="brown" d="M361.28,-771.08C405.73,-742.11 478.22,-696.58 544,-662.95 580.53,-644.28 606.34,-661.15 629,-626.95 674.07,-558.91 618.55,-467.7 574,-412.04"/>
<polygon fill="brown" stroke="brown" points="359.41,-768.12 352.96,-776.52 363.24,-773.98 359.41,-768.12"/>
<polygon fill="brown" stroke="brown" points="576.95,-410.12 567.92,-404.59 571.53,-414.55 576.95,-410.12"/>
</g>
<!-- Firewall -->
<g id="node2" class="node">
<title>Firewall</title>
<polygon fill="none" stroke="black" points="399.5,-163.95 338.5,-163.95 338.5,-102.95 399.5,-102.95 399.5,-163.95"/>
<text xml:space="preserve" text-anchor="middle" x="369" y="-128.4" font-family="Times New Roman,serif" font-size="14.00">Firewall</text>
</g>
<!-- External -->
<g id="node5" class="node">
<title>External</title>
<polygon fill="none" stroke="black" points="419.42,-33.48 394.21,-66.95 343.79,-66.95 318.58,-33.48 343.79,0 394.21,0 419.42,-33.48"/>
<text xml:space="preserve" text-anchor="middle" x="369" y="-36.68" font-family="Times New Roman,serif" font-size="14.00">External</text>
<text xml:space="preserve" text-anchor="middle" x="369" y="-20.18" font-family="Times New Roman,serif" font-size="14.00">Users</text>
</g>
<!-- Firewall&#45;&gt;External -->
<g id="edge1" class="edge">
<title>Firewall&#45;&gt;External</title>
<path fill="none" stroke="green" d="M369,-91.15C369,-83.19 369,-74.94 369,-67.29"/>
<polygon fill="green" stroke="green" points="365.5,-91.01 369,-101.01 372.5,-91.01 365.5,-91.01"/>
</g>
<!-- HS_Net -->
<g id="node3" class="node">
<title>HS_Net</title>
<polygon fill="none" stroke="black" points="440.88,-513.45 367.12,-513.45 367.12,-439.7 440.88,-439.7 440.88,-513.45"/>
<text xml:space="preserve" text-anchor="middle" x="404" y="-488.03" font-family="Times New Roman,serif" font-size="14.00">Highspeed</text>
<text xml:space="preserve" text-anchor="middle" x="404" y="-471.53" font-family="Times New Roman,serif" font-size="14.00">Network</text>
<text xml:space="preserve" text-anchor="middle" x="404" y="-455.03" font-family="Times New Roman,serif" font-size="14.00">Switches</text>
</g>
<!-- Data_Net -->
<g id="node4" class="node">
<title>Data_Net</title>
<polygon fill="none" stroke="black" points="355.38,-393.58 290.62,-393.58 290.62,-328.83 355.38,-328.83 355.38,-393.58"/>
<text xml:space="preserve" text-anchor="middle" x="323" y="-372.65" font-family="Times New Roman,serif" font-size="14.00">Data</text>
<text xml:space="preserve" text-anchor="middle" x="323" y="-356.15" font-family="Times New Roman,serif" font-size="14.00">Network</text>
<text xml:space="preserve" text-anchor="middle" x="323" y="-339.65" font-family="Times New Roman,serif" font-size="14.00">Switches</text>
</g>
<!-- DataAgg -->
<g id="node18" class="node">
<title>DataAgg</title>
<polygon fill="none" stroke="black" points="375.75,-283.45 292.25,-283.45 292.25,-199.95 375.75,-199.95 375.75,-283.45"/>
<text xml:space="preserve" text-anchor="middle" x="334" y="-253.15" font-family="Times New Roman,serif" font-size="14.00">Data</text>
<text xml:space="preserve" text-anchor="middle" x="334" y="-236.65" font-family="Times New Roman,serif" font-size="14.00">Aggregation</text>
<text xml:space="preserve" text-anchor="middle" x="334" y="-220.15" font-family="Times New Roman,serif" font-size="14.00">Switches</text>
</g>
<!-- Data_Net&#45;&gt;DataAgg -->
<g id="edge29" class="edge">
<title>Data_Net&#45;&gt;DataAgg</title>
<path fill="none" stroke="purple" d="M327.04,-317.01C327.71,-309.89 328.41,-302.45 329.09,-295.13"/>
<polygon fill="purple" stroke="purple" points="323.57,-316.62 326.12,-326.9 330.53,-317.27 323.57,-316.62"/>
<polygon fill="purple" stroke="purple" points="332.56,-295.6 330.01,-285.32 325.59,-294.95 332.56,-295.6"/>
</g>
<!-- CPU&#45;&gt;HS_Net -->
<g id="edge3" class="edge">
<title>CPU&#45;&gt;HS_Net</title>
<path fill="none" stroke="blue" d="M406.41,-543.75C406.18,-537.5 405.94,-531.05 405.71,-524.74"/>
<polygon fill="blue" stroke="blue" points="402.91,-543.79 406.77,-553.66 409.9,-543.54 402.91,-543.79"/>
<polygon fill="blue" stroke="blue" points="409.23,-524.98 405.37,-515.12 402.23,-525.24 409.23,-524.98"/>
</g>
<!-- CPU&#45;&gt;Data_Net -->
<g id="edge2" class="edge">
<title>CPU&#45;&gt;Data_Net</title>
<path fill="none" stroke="green" d="M436.49,-545.51C453.62,-514.56 468.78,-472.25 450,-438.95 432.19,-407.38 395.59,-387.33 366.23,-375.67"/>
<polygon fill="green" stroke="green" points="433.66,-543.42 431.66,-553.83 439.71,-546.94 433.66,-543.42"/>
<polygon fill="green" stroke="green" points="367.8,-372.52 357.21,-372.28 365.34,-379.07 367.8,-372.52"/>
</g>
<!-- GPU&#45;&gt;HS_Net -->
<g id="edge6" class="edge">
<title>GPU&#45;&gt;HS_Net</title>
<path fill="none" stroke="blue" d="M459.01,-546.35C452.76,-538.53 446.19,-530.31 439.85,-522.39"/>
<polygon fill="blue" stroke="blue" points="456.15,-548.36 465.13,-553.99 461.61,-543.99 456.15,-548.36"/>
<polygon fill="blue" stroke="blue" points="442.75,-520.41 433.77,-514.79 437.28,-524.78 442.75,-520.41"/>
</g>
<!-- GPU&#45;&gt;Data_Net -->
<g id="edge5" class="edge">
<title>GPU&#45;&gt;Data_Net</title>
<path fill="none" stroke="green" d="M494.83,-543.99C494.71,-512.11 489.77,-469.32 468,-438.95 443.7,-405.05 399.75,-384.82 366.58,-373.72"/>
<polygon fill="green" stroke="green" points="491.33,-543.63 494.7,-553.68 498.33,-543.73 491.33,-543.63"/>
<polygon fill="green" stroke="green" points="367.83,-370.44 357.24,-370.75 365.71,-377.11 367.83,-370.44"/>
</g>
<!-- Storage1&#45;&gt;HS_Net -->
<g id="edge8" class="edge">
<title>Storage1&#45;&gt;HS_Net</title>
<path fill="none" stroke="blue" d="M354.56,-541.55C359.36,-535.34 364.29,-528.97 369.08,-522.77"/>
<polygon fill="blue" stroke="blue" points="351.81,-539.39 348.47,-549.45 357.35,-543.67 351.81,-539.39"/>
<polygon fill="blue" stroke="blue" points="371.7,-525.1 375.04,-515.05 366.16,-520.82 371.7,-525.1"/>
</g>
<!-- LnetRouter -->
<g id="node16" class="node">
<title>LnetRouter</title>
<polygon fill="none" stroke="black" points="349.38,-502.95 296.62,-502.95 296.62,-450.2 349.38,-450.2 349.38,-502.95"/>
<text xml:space="preserve" text-anchor="middle" x="323" y="-479.78" font-family="Times New Roman,serif" font-size="14.00">Lnet</text>
<text xml:space="preserve" text-anchor="middle" x="323" y="-463.28" font-family="Times New Roman,serif" font-size="14.00">Router</text>
</g>
<!-- Storage1&#45;&gt;LnetRouter -->
<g id="edge24" class="edge">
<title>Storage1&#45;&gt;LnetRouter</title>
<path fill="none" stroke="blue" d="M320.75,-539.39C321.06,-531 321.37,-522.4 321.66,-514.38"/>
<polygon fill="blue" stroke="blue" points="317.26,-539.01 320.4,-549.13 324.26,-539.26 317.26,-539.01"/>
<polygon fill="blue" stroke="blue" points="325.15,-514.77 322.02,-504.65 318.15,-514.52 325.15,-514.77"/>
</g>
<!-- Storage2&#45;&gt;Data_Net -->
<g id="edge10" class="edge">
<title>Storage2&#45;&gt;Data_Net</title>
<path fill="none" stroke="green" d="M167.43,-438.41C208.36,-413.21 249.72,-393.52 279.79,-380.27"/>
<polygon fill="green" stroke="green" points="165.84,-435.27 159.22,-443.55 169.56,-441.2 165.84,-435.27"/>
<polygon fill="green" stroke="green" points="281.17,-383.48 288.94,-376.28 278.38,-377.06 281.17,-383.48"/>
</g>
<!-- Login&#45;&gt;HS_Net -->
<g id="edge13" class="edge">
<title>Login&#45;&gt;HS_Net</title>
<path fill="none" stroke="blue" d="M265.37,-555.44C267.53,-553.56 269.74,-551.8 272,-550.2 303.21,-528.18 319.66,-534.1 356.79,-514.26"/>
<polygon fill="blue" stroke="blue" points="263.32,-552.55 258.54,-562 268.17,-557.6 263.32,-552.55"/>
<polygon fill="blue" stroke="blue" points="358.42,-517.36 365.38,-509.38 354.96,-511.28 358.42,-517.36"/>
</g>
<!-- Login&#45;&gt;Data_Net -->
<g id="edge12" class="edge">
<title>Login&#45;&gt;Data_Net</title>
<path fill="none" stroke="green" d="M248.85,-551.95C258.35,-521.61 272.97,-477.01 288,-438.95 292.48,-427.6 297.76,-415.5 302.84,-404.35"/>
<polygon fill="green" stroke="green" points="245.54,-550.81 245.91,-561.39 252.22,-552.88 245.54,-550.81"/>
<polygon fill="green" stroke="green" points="305.96,-405.92 306.97,-395.37 299.61,-402.99 305.96,-405.92"/>
</g>
<!-- Dbase&#45;&gt;Data_Net -->
<g id="edge15" class="edge">
<title>Dbase&#45;&gt;Data_Net</title>
<path fill="none" stroke="green" d="M248.58,-435.57C259.68,-424.63 271.71,-412.77 282.79,-401.84"/>
<polygon fill="green" stroke="green" points="246.39,-432.82 241.72,-442.33 251.3,-437.8 246.39,-432.82"/>
<polygon fill="green" stroke="green" points="284.93,-404.65 289.59,-395.14 280.01,-399.67 284.93,-404.65"/>
</g>
<!-- Datamover&#45;&gt;HS_Net -->
<g id="edge18" class="edge">
<title>Datamover&#45;&gt;HS_Net</title>
<path fill="none" stroke="blue" d="M534.14,-550.59C503.03,-530.25 474.42,-514.12 451.45,-501.85"/>
<polygon fill="blue" stroke="blue" points="531.8,-553.24 542.07,-555.84 535.67,-547.4 531.8,-553.24"/>
<polygon fill="blue" stroke="blue" points="453.12,-498.77 442.64,-497.19 449.85,-504.96 453.12,-498.77"/>
</g>
<!-- Datamover&#45;&gt;Data_Net -->
<g id="edge17" class="edge">
<title>Datamover&#45;&gt;Data_Net</title>
<path fill="none" stroke="green" d="M562.79,-539.46C547.99,-507.5 524.84,-466.5 494,-438.95 457.16,-406.05 403.89,-385.18 366.62,-373.64"/>
<polygon fill="green" stroke="green" points="559.58,-540.85 566.86,-548.54 565.96,-537.99 559.58,-540.85"/>
<polygon fill="green" stroke="green" points="367.64,-370.3 357.06,-370.79 365.64,-377 367.64,-370.3"/>
</g>
<!-- VM&#45;&gt;Data_Net -->
<g id="edge20" class="edge">
<title>VM&#45;&gt;Data_Net</title>
<path fill="none" stroke="green" d="M74.18,-439.09C146.94,-399.76 229.67,-379.45 279.2,-369.7"/>
<polygon fill="green" stroke="green" points="72.52,-436 65.49,-443.93 75.93,-442.12 72.52,-436"/>
<polygon fill="green" stroke="green" points="279.8,-373.15 288.96,-367.84 278.49,-366.28 279.8,-373.15"/>
</g>
<!-- TapeStage -->
<g id="node14" class="node">
<title>TapeStage</title>
<polygon fill="none" stroke="black" points="610.75,-828.95 553.25,-828.95 553.25,-771.45 610.75,-771.45 610.75,-828.95"/>
<text xml:space="preserve" text-anchor="middle" x="582" y="-811.65" font-family="Times New Roman,serif" font-size="14.00">Tape</text>
<text xml:space="preserve" text-anchor="middle" x="582" y="-795.15" font-family="Times New Roman,serif" font-size="14.00">Staging</text>
<text xml:space="preserve" text-anchor="middle" x="582" y="-778.65" font-family="Times New Roman,serif" font-size="14.00">Storage</text>
</g>
<!-- TapeStage&#45;&gt;Datamover -->
<g id="edge22" class="edge">
<title>TapeStage&#45;&gt;Datamover</title>
<path fill="none" stroke="darkolivegreen" d="M582,-760.22C582,-725.73 582,-675.26 582,-638.16"/>
<polygon fill="darkolivegreen" stroke="darkolivegreen" points="578.5,-759.85 582,-769.85 585.5,-759.85 578.5,-759.85"/>
<polygon fill="darkolivegreen" stroke="darkolivegreen" points="585.5,-638.61 582,-628.61 578.5,-638.61 585.5,-638.61"/>
</g>
<!-- Tape -->
<g id="node15" class="node">
<title>Tape</title>
<polygon fill="none" stroke="black" points="608,-1025.45 556,-1025.45 556,-973.45 608,-973.45 608,-1025.45"/>
<text xml:space="preserve" text-anchor="middle" x="582" y="-1002.65" font-family="Times New Roman,serif" font-size="14.00">Tape</text>
<text xml:space="preserve" text-anchor="middle" x="582" y="-986.15" font-family="Times New Roman,serif" font-size="14.00">Drives</text>
</g>
<!-- Tape&#45;&gt;TapeStage -->
<g id="edge23" class="edge">
<title>Tape&#45;&gt;TapeStage</title>
<path fill="none" stroke="darkolivegreen" d="M582,-961.9C582,-927.47 582,-876.03 582,-840.68"/>
<polygon fill="darkolivegreen" stroke="darkolivegreen" points="578.5,-961.56 582,-971.56 585.5,-961.56 578.5,-961.56"/>
<polygon fill="darkolivegreen" stroke="darkolivegreen" points="585.5,-840.87 582,-830.87 578.5,-840.87 585.5,-840.87"/>
</g>
<!-- LnetRouter&#45;&gt;Data_Net -->
<g id="edge25" class="edge">
<title>LnetRouter&#45;&gt;Data_Net</title>
<path fill="none" stroke="green" d="M323,-438.75C323,-428.01 323,-416.18 323,-405.1"/>
<polygon fill="green" stroke="green" points="319.5,-438.34 323,-448.34 326.5,-438.34 319.5,-438.34"/>
<polygon fill="green" stroke="green" points="326.5,-405.41 323,-395.41 319.5,-405.41 326.5,-405.41"/>
</g>
<!-- AdminAgg&#45;&gt;Firewall -->
<g id="edge26" class="edge">
<title>AdminAgg&#45;&gt;Firewall</title>
<path fill="none" stroke="magenta" d="M493.29,-309.82C464.05,-268.57 423.29,-211.06 396.54,-173.3"/>
<polygon fill="magenta" stroke="magenta" points="490.33,-311.69 498.96,-317.82 496.04,-307.64 490.33,-311.69"/>
<polygon fill="magenta" stroke="magenta" points="399.56,-171.52 390.93,-165.39 393.85,-175.57 399.56,-171.52"/>
</g>
<!-- DataAgg&#45;&gt;Firewall -->
<g id="edge28" class="edge">
<title>DataAgg&#45;&gt;Firewall</title>
<path fill="none" stroke="orange" d="M351.04,-188.96C352.57,-184.32 354.11,-179.66 355.6,-175.14"/>
<polygon fill="orange" stroke="orange" points="347.81,-187.59 348.01,-198.19 354.46,-189.78 347.81,-187.59"/>
<polygon fill="orange" stroke="orange" points="358.92,-176.25 358.72,-165.66 352.27,-174.06 358.92,-176.25"/>
</g>
<!-- Key1 -->
<g id="node19" class="node">
<title>Key1</title>
<polygon fill="none" stroke="black" points="747.12,-937.45 628.88,-937.45 628.88,-662.95 747.12,-662.95 747.12,-937.45"/>
<text xml:space="preserve" text-anchor="start" x="652.38" y="-918.7" font-family="Times New Roman,serif" font-size="14.00">Admin: 1G Eth</text>
<text xml:space="preserve" text-anchor="start" x="645.62" y="-898.2" font-family="Times New Roman,serif" font-size="14.00">Admin: 10G Eth</text>
<text xml:space="preserve" text-anchor="start" x="638.88" y="-877.7" font-family="Times New Roman,serif" font-size="14.00">Admin: 100G Eth</text>
<text xml:space="preserve" text-anchor="start" x="690.62" y="-857.2" font-family="Times New Roman,serif" font-size="14.00">OPA100</text>
<text xml:space="preserve" text-anchor="start" x="691.38" y="-836.7" font-family="Times New Roman,serif" font-size="14.00">CN5000</text>
<text xml:space="preserve" text-anchor="start" x="703.38" y="-816.2" font-family="Times New Roman,serif" font-size="14.00">IB100</text>
<text xml:space="preserve" text-anchor="start" x="703.38" y="-795.7" font-family="Times New Roman,serif" font-size="14.00">IB200</text>
<text xml:space="preserve" text-anchor="start" x="665.12" y="-775.2" font-family="Times New Roman,serif" font-size="14.00">Data: 1G Eth</text>
<text xml:space="preserve" text-anchor="start" x="658.38" y="-754.7" font-family="Times New Roman,serif" font-size="14.00">Data: 10G Eth</text>
<text xml:space="preserve" text-anchor="start" x="658.38" y="-734.2" font-family="Times New Roman,serif" font-size="14.00">Data: 40G Eth</text>
<text xml:space="preserve" text-anchor="start" x="651.62" y="-713.7" font-family="Times New Roman,serif" font-size="14.00">Data: 100G Eth</text>
<text xml:space="preserve" text-anchor="start" x="651.62" y="-693.2" font-family="Times New Roman,serif" font-size="14.00">Data: 200G Eth</text>
<text xml:space="preserve" text-anchor="start" x="674.88" y="-672.7" font-family="Times New Roman,serif" font-size="14.00">FC 32Gbps</text>
</g>
<!-- Key2 -->
<!-- Key1&#45;&gt;Key2 -->
<g id="edge30" class="edge">
<title>Key1:e&#45;&gt;Key2:w</title>
<path fill="none" stroke="red" d="M740.12,-923.2C756.61,-923.2 763.34,-923.2 775.7,-923.2"/>
<polygon fill="red" stroke="red" points="775.61,-926.7 785.61,-923.2 775.61,-919.7 775.61,-926.7"/>
</g>
<!-- Key1&#45;&gt;Key2 -->
<g id="edge31" class="edge">
<title>Key1:e&#45;&gt;Key2:w</title>
<path fill="none" stroke="brown" d="M740.12,-902.7C756.61,-902.7 763.34,-902.7 775.7,-902.7"/>
<polygon fill="brown" stroke="brown" points="775.61,-906.2 785.61,-902.7 775.61,-899.2 775.61,-906.2"/>
</g>
<!-- Key1&#45;&gt;Key2 -->
<g id="edge32" class="edge">
<title>Key1:e&#45;&gt;Key2:w</title>
<path fill="none" stroke="magenta" d="M740.12,-882.2C756.61,-882.2 763.34,-882.2 775.7,-882.2"/>
<polygon fill="magenta" stroke="magenta" points="775.61,-885.7 785.61,-882.2 775.61,-878.7 775.61,-885.7"/>
</g>
<!-- Key1&#45;&gt;Key2 -->
<g id="edge33" class="edge">
<title>Key1:e&#45;&gt;Key2:w</title>
<path fill="none" stroke="blue" d="M740.12,-861.7C756.61,-861.7 763.34,-861.7 775.7,-861.7"/>
<polygon fill="blue" stroke="blue" points="775.61,-865.2 785.61,-861.7 775.61,-858.2 775.61,-865.2"/>
</g>
<!-- Key1&#45;&gt;Key2 -->
<g id="edge34" class="edge">
<title>Key1:e&#45;&gt;Key2:w</title>
<path fill="none" stroke="pink" d="M740.12,-841.2C756.61,-841.2 763.34,-841.2 775.7,-841.2"/>
<polygon fill="pink" stroke="pink" points="775.61,-844.7 785.61,-841.2 775.61,-837.7 775.61,-844.7"/>
</g>
<!-- Key1&#45;&gt;Key2 -->
<g id="edge35" class="edge">
<title>Key1:e&#45;&gt;Key2:w</title>
<path fill="none" stroke="lightseagreen" d="M740.12,-820.7C756.61,-820.7 763.34,-820.7 775.7,-820.7"/>
<polygon fill="lightseagreen" stroke="lightseagreen" points="775.61,-824.2 785.61,-820.7 775.61,-817.2 775.61,-824.2"/>
</g>
<!-- Key1&#45;&gt;Key2 -->
<g id="edge36" class="edge">
<title>Key1:e&#45;&gt;Key2:w</title>
<path fill="none" stroke="tan" d="M740.12,-800.2C756.61,-800.2 763.34,-800.2 775.7,-800.2"/>
<polygon fill="tan" stroke="tan" points="775.61,-803.7 785.61,-800.2 775.61,-796.7 775.61,-803.7"/>
</g>
<!-- Key1&#45;&gt;Key2 -->
<g id="edge37" class="edge">
<title>Key1:e&#45;&gt;Key2:w</title>
<path fill="none" stroke="cyan" d="M740.12,-779.7C756.61,-779.7 763.34,-779.7 775.7,-779.7"/>
<polygon fill="cyan" stroke="cyan" points="775.61,-783.2 785.61,-779.7 775.61,-776.2 775.61,-783.2"/>
</g>
<!-- Key1&#45;&gt;Key2 -->
<g id="edge38" class="edge">
<title>Key1:e&#45;&gt;Key2:w</title>
<path fill="none" stroke="green" d="M740.12,-759.2C756.61,-759.2 763.34,-759.2 775.7,-759.2"/>
<polygon fill="green" stroke="green" points="775.61,-762.7 785.61,-759.2 775.61,-755.7 775.61,-762.7"/>
</g>
<!-- Key1&#45;&gt;Key2 -->
<g id="edge39" class="edge">
<title>Key1:e&#45;&gt;Key2:w</title>
<path fill="none" stroke="purple" d="M740.12,-738.7C756.61,-738.7 763.34,-738.7 775.7,-738.7"/>
<polygon fill="purple" stroke="purple" points="775.61,-742.2 785.61,-738.7 775.61,-735.2 775.61,-742.2"/>
</g>
<!-- Key1&#45;&gt;Key2 -->
<g id="edge40" class="edge">
<title>Key1:e&#45;&gt;Key2:w</title>
<path fill="none" stroke="orange" d="M740.12,-718.2C756.61,-718.2 763.34,-718.2 775.7,-718.2"/>
<polygon fill="orange" stroke="orange" points="775.61,-721.7 785.61,-718.2 775.61,-714.7 775.61,-721.7"/>
</g>
<!-- Key1&#45;&gt;Key2 -->
<g id="edge41" class="edge">
<title>Key1:e&#45;&gt;Key2:w</title>
<path fill="none" stroke="gray" d="M740.12,-697.7C756.61,-697.7 763.34,-697.7 775.7,-697.7"/>
<polygon fill="gray" stroke="gray" points="775.61,-701.2 785.61,-697.7 775.61,-694.2 775.61,-701.2"/>
</g>
<!-- Key1&#45;&gt;Key2 -->
<g id="edge42" class="edge">
<title>Key1:e&#45;&gt;Key2:w</title>
<path fill="none" stroke="darkolivegreen" d="M740.12,-677.2C756.61,-677.2 763.34,-677.2 775.7,-677.2"/>
<polygon fill="darkolivegreen" stroke="darkolivegreen" points="775.61,-680.7 785.61,-677.2 775.61,-673.7 775.61,-680.7"/>
</g>
</g>
</svg>
