<?xml version="1.0" encoding="UTF-8" standalone="no"?>
<!DOCTYPE svg PUBLIC "-//W3C//DTD SVG 1.1//EN"
 "http://www.w3.org/Graphics/SVG/1.1/DTD/svg11.dtd">
<!-- Generated by graphviz version 14.1.3 (20260303.0454)
 -->
<!-- Title: g Pages: 1 -->
<svg width="645pt" height="685pt"
 viewBox="0.00 0.00 645.00 685.00" xmlns="http://www.w3.org/2000/svg" xmlns:xlink="http://www.w3.org/1999/xlink">
<g id="graph0" class="graph" transform="scale(1 1) rotate(0) translate(4 681.45)">
<title>g</title>
<polygon fill="white" stroke="none" points="-4,4 -4,-681.45 641.11,-681.45 641.11,4 -4,4"/>
<!-- Admin_Net -->
<g id="node1" class="node">
<title>Admin_Net</title>
<polygon fill="none" stroke="black" points="337,-589.45 272.25,-589.45 272.25,-524.7 337,-524.7 337,-589.45"/>
<text xml:space="preserve" text-anchor="middle" x="304.62" y="-568.53" font-family="Times New Roman,serif" font-size="14.00">Admin</text>
<text xml:space="preserve" text-anchor="middle" x="304.62" y="-552.03" font-family="Times New Roman,serif" font-size="14.00">Network</text>
<text xml:space="preserve" text-anchor="middle" x="304.62" y="-535.53" font-family="Times New Roman,serif" font-size="14.00">Switches</text>
</g>
<!-- Firewall -->
<g id="node2" class="node">
<title>Firewall</title>
<polygon fill="none" stroke="black" points="496.12,-163.95 435.12,-163.95 435.12,-102.95 496.12,-102.95 496.12,-163.95"/>
<text xml:space="preserve" text-anchor="middle" x="465.62" y="-128.4" font-family="Times New Roman,serif" font-size="14.00">Firewall</text>
</g>
<!-- Admin_Net&#45;&gt;Firewall -->
<g id="edge3" class="edge">
<title>Admin_Net&#45;&gt;Firewall</title>
<path fill="none" stroke="red" d="M348.7,-549.47C429.41,-536.93 594.22,-509.11 610.62,-488.7 690.24,-389.65 570.01,-240.92 504.07,-171.99"/>
<polygon fill="red" stroke="red" points="348.28,-545.99 338.93,-550.98 349.34,-552.91 348.28,-545.99"/>
<polygon fill="red" stroke="red" points="506.84,-169.82 497.36,-165.08 501.81,-174.69 506.84,-169.82"/>
</g>
<!-- CPU -->
<g id="node6" class="node">
<title>CPU</title>
<polygon fill="none" stroke="black" points="413.75,-483.45 347.5,-483.45 347.5,-417.2 413.75,-417.2 413.75,-483.45"/>
<text xml:space="preserve" text-anchor="middle" x="380.62" y="-461.78" font-family="Times New Roman,serif" font-size="14.00">CPU</text>
<text xml:space="preserve" text-anchor="middle" x="380.62" y="-445.28" font-family="Times New Roman,serif" font-size="14.00">Compute</text>
<text xml:space="preserve" text-anchor="middle" x="380.62" y="-428.78" font-family="Times New Roman,serif" font-size="14.00">Nodes</text>
</g>
<!-- Admin_Net&#45;&gt;CPU -->
<g id="edge6" class="edge">
<title>Admin_Net&#45;&gt;CPU</title>
<path fill="none" stroke="red" d="M334.18,-515.35C339.54,-507.96 345.13,-500.24 350.51,-492.83"/>
<polygon fill="red" stroke="red" points="331.56,-512.99 328.52,-523.14 337.23,-517.1 331.56,-512.99"/>
<polygon fill="red" stroke="red" points="353.24,-495.03 356.28,-484.88 347.57,-490.92 353.24,-495.03"/>
</g>
<!-- GPU -->
<g id="node7" class="node">
<title>GPU</title>
<polygon fill="none" stroke="black" points="261.75,-483.45 195.5,-483.45 195.5,-417.2 261.75,-417.2 261.75,-483.45"/>
<text xml:space="preserve" text-anchor="middle" x="228.62" y="-461.78" font-family="Times New Roman,serif" font-size="14.00">GPU</text>
<text xml:space="preserve" text-anchor="middle" x="228.62" y="-445.28" font-family="Times New Roman,serif" font-size="14.00">Compute</text>
<text xml:space="preserve" text-anchor="middle" x="228.62" y="-428.78" font-family="Times New Roman,serif" font-size="14.00">Nodes</text>
</g>
<!-- Admin_Net&#45;&gt;GPU -->
<g id="edge9" class="edge">
<title>Admin_Net&#45;&gt;GPU</title>
<path fill="none" stroke="red" d="M275.07,-515.35C269.71,-507.96 264.12,-500.24 258.74,-492.83"/>
<polygon fill="red" stroke="red" points="272.02,-517.1 280.73,-523.14 277.69,-512.99 272.02,-517.1"/>
<polygon fill="red" stroke="red" points="261.68,-490.92 252.97,-484.88 256.01,-495.03 261.68,-490.92"/>
</g>
<!-- Storage1 -->
<g id="node8" class="node">
<title>Storage1</title>
<polygon fill="none" stroke="black" points="507.25,-487.95 432,-487.95 432,-412.7 507.25,-412.7 507.25,-487.95"/>
<text xml:space="preserve" text-anchor="middle" x="469.62" y="-453.53" font-family="Times New Roman,serif" font-size="14.00">Parallel</text>
<text xml:space="preserve" text-anchor="middle" x="469.62" y="-437.03" font-family="Times New Roman,serif" font-size="14.00">Filesystem</text>
</g>
<!-- Admin_Net&#45;&gt;Storage1 -->
<g id="edge11" class="edge">
<title>Admin_Net&#45;&gt;Storage1</title>
<path fill="none" stroke="red" d="M347.55,-533.64C368.13,-522.41 393.11,-508.12 422,-488.85"/>
<polygon fill="red" stroke="red" points="345.95,-530.52 338.82,-538.35 349.28,-536.68 345.95,-530.52"/>
<polygon fill="red" stroke="red" points="423.94,-491.76 430.26,-483.26 420.01,-485.97 423.94,-491.76"/>
</g>
<!-- Storage2 -->
<g id="node9" class="node">
<title>Storage2</title>
<polygon fill="none" stroke="black" points="75.25,-375.95 0,-375.95 0,-300.7 75.25,-300.7 75.25,-375.95"/>
<text xml:space="preserve" text-anchor="middle" x="37.62" y="-341.53" font-family="Times New Roman,serif" font-size="14.00">Home</text>
<text xml:space="preserve" text-anchor="middle" x="37.62" y="-325.03" font-family="Times New Roman,serif" font-size="14.00">Filesystem</text>
</g>
<!-- Admin_Net&#45;&gt;Storage2 -->
<g id="edge13" class="edge">
<title>Admin_Net&#45;&gt;Storage2</title>
<path fill="none" stroke="red" d="M260.72,-547.16C223.16,-537.75 169.35,-519.86 131.62,-488.7 98.47,-461.33 73.42,-419.09 57.55,-386.5"/>
<polygon fill="red" stroke="red" points="259.81,-550.54 270.35,-549.46 261.44,-543.73 259.81,-550.54"/>
<polygon fill="red" stroke="red" points="60.81,-385.2 53.37,-377.66 54.48,-388.19 60.81,-385.2"/>
</g>
<!-- Login -->
<g id="node10" class="node">
<title>Login</title>
<polygon fill="none" stroke="black" points="329.88,-475.58 279.38,-475.58 279.38,-425.08 329.88,-425.08 329.88,-475.58"/>
<text xml:space="preserve" text-anchor="middle" x="304.62" y="-453.53" font-family="Times New Roman,serif" font-size="14.00">Login</text>
<text xml:space="preserve" text-anchor="middle" x="304.62" y="-437.03" font-family="Times New Roman,serif" font-size="14.00">Nodes</text>
</g>
<!-- Admin_Net&#45;&gt;Login -->
<g id="edge16" class="edge">
<title>Admin_Net&#45;&gt;Login</title>
<path fill="none" stroke="red" d="M304.62,-513.05C304.62,-504.46 304.62,-495.52 304.62,-487.2"/>
<polygon fill="red" stroke="red" points="301.13,-512.85 304.63,-522.85 308.13,-512.85 301.13,-512.85"/>
<polygon fill="red" stroke="red" points="308.13,-487.46 304.63,-477.46 301.13,-487.46 308.13,-487.46"/>
</g>
<!-- Dbase -->
<g id="node11" class="node">
<title>Dbase</title>
<polygon fill="none" stroke="black" points="158.38,-371.08 92.88,-371.08 92.88,-305.58 158.38,-305.58 158.38,-371.08"/>
<text xml:space="preserve" text-anchor="middle" x="125.62" y="-341.53" font-family="Times New Roman,serif" font-size="14.00">Database</text>
<text xml:space="preserve" text-anchor="middle" x="125.62" y="-325.03" font-family="Times New Roman,serif" font-size="14.00">Nodes</text>
</g>
<!-- Admin_Net&#45;&gt;Dbase -->
<g id="edge18" class="edge">
<title>Admin_Net&#45;&gt;Dbase</title>
<path fill="none" stroke="red" d="M261.06,-543.91C231.91,-533.65 194.77,-516.17 171.62,-488.7 146.39,-458.77 134.99,-415.13 129.84,-382.74"/>
<polygon fill="red" stroke="red" points="259.77,-547.17 270.36,-547.01 261.99,-540.53 259.77,-547.17"/>
<polygon fill="red" stroke="red" points="133.31,-382.26 128.43,-372.86 126.38,-383.25 133.31,-382.26"/>
</g>
<!-- Datamover -->
<g id="node12" class="node">
<title>Datamover</title>
<polygon fill="none" stroke="black" points="602,-488.7 525.25,-488.7 525.25,-411.95 602,-411.95 602,-488.7"/>
<text xml:space="preserve" text-anchor="middle" x="563.62" y="-453.53" font-family="Times New Roman,serif" font-size="14.00">Datamover</text>
<text xml:space="preserve" text-anchor="middle" x="563.62" y="-437.03" font-family="Times New Roman,serif" font-size="14.00">Nodes</text>
</g>
<!-- Admin_Net&#45;&gt;Datamover -->
<g id="edge21" class="edge">
<title>Admin_Net&#45;&gt;Datamover</title>
<path fill="none" stroke="red" d="M348.55,-547.06C390.43,-537.4 454.8,-519.79 514.87,-489.09"/>
<polygon fill="red" stroke="red" points="347.79,-543.64 338.8,-549.25 349.32,-550.47 347.79,-543.64"/>
<polygon fill="red" stroke="red" points="516.3,-492.3 523.52,-484.55 513.04,-486.1 516.3,-492.3"/>
</g>
<!-- VM -->
<g id="node13" class="node">
<title>VM</title>
<polygon fill="none" stroke="black" points="240.62,-370.33 176.62,-370.33 176.62,-306.33 240.62,-306.33 240.62,-370.33"/>
<text xml:space="preserve" text-anchor="middle" x="208.62" y="-349.78" font-family="Times New Roman,serif" font-size="14.00">Virtual</text>
<text xml:space="preserve" text-anchor="middle" x="208.62" y="-333.28" font-family="Times New Roman,serif" font-size="14.00">Machine</text>
<text xml:space="preserve" text-anchor="middle" x="208.62" y="-316.78" font-family="Times New Roman,serif" font-size="14.00">Nodes</text>
</g>
<!-- Admin_Net&#45;&gt;VM -->
<g id="edge23" class="edge">
<title>Admin_Net&#45;&gt;VM</title>
<path fill="none" stroke="red" d="M261.12,-543.59C234.51,-533.45 202.6,-516.23 186.62,-488.7 167.67,-456.05 177.01,-412.86 188.8,-381.33"/>
<polygon fill="red" stroke="red" points="259.75,-546.81 270.34,-546.88 262.1,-540.22 259.75,-546.81"/>
<polygon fill="red" stroke="red" points="192.03,-382.69 192.47,-372.1 185.52,-380.1 192.03,-382.69"/>
</g>
<!-- External -->
<g id="node5" class="node">
<title>External</title>
<polygon fill="none" stroke="black" points="516.04,-33.48 490.83,-66.95 440.42,-66.95 415.21,-33.48 440.42,0 490.83,0 516.04,-33.48"/>
<text xml:space="preserve" text-anchor="middle" x="465.62" y="-36.68" font-family="Times New Roman,serif" font-size="14.00">External</text>
<text xml:space="preserve" text-anchor="middle" x="465.62" y="-20.18" font-family="Times New Roman,serif" font-size="14.00">Users</text>
</g>
<!-- Firewall&#45;&gt;External -->
<g id="edge1" class="edge">
<title>Firewall&#45;&gt;External</title>
<path fill="none" stroke="green" d="M465.62,-91.15C465.62,-83.19 465.62,-74.94 465.62,-67.29"/>
<polygon fill="green" stroke="green" points="462.13,-91.01 465.63,-101.01 469.13,-91.01 462.13,-91.01"/>
</g>
<!-- HS_Net -->
<g id="node3" class="node">
<title>HS_Net</title>
<polygon fill="none" stroke="black" points="408.5,-375.2 334.75,-375.2 334.75,-301.45 408.5,-301.45 408.5,-375.2"/>
<text xml:space="preserve" text-anchor="middle" x="371.62" y="-349.78" font-family="Times New Roman,serif" font-size="14.00">Highspeed</text>
<text xml:space="preserve" text-anchor="middle" x="371.62" y="-333.28" font-family="Times New Roman,serif" font-size="14.00">Network</text>
<text xml:space="preserve" text-anchor="middle" x="371.62" y="-316.78" font-family="Times New Roman,serif" font-size="14.00">Switches</text>
</g>
<!-- Data_Net -->
<g id="node4" class="node">
<title>Data_Net</title>
<polygon fill="none" stroke="black" points="339,-264.7 274.25,-264.7 274.25,-199.95 339,-199.95 339,-264.7"/>
<text xml:space="preserve" text-anchor="middle" x="306.62" y="-243.78" font-family="Times New Roman,serif" font-size="14.00">Data</text>
<text xml:space="preserve" text-anchor="middle" x="306.62" y="-227.28" font-family="Times New Roman,serif" font-size="14.00">Network</text>
<text xml:space="preserve" text-anchor="middle" x="306.62" y="-210.78" font-family="Times New Roman,serif" font-size="14.00">Switches</text>
</g>
<!-- Data_Net&#45;&gt;Firewall -->
<g id="edge2" class="edge">
<title>Data_Net&#45;&gt;Firewall</title>
<path fill="none" stroke="green" d="M348.77,-205.65C372.41,-191.25 401.75,-173.37 425.11,-159.13"/>
<polygon fill="green" stroke="green" points="347.2,-202.51 340.48,-210.7 350.84,-208.49 347.2,-202.51"/>
<polygon fill="green" stroke="green" points="426.72,-162.26 433.44,-154.06 423.08,-156.28 426.72,-162.26"/>
</g>
<!-- CPU&#45;&gt;HS_Net -->
<g id="edge5" class="edge">
<title>CPU&#45;&gt;HS_Net</title>
<path fill="none" stroke="blue" d="M377.04,-405.5C376.53,-399.25 376,-392.8 375.48,-386.49"/>
<polygon fill="blue" stroke="blue" points="373.55,-405.73 377.85,-415.41 380.52,-405.16 373.55,-405.73"/>
<polygon fill="blue" stroke="blue" points="379,-386.55 374.7,-376.86 372.02,-387.12 379,-386.55"/>
</g>
<!-- CPU&#45;&gt;Data_Net -->
<g id="edge4" class="edge">
<title>CPU&#45;&gt;Data_Net</title>
<path fill="none" stroke="green" d="M407.13,-406.7C422.74,-375.71 436.14,-333.6 417.62,-300.7 403.18,-275.03 374.56,-258.02 350,-247.5"/>
<polygon fill="green" stroke="green" points="404.1,-404.95 402.51,-415.42 410.29,-408.23 404.1,-404.95"/>
<polygon fill="green" stroke="green" points="351.42,-244.3 340.83,-243.82 348.81,-250.8 351.42,-244.3"/>
</g>
<!-- GPU&#45;&gt;HS_Net -->
<g id="edge8" class="edge">
<title>GPU&#45;&gt;HS_Net</title>
<path fill="none" stroke="blue" d="M270.6,-412.19C291.63,-395.48 309.69,-382.2 325.17,-371.21"/>
<polygon fill="blue" stroke="blue" points="268.62,-409.29 263.01,-418.28 273,-414.75 268.62,-409.29"/>
<polygon fill="blue" stroke="blue" points="327.08,-374.15 333.24,-365.52 323.05,-368.42 327.08,-374.15"/>
</g>
<!-- GPU&#45;&gt;Data_Net -->
<g id="edge7" class="edge">
<title>GPU&#45;&gt;Data_Net</title>
<path fill="none" stroke="green" d="M244.14,-406.35C257.82,-368.47 277.65,-313.57 291.28,-275.82"/>
<polygon fill="green" stroke="green" points="240.92,-404.97 240.82,-415.57 247.5,-407.35 240.92,-404.97"/>
<polygon fill="green" stroke="green" points="294.5,-277.2 294.61,-266.6 287.92,-274.82 294.5,-277.2"/>
</g>
<!-- Storage1&#45;&gt;HS_Net -->
<g id="edge10" class="edge">
<title>Storage1&#45;&gt;HS_Net</title>
<path fill="none" stroke="blue" d="M429.14,-403.88C423.23,-397.25 417.16,-390.44 411.27,-383.83"/>
<polygon fill="blue" stroke="blue" points="426.45,-406.12 435.71,-411.26 431.67,-401.47 426.45,-406.12"/>
<polygon fill="blue" stroke="blue" points="414.22,-381.87 404.95,-376.73 408.99,-386.53 414.22,-381.87"/>
</g>
<!-- LnetRouter -->
<g id="node16" class="node">
<title>LnetRouter</title>
<polygon fill="none" stroke="black" points="517,-364.7 464.25,-364.7 464.25,-311.95 517,-311.95 517,-364.7"/>
<text xml:space="preserve" text-anchor="middle" x="490.62" y="-341.53" font-family="Times New Roman,serif" font-size="14.00">Lnet</text>
<text xml:space="preserve" text-anchor="middle" x="490.62" y="-325.03" font-family="Times New Roman,serif" font-size="14.00">Router</text>
</g>
<!-- Storage1&#45;&gt;LnetRouter -->
<g id="edge26" class="edge">
<title>Storage1&#45;&gt;LnetRouter</title>
<path fill="none" stroke="blue" d="M478.82,-401.14C480.43,-392.75 482.07,-384.15 483.6,-376.13"/>
<polygon fill="blue" stroke="blue" points="475.4,-400.43 476.96,-410.91 482.27,-401.74 475.4,-400.43"/>
<polygon fill="blue" stroke="blue" points="487.02,-376.85 485.46,-366.37 480.15,-375.54 487.02,-376.85"/>
</g>
<!-- Storage2&#45;&gt;Data_Net -->
<g id="edge12" class="edge">
<title>Storage2&#45;&gt;Data_Net</title>
<path fill="none" stroke="green" d="M85.63,-300.21C148.81,-268.58 218.49,-250.75 262.57,-241.48"/>
<polygon fill="green" stroke="green" points="84.17,-297.03 76.88,-304.73 87.37,-303.25 84.17,-297.03"/>
<polygon fill="green" stroke="green" points="263.17,-244.93 272.27,-239.5 261.77,-238.07 263.17,-244.93"/>
</g>
<!-- Login&#45;&gt;HS_Net -->
<g id="edge15" class="edge">
<title>Login&#45;&gt;HS_Net</title>
<path fill="none" stroke="blue" d="M325.52,-415.02C331.24,-405.63 337.53,-395.3 343.58,-385.37"/>
<polygon fill="blue" stroke="blue" points="322.66,-412.99 320.45,-423.35 328.64,-416.63 322.66,-412.99"/>
<polygon fill="blue" stroke="blue" points="346.52,-387.28 348.73,-376.92 340.54,-383.64 346.52,-387.28"/>
</g>
<!-- Login&#45;&gt;Data_Net -->
<g id="edge14" class="edge">
<title>Login&#45;&gt;Data_Net</title>
<path fill="none" stroke="green" d="M304.96,-413.51C305.31,-375.8 305.86,-316.41 306.23,-276.22"/>
<polygon fill="green" stroke="green" points="301.46,-413.42 304.86,-423.46 308.46,-413.49 301.46,-413.42"/>
<polygon fill="green" stroke="green" points="309.73,-276.47 306.32,-266.43 302.73,-276.4 309.73,-276.47"/>
</g>
<!-- Dbase&#45;&gt;Data_Net -->
<g id="edge17" class="edge">
<title>Dbase&#45;&gt;Data_Net</title>
<path fill="none" stroke="green" d="M167.85,-301.11C203.13,-278.4 237.47,-261.96 263.56,-250.66"/>
<polygon fill="green" stroke="green" points="166.14,-298.04 159.72,-306.46 169.99,-303.89 166.14,-298.04"/>
<polygon fill="green" stroke="green" points="264.62,-254.01 272.46,-246.87 261.88,-247.57 264.62,-254.01"/>
</g>
<!-- Datamover&#45;&gt;HS_Net -->
<g id="edge20" class="edge">
<title>Datamover&#45;&gt;HS_Net</title>
<path fill="none" stroke="blue" d="M515.23,-411.4C480.01,-389.49 445.69,-372.36 419.02,-360.03"/>
<polygon fill="blue" stroke="blue" points="513.24,-414.29 523.56,-416.68 516.99,-408.37 513.24,-414.29"/>
<polygon fill="blue" stroke="blue" points="420.75,-356.97 410.2,-356 417.84,-363.33 420.75,-356.97"/>
</g>
<!-- Datamover&#45;&gt;Data_Net -->
<g id="edge19" class="edge">
<title>Datamover&#45;&gt;Data_Net</title>
<path fill="none" stroke="green" d="M562.95,-400.07C559.93,-367.92 550.83,-327.15 525.62,-300.7 479.64,-252.45 400.03,-238.5 350.51,-234.62"/>
<polygon fill="green" stroke="green" points="559.46,-400.27 563.7,-409.98 566.44,-399.74 559.46,-400.27"/>
<polygon fill="green" stroke="green" points="350.93,-231.14 340.72,-233.97 350.47,-238.12 350.93,-231.14"/>
</g>
<!-- VM&#45;&gt;Data_Net -->
<g id="edge22" class="edge">
<title>VM&#45;&gt;Data_Net</title>
<path fill="none" stroke="green" d="M245.91,-297.76C253.47,-289.73 261.43,-281.29 269,-273.26"/>
<polygon fill="green" stroke="green" points="243.64,-295.06 239.33,-304.74 248.74,-299.86 243.64,-295.06"/>
<polygon fill="green" stroke="green" points="271.37,-275.85 275.68,-266.17 266.28,-271.04 271.37,-275.85"/>
</g>
<!-- TapeStage -->
<g id="node14" class="node">
<title>TapeStage</title>
<polygon fill="none" stroke="black" points="592.38,-585.83 534.88,-585.83 534.88,-528.33 592.38,-528.33 592.38,-585.83"/>
<text xml:space="preserve" text-anchor="middle" x="563.62" y="-568.53" font-family="Times New Roman,serif" font-size="14.00">Tape</text>
<text xml:space="preserve" text-anchor="middle" x="563.62" y="-552.03" font-family="Times New Roman,serif" font-size="14.00">Staging</text>
<text xml:space="preserve" text-anchor="middle" x="563.62" y="-535.53" font-family="Times New Roman,serif" font-size="14.00">Storage</text>
</g>
<!-- TapeStage&#45;&gt;Datamover -->
<g id="edge24" class="edge">
<title>TapeStage&#45;&gt;Datamover</title>
<path fill="none" stroke="darkolivegreen" d="M563.62,-516.53C563.62,-511.16 563.62,-505.6 563.62,-500.09"/>
<polygon fill="darkolivegreen" stroke="darkolivegreen" points="560.13,-516.49 563.63,-526.49 567.13,-516.49 560.13,-516.49"/>
<polygon fill="darkolivegreen" stroke="darkolivegreen" points="567.13,-500.45 563.63,-490.45 560.13,-500.45 567.13,-500.45"/>
</g>
<!-- Tape -->
<g id="node15" class="node">
<title>Tape</title>
<polygon fill="none" stroke="black" points="589.62,-677.45 537.62,-677.45 537.62,-625.45 589.62,-625.45 589.62,-677.45"/>
<text xml:space="preserve" text-anchor="middle" x="563.62" y="-654.65" font-family="Times New Roman,serif" font-size="14.00">Tape</text>
<text xml:space="preserve" text-anchor="middle" x="563.62" y="-638.15" font-family="Times New Roman,serif" font-size="14.00">Drives</text>
</g>
<!-- Tape&#45;&gt;TapeStage -->
<g id="edge25" class="edge">
<title>Tape&#45;&gt;TapeStage</title>
<path fill="none" stroke="darkolivegreen" d="M563.62,-613.94C563.62,-608.6 563.62,-603.09 563.62,-597.7"/>
<polygon fill="darkolivegreen" stroke="darkolivegreen" points="560.13,-613.7 563.63,-623.7 567.13,-613.7 560.13,-613.7"/>
<polygon fill="darkolivegreen" stroke="darkolivegreen" points="567.13,-597.73 563.63,-587.73 560.13,-597.73 567.13,-597.73"/>
</g>
<!-- LnetRouter&#45;&gt;Data_Net -->
<g id="edge27" class="edge">
<title>LnetRouter&#45;&gt;Data_Net</title>
<path fill="none" stroke="green" d="M456.07,-304.57C454.26,-303.22 452.44,-301.92 450.62,-300.7 418.85,-279.45 379.31,-261.48 349.71,-249.45"/>
<polygon fill="green" stroke="green" points="453.73,-307.18 463.71,-310.75 458.13,-301.74 453.73,-307.18"/>
<polygon fill="green" stroke="green" points="351.28,-246.31 340.69,-245.85 348.68,-252.81 351.28,-246.31"/>
</g>
</g>
</svg>
