<?xml version="1.0" encoding="UTF-8" standalone="no"?>
<!DOCTYPE svg PUBLIC "-//W3C//DTD SVG 1.1//EN"
 "http://www.w3.org/Graphics/SVG/1.1/DTD/svg11.dtd">
<!-- Generated by graphviz version 14.1.3 (20260303.0454)
 -->
<!-- Title: g Pages: 1 -->
<svg width="1404pt" height="475pt"
 viewBox="0.00 0.00 1404.00 475.00" xmlns="http://www.w3.org/2000/svg" xmlns:xlink="http://www.w3.org/1999/xlink">
<g id="graph0" class="graph" transform="scale(1 1) rotate(0) translate(4 470.81)">
<title>g</title>
<polygon fill="white" stroke="none" points="-4,4 -4,-470.81 1399.75,-470.81 1399.75,4 -4,4"/>
<!-- FW2 -->
<g id="node1" class="node">
<title>FW2</title>
<polygon fill="none" stroke="black" points="1096.12,-263.5 1035.12,-263.5 1035.12,-202.5 1096.12,-202.5 1096.12,-263.5"/>
<text xml:space="preserve" text-anchor="middle" x="1065.62" y="-236.2" font-family="Times New Roman,serif" font-size="14.00">Site2</text>
<text xml:space="preserve" text-anchor="middle" x="1065.62" y="-219.7" font-family="Times New Roman,serif" font-size="14.00">Firewall</text>
</g>
<!-- ISP -->
<g id="node5" class="node">
<title>ISP</title>
<polygon fill="none" stroke="black" points="722.62,-129.5 686.62,-129.5 686.62,-93.5 722.62,-93.5 722.62,-129.5"/>
<text xml:space="preserve" text-anchor="middle" x="704.62" y="-106.45" font-family="Times New Roman,serif" font-size="14.00">ISP</text>
</g>
<!-- FW2&#45;&gt;ISP -->
<g id="edge7" class="edge">
<title>FW2&#45;&gt;ISP</title>
<path fill="none" stroke="orange" d="M1023.92,-218.19C949.94,-193.71 797.54,-143.26 733.73,-122.14"/>
<polygon fill="orange" stroke="orange" points="1022.82,-221.52 1033.41,-221.34 1025.02,-214.87 1022.82,-221.52"/>
<polygon fill="orange" stroke="orange" points="734.92,-118.84 724.32,-119.02 732.72,-125.49 734.92,-118.84"/>
<text xml:space="preserve" text-anchor="middle" x="993.6" y="-225.01" font-family="Times New Roman,serif" font-size="14.00">128.61.48.0/26</text>
</g>
<!-- Site2_10G -->
<g id="node7" class="node">
<title>Site2_10G</title>
<polygon fill="none" stroke="black" points="1078.38,-57.5 1020.88,-57.5 1020.88,0 1078.38,0 1078.38,-57.5"/>
<text xml:space="preserve" text-anchor="middle" x="1049.62" y="-40.2" font-family="Times New Roman,serif" font-size="14.00">Site2</text>
<text xml:space="preserve" text-anchor="middle" x="1049.62" y="-23.7" font-family="Times New Roman,serif" font-size="14.00">IPSec</text>
<text xml:space="preserve" text-anchor="middle" x="1049.62" y="-7.2" font-family="Times New Roman,serif" font-size="14.00">Tunnel</text>
</g>
<!-- FW2&#45;&gt;Site2_10G -->
<g id="edge6" class="edge">
<title>FW2&#45;&gt;Site2_10G</title>
<path fill="none" stroke="purple" d="M1062.36,-190.77C1059.54,-155.14 1055.5,-104 1052.73,-68.98"/>
<polygon fill="purple" stroke="purple" points="1058.87,-190.96 1063.14,-200.65 1065.85,-190.4 1058.87,-190.96"/>
<polygon fill="purple" stroke="purple" points="1056.24,-68.96 1051.96,-59.27 1049.26,-69.51 1056.24,-68.96"/>
<text xml:space="preserve" text-anchor="middle" x="1003.84" y="-77.46" font-family="Times New Roman,serif" font-size="14.00">192.168.140.0/24</text>
<text xml:space="preserve" text-anchor="middle" x="1003.84" y="-60.96" font-family="Times New Roman,serif" font-size="14.00">192.168.40.0/24</text>
<text xml:space="preserve" text-anchor="middle" x="1018.64" y="-188.86" font-family="Times New Roman,serif" font-size="14.00">172.16.140.0/24</text>
<text xml:space="preserve" text-anchor="middle" x="1018.64" y="-172.36" font-family="Times New Roman,serif" font-size="14.00">172.16.40.0/24</text>
</g>
<!-- FW1 -->
<g id="node2" class="node">
<title>FW1</title>
<polygon fill="none" stroke="black" points="374.12,-263.5 313.12,-263.5 313.12,-202.5 374.12,-202.5 374.12,-263.5"/>
<text xml:space="preserve" text-anchor="middle" x="343.62" y="-236.2" font-family="Times New Roman,serif" font-size="14.00">Site1</text>
<text xml:space="preserve" text-anchor="middle" x="343.62" y="-219.7" font-family="Times New Roman,serif" font-size="14.00">Firewall</text>
</g>
<!-- FW1&#45;&gt;ISP -->
<g id="edge9" class="edge">
<title>FW1&#45;&gt;ISP</title>
<path fill="none" stroke="orange" d="M385.33,-218.19C459.31,-193.71 611.71,-143.26 675.52,-122.14"/>
<polygon fill="orange" stroke="orange" points="384.23,-214.87 375.84,-221.34 386.43,-221.52 384.23,-214.87"/>
<polygon fill="orange" stroke="orange" points="676.53,-125.49 684.93,-119.02 674.33,-118.84 676.53,-125.49"/>
<text xml:space="preserve" text-anchor="middle" x="419.03" y="-225.01" font-family="Times New Roman,serif" font-size="14.00">130.207.10.0/26</text>
</g>
<!-- Site1_10G -->
<g id="node8" class="node">
<title>Site1_10G</title>
<polygon fill="none" stroke="black" points="488.38,-57.5 430.88,-57.5 430.88,0 488.38,0 488.38,-57.5"/>
<text xml:space="preserve" text-anchor="middle" x="459.62" y="-40.2" font-family="Times New Roman,serif" font-size="14.00">Site1</text>
<text xml:space="preserve" text-anchor="middle" x="459.62" y="-23.7" font-family="Times New Roman,serif" font-size="14.00">IPSec</text>
<text xml:space="preserve" text-anchor="middle" x="459.62" y="-7.2" font-family="Times New Roman,serif" font-size="14.00">Tunnel</text>
</g>
<!-- FW1&#45;&gt;Site1_10G -->
<g id="edge8" class="edge">
<title>FW1&#45;&gt;Site1_10G</title>
<path fill="none" stroke="purple" d="M366.4,-192.29C387.19,-156.04 417.7,-102.84 438.09,-67.29"/>
<polygon fill="purple" stroke="purple" points="363.43,-190.43 361.49,-200.84 369.51,-193.91 363.43,-190.43"/>
<polygon fill="purple" stroke="purple" points="440.87,-69.49 442.81,-59.07 434.8,-66.01 440.87,-69.49"/>
<text xml:space="preserve" text-anchor="middle" x="398.94" y="-77.46" font-family="Times New Roman,serif" font-size="14.00">172.16.140.0/24</text>
<text xml:space="preserve" text-anchor="middle" x="398.94" y="-60.96" font-family="Times New Roman,serif" font-size="14.00">172.16.40.0/24</text>
<text xml:space="preserve" text-anchor="middle" x="312.74" y="-188.86" font-family="Times New Roman,serif" font-size="14.00">192.168.140.0/24</text>
<text xml:space="preserve" text-anchor="middle" x="312.74" y="-172.36" font-family="Times New Roman,serif" font-size="14.00">192.168.40.0/24</text>
</g>
<!-- System1 -->
<g id="node3" class="node">
<title>System1</title>
<polygon fill="none" stroke="black" points="375.25,-399.75 312,-399.75 312,-336.5 375.25,-336.5 375.25,-399.75"/>
<text xml:space="preserve" text-anchor="middle" x="343.62" y="-363.07" font-family="Times New Roman,serif" font-size="14.00">System1</text>
</g>
<!-- System1&#45;&gt;FW1 -->
<g id="edge4" class="edge">
<title>System1&#45;&gt;FW1</title>
<path fill="none" stroke="red" d="M301.04,-358.45C249.44,-334.17 249.82,-265.77 302.18,-242.15"/>
<polygon fill="red" stroke="red" points="299.57,-361.64 310.16,-361.99 302.11,-355.11 299.57,-361.64"/>
<polygon fill="red" stroke="red" points="303.37,-245.44 311.53,-238.69 300.94,-238.87 303.37,-245.44"/>
</g>
<!-- System1&#45;&gt;FW1 -->
<g id="edge5" class="edge">
<title>System1&#45;&gt;FW1</title>
<path fill="none" stroke="green" d="M386.21,-358.45C437.81,-334.17 437.43,-265.77 385.07,-242.15"/>
<polygon fill="green" stroke="green" points="385.14,-355.11 377.09,-361.99 387.68,-361.64 385.14,-355.11"/>
<polygon fill="green" stroke="green" points="386.31,-238.87 375.72,-238.69 383.88,-245.44 386.31,-238.87"/>
</g>
<!-- System1&#45;&gt;System1 -->
<g id="edge1" class="edge">
<title>System1:w&#45;&gt;System1:w</title>
<path fill="none" stroke="red" d="M300.71,-370.5C226.28,-385.12 96,-384.32 96,-368.12 96,-351.93 226.28,-351.13 300.71,-365.75"/>
<polygon fill="red" stroke="red" points="301.19,-373.98 310.22,-368.44 299.71,-367.13 301.19,-373.98"/>
<polygon fill="red" stroke="red" points="299.71,-369.12 310.22,-367.81 301.19,-362.27 299.71,-369.12"/>
<text xml:space="preserve" text-anchor="middle" x="48" y="-371.32" font-family="Times New Roman,serif" font-size="14.00">admin</text>
<text xml:space="preserve" text-anchor="middle" x="48" y="-354.82" font-family="Times New Roman,serif" font-size="14.00">192.168.140.0/24</text>
</g>
<!-- System1&#45;&gt;System1 -->
<g id="edge2" class="edge">
<title>System1:e&#45;&gt;System1:e</title>
<path fill="none" stroke="green" d="M386.54,-370.5C460.97,-385.12 591.25,-384.32 591.25,-368.12 591.25,-351.93 460.97,-351.13 386.54,-365.75"/>
<polygon fill="green" stroke="green" points="387.54,-367.13 377.03,-368.44 386.06,-373.98 387.54,-367.13"/>
<polygon fill="green" stroke="green" points="386.06,-362.27 377.03,-367.81 387.54,-369.12 386.06,-362.27"/>
<text xml:space="preserve" text-anchor="middle" x="635.88" y="-371.32" font-family="Times New Roman,serif" font-size="14.00">data</text>
<text xml:space="preserve" text-anchor="middle" x="635.88" y="-354.82" font-family="Times New Roman,serif" font-size="14.00">192.168.40.0/24</text>
</g>
<!-- System1&#45;&gt;System1 -->
<g id="edge3" class="edge">
<title>System1:n&#45;&gt;System1:n</title>
<path fill="none" stroke="blue" d="M354.91,-401.29C451.48,-412.72 447.72,-433.81 343.62,-433.81 239.53,-433.81 235.77,-412.72 332.34,-401.29"/>
<polygon fill="blue" stroke="blue" points="355.45,-397.83 345.13,-400.21 354.69,-404.79 355.45,-397.83"/>
<polygon fill="blue" stroke="blue" points="332.56,-404.79 342.12,-400.21 331.8,-397.83 332.56,-404.79"/>
<text xml:space="preserve" text-anchor="middle" x="343.62" y="-453.51" font-family="Times New Roman,serif" font-size="14.00">HighSpeed</text>
<text xml:space="preserve" text-anchor="middle" x="343.62" y="-437.01" font-family="Times New Roman,serif" font-size="14.00">10.31.10.0/24</text>
</g>
<!-- System2 -->
<g id="node4" class="node">
<title>System2</title>
<polygon fill="none" stroke="black" points="1097.25,-399.75 1034,-399.75 1034,-336.5 1097.25,-336.5 1097.25,-399.75"/>
<text xml:space="preserve" text-anchor="middle" x="1065.62" y="-363.07" font-family="Times New Roman,serif" font-size="14.00">System2</text>
</g>
<!-- System2&#45;&gt;FW2 -->
<g id="edge13" class="edge">
<title>System2&#45;&gt;FW2</title>
<path fill="none" stroke="red" d="M1023.04,-358.45C971.44,-334.17 971.82,-265.77 1024.18,-242.15"/>
<polygon fill="red" stroke="red" points="1021.57,-361.64 1032.16,-361.99 1024.11,-355.11 1021.57,-361.64"/>
<polygon fill="red" stroke="red" points="1025.37,-245.44 1033.53,-238.69 1022.94,-238.87 1025.37,-245.44"/>
</g>
<!-- System2&#45;&gt;FW2 -->
<g id="edge14" class="edge">
<title>System2&#45;&gt;FW2</title>
<path fill="none" stroke="green" d="M1108.21,-358.45C1159.81,-334.17 1159.43,-265.77 1107.07,-242.15"/>
<polygon fill="green" stroke="green" points="1107.14,-355.11 1099.09,-361.99 1109.68,-361.64 1107.14,-355.11"/>
<polygon fill="green" stroke="green" points="1108.31,-238.87 1097.72,-238.69 1105.88,-245.44 1108.31,-238.87"/>
</g>
<!-- System2&#45;&gt;System2 -->
<g id="edge10" class="edge">
<title>System2:w&#45;&gt;System2:w</title>
<path fill="none" stroke="red" d="M1022.71,-370.5C948.28,-385.12 818,-384.32 818,-368.12 818,-351.93 948.28,-351.13 1022.71,-365.75"/>
<polygon fill="red" stroke="red" points="1023.19,-373.98 1032.22,-368.44 1021.71,-367.13 1023.19,-373.98"/>
<polygon fill="red" stroke="red" points="1021.71,-369.12 1032.22,-367.81 1023.19,-362.27 1021.71,-369.12"/>
<text xml:space="preserve" text-anchor="middle" x="773.38" y="-371.32" font-family="Times New Roman,serif" font-size="14.00">admin</text>
<text xml:space="preserve" text-anchor="middle" x="773.38" y="-354.82" font-family="Times New Roman,serif" font-size="14.00">172.16.140.0/24</text>
</g>
<!-- System2&#45;&gt;System2 -->
<g id="edge11" class="edge">
<title>System2:e&#45;&gt;System2:e</title>
<path fill="none" stroke="green" d="M1108.54,-370.5C1182.97,-385.12 1313.25,-384.32 1313.25,-368.12 1313.25,-351.93 1182.97,-351.13 1108.54,-365.75"/>
<polygon fill="green" stroke="green" points="1109.54,-367.13 1099.03,-368.44 1108.06,-373.98 1109.54,-367.13"/>
<polygon fill="green" stroke="green" points="1108.06,-362.27 1099.03,-367.81 1109.54,-369.12 1108.06,-362.27"/>
<text xml:space="preserve" text-anchor="middle" x="1354.5" y="-371.32" font-family="Times New Roman,serif" font-size="14.00">data</text>
<text xml:space="preserve" text-anchor="middle" x="1354.5" y="-354.82" font-family="Times New Roman,serif" font-size="14.00">172.16.40.0/24</text>
</g>
<!-- System2&#45;&gt;System2 -->
<g id="edge12" class="edge">
<title>System2:n&#45;&gt;System2:n</title>
<path fill="none" stroke="blue" d="M1076.91,-401.29C1173.48,-412.72 1169.72,-433.81 1065.62,-433.81 961.53,-433.81 957.77,-412.72 1054.34,-401.29"/>
<polygon fill="blue" stroke="blue" points="1077.45,-397.83 1067.13,-400.21 1076.69,-404.79 1077.45,-397.83"/>
<polygon fill="blue" stroke="blue" points="1054.56,-404.79 1064.12,-400.21 1053.8,-397.83 1054.56,-404.79"/>
<text xml:space="preserve" text-anchor="middle" x="1065.62" y="-453.51" font-family="Times New Roman,serif" font-size="14.00">HighSpeed</text>
<text xml:space="preserve" text-anchor="middle" x="1065.62" y="-437.01" font-family="Times New Roman,serif" font-size="14.00">10.60.20.0/24</text>
</g>
<!-- Sites -->
<g id="node6" class="node">
<title>Sites</title>
<polygon fill="none" stroke="black" points="734,-262.38 675.25,-262.38 675.25,-203.62 734,-203.62 734,-262.38"/>
<text xml:space="preserve" text-anchor="middle" x="704.62" y="-236.2" font-family="Times New Roman,serif" font-size="14.00">Remote</text>
<text xml:space="preserve" text-anchor="middle" x="704.62" y="-219.7" font-family="Times New Roman,serif" font-size="14.00">Users</text>
</g>
<!-- Sites&#45;&gt;ISP -->
<g id="edge15" class="edge">
<title>Sites&#45;&gt;ISP</title>
<path fill="none" stroke="orange" d="M704.62,-192.09C704.62,-175.4 704.62,-156.38 704.62,-141.11"/>
<polygon fill="orange" stroke="orange" points="701.13,-191.86 704.63,-201.86 708.13,-191.86 701.13,-191.86"/>
<polygon fill="orange" stroke="orange" points="708.13,-141.31 704.63,-131.31 701.13,-141.31 708.13,-141.31"/>
</g>
<!-- Site1_10G&#45;&gt;Site2_10G -->
<g id="edge16" class="edge">
<title>Site1_10G&#45;&gt;Site2_10G</title>
<path fill="none" stroke="purple" d="M499.87,-28.75C607.52,-28.75 901.22,-28.75 1009.14,-28.75"/>
<polygon fill="purple" stroke="purple" points="499.99,-25.25 489.99,-28.75 499.99,-32.25 499.99,-25.25"/>
<polygon fill="purple" stroke="purple" points="1008.96,-32.25 1018.96,-28.75 1008.96,-25.25 1008.96,-32.25"/>
<text xml:space="preserve" text-anchor="middle" x="754.62" y="-34.95" font-family="Times New Roman,serif" font-size="14.00">over point&#45;to&#45;point connection</text>
<text xml:space="preserve" text-anchor="middle" x="988.6" y="-31.95" font-family="Times New Roman,serif" font-size="14.00">TunnelIP&#45;B</text>
<text xml:space="preserve" text-anchor="middle" x="520.73" y="-31.95" font-family="Times New Roman,serif" font-size="14.00">TunnelIP&#45;A</text>
</g>
</g>
</svg>
