<?xml version="1.0" encoding="UTF-8" standalone="no"?>
<!DOCTYPE svg PUBLIC "-//W3C//DTD SVG 1.1//EN"
 "http://www.w3.org/Graphics/SVG/1.1/DTD/svg11.dtd">
<!-- Generated by graphviz version 14.1.3 (20260303.0454)
 -->
<!-- Title: g Pages: 1 -->
<svg width="622pt" height="408pt"
 viewBox="0.00 0.00 622.00 408.00" xmlns="http://www.w3.org/2000/svg" xmlns:xlink="http://www.w3.org/1999/xlink">
<g id="graph0" class="graph" transform="scale(1 1) rotate(0) translate(4 403.75)">
<title>g</title>
<polygon fill="white" stroke="none" points="-4,4 -4,-403.75 618.19,-403.75 618.19,4 -4,4"/>
<!-- FW2 -->
<g id="node1" class="node">
<title>FW2</title>
<polygon fill="none" stroke="black" points="590.59,-263.5 529.59,-263.5 529.59,-202.5 590.59,-202.5 590.59,-263.5"/>
<text xml:space="preserve" text-anchor="middle" x="560.09" y="-236.2" font-family="Times New Roman,serif" font-size="14.00">Site2</text>
<text xml:space="preserve" text-anchor="middle" x="560.09" y="-219.7" font-family="Times New Roman,serif" font-size="14.00">Firewall</text>
</g>
<!-- ISP -->
<g id="node5" class="node">
<title>ISP</title>
<polygon fill="none" stroke="black" points="325.09,-129.5 289.09,-129.5 289.09,-93.5 325.09,-93.5 325.09,-129.5"/>
<text xml:space="preserve" text-anchor="middle" x="307.09" y="-106.45" font-family="Times New Roman,serif" font-size="14.00">ISP</text>
</g>
<!-- FW2&#45;&gt;ISP -->
<g id="edge6" class="edge">
<title>FW2&#45;&gt;ISP</title>
<path fill="none" stroke="orange" d="M519.09,-212.63C467.57,-188.3 380.51,-147.18 335.67,-126"/>
<polygon fill="orange" stroke="orange" points="517.42,-215.71 527.96,-216.82 520.41,-209.38 517.42,-215.71"/>
<polygon fill="orange" stroke="orange" points="337.39,-122.94 326.85,-121.83 334.4,-129.27 337.39,-122.94"/>
</g>
<!-- Site2_10G -->
<g id="node8" class="node">
<title>Site2_10G</title>
<polygon fill="none" stroke="black" points="577.84,-57.5 520.34,-57.5 520.34,0 577.84,0 577.84,-57.5"/>
<text xml:space="preserve" text-anchor="middle" x="549.09" y="-40.2" font-family="Times New Roman,serif" font-size="14.00">Site2</text>
<text xml:space="preserve" text-anchor="middle" x="549.09" y="-23.7" font-family="Times New Roman,serif" font-size="14.00">IPSec</text>
<text xml:space="preserve" text-anchor="middle" x="549.09" y="-7.2" font-family="Times New Roman,serif" font-size="14.00">Tunnel</text>
</g>
<!-- FW2&#45;&gt;Site2_10G -->
<g id="edge5" class="edge">
<title>FW2&#45;&gt;Site2_10G</title>
<path fill="none" stroke="purple" d="M557.85,-190.77C555.91,-155.14 553.13,-104 551.23,-68.98"/>
<polygon fill="purple" stroke="purple" points="554.35,-190.85 558.39,-200.65 561.34,-190.47 554.35,-190.85"/>
<polygon fill="purple" stroke="purple" points="554.74,-69.07 550.7,-59.27 547.75,-69.45 554.74,-69.07"/>
</g>
<!-- FW1 -->
<g id="node2" class="node">
<title>FW1</title>
<polygon fill="none" stroke="black" points="84.59,-263.5 23.59,-263.5 23.59,-202.5 84.59,-202.5 84.59,-263.5"/>
<text xml:space="preserve" text-anchor="middle" x="54.09" y="-236.2" font-family="Times New Roman,serif" font-size="14.00">Site1</text>
<text xml:space="preserve" text-anchor="middle" x="54.09" y="-219.7" font-family="Times New Roman,serif" font-size="14.00">Firewall</text>
</g>
<!-- FW1&#45;&gt;ISP -->
<g id="edge4" class="edge">
<title>FW1&#45;&gt;ISP</title>
<path fill="none" stroke="orange" d="M95.1,-212.63C146.61,-188.3 233.68,-147.18 278.52,-126"/>
<polygon fill="orange" stroke="orange" points="93.78,-209.38 86.23,-216.82 96.77,-215.71 93.78,-209.38"/>
<polygon fill="orange" stroke="orange" points="279.79,-129.27 287.33,-121.83 276.8,-122.94 279.79,-129.27"/>
</g>
<!-- Site1_10G -->
<g id="node7" class="node">
<title>Site1_10G</title>
<polygon fill="none" stroke="black" points="151.84,-57.5 94.34,-57.5 94.34,0 151.84,0 151.84,-57.5"/>
<text xml:space="preserve" text-anchor="middle" x="123.09" y="-40.2" font-family="Times New Roman,serif" font-size="14.00">Site1</text>
<text xml:space="preserve" text-anchor="middle" x="123.09" y="-23.7" font-family="Times New Roman,serif" font-size="14.00">IPSec</text>
<text xml:space="preserve" text-anchor="middle" x="123.09" y="-7.2" font-family="Times New Roman,serif" font-size="14.00">Tunnel</text>
</g>
<!-- FW1&#45;&gt;Site1_10G -->
<g id="edge3" class="edge">
<title>FW1&#45;&gt;Site1_10G</title>
<path fill="none" stroke="purple" d="M67.99,-191.28C80.2,-155.49 97.84,-103.77 109.85,-68.57"/>
<polygon fill="purple" stroke="purple" points="64.68,-190.13 64.76,-200.72 71.3,-192.39 64.68,-190.13"/>
<polygon fill="purple" stroke="purple" points="113.13,-69.79 113.05,-59.19 106.51,-67.53 113.13,-69.79"/>
</g>
<!-- System1 -->
<g id="node3" class="node">
<title>System1</title>
<polygon fill="none" stroke="black" points="85.72,-399.75 22.47,-399.75 22.47,-336.5 85.72,-336.5 85.72,-399.75"/>
<text xml:space="preserve" text-anchor="middle" x="54.09" y="-363.07" font-family="Times New Roman,serif" font-size="14.00">System1</text>
</g>
<!-- System1&#45;&gt;FW1 -->
<g id="edge1" class="edge">
<title>System1&#45;&gt;FW1</title>
<path fill="none" stroke="red" d="M14.17,-347.11C-4.99,-321.46 -4.59,-277.35 15.37,-252.47"/>
<polygon fill="red" stroke="red" points="11.59,-349.48 20.96,-354.43 16.73,-344.72 11.59,-349.48"/>
<polygon fill="red" stroke="red" points="17.62,-255.17 22.18,-245.61 12.65,-250.24 17.62,-255.17"/>
</g>
<!-- System1&#45;&gt;FW1 -->
<g id="edge2" class="edge">
<title>System1&#45;&gt;FW1</title>
<path fill="none" stroke="green" d="M94.02,-347.11C113.18,-321.46 112.78,-277.35 92.82,-252.47"/>
<polygon fill="green" stroke="green" points="91.46,-344.72 87.23,-354.43 96.59,-349.48 91.46,-344.72"/>
<polygon fill="green" stroke="green" points="95.54,-250.24 86.01,-245.61 90.57,-255.17 95.54,-250.24"/>
</g>
<!-- System2 -->
<g id="node4" class="node">
<title>System2</title>
<polygon fill="none" stroke="black" points="591.72,-399.75 528.47,-399.75 528.47,-336.5 591.72,-336.5 591.72,-399.75"/>
<text xml:space="preserve" text-anchor="middle" x="560.09" y="-363.07" font-family="Times New Roman,serif" font-size="14.00">System2</text>
</g>
<!-- System2&#45;&gt;FW2 -->
<g id="edge7" class="edge">
<title>System2&#45;&gt;FW2</title>
<path fill="none" stroke="red" d="M520.17,-347.11C501.01,-321.46 501.41,-277.35 521.37,-252.47"/>
<polygon fill="red" stroke="red" points="517.59,-349.48 526.96,-354.43 522.73,-344.72 517.59,-349.48"/>
<polygon fill="red" stroke="red" points="523.62,-255.17 528.18,-245.61 518.65,-250.24 523.62,-255.17"/>
</g>
<!-- System2&#45;&gt;FW2 -->
<g id="edge8" class="edge">
<title>System2&#45;&gt;FW2</title>
<path fill="none" stroke="green" d="M600.02,-347.11C619.18,-321.46 618.78,-277.35 598.82,-252.47"/>
<polygon fill="green" stroke="green" points="597.46,-344.72 593.23,-354.43 602.59,-349.48 597.46,-344.72"/>
<polygon fill="green" stroke="green" points="601.54,-250.24 592.01,-245.61 596.57,-255.17 601.54,-250.24"/>
</g>
<!-- Sites -->
<g id="node6" class="node">
<title>Sites</title>
<polygon fill="none" stroke="black" points="336.47,-262.38 277.72,-262.38 277.72,-203.62 336.47,-203.62 336.47,-262.38"/>
<text xml:space="preserve" text-anchor="middle" x="307.09" y="-236.2" font-family="Times New Roman,serif" font-size="14.00">Remote</text>
<text xml:space="preserve" text-anchor="middle" x="307.09" y="-219.7" font-family="Times New Roman,serif" font-size="14.00">Users</text>
</g>
<!-- Sites&#45;&gt;ISP -->
<g id="edge9" class="edge">
<title>Sites&#45;&gt;ISP</title>
<path fill="none" stroke="orange" d="M307.09,-192.09C307.09,-175.4 307.09,-156.38 307.09,-141.11"/>
<polygon fill="orange" stroke="orange" points="303.59,-191.86 307.09,-201.86 310.59,-191.86 303.59,-191.86"/>
<polygon fill="orange" stroke="orange" points="310.59,-141.31 307.09,-131.31 303.59,-141.31 310.59,-141.31"/>
</g>
<!-- Site1_10G&#45;&gt;Site2_10G -->
<g id="edge10" class="edge">
<title>Site1_10G&#45;&gt;Site2_10G</title>
<path fill="none" stroke="purple" d="M163.3,-28.75C244.5,-28.75 427.22,-28.75 508.63,-28.75"/>
<polygon fill="purple" stroke="purple" points="163.55,-25.25 153.55,-28.75 163.55,-32.25 163.55,-25.25"/>
<polygon fill="purple" stroke="purple" points="508.59,-32.25 518.59,-28.75 508.59,-25.25 508.59,-32.25"/>
<text xml:space="preserve" text-anchor="middle" x="336.09" y="-34.95" font-family="Times New Roman,serif" font-size="14.00">over point&#45;to&#45;point connection</text>
<text xml:space="preserve" text-anchor="middle" x="488.23" y="-31.95" font-family="Times New Roman,serif" font-size="14.00">TunnelIP&#45;B</text>
<text xml:space="preserve" text-anchor="middle" x="184.29" y="-31.95" font-family="Times New Roman,serif" font-size="14.00">TunnelIP&#45;A</text>
</g>
</g>
</svg>
