<?xml version="1.0" encoding="UTF-8" standalone="no"?>
<!DOCTYPE svg PUBLIC "-//W3C//DTD SVG 1.1//EN"
 "http://www.w3.org/Graphics/SVG/1.1/DTD/svg11.dtd">
<!-- Generated by graphviz version 14.1.3 (20260303.0454)
 -->
<!-- Title: g Pages: 1 -->
<svg width="524pt" height="312pt"
 viewBox="0.00 0.00 524.00 312.00" xmlns="http://www.w3.org/2000/svg" xmlns:xlink="http://www.w3.org/1999/xlink">
<g id="graph0" class="graph" transform="scale(1 1) rotate(0) translate(4 308.25)">
<title>g</title>
<polygon fill="white" stroke="none" points="-4,4 -4,-308.25 520.19,-308.25 520.19,4 -4,4"/>
<!-- FW2 -->
<g id="node1" class="node">
<title>FW2</title>
<polygon fill="none" stroke="black" points="492.59,-169 431.59,-169 431.59,-108 492.59,-108 492.59,-169"/>
<text xml:space="preserve" text-anchor="middle" x="462.09" y="-141.7" font-family="Times New Roman,serif" font-size="14.00">Site2</text>
<text xml:space="preserve" text-anchor="middle" x="462.09" y="-125.2" font-family="Times New Roman,serif" font-size="14.00">Firewall</text>
</g>
<!-- ISP -->
<g id="node5" class="node">
<title>ISP</title>
<polygon fill="none" stroke="black" points="276.09,-36 240.09,-36 240.09,0 276.09,0 276.09,-36"/>
<text xml:space="preserve" text-anchor="middle" x="258.09" y="-12.95" font-family="Times New Roman,serif" font-size="14.00">ISP</text>
</g>
<!-- FW2&#45;&gt;ISP -->
<g id="edge6" class="edge">
<title>FW2&#45;&gt;ISP</title>
<path fill="none" stroke="orange" d="M421.29,-113.8C381.2,-90.51 321.12,-55.61 286.14,-35.29"/>
<polygon fill="orange" stroke="orange" points="419.4,-116.75 429.8,-118.74 422.91,-110.69 419.4,-116.75"/>
<polygon fill="orange" stroke="orange" points="288.27,-32.48 277.86,-30.48 284.75,-38.53 288.27,-32.48"/>
</g>
<!-- FW1 -->
<g id="node2" class="node">
<title>FW1</title>
<polygon fill="none" stroke="black" points="84.59,-169 23.59,-169 23.59,-108 84.59,-108 84.59,-169"/>
<text xml:space="preserve" text-anchor="middle" x="54.09" y="-141.7" font-family="Times New Roman,serif" font-size="14.00">Site1</text>
<text xml:space="preserve" text-anchor="middle" x="54.09" y="-125.2" font-family="Times New Roman,serif" font-size="14.00">Firewall</text>
</g>
<!-- FW1&#45;&gt;ISP -->
<g id="edge3" class="edge">
<title>FW1&#45;&gt;ISP</title>
<path fill="none" stroke="orange" d="M94.9,-113.8C134.98,-90.51 195.07,-55.61 230.05,-35.29"/>
<polygon fill="orange" stroke="orange" points="93.27,-110.69 86.39,-118.74 96.79,-116.75 93.27,-110.69"/>
<polygon fill="orange" stroke="orange" points="231.44,-38.53 238.32,-30.48 227.92,-32.48 231.44,-38.53"/>
</g>
<!-- System1 -->
<g id="node3" class="node">
<title>System1</title>
<polygon fill="none" stroke="black" points="85.72,-304.25 22.47,-304.25 22.47,-241 85.72,-241 85.72,-304.25"/>
<text xml:space="preserve" text-anchor="middle" x="54.09" y="-267.57" font-family="Times New Roman,serif" font-size="14.00">System1</text>
</g>
<!-- System1&#45;&gt;FW1 -->
<g id="edge1" class="edge">
<title>System1&#45;&gt;FW1</title>
<path fill="none" stroke="red" d="M14.17,-251.76C-4.99,-226.31 -4.59,-182.52 15.37,-157.83"/>
<polygon fill="red" stroke="red" points="11.57,-254.1 20.95,-259.02 16.69,-249.33 11.57,-254.1"/>
<polygon fill="red" stroke="red" points="17.58,-160.57 22.17,-151.02 12.63,-155.62 17.58,-160.57"/>
</g>
<!-- System1&#45;&gt;FW1 -->
<g id="edge2" class="edge">
<title>System1&#45;&gt;FW1</title>
<path fill="none" stroke="green" d="M94.02,-251.76C113.18,-226.31 112.78,-182.52 92.82,-157.83"/>
<polygon fill="green" stroke="green" points="91.5,-249.33 87.23,-259.02 96.62,-254.1 91.5,-249.33"/>
<polygon fill="green" stroke="green" points="95.56,-155.62 86.01,-151.02 90.61,-160.57 95.56,-155.62"/>
</g>
<!-- System2 -->
<g id="node4" class="node">
<title>System2</title>
<polygon fill="none" stroke="black" points="493.72,-304.25 430.47,-304.25 430.47,-241 493.72,-241 493.72,-304.25"/>
<text xml:space="preserve" text-anchor="middle" x="462.09" y="-267.57" font-family="Times New Roman,serif" font-size="14.00">System2</text>
</g>
<!-- System2&#45;&gt;FW2 -->
<g id="edge4" class="edge">
<title>System2&#45;&gt;FW2</title>
<path fill="none" stroke="red" d="M422.17,-251.76C403.01,-226.31 403.41,-182.52 423.37,-157.83"/>
<polygon fill="red" stroke="red" points="419.57,-254.1 428.95,-259.02 424.69,-249.33 419.57,-254.1"/>
<polygon fill="red" stroke="red" points="425.58,-160.57 430.17,-151.02 420.63,-155.62 425.58,-160.57"/>
</g>
<!-- System2&#45;&gt;FW2 -->
<g id="edge5" class="edge">
<title>System2&#45;&gt;FW2</title>
<path fill="none" stroke="green" d="M502.02,-251.76C521.18,-226.31 520.78,-182.52 500.82,-157.83"/>
<polygon fill="green" stroke="green" points="499.5,-249.33 495.23,-259.02 504.62,-254.1 499.5,-249.33"/>
<polygon fill="green" stroke="green" points="503.56,-155.62 494.01,-151.02 498.61,-160.57 503.56,-155.62"/>
</g>
<!-- Sites -->
<g id="node6" class="node">
<title>Sites</title>
<polygon fill="none" stroke="black" points="287.47,-167.88 228.72,-167.88 228.72,-109.12 287.47,-109.12 287.47,-167.88"/>
<text xml:space="preserve" text-anchor="middle" x="258.09" y="-141.7" font-family="Times New Roman,serif" font-size="14.00">Remote</text>
<text xml:space="preserve" text-anchor="middle" x="258.09" y="-125.2" font-family="Times New Roman,serif" font-size="14.00">Users</text>
</g>
<!-- Sites&#45;&gt;ISP -->
<g id="edge7" class="edge">
<title>Sites&#45;&gt;ISP</title>
<path fill="none" stroke="orange" d="M258.09,-97.41C258.09,-81.03 258.09,-62.47 258.09,-47.52"/>
<polygon fill="orange" stroke="orange" points="254.59,-97.3 258.09,-107.3 261.59,-97.3 254.59,-97.3"/>
<polygon fill="orange" stroke="orange" points="261.59,-47.92 258.09,-37.92 254.59,-47.92 261.59,-47.92"/>
</g>
</g>
</svg>
