<?xml version="1.0" encoding="UTF-8" standalone="no"?>
<!DOCTYPE svg PUBLIC "-//W3C//DTD SVG 1.1//EN"
 "http://www.w3.org/Graphics/SVG/1.1/DTD/svg11.dtd">
<!-- Generated by graphviz version 14.1.3 (20260303.0454)
 -->
<!-- Title: g Pages: 1 -->
<svg width="481pt" height="179pt"
 viewBox="0.00 0.00 481.00 179.00" xmlns="http://www.w3.org/2000/svg" xmlns:xlink="http://www.w3.org/1999/xlink">
<g id="graph0" class="graph" transform="scale(1 1) rotate(0) translate(4 175.25)">
<title>g</title>
<polygon fill="white" stroke="none" points="-4,4 -4,-175.25 477.25,-175.25 477.25,4 -4,4"/>
<!-- System1 -->
<g id="node1" class="node">
<title>System1</title>
<polygon fill="none" stroke="black" points="63.25,-171.25 0,-171.25 0,-108 63.25,-108 63.25,-171.25"/>
<text xml:space="preserve" text-anchor="middle" x="31.62" y="-134.57" font-family="Times New Roman,serif" font-size="14.00">System1</text>
</g>
<!-- ISP -->
<g id="node4" class="node">
<title>ISP</title>
<polygon fill="none" stroke="black" points="254.62,-36 218.62,-36 218.62,0 254.62,0 254.62,-36"/>
<text xml:space="preserve" text-anchor="middle" x="236.62" y="-12.95" font-family="Times New Roman,serif" font-size="14.00">ISP</text>
</g>
<!-- System1&#45;&gt;ISP -->
<g id="edge1" class="edge">
<title>System1&#45;&gt;ISP</title>
<path fill="none" stroke="orange" d="M73.57,-114.15C113.94,-90.59 173.86,-55.62 208.71,-35.29"/>
<polygon fill="orange" stroke="orange" points="71.84,-111.11 64.96,-119.17 75.36,-117.15 71.84,-111.11"/>
<polygon fill="orange" stroke="orange" points="210.07,-38.55 216.94,-30.48 206.54,-32.5 210.07,-38.55"/>
</g>
<!-- Sites -->
<g id="node2" class="node">
<title>Sites</title>
<polygon fill="none" stroke="black" points="266,-169 207.25,-169 207.25,-110.25 266,-110.25 266,-169"/>
<text xml:space="preserve" text-anchor="middle" x="236.62" y="-142.82" font-family="Times New Roman,serif" font-size="14.00">Remote</text>
<text xml:space="preserve" text-anchor="middle" x="236.62" y="-126.33" font-family="Times New Roman,serif" font-size="14.00">Users</text>
</g>
<!-- Sites&#45;&gt;ISP -->
<g id="edge2" class="edge">
<title>Sites&#45;&gt;ISP</title>
<path fill="none" stroke="orange" d="M236.62,-98.67C236.62,-81.96 236.62,-62.92 236.62,-47.64"/>
<polygon fill="orange" stroke="orange" points="233.13,-98.46 236.63,-108.46 240.13,-98.46 233.13,-98.46"/>
<polygon fill="orange" stroke="orange" points="240.13,-47.83 236.63,-37.83 233.13,-47.83 240.13,-47.83"/>
</g>
<!-- System2 -->
<g id="node3" class="node">
<title>System2</title>
<polygon fill="none" stroke="black" points="473.25,-171.25 410,-171.25 410,-108 473.25,-108 473.25,-171.25"/>
<text xml:space="preserve" text-anchor="middle" x="441.62" y="-134.57" font-family="Times New Roman,serif" font-size="14.00">System2</text>
</g>
<!-- System2&#45;&gt;ISP -->
<g id="edge3" class="edge">
<title>System2&#45;&gt;ISP</title>
<path fill="none" stroke="orange" d="M399.68,-114.15C359.31,-90.59 299.39,-55.62 264.54,-35.29"/>
<polygon fill="orange" stroke="orange" points="397.89,-117.15 408.29,-119.17 401.41,-111.11 397.89,-117.15"/>
<polygon fill="orange" stroke="orange" points="266.71,-32.5 256.31,-30.48 263.18,-38.55 266.71,-32.5"/>
</g>
</g>
</svg>
